<?xml version="1.0" standalone="no"?>
<!DOCTYPE svg PUBLIC "-//W3C//DTD SVG 1.1//EN" "http://www.w3.org/Graphics/SVG/1.1/DTD/svg11.dtd" >
<svg>
<metadata>
Created by FontForge 20090914 at Mon Jul  5 08:20:34 2021
 By www-data
Copyright (c) 2020 Fontwerk GmbH. All rights reserved.
</metadata>
<defs>
<font id="Pangea-Medium" horiz-adv-x="0" >
  <font-face 
    font-family="Pangea Medium"
    font-weight="500"
    font-stretch="normal"
    units-per-em="1000"
    panose-1="2 11 6 4 0 0 0 0 0 0"
    ascent="770"
    descent="-230"
    x-height="511"
    cap-height="700"
    bbox="-483 -228.003 1236 1062"
    underline-thickness="50"
    underline-position="-50"
    unicode-range="U+000D-U+1F16F"
  />
<missing-glyph horiz-adv-x="801" 
d="M118 -111v922h565v-922h-565zM579 709h-357v-718h357v718z" />
    <glyph glyph-name="f_f" unicode="ff" horiz-adv-x="659" 
d="M99 511v31c0 51.333 14 92 42 122s67.667 45 119 45h66v-96h-53c-42 0 -63 -25 -63 -75v-27h94v-91h-94v-420h-111v420h-82v91h82zM649 613h-52.999c-42 0 -63 -25 -63 -75v-27h116v-91h-116v-420h-111v420h-78v91h78v31c0 51.333 14.167 92 42.5 122
s68.166 45 119.499 45h65v-96z" />
    <glyph glyph-name="f_f_t" unicode="fft" horiz-adv-x="992" 
d="M99 511v31c0 51.333 14 92 42 122s67.667 45 119 45h66v-96h-53c-42 0 -63 -25 -63 -75v-27h94v-91h-94v-420h-111v420h-82v91h82zM422 511l0.000976562 31c0 51.333 14.167 92 42.5 122s68.166 45 119.499 45h65v-96h-53c-42 0 -63 -25 -63 -75v-27h94v-91h-94v-420
h-111v420h-78v91h78zM972.001 511v-91h-116v-247c0 -51.333 21 -77 63 -77h53v-96h-66c-51.333 0 -91 15 -119 45s-42 70.333 -42 121v254h-77v91h77v104l111 64v-168h116z" />
    <glyph glyph-name="f_t" unicode="ft" horiz-adv-x="668" 
d="M99 511v31c0 51.333 14 92 42 122s67.667 45 119 45h66v-96h-53c-42 0 -63 -25 -63 -75v-27h94v-91h-94v-420h-111v420h-82v91h82zM649 511v-91h-116v-247c0 -51.333 20.667 -77 62 -77h54v-96h-66c-51.333 -0 -91 14.833 -119 44.5s-42 70.167 -42 121.5v254h-78v91h78
v104l111 64v-168h116z" />
    <glyph glyph-name="t_t" unicode="tt" horiz-adv-x="691" 
d="M217 420v-247c0 -51.333 20.667 -77 62 -77h54v-96h-66c-51.333 -0 -91 14.833 -119 44.5s-42 70.167 -42 121.5v254h-95v91h95v104l111 64v-168h102v-91h-102zM671 511v-91h-116v-247c0 -51.333 21 -77 63 -77h53v-96h-66c-51.333 0 -91 15 -119 45s-42 70.333 -42 121
v254h-82v91h82v104l111 64v-168h116z" />
    <glyph glyph-name=".notdef" horiz-adv-x="801" 
d="M118 -111v922h565v-922h-565zM579 709h-357v-718h357v718z" />
    <glyph glyph-name="CR" unicode="&#xd;" horiz-adv-x="198" 
 />
    <glyph glyph-name="space" unicode=" " horiz-adv-x="198" 
 />
    <glyph glyph-name="exclam" unicode="!" horiz-adv-x="241" 
d="M161 237h-81l-16 135v328h113v-328zM120 -11c-22 0 -40 7.16699 -54 21.5s-21 32.833 -21 55.5c0 22 7 40.167 21 54.5s32 21.5 54 21.5s40.167 -7.16699 54.5 -21.5s21.5 -32.5 21.5 -54.5c0 -22.667 -7.16699 -41.167 -21.5 -55.5s-32.5 -21.5 -54.5 -21.5z" />
    <glyph glyph-name="quotedbl" unicode="&#x22;" horiz-adv-x="394" 
d="M28 533v167h109v-167l-14 -102h-82zM223 533v167h109v-167l-14 -102h-82z" />
    <glyph glyph-name="numbersign" unicode="#" horiz-adv-x="634" 
d="M605 530v-91h-95l-18 -174h86v-92h-95l-18 -173h-101l17 173h-165l-18 -173h-101l18 173h-86v92h95l18 174h-86v91h95l17 170h101l-17 -170h165l17 170h102l-17 -170h86zM225 265h166l17 174h-165z" />
    <glyph glyph-name="dollar" unicode="$" horiz-adv-x="650" 
d="M605 194c0 -56.667 -20.4971 -103.169 -61.4971 -139.502s-96.833 -57.5 -167.5 -63.5v-80h-92v81c-63.333 7.33301 -116 29 -158 65s-70.667 86 -86 150l106 33c19.333 -80 66.666 -127.667 141.999 -143v208l-27 7c-128 34.667 -192 101.334 -192 200.001
c0 53.333 19.667 97.833 59 133.5s91.333 56.834 156 63.501v76h91v-77c59.333 -8 108.666 -29.333 147.999 -64s64.333 -81 75 -139l-105 -27c-14.667 69.333 -55.334 111 -122.001 125v-199l22 -6c141.333 -36.667 212 -104.667 212 -204zM189.003 519.998
c0 -24 8.16895 -43 24.502 -57s41.166 -26 74.499 -36v178c-30.667 -4.66699 -54.834 -14.5 -72.501 -29.5s-26.5 -33.5 -26.5 -55.5zM371.005 281.998v-187.002c35.333 4 63.333 14 84 30s31 36 31 60c0 22.667 -9 41.334 -27 56.001s-47.333 28.334 -88 41.001z" />
    <glyph glyph-name="percent" unicode="%" horiz-adv-x="772" 
d="M189 383c-47.333 0 -86.666 15.667 -117.999 47s-47 70.333 -47 117s15.667 85.667 47 117s70.666 47 117.999 47s86.5 -15.5 117.5 -46.5s46.5 -70.167 46.5 -117.5s-15.5 -86.5 -46.5 -117.5s-70.167 -46.5 -117.5 -46.5zM202 0h-102l470 700h102zM189 462
c23.333 0 42.666 8 57.999 24s23 36.333 23 61c0 24 -7.66699 44 -23 60s-34.666 24 -57.999 24c-22.667 0 -41.667 -8 -57 -24s-23 -36 -23 -60c0 -24.667 7.5 -45 22.5 -61s34.167 -24 57.5 -24zM583 -11c-47.333 0 -86.666 15.667 -117.999 47s-47 70.333 -47 117
s15.667 85.667 47 117s70.666 47 117.999 47s86.5 -15.5 117.5 -46.5s46.5 -70.167 46.5 -117.5s-15.5 -86.5 -46.5 -117.5s-70.167 -46.5 -117.5 -46.5zM583 68c23.333 0 42.666 8 57.999 24s23 36.333 23 61c0 24 -7.66699 44 -23 60s-34.666 24 -57.999 24
c-22.667 0 -41.667 -8 -57 -24s-23 -36 -23 -60c0 -24.667 7.5 -45 22.5 -61s34.167 -24 57.5 -24z" />
    <glyph glyph-name="ampersand" unicode="&#x26;" horiz-adv-x="670" 
d="M503 164l155.001 -163.999h-147l-67 71c-46.667 -54.667 -112 -82 -196 -82c-65.333 0 -116.833 16.333 -154.5 49s-56.5 76.334 -56.5 131.001c0 68.667 41.667 135.334 125 200.001c-30.667 33.333 -52.5 62.666 -65.5 87.999s-19.5 53.666 -19.5 84.999
c0 48.667 17.333 89 52 121s79.334 48 134.001 48c55.333 0 100.833 -15.667 136.5 -47s58.5 -73.333 68.5 -126l-99 -30c-8 34 -21.5 60 -40.5 78s-40.833 27 -65.5 27c-22.667 0 -40.834 -7 -54.501 -21s-20.5 -32.333 -20.5 -55c0 -19.333 9.16699 -40.333 27.5 -63
s65.166 -74 140.499 -154l71 -75c5.33301 19.333 8 39.333 8 60v127h200v-97h-103v-43c0 -44.667 -9.66699 -87.334 -29 -128.001zM255.001 89.001c51.333 0 92.333 20.001 123 60.001l-144 151c-54 -44.667 -81 -85.334 -81 -122.001c0 -26.667 9.5 -48.167 28.5 -64.5
s43.5 -24.5 73.5 -24.5z" />
    <glyph glyph-name="quotesingle" unicode="'" horiz-adv-x="199" 
d="M45 533v167h109v-167l-14 -102h-81z" />
    <glyph glyph-name="parenleft" unicode="(" horiz-adv-x="304" 
d="M293 -84l-71 -79c-59.333 51.333 -105.833 116.5 -139.5 195.5s-50.5 162.833 -50.5 251.5s16.833 172.5 50.5 251.5s80.167 144.167 139.5 195.5l71 -79c-47.333 -48 -83.333 -103.833 -108 -167.5s-37 -130.5 -37 -200.5s12.333 -136.833 37 -200.5
s60.667 -119.5 108 -167.5z" />
    <glyph glyph-name="parenright" unicode=")" horiz-adv-x="304" 
d="M11 653l71 78c59.333 -50.667 105.833 -115.667 139.5 -195s50.5 -163.333 50.5 -252s-16.833 -172.5 -50.5 -251.5s-80.167 -143.833 -139.5 -194.5l-71 78c47.333 48 83.333 103.833 108 167.5s37 130.5 37 200.5s-12.333 137 -37 201s-60.667 120 -108 168z" />
    <glyph glyph-name="asterisk" unicode="*" horiz-adv-x="350" 
d="M211 401h-70l2 89l-77 -47l-35 62l81 44l-83 45l35 62l78 -48l-2 92h70l-2 -92l78 48l35 -62l-83 -45l82 -44l-36 -62l-75 46z" />
    <glyph glyph-name="plus" unicode="+" horiz-adv-x="600" 
d="M346 328h139v-93h-139v-144h-94v144h-137v93h137v143h94v-143z" />
    <glyph glyph-name="comma" unicode="," horiz-adv-x="219" 
d="M109 142c22 0 40 -7.5 54 -22.5s21 -33.833 21 -56.5c0 -22 -7.33301 -49 -22 -81l-60 -142l-66 28l53 123c-16.667 4.66699 -30 13.667 -40 27s-15 29.333 -15 48c0 22 7 40.167 21 54.5s32 21.5 54 21.5z" />
    <glyph glyph-name="hyphen" unicode="-" horiz-adv-x="364" 
d="M51 332h262v-102h-262v102z" />
    <glyph glyph-name="period" unicode="." horiz-adv-x="215" 
d="M107 -11c-22 0 -40 7.16699 -54 21.5s-21 32.833 -21 55.5c0 22 7 40.167 21 54.5s32 21.5 54 21.5s40.167 -7.16699 54.5 -21.5s21.5 -32.5 21.5 -54.5c0 -22.667 -7.16699 -41.167 -21.5 -55.5s-32.5 -21.5 -54.5 -21.5z" />
    <glyph glyph-name="slash" unicode="/" horiz-adv-x="516" 
d="M388 785h113l-372 -870h-113z" />
    <glyph glyph-name="zero" unicode="0" horiz-adv-x="616" 
d="M308 711c80.667 0 145.667 -31.167 195 -93.5s74 -151.833 74 -268.5c0 -115.333 -24.667 -204.166 -74 -266.499s-114.333 -93.5 -195 -93.5s-145.667 31.167 -195 93.5s-74 151.166 -74 266.499c0 116.667 24.667 206.167 74 268.5s114.333 93.5 195 93.5zM308 607
c-100.667 0 -151 -85.667 -151 -257s50.333 -257 151 -257c100 0 150 85.667 150 257s-50 257 -150 257z" />
    <glyph glyph-name="one" unicode="1" horiz-adv-x="298" 
d="M29 700h204v-700h-112v598h-92v102z" />
    <glyph glyph-name="two" unicode="2" horiz-adv-x="525" 
d="M381 309l-191 -207h297v-102h-449v87l260 286c23.333 26 40.333 48.5 51 67.5s16 41.167 16 66.5c0 28.667 -10.167 52.334 -30.5 71.001s-46.166 28 -77.499 28c-70.667 0 -115.334 -42 -134.001 -126l-100 31c5.33301 25.333 13.166 49.166 23.499 71.499
s24.5 43.5 42.5 63.5s41.333 35.833 70 47.5s61.334 17.5 98.001 17.5c69.333 0 124.333 -18.667 165 -56s61 -85.333 61 -144c0 -27.333 -5.66699 -54.5 -17 -81.5s-23 -48.167 -35 -63.5s-28.667 -34.333 -50 -57z" />
    <glyph glyph-name="three" unicode="3" horiz-adv-x="553" 
d="M492 609l-184.999 -191.002c67.333 -6.66699 119.666 -28.5 156.999 -65.5s56 -84.167 56 -141.5c0 -67.333 -24 -121.166 -72 -161.499s-109.667 -60.5 -185 -60.5c-56.667 0 -106.834 12.833 -150.501 38.5s-77.167 64.834 -100.5 117.501l90 55
c34.667 -70.667 89.334 -106 164.001 -106c38.667 0 70.834 10 96.501 30s38.5 48 38.5 84c0 37.333 -13.833 66 -41.5 86s-64.834 30 -111.501 30h-80v87l180 187h-292v102h436v-91z" />
    <glyph glyph-name="four" unicode="4" horiz-adv-x="569" 
d="M448 266h94v-101h-94v-165h-113v165h-318v112l327 423h104v-434zM335 528l-204 -262h204v262z" />
    <glyph glyph-name="five" unicode="5" horiz-adv-x="554" 
d="M302 447c66 0 118.834 -22.167 158.501 -66.5s59.5 -96.833 59.5 -157.5c0 -71.333 -24.5 -128.166 -73.5 -170.499s-109.5 -63.5 -181.5 -63.5c-111.333 0 -194.333 52 -249 156l89 59c40 -73.333 93.333 -110 160 -110c42 0 75.333 11.667 100 35s37 53.666 37 90.999
c0 38 -11.833 68.833 -35.5 92.5s-55.834 35.5 -96.501 35.5c-50 0 -88.667 -19 -116 -57h-91l67 409h372v-102h-285l-32 -190c32 26 71 39 117 39z" />
    <glyph glyph-name="six" unicode="6" horiz-adv-x="546" 
d="M301 441c62.667 0 115.666 -21.168 158.999 -63.501s65 -94.5 65 -156.5c0 -66 -23.667 -121.167 -71 -165.5s-106.666 -66.5 -177.999 -66.5s-130.5 21.833 -177.5 65.5s-70.5 98.167 -70.5 163.5c0 60.667 21.333 120.334 64 179.001l223 303h137l-205 -266
c18.667 4.66699 36.667 7 54 7zM275.999 93.999c38 0 69.167 11.5 93.5 34.5s36.5 52.833 36.5 89.5c0 36 -12.333 65.667 -37 89s-55.667 35 -93 35c-38 0 -69.167 -11.667 -93.5 -35s-36.5 -53 -36.5 -89c0 -36.667 12 -66.5 36 -89.5s55.333 -34.5 94 -34.5z" />
    <glyph glyph-name="seven" unicode="7" horiz-adv-x="495" 
d="M26 598v102h454v-87l-327 -613h-126l319 598h-320z" />
    <glyph glyph-name="eight" unicode="8" horiz-adv-x="578" 
d="M418 370c83.333 -33.333 124.999 -91 124.999 -173c0 -64 -24.167 -114.667 -72.5 -152s-108.833 -56 -181.5 -56s-133 18.667 -181 56s-72 88 -72 152c0 82 41.333 139.667 124 173c-66 30.667 -99 81 -99 151c0 57.333 21.833 103.333 65.5 138s97.834 52 162.501 52
s119 -17.333 163 -52s66 -80.667 66 -138c0 -70 -33.333 -120.333 -100 -151zM288.999 610c-32.667 0 -59.667 -8.5 -81 -25.5s-32 -40.5 -32 -70.5c0 -30.667 10.667 -54.5 32 -71.5s48.333 -25.5 81 -25.5s59.834 8.5 81.501 25.5s32.5 40.833 32.5 71.5
c0 30 -10.833 53.5 -32.5 70.5s-48.834 25.5 -81.501 25.5zM288.999 90c39.333 0 72 10.167 98 30.5s39 48.833 39 85.5s-13.167 65.167 -39.5 85.5s-58.833 30.5 -97.5 30.5s-71 -10.167 -97 -30.5s-39 -48.833 -39 -85.5s13 -65.167 39 -85.5s58.333 -30.5 97 -30.5z" />
    <glyph glyph-name="nine" unicode="9" horiz-adv-x="547" 
d="M270 709c71.333 0 130.668 -21.832 178.001 -65.499s71 -97.834 71 -162.501c0 -60 -21 -118.667 -63 -176l-224 -306h-138l204 266c-14 -4.66699 -31.667 -7 -53 -7c-62.667 0 -115.667 21 -159 63s-65 94 -65 156c0 66 23.667 121.167 71 165.5
s106.666 66.5 177.999 66.5zM270.002 357.001c38 0 69.167 11.667 93.5 35s36.5 53 36.5 89c0 36.667 -12 66.5 -36 89.5s-55.333 34.5 -94 34.5c-38 0 -69.167 -11.667 -93.5 -35s-36.5 -53 -36.5 -89s12.333 -65.667 37 -89s55.667 -35 93 -35z" />
    <glyph glyph-name="colon" unicode=":" horiz-adv-x="246" 
d="M123 369c-22 0 -40 7.16699 -54 21.5s-21 32.833 -21 55.5c0 22 7 40.167 21 54.5s32 21.5 54 21.5s40 -7.16699 54 -21.5s21 -32.5 21 -54.5c0 -22.667 -7 -41.167 -21 -55.5s-32 -21.5 -54 -21.5zM123 -11c-22 0 -40 7.16699 -54 21.5s-21 32.833 -21 55.5
c0 22 7 40.167 21 54.5s32 21.5 54 21.5s40 -7.16699 54 -21.5s21 -32.5 21 -54.5c0 -22.667 -7 -41.167 -21 -55.5s-32 -21.5 -54 -21.5z" />
    <glyph glyph-name="semicolon" unicode=";" horiz-adv-x="254" 
d="M126 369c-22 0 -40 7.16699 -54 21.5s-21 32.833 -21 55.5c0 22 7 40.167 21 54.5s32 21.5 54 21.5s40.167 -7.16699 54.5 -21.5s21.5 -32.5 21.5 -54.5c0 -22.667 -7.16699 -41.167 -21.5 -55.5s-32.5 -21.5 -54.5 -21.5zM128 142c22 0 40.167 -7.5 54.5 -22.5
s21.5 -33.833 21.5 -56.5c0 -19.333 -7.33301 -46.333 -22 -81l-60 -142l-67 28l53 123c-16.667 4.66699 -30 13.667 -40 27s-15 29.333 -15 48c0 22 7 40.167 21 54.5s32 21.5 54 21.5z" />
    <glyph glyph-name="less" unicode="&#x3c;" horiz-adv-x="600" 
d="M113 323l347 169v-107l-228 -103l228 -104v-105l-347 167v83z" />
    <glyph glyph-name="equal" unicode="=" horiz-adv-x="600" 
d="M115 430h370v-93h-370v93zM115 228h370v-94h-370v94z" />
    <glyph glyph-name="greater" unicode="&#x3e;" horiz-adv-x="600" 
d="M140 386v105l347 -168v-82l-347 -169v107l228 104z" />
    <glyph glyph-name="question" unicode="?" horiz-adv-x="519" 
d="M298 237l-102.998 -0.000976562c-0.666992 26 1.66602 49.167 6.99902 69.5s14.166 38.166 26.499 53.499s23 27 32 35s21.5 18 37.5 30c22 16 38.5 31 49.5 45s16.5 31.667 16.5 53c0 24.667 -9.5 44.167 -28.5 58.5s-43.833 21.5 -74.5 21.5
c-69.333 0 -116 -40.667 -140 -122l-102 35c18 60.667 47.667 108.334 89 143.001s94 52 158 52c66.667 0 120 -17.167 160 -51.5s60 -79.833 60 -136.5c0 -22.667 -2.83301 -43.167 -8.5 -61.5s-15 -34.666 -28 -48.999s-24.667 -25.833 -35 -34.5
s-24.833 -19.667 -43.5 -33c-17.333 -12.667 -30.5 -23 -39.5 -31s-17 -18.667 -24 -32s-10.167 -28.333 -9.5 -45zM244.002 -11.001c-22 0 -40 7.16699 -54 21.5s-21 32.833 -21 55.5c0 22 7 40.167 21 54.5s32 21.5 54 21.5s40 -7.16699 54 -21.5s21 -32.5 21 -54.5
c0 -22.667 -7 -41.167 -21 -55.5s-32 -21.5 -54 -21.5z" />
    <glyph glyph-name="at" unicode="@" horiz-adv-x="859" 
d="M538 427l90.001 0.00195312l-39 -206c-5.33301 -28.667 -3.5 -51.667 5.5 -69s24.167 -26 45.5 -26c24 0 44.167 13 60.5 39s24.5 63.333 24.5 112c0 80 -28.167 145.833 -84.5 197.5s-126.833 77.5 -211.5 77.5c-86 0 -156.833 -28.333 -212.5 -85
s-83.5 -131.334 -83.5 -224.001s27 -167.667 81 -225s121.333 -86 202 -86s144.667 26.333 192 79l69 -61c-34.667 -40 -73.167 -67.833 -115.5 -83.5s-90.833 -23.5 -145.5 -23.5c-110 0 -201.5 37.667 -274.5 113s-109.5 171 -109.5 287
c0 116.667 37.5 212.167 112.5 286.5s169.833 111.5 284.5 111.5c114 0 208.333 -34.667 283 -104s112 -156 112 -260c0 -69.333 -17.833 -126.333 -53.5 -171s-81.167 -67 -136.5 -67c-37.333 0 -67 9 -89 27s-37 40.333 -45 67c-34.667 -50.667 -78.334 -76 -131.001 -76
c-42 0 -76.5 15.333 -103.5 46s-40.5 69.667 -40.5 117c0 59.333 19 111.166 57 155.499s82.333 66.5 133 66.5c58 0 95 -25 111 -75zM397.001 146.002c28.667 0 53.166 12.166 73.499 36.499s30.5 53.833 30.5 88.5c0 24.667 -6.5 44.334 -19.5 59.001s-30.833 22 -53.5 22
c-28.667 0 -53 -12.167 -73 -36.5s-30 -53.5 -30 -87.5c0 -25.333 6.33301 -45.333 19 -60s30.334 -22 53.001 -22z" />
    <glyph glyph-name="A" unicode="A" horiz-adv-x="668" 
d="M669 0h-125l-72 192h-278l-72 -192h-121l277 700h113zM333 560l-102 -270h204z" />
    <glyph glyph-name="B" unicode="B" horiz-adv-x="635" 
d="M474 371c42 -13.333 74.833 -35.165 98.5 -65.498s35.5 -66.166 35.5 -107.499c0 -64.667 -22 -113.834 -66 -147.501s-106 -50.5 -186 -50.5h-293v700h270c75.333 0 133.833 -15.667 175.5 -47s62.5 -78 62.5 -140c0 -32.667 -8.66699 -61.334 -26 -86.001
s-41 -43.334 -71 -56.001zM325 598.001l-145 -0.000976562v-187h145c40 0 70.833 6.83301 92.5 20.5s32.5 37.834 32.5 72.501s-10.833 59 -32.5 73s-52.5 21 -92.5 21zM180 102h172c90 0 135 35.333 135 106s-45 106 -135 106h-172v-212z" />
    <glyph glyph-name="C" unicode="C" horiz-adv-x="706" 
d="M381 -11c-102.667 0 -186.5 33.333 -251.5 100s-97.5 153.667 -97.5 261s32.5 194.333 97.5 261s148.833 100 251.5 100c74.667 0 139.334 -19 194.001 -57s93.667 -91.667 117 -161l-108 -41c-16.667 47.333 -42.667 84.333 -78 111s-77 40 -125 40
c-66.667 0 -121.167 -22.833 -163.5 -68.5s-63.5 -107.167 -63.5 -184.5s21.167 -138.833 63.5 -184.5s96.833 -68.5 163.5 -68.5c48 0 89.667 13.333 125 40s61.333 63.667 78 111l108 -41c-23.333 -69.333 -62.333 -123 -117 -161s-119.334 -57 -194.001 -57z" />
    <glyph glyph-name="D" unicode="D" horiz-adv-x="714" 
d="M331 700c105.333 0 190.166 -31.833 254.499 -95.5s96.5 -148.5 96.5 -254.5s-32.167 -190.833 -96.5 -254.5s-149.166 -95.5 -254.499 -95.5h-268v700h268zM180 105h145c76 0 134.167 21.667 174.5 65s60.5 103.333 60.5 180s-20.167 136.667 -60.5 180
s-98.5 65 -174.5 65h-145v-490z" />
    <glyph glyph-name="E" unicode="E" horiz-adv-x="581" 
d="M546 700v-105h-366v-188h325v-102h-325v-200h366v-105h-483v700h483z" />
    <glyph glyph-name="F" unicode="F" horiz-adv-x="563" 
d="M541 700v-105h-362v-206h318v-105h-318v-284h-116v700h478z" />
    <glyph glyph-name="G" unicode="G" horiz-adv-x="739" 
d="M378 378l328.999 0.000976562c1.33301 -10 2 -24.667 2 -44c0 -106.667 -31 -190.834 -93 -252.501s-141.333 -92.5 -238 -92.5c-98.667 0 -181 33.333 -247 100s-99 153.667 -99 261c0 108 32.667 195.167 98 261.5s148.666 99.5 249.999 99.5
c67.333 0 129.333 -17.5 186 -52.5s98.334 -85.833 125.001 -152.5l-101 -53c-42 100 -112.333 150 -211 150c-65.333 0 -119.166 -22.833 -161.499 -68.5s-63.5 -107.167 -63.5 -184.5c0 -76.667 21.5 -138 64.5 -184s96.167 -69 159.5 -69c60.667 0 109 16 145 48
s57.667 77.333 65 136h-210v97z" />
    <glyph glyph-name="H" unicode="H" horiz-adv-x="699" 
d="M520 406v294h117v-700h-117v301h-341v-301h-116v700h116v-294h341z" />
    <glyph glyph-name="I" unicode="I" horiz-adv-x="243" 
d="M63 700h117v-700h-117v700z" />
    <glyph glyph-name="J" unicode="J" horiz-adv-x="500" 
d="M215 -11c-101.333 0 -172.998 49 -214.998 147l94 51c23.333 -60 62.666 -90 117.999 -90c35.333 0 63.166 11 83.499 33s30.5 54 30.5 96v474h116v-479c0 -74 -20.667 -131.167 -62 -171.5s-96.333 -60.5 -165 -60.5z" />
    <glyph glyph-name="K" unicode="K" horiz-adv-x="630" 
d="M308 356l341 -356h-157l-312 328v-328h-117v700h117v-327l294 327h151z" />
    <glyph glyph-name="L" unicode="L" horiz-adv-x="528" 
d="M180 700v-595h336v-105h-453v700h117z" />
    <glyph glyph-name="M" unicode="M" horiz-adv-x="798" 
d="M401 385l225 315h109v-700h-116v510l-209 -287h-21l-210 287v-510h-116v700h109z" />
    <glyph glyph-name="N" unicode="N" horiz-adv-x="719" 
d="M539 700h117v-700h-107l-370 505v-505h-116v700h106l370 -505v505z" />
    <glyph glyph-name="O" unicode="O" horiz-adv-x="771" 
d="M386 -11c-104.667 0 -190 33.333 -256 100s-99 153.667 -99 261s33 194.333 99 261s151.333 100 256 100s189.834 -33.333 255.501 -100s98.5 -153.667 98.5 -261s-32.833 -194.333 -98.5 -261s-150.834 -100 -255.501 -100zM386 97c68 0 123.667 22.833 167 68.5
s65 107.167 65 184.5s-21.667 138.833 -65 184.5s-99 68.5 -167 68.5c-68.667 0 -124.667 -22.833 -168 -68.5s-65 -107.167 -65 -184.5s21.667 -138.833 65 -184.5s99.333 -68.5 168 -68.5z" />
    <glyph glyph-name="P" unicode="P" horiz-adv-x="609" 
d="M326 700c82 0 146.166 -20.5 192.499 -61.5s69.5 -96.833 69.5 -167.5c0 -70 -23.167 -125.167 -69.5 -165.5s-110.166 -60.5 -191.499 -60.5h-148v-245h-116v700h263zM178.999 347h139c46.667 0 82.834 10.5 108.501 31.5s38.5 51.833 38.5 92.5
s-12.833 71.5 -38.5 92.5s-61.834 31.5 -108.501 31.5h-139v-248z" />
    <glyph glyph-name="Q" unicode="Q" horiz-adv-x="771" 
d="M740 350c0 -108 -34 -196 -102 -264l92 -115l-85 -66l-95 119c-48.667 -23.333 -103.334 -35 -164.001 -35c-104.667 0 -190 33.333 -256 100s-99 153.667 -99 261s33 194.333 99 261s151.333 100 256 100s189.834 -33.333 255.501 -100s98.5 -153.667 98.5 -261zM386 97
c32.667 0 63.333 5.66797 92 17.001l-79 99l85 66l80 -101c36 45.333 54 102.666 54 171.999c0 77.333 -21.667 138.833 -65 184.5s-99 68.5 -167 68.5c-68.667 0 -124.667 -22.833 -168 -68.5s-65 -107.167 -65 -184.5s21.667 -138.833 65 -184.5s99.333 -68.5 168 -68.5z
" />
    <glyph glyph-name="R" unicode="R" horiz-adv-x="641" 
d="M630 0l-141 -0.00195312l-195 261h-115v-261h-116v700h276c77.333 0 138.5 -19.667 183.5 -59s67.5 -93.666 67.5 -162.999c0 -52.667 -15.167 -97.167 -45.5 -133.5s-71.833 -61.166 -124.5 -74.499zM332 594.998l-153 -0.000976562v-234h153
c43.333 0 76.833 10 100.5 30s35.5 49 35.5 87c0 38.667 -11.833 67.834 -35.5 87.501s-57.167 29.5 -100.5 29.5z" />
    <glyph glyph-name="S" unicode="S" horiz-adv-x="613" 
d="M312 -11c-76.667 0 -140.499 18.332 -191.499 54.999s-84.833 91 -101.5 163l105 33c11.333 -46 33.166 -82 65.499 -108s73.166 -39 122.499 -39c46.667 0 83.667 8.33301 111 25s41 39 41 67c0 24.667 -11 44.834 -33 60.501s-59 30.5 -111 44.5l-80 22
c-128.667 34.667 -193 101.334 -193 200.001c0 58.667 23.5 106.5 70.5 143.5s108.5 55.5 184.5 55.5c72.667 0 133.5 -17.833 182.5 -53.5s79.5 -86.5 91.5 -152.5l-105 -27c-9.33301 43.333 -28.833 75.666 -58.5 96.999s-66.167 32 -109.5 32
c-41.333 0 -74.333 -7.83301 -99 -23.5s-37 -36.834 -37 -63.501s9.83301 -47.167 29.5 -61.5s50.834 -27.166 93.501 -38.499l81 -22c141.333 -36.667 212 -104.667 212 -204c0 -62 -24.333 -111.667 -73 -149s-114.667 -56 -198 -56z" />
    <glyph glyph-name="T" unicode="T" horiz-adv-x="579" 
d="M12 700h555v-105h-219v-595h-117v595h-219v105z" />
    <glyph glyph-name="U" unicode="U" horiz-adv-x="685" 
d="M513 700h116.999v-413c0 -94.667 -26.167 -168 -78.5 -220s-121.833 -78 -208.5 -78c-87.333 0 -157.166 26 -209.499 78s-78.5 125.333 -78.5 220v413h118v-407c0 -64.667 15.333 -113.5 46 -146.5s72 -49.5 124 -49.5s93.333 16.5 124 49.5s46 81.833 46 146.5v407z
" />
    <glyph glyph-name="V" unicode="V" horiz-adv-x="651" 
d="M327 155l200 545h121l-266 -700h-113l-266 700h124z" />
    <glyph glyph-name="W" unicode="W" horiz-adv-x="977" 
d="M708 183l145 517h118l-207 -700h-109l-166 506l-167 -506h-109l-207 700h121l144 -517l166 517h104z" />
    <glyph glyph-name="X" unicode="X" horiz-adv-x="637" 
d="M126 0h-134l259 354l-251 346h136l183 -251l184 251h134l-251 -344l258 -356h-136l-190 261z" />
    <glyph glyph-name="Y" unicode="Y" horiz-adv-x="676" 
d="M535 700h132l-270 -372v-328h-117v328l-274 372h137l196 -260z" />
    <glyph glyph-name="Z" unicode="Z" horiz-adv-x="569" 
d="M541 609l-368 -504h371v-105h-521v91l368 504h-360v105h510v-91z" />
    <glyph glyph-name="bracketleft" unicode="[" horiz-adv-x="308" 
d="M286 700v-99h-114v-633h114v-100h-224v832h224z" />
    <glyph glyph-name="backslash" unicode="\" horiz-adv-x="516" 
d="M386 -85l-372 870h114l372 -870h-114z" />
    <glyph glyph-name="bracketright" unicode="]" horiz-adv-x="307" 
d="M245 701v-832h-224v99h113v633h-113v100h224z" />
    <glyph glyph-name="asciicircum" unicode="^" horiz-adv-x="600" 
d="M336 700l182 -323h-108l-111 203l-111 -203h-106l182 323h72z" />
    <glyph glyph-name="underscore" unicode="_" horiz-adv-x="460" 
d="M0 -38h460v-84h-460v84z" />
    <glyph glyph-name="grave" unicode="`" horiz-adv-x="455" 
d="M242 717l88 -137h-109l-104 137h125z" />
    <glyph glyph-name="a" unicode="a" horiz-adv-x="532" 
d="M259 522c64 0 117.503 -17.1689 160.503 -51.502s64.5 -84.5 64.5 -150.5v-320h-104v50c-31.333 -40.667 -83 -61 -155 -61c-58.667 0 -106.667 14.167 -144 42.5s-56 66.833 -56 115.5s19.167 87.334 57.5 116.001s88.166 43 149.499 43
c63.333 0 110.666 -16.667 141.999 -50v53c0 38.667 -10.667 67.334 -32 86.001s-50.333 28 -87 28c-30.667 0 -56.5 -7.83301 -77.5 -23.5s-36.167 -37.5 -45.5 -65.5l-93 37c14.667 50 41.667 87.667 81 113s85.666 38 138.999 38zM258.003 71.998
c35.333 0 63.833 6.66699 85.5 20s32.5 32 32.5 56c0 24.667 -10.833 43.667 -32.5 57s-50.167 20 -85.5 20s-64 -6.66699 -86 -20s-33 -32.333 -33 -57c0 -24 11 -42.667 33 -56s50.667 -20 86 -20z" />
    <glyph glyph-name="b" unicode="b" horiz-adv-x="592" 
d="M330 522c66 0 121.167 -25.168 165.5 -75.501s66.5 -113.833 66.5 -190.5c0 -77.333 -22.167 -141.166 -66.5 -191.499s-99.5 -75.5 -165.5 -75.5c-73.333 0 -129 31.667 -167 95v-84h-111v700h111v-273c38 63.333 93.667 95 167 95zM305 87.999
c43.333 0 78.166 15 104.499 45s39.5 71 39.5 123s-13.167 92.667 -39.5 122s-61.166 44 -104.499 44c-42.667 0 -77.334 -14.833 -104.001 -44.5s-40 -70.167 -40 -121.5c0 -52 13.333 -93 40 -123s61.334 -45 104.001 -45z" />
    <glyph glyph-name="c" unicode="c" horiz-adv-x="539" 
d="M282 -11c-72.667 0 -132.833 24.8311 -180.5 74.498s-71.5 113.834 -71.5 192.501c0 78 24 141.833 72 191.5s108 74.5 180 74.5c57.333 0 107.333 -14.667 150 -44s73 -74.333 91 -135l-99 -36c-24.667 77.333 -72 116 -142 116c-39.333 0 -72.333 -14.667 -99 -44
s-40 -70.333 -40 -123c0 -53.333 13.333 -94.666 40 -123.999s59.667 -44 99 -44c70 0 117.333 38.667 142 116l99 -36c-18 -60.667 -48.333 -105.667 -91 -135s-92.667 -44 -150 -44z" />
    <glyph glyph-name="d" unicode="d" horiz-adv-x="592" 
d="M429 427v273.001h110v-700h-110v84c-38 -63.333 -93.667 -95 -167 -95c-66.667 0 -122 25.167 -166 75.5s-66 114.166 -66 191.499c0 76.667 22 140.167 66 190.5s99.333 75.5 166 75.5c73.333 0 129 -31.667 167 -95zM287 88.001c42.667 0 77.334 15 104.001 45
s40 71 40 123c0 51.333 -13.333 91.833 -40 121.5s-61.334 44.5 -104.001 44.5c-43.333 0 -78.333 -14.833 -105 -44.5s-40 -70.167 -40 -121.5c0 -52 13.333 -93 40 -123s61.667 -45 105 -45z" />
    <glyph glyph-name="e" unicode="e" horiz-adv-x="545" 
d="M515 259c0 -12.667 -0.333008 -21.999 -1 -27.999h-372c4 -48 18.167 -84.333 42.5 -109s55.5 -37 93.5 -37c68 0 115.333 34.333 142 103l94 -36c-20.667 -55.333 -51.5 -96.333 -92.5 -123s-88.167 -40 -141.5 -40c-73.333 0 -133.333 24.667 -180 74
s-70 113.666 -70 192.999s23 143.5 69 192.5s105.333 73.5 178 73.5c70 0 127.167 -24.333 171.5 -73s66.5 -112 66.5 -190zM276 430.001c-72 0 -115.667 -40 -131 -120h256c-6.66699 40 -21 70 -43 90s-49.333 30 -82 30z" />
    <glyph glyph-name="f" unicode="f" horiz-adv-x="336" 
d="M326 613h-53c-42 0 -63 -25 -63 -75v-27h116v-91h-116v-420h-111v420h-82v91h82v31c0 51.333 14 92 42 122s67.667 45 119 45h66v-96z" />
    <glyph glyph-name="g" unicode="g" horiz-adv-x="556" 
d="M283 -185c-89.333 0 -155.832 12.166 -199.499 36.499s-65.5 54.833 -65.5 91.5c0 47.333 28.333 81 85 101c-50 19.333 -75 50 -75 92c0 26 8.83301 47.5 26.5 64.5s42.5 28.833 74.5 35.5c-47.333 29.333 -71 69.333 -71 120c0 49.333 21 89.333 63 120
s95.333 46 160 46c42 0 71.167 0.166992 87.5 0.5s39.166 3 68.499 8s54.333 12.5 75 22.5l33 -86c-30.667 -12.667 -64 -21.667 -100 -27c37.333 -22.667 56 -55 56 -97c0 -45.333 -21 -82 -63 -110s-97 -42 -165 -42c-47.333 0 -82.5 -2.33301 -105.5 -7
s-34.5 -15.667 -34.5 -33c0 -15.333 12.5 -25.166 37.5 -29.499s59.5 -6.5 103.5 -6.5h28c80.667 0 141.5 -13.5 182.5 -40.5s61.5 -63.167 61.5 -108.5c0 -46 -21.833 -82.667 -65.5 -110s-109.5 -41 -197.5 -41zM281.001 276.999c34.667 0 62 6.83301 82 20.5
s30 32.834 30 57.501s-10 43.834 -30 57.501s-47.333 20.5 -82 20.5s-62.167 -6.83301 -82.5 -20.5s-30.5 -32.834 -30.5 -57.501s10.167 -43.834 30.5 -57.501s47.833 -20.5 82.5 -20.5zM283.001 -101.001c96.667 0 145 20 145 60c0 39.333 -48.333 59 -145 59
c-98.667 0 -148 -19.667 -148 -59c0 -40 49.333 -60 148 -60z" />
    <glyph glyph-name="h" unicode="h" horiz-adv-x="542" 
d="M310 522c54 0 98.333 -18.167 133 -54.5s52 -83.833 52 -142.5v-325h-111v307c0 36 -9.5 64.5 -28.5 85.5s-43.833 31.5 -74.5 31.5c-35.333 0 -63.833 -11 -85.5 -33s-32.5 -51.667 -32.5 -89v-302h-111v700h111v-261c30.667 55.333 79.667 83 147 83z" />
    <glyph glyph-name="i" unicode="i" horiz-adv-x="215" 
d="M109 586c-21.333 0 -39 6.16699 -53 18.5s-21 29.166 -21 50.499s7 38.333 21 51s31.667 19 53 19c20.667 0 38 -6.33301 52 -19s21 -29.667 21 -51s-6.83301 -38.166 -20.5 -50.499s-31.167 -18.5 -52.5 -18.5zM52 511h111v-511h-111v511z" />
    <glyph glyph-name="j" unicode="j" horiz-adv-x="215" 
d="M109 586c-21.333 0 -39 6.16699 -53 18.5s-21 29.166 -21 50.499s7 38.333 21 51s31.667 19 53 19c20.667 0 38 -6.33301 52 -19s21 -29.667 21 -51s-6.83301 -38.166 -20.5 -50.499s-31.167 -18.5 -52.5 -18.5zM52 511h111v-531c0 -50 -12.333 -88.667 -37 -116
s-58 -41 -100 -41h-34v104h17c28.667 0 43 19.667 43 59v525z" />
    <glyph glyph-name="k" unicode="k" horiz-adv-x="495" 
d="M281 271l224 -271h-136l-205 255v-255h-112v700h112v-418l199 229h136z" />
    <glyph glyph-name="l" unicode="l" horiz-adv-x="263" 
d="M253 0h-58c-46 0 -81.167 13 -105.5 39s-36.5 61.333 -36.5 106v555h111v-548c0 -37.333 16.667 -56 50 -56h39v-96z" />
    <glyph glyph-name="m" unicode="m" horiz-adv-x="824" 
d="M599 521c52 0 94.666 -17.167 127.999 -51.5s50 -79.833 50 -136.5v-333h-111v312c0 34.667 -8.33301 62 -25 82s-38.667 30 -66 30c-31.333 0 -56.666 -10.333 -75.999 -31s-29 -49 -29 -85v-308h-111v312c0 34.667 -8.33301 62 -25 82s-38.667 30 -66 30
c-31.333 0 -56.666 -10.333 -75.999 -31s-29 -49 -29 -85v-308h-111v511h111v-68c28.667 52 73.667 78 135 78c32.667 0 62.167 -7.83301 88.5 -23.5s46.833 -37.5 61.5 -65.5c29.333 59.333 79.666 89 150.999 89z" />
    <glyph glyph-name="n" unicode="n" horiz-adv-x="542" 
d="M310 522c54 0 98.333 -18.167 133 -54.5s52 -83.833 52 -142.5v-325h-111v307c0 36 -9.5 64.5 -28.5 85.5s-43.833 31.5 -74.5 31.5c-35.333 0 -63.833 -11 -85.5 -33s-32.5 -51.667 -32.5 -89v-302h-111v511h111v-72c30.667 55.333 79.667 83 147 83z" />
    <glyph glyph-name="o" unicode="o" horiz-adv-x="580" 
d="M290 -11c-75.333 0 -137.666 24.833 -186.999 74.5s-74 113.834 -74 192.501c0 78 24.667 141.833 74 191.5s111.666 74.5 186.999 74.5s137.666 -24.833 186.999 -74.5s74 -113.5 74 -191.5c0 -78.667 -24.667 -142.834 -74 -192.501s-111.666 -74.5 -186.999 -74.5z
M290 88c43.333 0 78.833 15 106.5 45s41.5 71 41.5 123c0 51.333 -13.833 91.833 -41.5 121.5s-63.167 44.5 -106.5 44.5s-78.666 -14.833 -105.999 -44.5s-41 -70.167 -41 -121.5c0 -52 13.667 -93 41 -123s62.666 -45 105.999 -45z" />
    <glyph glyph-name="p" unicode="p" horiz-adv-x="592" 
d="M330 522c66 0 121.167 -25.168 165.5 -75.501s66.5 -113.833 66.5 -190.5c0 -77.333 -22.167 -141.166 -66.5 -191.499s-99.5 -75.5 -165.5 -75.5c-73.333 0 -129 31.667 -167 95v-251h-111v678h111v-84c38 63.333 93.667 95 167 95zM305 87.999
c43.333 0 78.166 14.833 104.499 44.5s39.5 70.5 39.5 122.5s-13.167 92.833 -39.5 122.5s-61.166 44.5 -104.499 44.5c-42.667 0 -77.334 -14.833 -104.001 -44.5s-40 -70.5 -40 -122.5s13.333 -92.833 40 -122.5s61.334 -44.5 104.001 -44.5z" />
    <glyph glyph-name="q" unicode="q" horiz-adv-x="592" 
d="M429 427v84.001h110v-678h-110v251c-38 -63.333 -93.667 -95 -167 -95c-66.667 0 -122 25.167 -166 75.5s-66 114.166 -66 191.499c0 76.667 22 140.167 66 190.5s99.333 75.5 166 75.5c73.333 0 129 -31.667 167 -95zM287 88.001c42.667 0 77.334 14.833 104.001 44.5
s40 70.5 40 122.5s-13.333 92.833 -40 122.5s-61.334 44.5 -104.001 44.5c-43.333 0 -78.333 -14.833 -105 -44.5s-40 -70.5 -40 -122.5s13.333 -92.833 40 -122.5s61.667 -44.5 105 -44.5z" />
    <glyph glyph-name="r" unicode="r" horiz-adv-x="339" 
d="M298 522h28.001v-118h-52c-32.667 0 -59.334 -12 -80.001 -36s-31 -56.333 -31 -97v-271h-111v511h111v-79c28.667 60 73.667 90 135 90z" />
    <glyph glyph-name="s" unicode="s" horiz-adv-x="489" 
d="M250 -11c-56.667 0 -105.669 13.833 -147.002 41.5s-68.666 69.5 -81.999 125.5l90 29c8 -34.667 24.333 -60.834 49 -78.501s54.334 -26.5 89.001 -26.5c32 0 57.333 5.5 76 16.5s28 25.167 28 42.5c0 16.667 -7.66699 29.667 -23 39s-41 18.333 -77 27l-50 13
c-56.667 14 -98 33.5 -124 58.5s-39 57.167 -39 96.5c0 44 18 79.667 54 107s84 41 144 41c58 0 106.833 -14.333 146.5 -43s62.834 -69 69.501 -121l-93 -23c-11.333 63.333 -52.333 95 -123 95c-27.333 0 -49.333 -5 -66 -15s-25 -23 -25 -39
c0 -17.333 8.33301 -30.666 25 -39.999s42.667 -18.333 78 -27l51 -12c106 -26.667 159 -77.667 159 -153c0 -45.333 -19.333 -82.333 -58 -111s-89.334 -43 -152.001 -43z" />
    <glyph glyph-name="t" unicode="t" horiz-adv-x="352" 
d="M333 511v-91h-116v-247c0 -51.333 20.667 -77 62 -77h54v-96h-66c-51.333 -0 -91 14.833 -119 44.5s-42 70.167 -42 121.5v254h-95v91h95v104l111 64v-168h116z" />
    <glyph glyph-name="u" unicode="u" horiz-adv-x="537" 
d="M269 -11c-65.333 0 -118.666 19.333 -159.999 58s-62 91.667 -62 159v305h111v-298c0 -40.667 10.167 -71.5 30.5 -92.5s47.166 -31.5 80.499 -31.5s60 10.5 80 31.5s30 51.833 30 92.5v298h111v-305c0 -67.333 -20.5 -120.333 -61.5 -159s-94.167 -58 -159.5 -58z" />
    <glyph glyph-name="v" unicode="v" horiz-adv-x="519" 
d="M261 149l135 362h118l-202 -511h-104l-204 511h121z" />
    <glyph glyph-name="w" unicode="w" horiz-adv-x="763" 
d="M539 159l100 352h116l-159 -511h-108l-107 349l-107 -349h-107l-159 511h117l100 -354l109 354h96z" />
    <glyph glyph-name="x" unicode="x" horiz-adv-x="508" 
d="M319 261l195 -261h-132l-129 173l-130 -173h-129l195 259l-188 252h132l122 -164l123 164h129z" />
    <glyph glyph-name="y" unicode="y" horiz-adv-x="521" 
d="M266 216l137 295h122l-317 -678h-121l122 261l-201 417h126z" />
    <glyph glyph-name="z" unicode="z" horiz-adv-x="472" 
d="M440 428l-270 -332h275v-96h-421v80l273 334h-262v97h405v-83z" />
    <glyph glyph-name="braceleft" unicode="{" horiz-adv-x="345" 
d="M317 603l-34 -0.00292969c-23.333 0 -42.666 -9.66699 -57.999 -29s-19 -44 -11 -74l20 -56c13.333 -36.667 10.5 -69.167 -8.5 -97.5s-49.5 -48.833 -91.5 -61.5c42 -13.333 72.5 -34.166 91.5 -62.499s21.833 -60.833 8.5 -97.5l-20 -56
c-8 -30.667 -4.33301 -55.5 11 -74.5s34.666 -28.5 57.999 -28.5h34v-97h-44c-59.333 0 -107.166 19.833 -143.499 59.5s-44.833 88.5 -25.5 146.5l20 57c10.667 30.667 4.66699 55.834 -18 75.501s-52.334 29.5 -89.001 29.5v95c36.667 0 66.5 9.83301 89.5 29.5
s28.833 44.5 17.5 74.5l-20 57c-19.333 58.667 -11 107.834 25 147.501s84 59.5 144 59.5h44v-97z" />
    <glyph glyph-name="bar" unicode="|" horiz-adv-x="233" 
d="M62 760h109v-893h-109v893z" />
    <glyph glyph-name="braceright" unicode="}" horiz-adv-x="345" 
d="M328 332l0.000976562 -94.9971c-36.667 0 -66.5 -9.83301 -89.5 -29.5s-29.167 -44.5 -18.5 -74.5l21 -57c19.333 -58.667 11 -107.834 -25 -147.501s-84 -59.5 -144 -59.5h-45v97h35c23.333 0 42.666 9.66699 57.999 29s18.666 44 9.99902 74l-19 56
c-13.333 36.667 -10.5 69.167 8.5 97.5s49.5 48.833 91.5 61.5c-42 13.333 -72.5 34.166 -91.5 62.499s-21.833 60.833 -8.5 97.5l19 56c8.66699 30.667 5.33398 55.5 -9.99902 74.5s-34.666 28.5 -57.999 28.5h-35v97h45c59.333 0 107.166 -19.833 143.499 -59.5
s44.833 -88.5 25.5 -146.5l-21 -57c-10.667 -30.667 -4.5 -55.834 18.5 -75.501s52.833 -29.5 89.5 -29.5z" />
    <glyph glyph-name="asciitilde" unicode="~" horiz-adv-x="600" 
d="M376 208c-27.333 0 -55.333 9.16699 -84 27.5s-48.334 27.5 -59.001 27.5c-24 0 -36 -16.333 -36 -49h-93c0 44.667 12.167 79.5 36.5 104.5s52.833 37.5 85.5 37.5c26.667 0 54.334 -9 83.001 -27s48.667 -27 60 -27c24 0 36 16 36 48h93
c0 -44.667 -12.167 -79.5 -36.5 -104.5s-52.833 -37.5 -85.5 -37.5z" />
    <glyph glyph-name="uni00A0" unicode="&#xa0;" horiz-adv-x="198" 
 />
    <glyph glyph-name="exclamdown" unicode="&#xa1;" horiz-adv-x="228" 
d="M114 522c22 0 40 -7.33301 54 -22s21 -33 21 -55s-7 -40.167 -21 -54.5s-32 -21.5 -54 -21.5s-40 7.16699 -54 21.5s-21 32.5 -21 54.5s7 40.333 21 55s32 22 54 22zM73 273h82l15 -134v-328h-113v328z" />
    <glyph glyph-name="cent" unicode="&#xa2;" horiz-adv-x="650" 
d="M373 513v-326c48 12 82 49.333 102 112l99 -36c-30 -101.333 -94.667 -160 -194 -176v-87h-92v88c-61.333 10 -111.166 38.833 -149.499 86.5s-57.5 106.167 -57.5 175.5s19.167 127.833 57.5 175.5s88.166 76.5 149.499 86.5v90h92v-89c99.333 -16 164 -74.667 194 -176
l-99 -36c-20 62.667 -54 100 -102 112zM194 350c0 -43.333 9.5 -79 28.5 -107s43.5 -46.333 73.5 -55v324c-30 -8.66699 -54.5 -27 -73.5 -55s-28.5 -63.667 -28.5 -107z" />
    <glyph glyph-name="sterling" unicode="&#xa3;" horiz-adv-x="650" 
d="M304 254c0 -60.667 -24.667 -110.002 -74 -148.002h344v-106h-491v91c37.333 24 63 48.667 77 74s21 53.333 21 84c0 12.667 -2.33301 28.334 -7 47.001h-100v85h71c-19.333 52.667 -29 95.334 -29 128.001c0 64.667 22 114.667 66 150s99.333 53 166 53
c61.333 0 112.333 -16.167 153 -48.5s67.334 -78.833 80.001 -139.5l-106 -31c-16 72.667 -58.333 109 -127 109c-32 0 -58.333 -8.66699 -79 -26s-31 -42.666 -31 -75.999c0 -6 0.5 -12.5 1.5 -19.5s2.16699 -13 3.5 -18s3.5 -11.833 6.5 -20.5l6.5 -18.5
c1.33301 -3.66699 4.16602 -10.834 8.49902 -21.501l8.5 -21h181v-85h-154c2.66699 -18.667 4 -32.667 4 -42z" />
    <glyph glyph-name="currency" unicode="&#xa4;" horiz-adv-x="650" 
d="M514 352c0 -37.333 -9.66699 -72.667 -29 -106l91 -92l-60 -61l-91 92c-31.333 -19.333 -64.666 -29 -99.999 -29s-68.666 9.66699 -99.999 29l-91 -92l-60 61l91 93c-19.333 32 -29 67 -29 105c0 36.667 9.66699 71 29 103l-91 92l60 61l91 -92
c31.333 19.333 64.666 29 99.999 29s68.666 -9.66699 99.999 -29l90 92l61 -61l-91 -92c19.333 -32 29 -66.333 29 -103zM221 351.999c0 -31.333 10 -57.666 30 -78.999s44.667 -32 74 -32s54 10.667 74 32s30 47.666 30 78.999c0 30 -10.167 55.5 -30.5 76.5
s-44.833 31.5 -73.5 31.5c-29.333 0 -54 -10.5 -74 -31.5s-30 -46.5 -30 -76.5z" />
    <glyph glyph-name="yen" unicode="&#xa5;" horiz-adv-x="650" 
d="M499 700h132l-241 -358h146v-77h-152v-77h152v-77h-152v-111h-117v111h-152v77h152v77h-152v77h148l-244 358h136l172 -263z" />
    <glyph glyph-name="brokenbar" unicode="&#xa6;" horiz-adv-x="233" 
d="M62 760h109v-377h-109v377zM62 245h109v-378h-109v378z" />
    <glyph glyph-name="section" unicode="&#xa7;" horiz-adv-x="568" 
d="M453 163c45.333 -30 67.998 -72.001 67.998 -126.001c0 -51.333 -21.167 -93.166 -63.5 -125.499s-98.833 -48.5 -169.5 -48.5c-62 0 -115.833 14.833 -161.5 44.5s-76.834 74.834 -93.501 135.501l94 37c6.66699 -39.333 24.667 -69.5 54 -90.5s65 -31.5 107 -31.5
c37.333 0 66.833 6.5 88.5 19.5s32.5 30.167 32.5 51.5c0 36 -36.333 61.333 -109 76l-85 19c-57.333 12 -100.666 31.667 -129.999 59s-44 60 -44 98c0 56.667 27 100 81 130c-41.333 30 -62 72.667 -62 128c0 50.667 20 92 60 124s92 48 156 48
c58.667 0 109.334 -15 152.001 -45s71.334 -72.667 86.001 -128l-93 -36c-8 37.333 -24.833 65.666 -50.5 84.999s-56.5 29 -92.5 29c-32.667 0 -58.5 -6.33301 -77.5 -19s-28.5 -29.667 -28.5 -51c0 -20 7 -34.667 21 -44s36.667 -18.333 68 -27l88 -22
c123.333 -28 185 -82 185 -162c0 -54 -27 -96.667 -81 -128zM264.998 226.999l83.999 -21.0039c6.66699 -1.33301 11.334 -2.66602 14.001 -3.99902c39.333 14.667 59 39.334 59 74.001c0 18.667 -9.66699 33.834 -29 45.501s-50.333 21.834 -93 30.501l-89 21
c-39.333 -14 -59 -38.333 -59 -73c0 -20.667 8.33301 -35.5 25 -44.5s46 -18.5 88 -28.5z" />
    <glyph glyph-name="dieresis" unicode="&#xa8;" horiz-adv-x="485" 
d="M135 577c-20 0 -36.5 6 -49.5 18s-19.5 28.333 -19.5 49s6.5 37 19.5 49s29.5 18 49.5 18c19.333 0 35.5 -6 48.5 -18s19.5 -28.333 19.5 -49s-6.5 -37 -19.5 -49s-29.167 -18 -48.5 -18zM352 577c-20 0 -36.5 6 -49.5 18s-19.5 28.333 -19.5 49s6.5 37 19.5 49
s29.5 18 49.5 18c19.333 0 35.5 -6 48.5 -18s19.5 -28.333 19.5 -49s-6.5 -37 -19.5 -49s-29.167 -18 -48.5 -18z" />
    <glyph glyph-name="copyright" unicode="&#xa9;" horiz-adv-x="866" 
d="M432 755c112 0 207.167 -38.333 285.5 -115s117.5 -171.667 117.5 -285c0 -114 -39.167 -209.5 -117.5 -286.5s-173.5 -115.5 -285.5 -115.5s-206.833 38.5 -284.5 115.5s-116.5 172.5 -116.5 286.5c0 113.333 38.833 208.333 116.5 285s172.5 115 284.5 115zM432 672
c-88 0 -162.5 -30.167 -223.5 -90.5s-91.5 -136.166 -91.5 -227.499c0 -90.667 30.5 -166.5 91.5 -227.5s135.5 -91.5 223.5 -91.5s162.667 30.5 224 91.5s92 136.833 92 227.5c0 91.333 -30.5 167.166 -91.5 227.499s-135.833 90.5 -224.5 90.5zM440 139
c-62 0 -112.667 20.167 -152 60.5s-59 92.5 -59 156.5s19.667 116.333 59 157s90 61 152 61c46.667 0 86.667 -11.833 120 -35.5s56.666 -57.167 69.999 -100.5l-82 -30c-19.333 56 -55.333 84 -108 84c-34.667 0 -62.834 -12.167 -84.501 -36.5s-32.5 -57.5 -32.5 -99.5
s10.833 -75 32.5 -99s49.834 -36 84.501 -36c52.667 0 88.667 27.667 108 83l82 -29c-13.333 -44 -36.666 -77.667 -69.999 -101s-73.333 -35 -120 -35z" />
    <glyph glyph-name="ordfeminine" unicode="&#xaa;" horiz-adv-x="336" 
d="M163 711c36.667 0 67.166 -9.33203 91.499 -27.999s36.5 -45.334 36.5 -80.001v-172h-73v25c-17.333 -21.333 -44.666 -32 -81.999 -32c-32.667 0 -58.5 7.66699 -77.5 23s-28.5 35.666 -28.5 60.999c0 24.667 10.167 44.834 30.5 60.501s47.833 23.5 82.5 23.5
c29.333 0 52.333 -7.33301 69 -22v25c0 31.333 -17.333 47 -52 47c-26 0 -44.333 -9.33301 -55 -28l-63 25c18 48 58.333 72 121 72zM160.999 476.001c35.333 0 53 11 53 33c0 10 -4.83301 18 -14.5 24s-22.5 9 -38.5 9s-28.833 -3 -38.5 -9s-14.5 -14 -14.5 -24
c0 -22 17.667 -33 53 -33z" />
    <glyph glyph-name="guillemotleft" unicode="&#xab;" horiz-adv-x="535" 
d="M197 490l74 -65l-126 -143l126 -144l-74 -65l-180 208zM418 490l74 -65l-126 -143l126 -144l-74 -65l-180 208z" />
    <glyph glyph-name="logicalnot" unicode="&#xac;" horiz-adv-x="600" 
d="M492 143h-94v139h-303v93h397v-232z" />
    <glyph glyph-name="uni00AD" unicode="&#xad;" horiz-adv-x="364" 
d="M51 332h262v-102h-262v102z" />
    <glyph glyph-name="registered" unicode="&#xae;" horiz-adv-x="442" 
d="M221 711c54 0 100.002 -18.5 138.002 -55.5s57 -82.5 57 -136.5c0 -54.667 -18.833 -100.5 -56.5 -137.5s-83.834 -55.5 -138.501 -55.5s-100.834 18.5 -138.501 55.5s-56.5 82.833 -56.5 137.5c0 54 19 99.5 57 136.5s84 55.5 138 55.5zM221.002 377
c39.333 0 72.668 13.499 100.001 40.499s41 60.833 41 101.5s-13.667 74.334 -41 101.001s-61 40 -101 40c-38.667 0 -71.667 -13.5 -99 -40.5s-41 -60.5 -41 -100.5c0 -40.667 13.667 -74.5 41 -101.5s60.666 -40.5 99.999 -40.5zM308.004 551.999
c0 -27.333 -14.333 -45.667 -43 -55l46 -78h-61l-38 72h-11v-72h-55v201h83c24.667 0 44 -6 58 -18s21 -28.667 21 -50zM227.004 574.998h-26v-41h26c16 0 24 6.66699 24 20c0 14 -8 21 -24 21z" />
    <glyph glyph-name="macron" unicode="&#xaf;" horiz-adv-x="422" 
d="M372 599h-322v92h322v-92z" />
    <glyph glyph-name="degree" unicode="&#xb0;" horiz-adv-x="382" 
d="M191 711c47.333 0 86.5 -15.5 117.5 -46.5s46.5 -70.167 46.5 -117.5s-15.5 -86.5 -46.5 -117.5s-70.167 -46.5 -117.5 -46.5s-86.666 15.5 -117.999 46.5s-47 70.167 -47 117.5s15.667 86.5 47 117.5s70.666 46.5 117.999 46.5zM191 631c-22.667 0 -41.667 -8 -57 -24
s-23 -36 -23 -60c0 -24.667 7.5 -45 22.5 -61s34.167 -24 57.5 -24s42.5 8 57.5 24s22.5 36.333 22.5 61c0 24 -7.66699 44 -23 60s-34.333 24 -57 24z" />
    <glyph glyph-name="plusminus" unicode="&#xb1;" horiz-adv-x="600" 
d="M346 523v-127h139v-94h-139v-122h-94v122h-137v94h137v127h94zM485 14h-370v93h370v-93z" />
    <glyph glyph-name="uni00B2" unicode="&#xb2;" horiz-adv-x="319" 
d="M231 491l-86.999 -83h143v-74h-255v67l137 138c20 20 30 38.333 30 55c0 11.333 -4 20.5 -12 27.5s-18.667 10.5 -32 10.5c-30.667 0 -50.334 -18.333 -59.001 -55l-73 24c5.33301 29.333 18.666 54.5 39.999 75.5s52 31.5 92 31.5c42.667 0 75.334 -10.167 98.001 -30.5
s34 -46.833 34 -79.5c0 -35.333 -18.667 -71 -56 -107z" />
    <glyph glyph-name="uni00B3" unicode="&#xb3;" horiz-adv-x="343" 
d="M295 631l-85 -77c68 -12 102 -47.333 102 -106c0 -37.333 -13.167 -66.666 -39.5 -87.999s-61.833 -32 -106.5 -32c-71.333 0 -119.666 26.333 -144.999 79l63 46c20 -33.333 47 -50 81 -50c18 0 32.333 3.83301 43 11.5s16 18.5 16 32.5
c0 15.333 -6.33301 27.166 -19 35.499s-29.334 12.5 -50.001 12.5h-41v56l81 75h-150v74h250v-69z" />
    <glyph glyph-name="acute" unicode="&#xb4;" horiz-adv-x="313" 
d="M158 580h-108l88 137h125z" />
    <glyph glyph-name="uni00B5" unicode="&#xb5;" horiz-adv-x="561" 
d="M391 209v302h111v-511h-111v74c-25.333 -56.667 -68 -85 -128 -85c-38.667 0 -69.667 11.667 -93 35v-191h-111v678h111v-307c0 -36.667 9.5 -65.5 28.5 -86.5s43.833 -31.5 74.5 -31.5c35.333 0 63.833 11 85.5 33s32.5 52 32.5 90z" />
    <glyph glyph-name="paragraph" unicode="&#xb6;" horiz-adv-x="546" 
d="M472 700v-867h-82v787h-78v-787h-81v489c-68 1.33301 -119.833 17.833 -155.5 49.5s-53.5 78.5 -53.5 140.5c0 124 69.667 186.667 209 188h241z" />
    <glyph glyph-name="periodcentered" unicode="&#xb7;" horiz-adv-x="230" 
d="M115 205c-22 0 -40 7.33301 -54 22s-21 33 -21 55c0 22.667 7 41.167 21 55.5s32 21.5 54 21.5s40 -7.16699 54 -21.5s21 -32.833 21 -55.5c0 -22 -7 -40.333 -21 -55s-32 -22 -54 -22z" />
    <glyph glyph-name="cedilla" unicode="&#xb8;" horiz-adv-x="407" 
d="M193 -176l-78 0.000976562v94h46c19.333 0 29 7.33301 29 22c0 9.33301 -5 19.666 -15 30.999l-27 29l71 7l33 -29c26 -23.333 39 -48.333 39 -75c0 -22 -8.66699 -40.667 -26 -56s-41.333 -23 -72 -23z" />
    <glyph glyph-name="uni00B9" unicode="&#xb9;" horiz-adv-x="216" 
d="M20 700h148v-366h-83v292h-65v74z" />
    <glyph glyph-name="ordmasculine" unicode="&#xba;" horiz-adv-x="346" 
d="M173 711c42 0 77 -13.333 105 -40s42 -61 42 -103s-14 -76.5 -42 -103.5s-63 -40.5 -105 -40.5c-42.667 0 -77.834 13.5 -105.501 40.5s-41.5 61.5 -41.5 103.5s13.833 76.333 41.5 103s62.834 40 105.501 40zM173 640c-19.333 0 -35 -6.33301 -47 -19
s-18 -30.334 -18 -53.001c0 -23.333 6 -41.5 18 -54.5s27.667 -19.5 47 -19.5s35.166 6.5 47.499 19.5s18.5 31.167 18.5 54.5c0 22.667 -6.16699 40.334 -18.5 53.001s-28.166 19 -47.499 19z" />
    <glyph glyph-name="guillemotright" unicode="&#xbb;" horiz-adv-x="535" 
d="M44 425l74 65l180 -209l-180 -208l-74 65l125 144zM264 425l74 65l180 -209l-180 -208l-74 65l126 144z" />
    <glyph glyph-name="onequarter" unicode="&#xbc;" horiz-adv-x="702" 
d="M20 700h148v-366h-83v292h-65v74zM466 700h99l-428 -700h-100zM627 0h-83v75h-167v80l172 211h78v-217h47v-74h-47v-75zM547 254l-88 -109h88v109z" />
    <glyph glyph-name="onehalf" unicode="&#xbd;" horiz-adv-x="703" 
d="M168 334h-83v292h-65v74h148v-366zM37 0l429 700h99l-428 -700h-100zM615 157l-85.999 -83h142v-74h-255v66l137 139c20 20 30 38.333 30 55c0 10.667 -4 19.667 -12 27s-18.667 11 -32 11c-30.667 0 -50.334 -18.333 -59.001 -55l-73 24
c5.33301 29.333 18.666 54.5 39.999 75.5s52 31.5 92 31.5c42.667 0 75.334 -10.167 98.001 -30.5s34 -46.833 34 -79.5c0 -35.333 -18.667 -71 -56 -107z" />
    <glyph glyph-name="threequarters" unicode="&#xbe;" horiz-adv-x="816" 
d="M312 448c0 -37.333 -13.167 -66.666 -39.5 -87.999s-61.833 -32 -106.5 -32c-71.333 0 -119.666 26.333 -144.999 79l63 46c20 -33.333 47 -50 81 -50c18 0 32.333 3.83301 43 11.5s16 18.5 16 32.5c0 15.333 -6.33301 27.166 -19 35.499s-29.334 12.5 -50.001 12.5h-41
v56l81 75h-150v74h250v-69l-85 -77c68 -12 102 -47.333 102 -106zM152 0l429 700h99l-428 -700h-100zM741 366v-217h47v-74h-47v-75h-83v75h-167v80l172 211h78zM573 145h88v109z" />
    <glyph glyph-name="questiondown" unicode="&#xbf;" horiz-adv-x="513" 
d="M271 522c22 0 40 -7.33301 54 -22s21 -33 21 -55s-7 -40.167 -21 -54.5s-32 -21.5 -54 -21.5s-40.167 7.16699 -54.5 21.5s-21.5 32.5 -21.5 54.5s7.16699 40.333 21.5 55s32.5 22 54.5 22zM217 274l103 0.000976562c0.666992 -34 -4.83301 -64.167 -16.5 -90.5
s-23.667 -45.5 -36 -57.5s-29.166 -25.333 -50.499 -40c-22 -15.333 -38.5 -30.333 -49.5 -45s-16.5 -32.334 -16.5 -53.001c0 -25.333 9.5 -45.166 28.5 -59.499s43.833 -21.5 74.5 -21.5c68.667 0 115.334 41 140.001 123l101 -36
c-17.333 -60.667 -46.833 -108.334 -88.5 -143.001s-94.167 -52 -157.5 -52c-66.667 0 -120.167 17.167 -160.5 51.5s-60.5 80.166 -60.5 137.499c0 22.667 2.83301 43 8.5 61s15 34.333 28 49s24.667 26.167 35 34.5s25.166 19.5 44.499 33.5c17.333 12 30.333 22 39 30
s16.667 18.833 24 32.5s10.666 28.834 9.99902 45.501z" />
    <glyph glyph-name="Agrave" unicode="&#xc0;" horiz-adv-x="668" 
d="M316 907l89 -138h-109l-104 138h124zM669 0h-125l-72 192h-278l-72 -192h-121l277 700h113zM333 560l-102 -270h204z" />
    <glyph glyph-name="Aacute" unicode="&#xc1;" horiz-adv-x="668" 
d="M352 907h125l-105 -138h-108zM669 0h-125l-72 192h-278l-72 -192h-121l277 700h113zM333 560l-102 -270h204z" />
    <glyph glyph-name="Acircumflex" unicode="&#xc2;" horiz-adv-x="668" 
d="M394 770l-58 68l-59 -68h-119l128 137h99l128 -137h-119zM669 0h-125l-72 192h-278l-72 -192h-121l277 700h113zM333 560l-102 -270h204z" />
    <glyph glyph-name="Atilde" unicode="&#xc3;" horiz-adv-x="668" 
d="M285 819c-20 0 -30 -14.999 -30 -44.999h-90c0 40 11.333 72 34 96s49 36 79 36c20 0 37.5 -4.33301 52.5 -13s27.667 -17.167 38 -25.5s19.5 -12.5 27.5 -12.5c19.333 0 29 15.333 29 46h91c0 -40 -11.333 -72 -34 -96s-49 -36 -79 -36c-20 0 -37.5 4.16699 -52.5 12.5
s-27.667 16.666 -38 24.999s-19.5 12.5 -27.5 12.5zM669 0.000976562h-125l-72 192h-278l-72 -192h-121l277 700h113zM333 560.001l-102 -270h204z" />
    <glyph glyph-name="Adieresis" unicode="&#xc4;" horiz-adv-x="668" 
d="M226 766c-20 0 -36.5 6 -49.5 18s-19.5 28.333 -19.5 49s6.5 37 19.5 49s29.5 18 49.5 18c19.333 0 35.5 -6 48.5 -18s19.5 -28.333 19.5 -49s-6.5 -37 -19.5 -49s-29.167 -18 -48.5 -18zM443 766c-20 0 -36.5 6 -49.5 18s-19.5 28.333 -19.5 49s6.5 37 19.5 49
s29.5 18 49.5 18c19.333 0 35.5 -6 48.5 -18s19.5 -28.333 19.5 -49s-6.5 -37 -19.5 -49s-29.167 -18 -48.5 -18zM669 0h-125l-72 192h-278l-72 -192h-121l277 700h113zM333 560l-102 -270h204z" />
    <glyph glyph-name="Aring" unicode="&#xc5;" horiz-adv-x="668" 
d="M335 749c-37.333 0 -68 10.333 -92 31s-36 47 -36 79c0 31.333 12 57.5 36 78.5s54.667 31.5 92 31.5s68 -10.5 92 -31.5s36 -47.167 36 -78.5c0 -32 -12 -58.333 -36 -79s-54.667 -31 -92 -31zM335 903c-16 0 -28.667 -4.16699 -38 -12.5s-14 -18.833 -14 -31.5
c0 -13.333 4.66699 -24.166 14 -32.499s22 -12.5 38 -12.5s28.667 4.16699 38 12.5s14 19.166 14 32.499c0 12.667 -4.66699 23.167 -14 31.5s-22 12.5 -38 12.5zM669 0h-125l-72 192h-278l-72 -192h-121l277 700h113zM333 560l-102 -270h204z" />
    <glyph glyph-name="AE" unicode="&#xc6;" horiz-adv-x="984" 
d="M949 700v-105h-343v-188h302v-102h-302v-200h343v-105h-460v172h-260l-116 -172h-128l475 700h489zM489 556l-193 -286h193v286z" />
    <glyph glyph-name="Ccedilla" unicode="&#xc7;" horiz-adv-x="706" 
d="M381 97c48 0 89.666 13.335 124.999 40.002s61.333 63.667 78 111l108 -41c-21.333 -62.667 -55.5 -112.667 -102.5 -150s-102.833 -59.333 -167.5 -66l15 -13c25.333 -22.667 38 -47.667 38 -75c0 -22 -8.66699 -40.667 -26 -56s-41 -23 -71 -23h-79v94h47
c18.667 0 28 7.33301 28 22c0 10.667 -5 21 -15 31l-19 20c-91.333 9.33301 -165.5 46.666 -222.5 111.999s-85.5 147.666 -85.5 246.999c0 107.333 32.5 194.333 97.5 261s148.833 100 251.5 100c74.667 0 139.334 -19 194.001 -57s93.667 -91.667 117 -161l-108 -41
c-16.667 47.333 -42.667 84.333 -78 111s-77 40 -125 40c-66.667 0 -121.167 -22.833 -163.5 -68.5s-63.5 -107.167 -63.5 -184.5s21.167 -138.833 63.5 -184.5s96.833 -68.5 163.5 -68.5z" />
    <glyph glyph-name="Egrave" unicode="&#xc8;" horiz-adv-x="581" 
d="M290 907l89 -138h-109l-104 138h124zM546 700v-105h-366v-188h325v-102h-325v-200h366v-105h-483v700h483z" />
    <glyph glyph-name="Eacute" unicode="&#xc9;" horiz-adv-x="581" 
d="M326 907h125l-105 -138h-108zM546 700v-105h-366v-188h325v-102h-325v-200h366v-105h-483v700h483z" />
    <glyph glyph-name="Ecircumflex" unicode="&#xca;" horiz-adv-x="581" 
d="M367 770l-58 68l-59 -68h-119l128 137h99l128 -137h-119zM546 700v-105h-366v-188h325v-102h-325v-200h366v-105h-483v700h483z" />
    <glyph glyph-name="Edieresis" unicode="&#xcb;" horiz-adv-x="581" 
d="M200 766c-20 0 -36.5 6 -49.5 18s-19.5 28.333 -19.5 49s6.5 37 19.5 49s29.5 18 49.5 18c19.333 0 35.5 -6 48.5 -18s19.5 -28.333 19.5 -49s-6.5 -37 -19.5 -49s-29.167 -18 -48.5 -18zM417 766c-20 0 -36.5 6 -49.5 18s-19.5 28.333 -19.5 49s6.5 37 19.5 49
s29.5 18 49.5 18c19.333 0 35.5 -6 48.5 -18s19.5 -28.333 19.5 -49s-6.5 -37 -19.5 -49s-29.167 -18 -48.5 -18zM546 700v-105h-366v-188h325v-102h-325v-200h366v-105h-483v700h483z" />
    <glyph glyph-name="Igrave" unicode="&#xcc;" horiz-adv-x="243" 
d="M192 769h-109l-104 138h124zM63 700h117v-700h-117v700z" />
    <glyph glyph-name="Iacute" unicode="&#xcd;" horiz-adv-x="243" 
d="M158 769h-108l88 138h125zM63 700h117v-700h-117v700z" />
    <glyph glyph-name="Icircumflex" unicode="&#xce;" horiz-adv-x="243" 
d="M72 907h99l128 -137h-119l-58 68l-59 -68h-119zM180 0h-117v700h117v-700z" />
    <glyph glyph-name="Idieresis" unicode="&#xcf;" horiz-adv-x="243" 
d="M13 766c-20 0 -36.5 6 -49.5 18s-19.5 28.333 -19.5 49s6.5 37 19.5 49s29.5 18 49.5 18c19.333 0 35.5 -6 48.5 -18s19.5 -28.333 19.5 -49s-6.5 -37 -19.5 -49s-29.167 -18 -48.5 -18zM230 766c-20 0 -36.5 6 -49.5 18s-19.5 28.333 -19.5 49s6.5 37 19.5 49
s29.5 18 49.5 18c19.333 0 35.5 -6 48.5 -18s19.5 -28.333 19.5 -49s-6.5 -37 -19.5 -49s-29.167 -18 -48.5 -18zM63 700h117v-700h-117v700z" />
    <glyph glyph-name="Eth" unicode="&#xd0;" horiz-adv-x="744" 
d="M360 700c105.333 0 190.333 -31.833 255 -95.5s97 -148.5 97 -254.5s-32.333 -190.833 -97 -254.5s-149.667 -95.5 -255 -95.5h-268v306h-80v95h80v299h268zM209 105h145c76 0 134.167 21.667 174.5 65s60.5 103.333 60.5 180s-20.167 136.667 -60.5 180
s-98.5 65 -174.5 65h-145v-194h152v-95h-152v-201z" />
    <glyph glyph-name="Ntilde" unicode="&#xd1;" horiz-adv-x="719" 
d="M431 769c-20 0 -37.5 4.16797 -52.5 12.501s-27.667 16.666 -38 24.999s-19.5 12.5 -27.5 12.5c-20 0 -30 -15 -30 -45h-90c0 40 11.333 72 34 96s49 36 79 36c20 0 37.5 -4.33301 52.5 -13s27.667 -17.167 38 -25.5s19.5 -12.5 27.5 -12.5c19.333 0 29 15.333 29 46h91
c0 -40 -11.333 -72 -34 -96s-49 -36 -79 -36zM539 700.001h117v-700h-107l-370 505v-505h-116v700h106l370 -505v505z" />
    <glyph glyph-name="Ograve" unicode="&#xd2;" horiz-adv-x="771" 
d="M456 769h-109l-104 138h124zM386 -11c-104.667 0 -190 33.333 -256 100s-99 153.667 -99 261s33 194.333 99 261s151.333 100 256 100s189.834 -33.333 255.501 -100s98.5 -153.667 98.5 -261s-32.833 -194.333 -98.5 -261s-150.834 -100 -255.501 -100zM386 97
c68 0 123.667 22.833 167 68.5s65 107.167 65 184.5s-21.667 138.833 -65 184.5s-99 68.5 -167 68.5c-68.667 0 -124.667 -22.833 -168 -68.5s-65 -107.167 -65 -184.5s21.667 -138.833 65 -184.5s99.333 -68.5 168 -68.5z" />
    <glyph glyph-name="Oacute" unicode="&#xd3;" horiz-adv-x="771" 
d="M423 769h-108l88 138h125zM386 -11c-104.667 0 -190 33.333 -256 100s-99 153.667 -99 261s33 194.333 99 261s151.333 100 256 100s189.834 -33.333 255.501 -100s98.5 -153.667 98.5 -261s-32.833 -194.333 -98.5 -261s-150.834 -100 -255.501 -100zM386 97
c68 0 123.667 22.833 167 68.5s65 107.167 65 184.5s-21.667 138.833 -65 184.5s-99 68.5 -167 68.5c-68.667 0 -124.667 -22.833 -168 -68.5s-65 -107.167 -65 -184.5s21.667 -138.833 65 -184.5s99.333 -68.5 168 -68.5z" />
    <glyph glyph-name="Ocircumflex" unicode="&#xd4;" horiz-adv-x="771" 
d="M445 770l-58 68l-59 -68h-119l128 137h99l128 -137h-119zM386 711c104.667 0 189.834 -33.333 255.501 -100s98.5 -153.667 98.5 -261s-32.833 -194.333 -98.5 -261s-150.834 -100 -255.501 -100s-190 33.333 -256 100s-99 153.667 -99 261s33 194.333 99 261
s151.333 100 256 100zM386 97c68 0 123.667 22.833 167 68.5s65 107.167 65 184.5s-21.667 138.833 -65 184.5s-99 68.5 -167 68.5c-68.667 0 -124.667 -22.833 -168 -68.5s-65 -107.167 -65 -184.5s21.667 -138.833 65 -184.5s99.333 -68.5 168 -68.5z" />
    <glyph glyph-name="Otilde" unicode="&#xd5;" horiz-adv-x="771" 
d="M454 769c-20 0 -37.5 4.16797 -52.5 12.501s-27.667 16.666 -38 24.999s-19.5 12.5 -27.5 12.5c-20 0 -30 -15 -30 -45h-90c0 40 11.333 72 34 96s49 36 79 36c20 0 37.5 -4.33301 52.5 -13s27.667 -17.167 38 -25.5s19.5 -12.5 27.5 -12.5c19.333 0 29 15.333 29 46h91
c0 -40 -11.333 -72 -34 -96s-49 -36 -79 -36zM386 -10.999c-104.667 0 -190 33.333 -256 100s-99 153.667 -99 261s33 194.333 99 261s151.333 100 256 100s189.834 -33.333 255.501 -100s98.5 -153.667 98.5 -261s-32.833 -194.333 -98.5 -261s-150.834 -100 -255.501 -100
zM386 97.001c68 0 123.667 22.833 167 68.5s65 107.167 65 184.5s-21.667 138.833 -65 184.5s-99 68.5 -167 68.5c-68.667 0 -124.667 -22.833 -168 -68.5s-65 -107.167 -65 -184.5s21.667 -138.833 65 -184.5s99.333 -68.5 168 -68.5z" />
    <glyph glyph-name="Odieresis" unicode="&#xd6;" horiz-adv-x="771" 
d="M277 766c-20 0 -36.5 6 -49.5 18s-19.5 28.333 -19.5 49s6.5 37 19.5 49s29.5 18 49.5 18c19.333 0 35.5 -6 48.5 -18s19.5 -28.333 19.5 -49s-6.5 -37 -19.5 -49s-29.167 -18 -48.5 -18zM494 766c-20 0 -36.5 6 -49.5 18s-19.5 28.333 -19.5 49s6.5 37 19.5 49
s29.5 18 49.5 18c19.333 0 35.5 -6 48.5 -18s19.5 -28.333 19.5 -49s-6.5 -37 -19.5 -49s-29.167 -18 -48.5 -18zM386 -11c-104.667 0 -190 33.333 -256 100s-99 153.667 -99 261s33 194.333 99 261s151.333 100 256 100s189.834 -33.333 255.501 -100
s98.5 -153.667 98.5 -261s-32.833 -194.333 -98.5 -261s-150.834 -100 -255.501 -100zM386 97c68 0 123.667 22.833 167 68.5s65 107.167 65 184.5s-21.667 138.833 -65 184.5s-99 68.5 -167 68.5c-68.667 0 -124.667 -22.833 -168 -68.5s-65 -107.167 -65 -184.5
s21.667 -138.833 65 -184.5s99.333 -68.5 168 -68.5z" />
    <glyph glyph-name="multiply" unicode="&#xd7;" horiz-adv-x="600" 
d="M432 483l64 -63l-133 -137l133 -138l-65 -65l-132 136l-131 -135l-64 64l132 136l-133 137l66 65l131 -136z" />
    <glyph glyph-name="Oslash" unicode="&#xd8;" horiz-adv-x="771" 
d="M670 725l70 -67l-72 -77c48 -63.333 72 -140.333 72 -231c0 -107.333 -32.833 -194.333 -98.5 -261s-150.834 -100 -255.501 -100c-81.333 0 -152 21 -212 63l-71 -75l-72 65l73 78c-48.667 62 -73 138.667 -73 230c0 107.333 33 194.333 99 261s151.333 100 256 100
c80.667 0 151.334 -21 212.001 -63zM153 350c0 -54.667 11.333 -102 34 -142l332 356c-38.667 26 -83 39 -133 39c-68.667 0 -124.667 -22.833 -168 -68.5s-65 -107.167 -65 -184.5zM618 350c0 54.667 -11.334 102 -34.001 142l-332 -356c38.667 -26 83.334 -39 134.001 -39
c68 0 123.667 22.833 167 68.5s65 107.167 65 184.5z" />
    <glyph glyph-name="Ugrave" unicode="&#xd9;" horiz-adv-x="685" 
d="M414 769h-109l-104 138h124zM513 700h116.999v-413c0 -94.667 -26.167 -168 -78.5 -220s-121.833 -78 -208.5 -78c-87.333 0 -157.166 26 -209.499 78s-78.5 125.333 -78.5 220v413h118v-407c0 -64.667 15.333 -113.5 46 -146.5s72 -49.5 124 -49.5s93.333 16.5 124 49.5
s46 81.833 46 146.5v407z" />
    <glyph glyph-name="Uacute" unicode="&#xda;" horiz-adv-x="685" 
d="M380 769h-108l88 138h125zM513 700h116.999v-413c0 -94.667 -26.167 -168 -78.5 -220s-121.833 -78 -208.5 -78c-87.333 0 -157.166 26 -209.499 78s-78.5 125.333 -78.5 220v413h118v-407c0 -64.667 15.333 -113.5 46 -146.5s72 -49.5 124 -49.5s93.333 16.5 124 49.5
s46 81.833 46 146.5v407z" />
    <glyph glyph-name="Ucircumflex" unicode="&#xdb;" horiz-adv-x="685" 
d="M402 770l-58 68l-59 -68h-119l128 137h99l128 -137h-119zM513 293l-0.000976562 407h117v-413c0 -94.667 -26.167 -168 -78.5 -220s-121.833 -78 -208.5 -78c-87.333 0 -157.166 26 -209.499 78s-78.5 125.333 -78.5 220v413h118v-407c0 -64.667 15.333 -113.5 46 -146.5
s72 -49.5 124 -49.5s93.333 16.5 124 49.5s46 81.833 46 146.5z" />
    <glyph glyph-name="Udieresis" unicode="&#xdc;" horiz-adv-x="685" 
d="M235 766c-20 0 -36.5 6 -49.5 18s-19.5 28.333 -19.5 49s6.5 37 19.5 49s29.5 18 49.5 18c19.333 0 35.5 -6 48.5 -18s19.5 -28.333 19.5 -49s-6.5 -37 -19.5 -49s-29.167 -18 -48.5 -18zM452 766c-20 0 -36.5 6 -49.5 18s-19.5 28.333 -19.5 49s6.5 37 19.5 49
s29.5 18 49.5 18c19.333 0 35.5 -6 48.5 -18s19.5 -28.333 19.5 -49s-6.5 -37 -19.5 -49s-29.167 -18 -48.5 -18zM513 700h116.999v-413c0 -94.667 -26.167 -168 -78.5 -220s-121.833 -78 -208.5 -78c-87.333 0 -157.166 26 -209.499 78s-78.5 125.333 -78.5 220v413h118
v-407c0 -64.667 15.333 -113.5 46 -146.5s72 -49.5 124 -49.5s93.333 16.5 124 49.5s46 81.833 46 146.5v407z" />
    <glyph glyph-name="Yacute" unicode="&#xdd;" horiz-adv-x="676" 
d="M356 907h125l-105 -138h-108zM535 700h132l-270 -372v-328h-117v328l-274 372h137l196 -260z" />
    <glyph glyph-name="Thorn" unicode="&#xde;" horiz-adv-x="605" 
d="M179 577h136c82.667 0 147.167 -20.333 193.5 -61s69.5 -96.667 69.5 -168c0 -70.667 -23 -126 -69 -166s-110.333 -60 -193 -60h-137v-122h-116v700h116v-123zM179 224h129c47.333 0 83.833 10.5 109.5 31.5s38.5 51.833 38.5 92.5s-12.833 71.5 -38.5 92.5
s-62.167 31.5 -109.5 31.5h-129v-248z" />
    <glyph glyph-name="germandbls" unicode="&#xdf;" horiz-adv-x="577" 
d="M410 368c39.333 -9.33301 72.501 -29.832 99.501 -61.499s40.5 -67.834 40.5 -108.501c0 -60 -21.333 -108 -64 -144s-98 -54 -166 -54h-77v96h57c42 0 75.333 9.5 100 28.5s37 45.833 37 80.5s-12.333 61.5 -37 80.5s-58 28.5 -100 28.5h-25v95h5c34 0 62.167 9 84.5 27
s33.5 42.667 33.5 74c0 30.667 -11.167 55.334 -33.5 74.001s-50.5 28 -84.5 28c-36.667 0 -65.334 -10.167 -86.001 -30.5s-31 -47.833 -31 -82.5v-499h-111v497c0 60.667 19.5 111.5 58.5 152.5s96.167 61.5 171.5 61.5c66.667 0 121.5 -18.833 164.5 -56.5
s64.5 -84.167 64.5 -139.5c0 -36.667 -9.16699 -67.834 -27.5 -93.501s-42.833 -43.5 -73.5 -53.5z" />
    <glyph glyph-name="agrave" unicode="&#xe0;" horiz-adv-x="532" 
d="M248 717l89 -137h-109l-104 137h124zM259 522c64 0 117.503 -17.1689 160.503 -51.502s64.5 -84.5 64.5 -150.5v-320h-104v50c-31.333 -40.667 -83 -61 -155 -61c-58.667 0 -106.667 14.167 -144 42.5s-56 66.833 -56 115.5s19.167 87.334 57.5 116.001
s88.166 43 149.499 43c63.333 0 110.666 -16.667 141.999 -50v53c0 38.667 -10.667 67.334 -32 86.001s-50.333 28 -87 28c-30.667 0 -56.5 -7.83301 -77.5 -23.5s-36.167 -37.5 -45.5 -65.5l-93 37c14.667 50 41.667 87.667 81 113s85.666 38 138.999 38zM258.003 71.998
c35.333 0 63.833 6.66699 85.5 20s32.5 32 32.5 56c0 24.667 -10.833 43.667 -32.5 57s-50.167 20 -85.5 20s-64 -6.66699 -86 -20s-33 -32.333 -33 -57c0 -24 11 -42.667 33 -56s50.667 -20 86 -20z" />
    <glyph glyph-name="aacute" unicode="&#xe1;" horiz-adv-x="532" 
d="M284 717h125l-105 -137h-108zM259 522c64 0 117.503 -17.1689 160.503 -51.502s64.5 -84.5 64.5 -150.5v-320h-104v50c-31.333 -40.667 -83 -61 -155 -61c-58.667 0 -106.667 14.167 -144 42.5s-56 66.833 -56 115.5s19.167 87.334 57.5 116.001s88.166 43 149.499 43
c63.333 0 110.666 -16.667 141.999 -50v53c0 38.667 -10.667 67.334 -32 86.001s-50.333 28 -87 28c-30.667 0 -56.5 -7.83301 -77.5 -23.5s-36.167 -37.5 -45.5 -65.5l-93 37c14.667 50 41.667 87.667 81 113s85.666 38 138.999 38zM258.003 71.998
c35.333 0 63.833 6.66699 85.5 20s32.5 32 32.5 56c0 24.667 -10.833 43.667 -32.5 57s-50.167 20 -85.5 20s-64 -6.66699 -86 -20s-33 -32.333 -33 -57c0 -24 11 -42.667 33 -56s50.667 -20 86 -20z" />
    <glyph glyph-name="acircumflex" unicode="&#xe2;" horiz-adv-x="532" 
d="M325 580l-58 69l-59 -69h-119l128 138h99l128 -138h-119zM259 522c64 0 117.503 -17.1689 160.503 -51.502s64.5 -84.5 64.5 -150.5v-320h-104v50c-31.333 -40.667 -83 -61 -155 -61c-58.667 0 -106.667 14.167 -144 42.5s-56 66.833 -56 115.5
s19.167 87.334 57.5 116.001s88.166 43 149.499 43c63.333 0 110.666 -16.667 141.999 -50v53c0 38.667 -10.667 67.334 -32 86.001s-50.333 28 -87 28c-30.667 0 -56.5 -7.83301 -77.5 -23.5s-36.167 -37.5 -45.5 -65.5l-93 37c14.667 50 41.667 87.667 81 113
s85.666 38 138.999 38zM258.003 71.998c35.333 0 63.833 6.66699 85.5 20s32.5 32 32.5 56c0 24.667 -10.833 43.667 -32.5 57s-50.167 20 -85.5 20s-64 -6.66699 -86 -20s-33 -32.333 -33 -57c0 -24 11 -42.667 33 -56s50.667 -20 86 -20z" />
    <glyph glyph-name="atilde" unicode="&#xe3;" horiz-adv-x="532" 
d="M216 630c-20 0 -30 -15.333 -30 -46h-90c0 40 11.333 72 34 96s49 36 79 36c20 0 37.5 -4.16699 52.5 -12.5s27.667 -16.666 38 -24.999s19.5 -12.5 27.5 -12.5c19.333 0 29 15 29 45h91c0 -40 -11.333 -71.833 -34 -95.5s-49 -35.5 -79 -35.5
c-20 0 -37.5 4.16699 -52.5 12.5s-27.667 16.666 -38 24.999s-19.5 12.5 -27.5 12.5zM259 522c64 0 117.503 -17.1689 160.503 -51.502s64.5 -84.5 64.5 -150.5v-320h-104v50c-31.333 -40.667 -83 -61 -155 -61c-58.667 0 -106.667 14.167 -144 42.5s-56 66.833 -56 115.5
s19.167 87.334 57.5 116.001s88.166 43 149.499 43c63.333 0 110.666 -16.667 141.999 -50v53c0 38.667 -10.667 67.334 -32 86.001s-50.333 28 -87 28c-30.667 0 -56.5 -7.83301 -77.5 -23.5s-36.167 -37.5 -45.5 -65.5l-93 37c14.667 50 41.667 87.667 81 113
s85.666 38 138.999 38zM258.003 71.998c35.333 0 63.833 6.66699 85.5 20s32.5 32 32.5 56c0 24.667 -10.833 43.667 -32.5 57s-50.167 20 -85.5 20s-64 -6.66699 -86 -20s-33 -32.333 -33 -57c0 -24 11 -42.667 33 -56s50.667 -20 86 -20z" />
    <glyph glyph-name="adieresis" unicode="&#xe4;" horiz-adv-x="532" 
d="M158 577c-20 0 -36.5 6 -49.5 18s-19.5 28.333 -19.5 49s6.5 37 19.5 49s29.5 18 49.5 18c19.333 0 35.5 -6 48.5 -18s19.5 -28.333 19.5 -49s-6.5 -37 -19.5 -49s-29.167 -18 -48.5 -18zM375 577c-20 0 -36.5 6 -49.5 18s-19.5 28.333 -19.5 49s6.5 37 19.5 49
s29.5 18 49.5 18c19.333 0 35.5 -6 48.5 -18s19.5 -28.333 19.5 -49s-6.5 -37 -19.5 -49s-29.167 -18 -48.5 -18zM259 522c64 0 117.503 -17.1689 160.503 -51.502s64.5 -84.5 64.5 -150.5v-320h-104v50c-31.333 -40.667 -83 -61 -155 -61
c-58.667 0 -106.667 14.167 -144 42.5s-56 66.833 -56 115.5s19.167 87.334 57.5 116.001s88.166 43 149.499 43c63.333 0 110.666 -16.667 141.999 -50v53c0 38.667 -10.667 67.334 -32 86.001s-50.333 28 -87 28c-30.667 0 -56.5 -7.83301 -77.5 -23.5
s-36.167 -37.5 -45.5 -65.5l-93 37c14.667 50 41.667 87.667 81 113s85.666 38 138.999 38zM258.003 71.998c35.333 0 63.833 6.66699 85.5 20s32.5 32 32.5 56c0 24.667 -10.833 43.667 -32.5 57s-50.167 20 -85.5 20s-64 -6.66699 -86 -20s-33 -32.333 -33 -57
c0 -24 11 -42.667 33 -56s50.667 -20 86 -20z" />
    <glyph glyph-name="aring" unicode="&#xe5;" horiz-adv-x="532" 
d="M266 559c-37.333 0 -68 10.333 -92 31s-36 47 -36 79s12 58.333 36 79s54.667 31 92 31s68 -10.333 92 -31s36 -47 36 -79s-12 -58.333 -36 -79s-54.667 -31 -92 -31zM266 714c-16 0 -28.667 -4.16699 -38 -12.5s-14 -19.166 -14 -32.499s4.66699 -24.166 14 -32.499
s22 -12.5 38 -12.5s28.667 4.16699 38 12.5s14 19.166 14 32.499s-4.66699 24.166 -14 32.499s-22 12.5 -38 12.5zM259 522c64 0 117.503 -17.1689 160.503 -51.502s64.5 -84.5 64.5 -150.5v-320h-104v50c-31.333 -40.667 -83 -61 -155 -61
c-58.667 0 -106.667 14.167 -144 42.5s-56 66.833 -56 115.5s19.167 87.334 57.5 116.001s88.166 43 149.499 43c63.333 0 110.666 -16.667 141.999 -50v53c0 38.667 -10.667 67.334 -32 86.001s-50.333 28 -87 28c-30.667 0 -56.5 -7.83301 -77.5 -23.5
s-36.167 -37.5 -45.5 -65.5l-93 37c14.667 50 41.667 87.667 81 113s85.666 38 138.999 38zM258.003 71.998c35.333 0 63.833 6.66699 85.5 20s32.5 32 32.5 56c0 24.667 -10.833 43.667 -32.5 57s-50.167 20 -85.5 20s-64 -6.66699 -86 -20s-33 -32.333 -33 -57
c0 -24 11 -42.667 33 -56s50.667 -20 86 -20z" />
    <glyph glyph-name="ae" unicode="&#xe6;" horiz-adv-x="888" 
d="M858 259c0 -12.667 -0.332031 -22.002 -0.999023 -28.002h-372c3.33301 -47.333 17.333 -83.5 42 -108.5s56 -37.5 94 -37.5c68 0 115.333 34.333 142 103l94 -36c-20.667 -55.333 -51.5 -96.333 -92.5 -123s-87.833 -40 -140.5 -40c-80 0 -142.667 29.667 -188 89
c-16.667 -28.667 -42 -50.667 -76 -66s-72.667 -23 -116 -23c-66 0 -119 14 -159 42s-60 66.667 -60 116c0 48.667 19.167 87.334 57.5 116.001s88.166 43 149.499 43c63.333 0 110.666 -16.667 141.999 -50v53c0 38.667 -10.667 67.334 -32 86.001s-50.333 28 -87 28
c-30.667 0 -56.5 -7.83301 -77.5 -23.5s-36.167 -37.5 -45.5 -65.5l-93 37c14.667 50 41.334 87.667 80.001 113s84 38 136 38c84.667 0 145 -30 181 -90c44 60 105.333 90 184 90c70 0 127.167 -24.333 171.5 -73s66.5 -112 66.5 -190zM620.001 429.998
c-35.333 0 -64.332 -10.168 -86.999 -30.501s-37.334 -50.166 -44.001 -89.499h256c-6.66699 40 -21 70 -43 90s-49.333 30 -82 30zM258.002 71.9971c35.333 0 63.833 6.66699 85.5 20s32.5 32 32.5 56c0 24.667 -10.833 43.667 -32.5 57s-50.167 20 -85.5 20
s-64 -6.66699 -86 -20s-33 -32.333 -33 -57c0 -24 11 -42.667 33 -56s50.667 -20 86 -20z" />
    <glyph glyph-name="ccedilla" unicode="&#xe7;" horiz-adv-x="539" 
d="M282 88c70 0 117.333 38.665 142 115.998l99 -36c-32 -105.333 -100.667 -164.333 -206 -177l15 -13c25.333 -22.667 38 -47.667 38 -75c0 -22 -8.66699 -40.667 -26 -56s-41 -23 -71 -23h-79v94h47c18.667 0 28 7.33301 28 22c0 10.667 -5 21 -15 31l-21 22
c-60 11.333 -108.833 40.833 -146.5 88.5s-56.5 105.834 -56.5 174.501c0 78 24 141.833 72 191.5s108 74.5 180 74.5c57.333 0 107.333 -14.667 150 -44s73 -74.333 91 -135l-99 -36c-24.667 77.333 -72 116 -142 116c-39.333 0 -72.333 -14.667 -99 -44
s-40 -70.333 -40 -123c0 -53.333 13.333 -94.666 40 -123.999s59.667 -44 99 -44z" />
    <glyph glyph-name="egrave" unicode="&#xe8;" horiz-adv-x="545" 
d="M259 717l89 -137h-109l-104 137h124zM515 259c0 -12.667 -0.333008 -21.999 -1 -27.999h-372c4 -48 18.167 -84.333 42.5 -109s55.5 -37 93.5 -37c68 0 115.333 34.333 142 103l94 -36c-20.667 -55.333 -51.5 -96.333 -92.5 -123s-88.167 -40 -141.5 -40
c-73.333 0 -133.333 24.667 -180 74s-70 113.666 -70 192.999s23 143.5 69 192.5s105.333 73.5 178 73.5c70 0 127.167 -24.333 171.5 -73s66.5 -112 66.5 -190zM276 430.001c-72 0 -115.667 -40 -131 -120h256c-6.66699 40 -21 70 -43 90s-49.333 30 -82 30z" />
    <glyph glyph-name="eacute" unicode="&#xe9;" horiz-adv-x="545" 
d="M294 717h125l-105 -137h-108zM515 259c0 -12.667 -0.333008 -21.999 -1 -27.999h-372c4 -48 18.167 -84.333 42.5 -109s55.5 -37 93.5 -37c68 0 115.333 34.333 142 103l94 -36c-20.667 -55.333 -51.5 -96.333 -92.5 -123s-88.167 -40 -141.5 -40
c-73.333 0 -133.333 24.667 -180 74s-70 113.666 -70 192.999s23 143.5 69 192.5s105.333 73.5 178 73.5c70 0 127.167 -24.333 171.5 -73s66.5 -112 66.5 -190zM276 430.001c-72 0 -115.667 -40 -131 -120h256c-6.66699 40 -21 70 -43 90s-49.333 30 -82 30z" />
    <glyph glyph-name="ecircumflex" unicode="&#xea;" horiz-adv-x="545" 
d="M336 580l-58 69l-59 -69h-119l128 138h99l128 -138h-119zM515 259c0 -12.667 -0.333008 -21.999 -1 -27.999h-372c4 -48 18.167 -84.333 42.5 -109s55.5 -37 93.5 -37c68 0 115.333 34.333 142 103l94 -36c-20.667 -55.333 -51.5 -96.333 -92.5 -123
s-88.167 -40 -141.5 -40c-73.333 0 -133.333 24.667 -180 74s-70 113.666 -70 192.999s23 143.5 69 192.5s105.333 73.5 178 73.5c70 0 127.167 -24.333 171.5 -73s66.5 -112 66.5 -190zM276 430.001c-72 0 -115.667 -40 -131 -120h256c-6.66699 40 -21 70 -43 90
s-49.333 30 -82 30z" />
    <glyph glyph-name="edieresis" unicode="&#xeb;" horiz-adv-x="545" 
d="M169 577c-20 0 -36.5 6 -49.5 18s-19.5 28.333 -19.5 49s6.5 37 19.5 49s29.5 18 49.5 18c19.333 0 35.5 -6 48.5 -18s19.5 -28.333 19.5 -49s-6.5 -37 -19.5 -49s-29.167 -18 -48.5 -18zM386 577c-20 0 -36.5 6 -49.5 18s-19.5 28.333 -19.5 49s6.5 37 19.5 49
s29.5 18 49.5 18c19.333 0 35.5 -6 48.5 -18s19.5 -28.333 19.5 -49s-6.5 -37 -19.5 -49s-29.167 -18 -48.5 -18zM515 259c0 -12.667 -0.333008 -21.999 -1 -27.999h-372c4 -48 18.167 -84.333 42.5 -109s55.5 -37 93.5 -37c68 0 115.333 34.333 142 103l94 -36
c-20.667 -55.333 -51.5 -96.333 -92.5 -123s-88.167 -40 -141.5 -40c-73.333 0 -133.333 24.667 -180 74s-70 113.666 -70 192.999s23 143.5 69 192.5s105.333 73.5 178 73.5c70 0 127.167 -24.333 171.5 -73s66.5 -112 66.5 -190zM276 430.001
c-72 0 -115.667 -40 -131 -120h256c-6.66699 40 -21 70 -43 90s-49.333 30 -82 30z" />
    <glyph glyph-name="igrave" unicode="&#xec;" horiz-adv-x="215" 
d="M179 580h-109l-104 137h124zM52 511h111v-511h-111v511z" />
    <glyph glyph-name="iacute" unicode="&#xed;" horiz-adv-x="215" 
d="M145 580h-108l88 137h125zM52 511h111v-511h-111v511z" />
    <glyph glyph-name="icircumflex" unicode="&#xee;" horiz-adv-x="215" 
d="M59 718h99l128 -138h-119l-58 69l-59 -69h-119zM163 0h-111v511h111v-511z" />
    <glyph glyph-name="idieresis" unicode="&#xef;" horiz-adv-x="215" 
d="M11 585c-20 0 -36.5 6.16699 -49.5 18.5s-19.5 28.833 -19.5 49.5s6.5 37 19.5 49s29.5 18 49.5 18c19.333 0 35.5 -6 48.5 -18s19.5 -28.333 19.5 -49s-6.5 -37.167 -19.5 -49.5s-29.167 -18.5 -48.5 -18.5zM205 585c-20 0 -36.5 6.16699 -49.5 18.5
s-19.5 28.833 -19.5 49.5s6.5 37 19.5 49s29.5 18 49.5 18c19.333 0 35.5 -6 48.5 -18s19.5 -28.333 19.5 -49s-6.5 -37.167 -19.5 -49.5s-29.167 -18.5 -48.5 -18.5zM52 511h111v-511h-111v511z" />
    <glyph glyph-name="eth" unicode="&#xf0;" horiz-adv-x="567" 
d="M409 545l71.999 -120c38 -61.333 57 -122 57 -182c0 -72.667 -24 -133.167 -72 -181.5s-108.667 -72.5 -182 -72.5s-134.166 24.333 -182.499 73s-72.5 109.667 -72.5 183c0 70 22.167 128.167 66.5 174.5s101.5 69.5 171.5 69.5c22 0 42.333 -3.33301 61 -10l-43 66
h-154v77h105l-50 78h130l47 -78h123v-77h-77zM283.999 88c41.333 0 75.333 14 102 42s40 65.333 40 112s-13.333 84 -40 112s-60.667 42 -102 42s-75.333 -14 -102 -42s-40 -65.333 -40 -112s13.333 -84 40 -112s60.667 -42 102 -42z" />
    <glyph glyph-name="ntilde" unicode="&#xf1;" horiz-adv-x="542" 
d="M229 630c-20 0 -30 -15.333 -30 -46h-90c0 40 11.333 72 34 96s49 36 79 36c20 0 37.5 -4.16699 52.5 -12.5s27.667 -16.666 38 -24.999s19.5 -12.5 27.5 -12.5c19.333 0 29 15 29 45h91c0 -40 -11.333 -71.833 -34 -95.5s-49 -35.5 -79 -35.5
c-20 0 -37.5 4.16699 -52.5 12.5s-27.667 16.666 -38 24.999s-19.5 12.5 -27.5 12.5zM310 522c54 0 98.333 -18.167 133 -54.5s52 -83.833 52 -142.5v-325h-111v307c0 36 -9.5 64.5 -28.5 85.5s-43.833 31.5 -74.5 31.5c-35.333 0 -63.833 -11 -85.5 -33
s-32.5 -51.667 -32.5 -89v-302h-111v511h111v-72c30.667 55.333 79.667 83 147 83z" />
    <glyph glyph-name="ograve" unicode="&#xf2;" horiz-adv-x="580" 
d="M361 580h-109l-104 137h124zM290 -11c-75.333 0 -137.666 24.833 -186.999 74.5s-74 113.834 -74 192.501c0 78 24.667 141.833 74 191.5s111.666 74.5 186.999 74.5s137.666 -24.833 186.999 -74.5s74 -113.5 74 -191.5c0 -78.667 -24.667 -142.834 -74 -192.501
s-111.666 -74.5 -186.999 -74.5zM290 88c43.333 0 78.833 15 106.5 45s41.5 71 41.5 123c0 51.333 -13.833 91.833 -41.5 121.5s-63.167 44.5 -106.5 44.5s-78.666 -14.833 -105.999 -44.5s-41 -70.167 -41 -121.5c0 -52 13.667 -93 41 -123s62.666 -45 105.999 -45z" />
    <glyph glyph-name="oacute" unicode="&#xf3;" horiz-adv-x="580" 
d="M328 580h-108l88 137h125zM290 -11c-75.333 0 -137.666 24.833 -186.999 74.5s-74 113.834 -74 192.501c0 78 24.667 141.833 74 191.5s111.666 74.5 186.999 74.5s137.666 -24.833 186.999 -74.5s74 -113.5 74 -191.5c0 -78.667 -24.667 -142.834 -74 -192.501
s-111.666 -74.5 -186.999 -74.5zM290 88c43.333 0 78.833 15 106.5 45s41.5 71 41.5 123c0 51.333 -13.833 91.833 -41.5 121.5s-63.167 44.5 -106.5 44.5s-78.666 -14.833 -105.999 -44.5s-41 -70.167 -41 -121.5c0 -52 13.667 -93 41 -123s62.666 -45 105.999 -45z" />
    <glyph glyph-name="ocircumflex" unicode="&#xf4;" horiz-adv-x="580" 
d="M349 580l-58 69l-59 -69h-119l128 138h99l128 -138h-119zM290 522c75.333 0 137.666 -24.833 186.999 -74.5s74 -113.5 74 -191.5c0 -78.667 -24.667 -142.834 -74 -192.501s-111.666 -74.5 -186.999 -74.5s-137.666 24.833 -186.999 74.5s-74 113.834 -74 192.501
c0 78 24.667 141.833 74 191.5s111.666 74.5 186.999 74.5zM290 88c43.333 0 78.833 15 106.5 45s41.5 71 41.5 123c0 51.333 -13.833 91.833 -41.5 121.5s-63.167 44.5 -106.5 44.5s-78.666 -14.833 -105.999 -44.5s-41 -70.167 -41 -121.5c0 -52 13.667 -93 41 -123
s62.666 -45 105.999 -45z" />
    <glyph glyph-name="otilde" unicode="&#xf5;" horiz-adv-x="580" 
d="M358 580c-20 0 -37.5 4.16699 -52.5 12.5s-27.667 16.666 -38 24.999s-19.5 12.5 -27.5 12.5c-20 0 -30 -15.333 -30 -46h-90c0 40 11.333 72 34 96s49 36 79 36c20 0 37.5 -4.16699 52.5 -12.5s27.667 -16.666 38 -24.999s19.5 -12.5 27.5 -12.5c19.333 0 29 15 29 45
h91c0 -40 -11.333 -71.833 -34 -95.5s-49 -35.5 -79 -35.5zM290 -11c-75.333 0 -137.666 24.833 -186.999 74.5s-74 113.834 -74 192.501c0 78 24.667 141.833 74 191.5s111.666 74.5 186.999 74.5s137.666 -24.833 186.999 -74.5s74 -113.5 74 -191.5
c0 -78.667 -24.667 -142.834 -74 -192.501s-111.666 -74.5 -186.999 -74.5zM290 88c43.333 0 78.833 15 106.5 45s41.5 71 41.5 123c0 51.333 -13.833 91.833 -41.5 121.5s-63.167 44.5 -106.5 44.5s-78.666 -14.833 -105.999 -44.5s-41 -70.167 -41 -121.5
c0 -52 13.667 -93 41 -123s62.666 -45 105.999 -45z" />
    <glyph glyph-name="odieresis" unicode="&#xf6;" horiz-adv-x="580" 
d="M182 577c-20 0 -36.5 6 -49.5 18s-19.5 28.333 -19.5 49s6.5 37 19.5 49s29.5 18 49.5 18c19.333 0 35.5 -6 48.5 -18s19.5 -28.333 19.5 -49s-6.5 -37 -19.5 -49s-29.167 -18 -48.5 -18zM399 577c-20 0 -36.5 6 -49.5 18s-19.5 28.333 -19.5 49s6.5 37 19.5 49
s29.5 18 49.5 18c19.333 0 35.5 -6 48.5 -18s19.5 -28.333 19.5 -49s-6.5 -37 -19.5 -49s-29.167 -18 -48.5 -18zM290 -11c-75.333 0 -137.666 24.833 -186.999 74.5s-74 113.834 -74 192.501c0 78 24.667 141.833 74 191.5s111.666 74.5 186.999 74.5
s137.666 -24.833 186.999 -74.5s74 -113.5 74 -191.5c0 -78.667 -24.667 -142.834 -74 -192.501s-111.666 -74.5 -186.999 -74.5zM290 88c43.333 0 78.833 15 106.5 45s41.5 71 41.5 123c0 51.333 -13.833 91.833 -41.5 121.5s-63.167 44.5 -106.5 44.5
s-78.666 -14.833 -105.999 -44.5s-41 -70.167 -41 -121.5c0 -52 13.667 -93 41 -123s62.666 -45 105.999 -45z" />
    <glyph glyph-name="divide" unicode="&#xf7;" horiz-adv-x="600" 
d="M300 380c-18.667 0 -34.667 6.83301 -48 20.5s-20 29.834 -20 48.501c0 19.333 6.66699 35.666 20 48.999s29.333 20 48 20c19.333 0 35.5 -6.66699 48.5 -20s19.5 -29.666 19.5 -48.999c0 -18.667 -6.66699 -34.834 -20 -48.501s-29.333 -20.5 -48 -20.5zM485 235h-370
v93h370v-93zM300 45c-18.667 0 -34.667 6.83301 -48 20.5s-20 30.167 -20 49.5c0 18.667 6.66699 34.834 20 48.501s29.333 20.5 48 20.5s34.667 -6.83301 48 -20.5s20 -29.834 20 -48.501c0 -19.333 -6.66699 -35.833 -20 -49.5s-29.333 -20.5 -48 -20.5z" />
    <glyph glyph-name="oslash" unicode="&#xf8;" horiz-adv-x="580" 
d="M492 527l59 -59.999l-48 -50c32 -46 48 -99.667 48 -161c0 -78.667 -24.667 -142.834 -74 -192.501s-111.666 -74.5 -186.999 -74.5c-58 0 -109 15.333 -153 46l-48 -50l-60 59l49 50c-32.667 45.333 -49 99.333 -49 162c0 78 24.667 141.833 74 191.5
s111.666 74.5 186.999 74.5c57.333 0 108.333 -15.333 153 -46zM290 425.001c-44 0 -79.999 -15.167 -107.999 -45.5s-42 -71.5 -42 -123.5c0 -32 5 -59.333 15 -82l218 228c-24.667 15.333 -52.334 23 -83.001 23zM290.001 86.001c44 0 80.167 15.333 108.5 46
s42.5 72 42.5 124c0 30.667 -5 57.667 -15 81l-217 -228c23.333 -15.333 50.333 -23 81 -23z" />
    <glyph glyph-name="ugrave" unicode="&#xf9;" horiz-adv-x="537" 
d="M339 580h-109l-104 137h124zM269 -11c-65.333 0 -118.666 19.333 -159.999 58s-62 91.667 -62 159v305h111v-298c0 -40.667 10.167 -71.5 30.5 -92.5s47.166 -31.5 80.499 -31.5s60 10.5 80 31.5s30 51.833 30 92.5v298h111v-305c0 -67.333 -20.5 -120.333 -61.5 -159
s-94.167 -58 -159.5 -58z" />
    <glyph glyph-name="uacute" unicode="&#xfa;" horiz-adv-x="537" 
d="M306 580h-108l88 137h125zM269 -11c-65.333 0 -118.666 19.333 -159.999 58s-62 91.667 -62 159v305h111v-298c0 -40.667 10.167 -71.5 30.5 -92.5s47.166 -31.5 80.499 -31.5s60 10.5 80 31.5s30 51.833 30 92.5v298h111v-305c0 -67.333 -20.5 -120.333 -61.5 -159
s-94.167 -58 -159.5 -58z" />
    <glyph glyph-name="ucircumflex" unicode="&#xfb;" horiz-adv-x="537" 
d="M328 580l-58 69l-59 -69h-119l128 138h99l128 -138h-119zM379 213v298h111v-305c0 -67.333 -20.5 -120.333 -61.5 -159s-94.167 -58 -159.5 -58s-118.666 19.333 -159.999 58s-62 91.667 -62 159v305h111v-298c0 -40.667 10.167 -71.5 30.5 -92.5
s47.166 -31.5 80.499 -31.5s60 10.5 80 31.5s30 51.833 30 92.5z" />
    <glyph glyph-name="udieresis" unicode="&#xfc;" horiz-adv-x="537" 
d="M160 577c-20 0 -36.5 6 -49.5 18s-19.5 28.333 -19.5 49s6.5 37 19.5 49s29.5 18 49.5 18c19.333 0 35.5 -6 48.5 -18s19.5 -28.333 19.5 -49s-6.5 -37 -19.5 -49s-29.167 -18 -48.5 -18zM377 577c-20 0 -36.5 6 -49.5 18s-19.5 28.333 -19.5 49s6.5 37 19.5 49
s29.5 18 49.5 18c19.333 0 35.5 -6 48.5 -18s19.5 -28.333 19.5 -49s-6.5 -37 -19.5 -49s-29.167 -18 -48.5 -18zM269 -11c-65.333 0 -118.666 19.333 -159.999 58s-62 91.667 -62 159v305h111v-298c0 -40.667 10.167 -71.5 30.5 -92.5s47.166 -31.5 80.499 -31.5
s60 10.5 80 31.5s30 51.833 30 92.5v298h111v-305c0 -67.333 -20.5 -120.333 -61.5 -159s-94.167 -58 -159.5 -58z" />
    <glyph glyph-name="yacute" unicode="&#xfd;" horiz-adv-x="521" 
d="M287 717h125l-105 -137h-108zM266 216l137 295h122l-317 -678h-121l122 261l-201 417h126z" />
    <glyph glyph-name="thorn" unicode="&#xfe;" horiz-adv-x="592" 
d="M330 522c66 0 121.167 -25.168 165.5 -75.501s66.5 -113.833 66.5 -190.5c0 -77.333 -22.167 -141.166 -66.5 -191.499s-99.5 -75.5 -165.5 -75.5c-73.333 0 -129 31.667 -167 95v-251h-111v867h111v-273c38 63.333 93.667 95 167 95zM305 87.999
c43.333 0 78.166 14.833 104.499 44.5s39.5 70.5 39.5 122.5s-13.167 92.833 -39.5 122.5s-61.166 44.5 -104.499 44.5c-42.667 0 -77.334 -14.833 -104.001 -44.5s-40 -70.5 -40 -122.5s13.333 -92.833 40 -122.5s61.334 -44.5 104.001 -44.5z" />
    <glyph glyph-name="ydieresis" unicode="&#xff;" horiz-adv-x="521" 
d="M161 577c-20 0 -36.5 6 -49.5 18s-19.5 28.333 -19.5 49s6.5 37 19.5 49s29.5 18 49.5 18c19.333 0 35.5 -6 48.5 -18s19.5 -28.333 19.5 -49s-6.5 -37 -19.5 -49s-29.167 -18 -48.5 -18zM378 577c-20 0 -36.5 6 -49.5 18s-19.5 28.333 -19.5 49s6.5 37 19.5 49
s29.5 18 49.5 18c19.333 0 35.5 -6 48.5 -18s19.5 -28.333 19.5 -49s-6.5 -37 -19.5 -49s-29.167 -18 -48.5 -18zM266 216l137 295h122l-317 -678h-121l122 261l-201 417h126z" />
    <glyph glyph-name="Amacron" unicode="&#x100;" horiz-adv-x="668" 
d="M174 880h322v-91h-322v91zM669 0h-125l-72 192h-278l-72 -192h-121l277 700h113zM333 560l-102 -270h204z" />
    <glyph glyph-name="amacron" unicode="&#x101;" horiz-adv-x="532" 
d="M105 691h322v-92h-322v92zM259 522c64 0 117.503 -17.1689 160.503 -51.502s64.5 -84.5 64.5 -150.5v-320h-104v50c-31.333 -40.667 -83 -61 -155 -61c-58.667 0 -106.667 14.167 -144 42.5s-56 66.833 -56 115.5s19.167 87.334 57.5 116.001s88.166 43 149.499 43
c63.333 0 110.666 -16.667 141.999 -50v53c0 38.667 -10.667 67.334 -32 86.001s-50.333 28 -87 28c-30.667 0 -56.5 -7.83301 -77.5 -23.5s-36.167 -37.5 -45.5 -65.5l-93 37c14.667 50 41.667 87.667 81 113s85.666 38 138.999 38zM258.003 71.998
c35.333 0 63.833 6.66699 85.5 20s32.5 32 32.5 56c0 24.667 -10.833 43.667 -32.5 57s-50.167 20 -85.5 20s-64 -6.66699 -86 -20s-33 -32.333 -33 -57c0 -24 11 -42.667 33 -56s50.667 -20 86 -20z" />
    <glyph glyph-name="Abreve" unicode="&#x102;" horiz-adv-x="668" 
d="M335 768c-46 0 -84.333 12.5 -115 37.5s-47.334 58.833 -50.001 101.5h96c4 -42.667 27 -64 69 -64s65 21.333 69 64h96c-1.33301 -42.667 -17.666 -76.5 -48.999 -101.5s-70 -37.5 -116 -37.5zM669 0h-125l-72 192h-278l-72 -192h-121l277 700h113zM333 560l-102 -270
h204z" />
    <glyph glyph-name="abreve" unicode="&#x103;" horiz-adv-x="532" 
d="M266 578c-46 0 -84.333 12.5 -115 37.5s-47.334 58.833 -50.001 101.5h96c4 -42 27 -63 69 -63s65 21 69 63h96c-1.33301 -42.667 -17.666 -76.5 -48.999 -101.5s-70 -37.5 -116 -37.5zM259 522c64 0 117.503 -17.1689 160.503 -51.502s64.5 -84.5 64.5 -150.5v-320h-104
v50c-31.333 -40.667 -83 -61 -155 -61c-58.667 0 -106.667 14.167 -144 42.5s-56 66.833 -56 115.5s19.167 87.334 57.5 116.001s88.166 43 149.499 43c63.333 0 110.666 -16.667 141.999 -50v53c0 38.667 -10.667 67.334 -32 86.001s-50.333 28 -87 28
c-30.667 0 -56.5 -7.83301 -77.5 -23.5s-36.167 -37.5 -45.5 -65.5l-93 37c14.667 50 41.667 87.667 81 113s85.666 38 138.999 38zM258.003 71.998c35.333 0 63.833 6.66699 85.5 20s32.5 32 32.5 56c0 24.667 -10.833 43.667 -32.5 57s-50.167 20 -85.5 20
s-64 -6.66699 -86 -20s-33 -32.333 -33 -57c0 -24 11 -42.667 33 -56s50.667 -20 86 -20z" />
    <glyph glyph-name="Aogonek" unicode="&#x104;" horiz-adv-x="668" 
d="M655 -82l31 -0.000976562v-94h-63c-30.667 0 -54.667 7.66699 -72 23s-26 34 -26 56c0 27.333 13 52.333 39 75l25 22h-45l-72 192h-278l-72 -192h-121l277 700h113l278 -700h-1l-27 -29c-10 -11.333 -15 -21.666 -15 -30.999c0 -14.667 9.66699 -22 29 -22zM333 559.999
l-102 -270h204z" />
    <glyph glyph-name="aogonek" unicode="&#x105;" horiz-adv-x="532" 
d="M471 -82l31.0029 -0.00292969v-94h-63c-30.667 0 -54.667 7.66699 -72 23s-26 34 -26 56c0 27.333 13 52.333 39 75l25 22h-25v50c-31.333 -40.667 -83 -61 -155 -61c-58.667 0 -106.667 14.167 -144 42.5s-56 66.833 -56 115.5s19.167 87.334 57.5 116.001
s88.166 43 149.499 43c63.333 0 110.666 -16.667 141.999 -50v53c0 38.667 -10.667 67.334 -32 86.001s-50.333 28 -87 28c-30.667 0 -56.5 -7.83301 -77.5 -23.5s-36.167 -37.5 -45.5 -65.5l-93 37c14.667 50 41.667 87.667 81 113s85.666 38 138.999 38
c64 0 117.5 -17.167 160.5 -51.5s64.5 -84.5 64.5 -150.5v-320l-27 -29c-10 -11.333 -15 -21.666 -15 -30.999c0 -14.667 9.66699 -22 29 -22zM258.003 71.9971c35.333 0 63.833 6.66699 85.5 20s32.5 32 32.5 56c0 24.667 -10.833 43.667 -32.5 57s-50.167 20 -85.5 20
s-64 -6.66699 -86 -20s-33 -32.333 -33 -57c0 -24 11 -42.667 33 -56s50.667 -20 86 -20z" />
    <glyph glyph-name="Cacute" unicode="&#x106;" horiz-adv-x="706" 
d="M419 769h-108l88 138h125zM381 -11c-102.667 0 -186.5 33.333 -251.5 100s-97.5 153.667 -97.5 261s32.5 194.333 97.5 261s148.833 100 251.5 100c74.667 0 139.334 -19 194.001 -57s93.667 -91.667 117 -161l-108 -41c-16.667 47.333 -42.667 84.333 -78 111
s-77 40 -125 40c-66.667 0 -121.167 -22.833 -163.5 -68.5s-63.5 -107.167 -63.5 -184.5s21.167 -138.833 63.5 -184.5s96.833 -68.5 163.5 -68.5c48 0 89.667 13.333 125 40s61.333 63.667 78 111l108 -41c-23.333 -69.333 -62.333 -123 -117 -161
s-119.334 -57 -194.001 -57z" />
    <glyph glyph-name="cacute" unicode="&#x107;" horiz-adv-x="539" 
d="M321 580h-108l88 137h125zM282 -11c-72.667 0 -132.833 24.8311 -180.5 74.498s-71.5 113.834 -71.5 192.501c0 78 24 141.833 72 191.5s108 74.5 180 74.5c57.333 0 107.333 -14.667 150 -44s73 -74.333 91 -135l-99 -36c-24.667 77.333 -72 116 -142 116
c-39.333 0 -72.333 -14.667 -99 -44s-40 -70.333 -40 -123c0 -53.333 13.333 -94.666 40 -123.999s59.667 -44 99 -44c70 0 117.333 38.667 142 116l99 -36c-18 -60.667 -48.333 -105.667 -91 -135s-92.667 -44 -150 -44z" />
    <glyph glyph-name="Ccircumflex" unicode="&#x108;" horiz-adv-x="706" 
d="M441 770l-58 68l-59 -68h-119l128 137h99l128 -137h-119zM381 97c48 0 89.667 13.333 125 40s61.333 63.667 78 111l108 -41c-23.333 -69.333 -62.333 -123 -117 -161s-119.334 -57 -194.001 -57c-102.667 0 -186.5 33.333 -251.5 100s-97.5 153.667 -97.5 261
s32.5 194.333 97.5 261s148.833 100 251.5 100c74.667 0 139.334 -19 194.001 -57s93.667 -91.667 117 -161l-108 -41c-16.667 47.333 -42.667 84.333 -78 111s-77 40 -125 40c-66.667 0 -121.167 -22.833 -163.5 -68.5s-63.5 -107.167 -63.5 -184.5
s21.167 -138.833 63.5 -184.5s96.833 -68.5 163.5 -68.5z" />
    <glyph glyph-name="ccircumflex" unicode="&#x109;" horiz-adv-x="539" 
d="M343 580l-58 69l-59 -69h-119l128 138h99l128 -138h-119zM282 88c70 0 117.334 38.665 142.001 115.998l99 -36c-18 -60.667 -48.333 -105.667 -91 -135s-92.667 -44 -150 -44c-72.667 0 -132.834 24.833 -180.501 74.5s-71.5 113.834 -71.5 192.501
c0 78 24 141.833 72 191.5s108 74.5 180 74.5c57.333 0 107.333 -14.667 150 -44s73 -74.333 91 -135l-99 -36c-24.667 77.333 -72 116 -142 116c-39.333 0 -72.333 -14.667 -99 -44s-40 -70.333 -40 -123c0 -53.333 13.333 -94.666 40 -123.999s59.667 -44 99 -44z" />
    <glyph glyph-name="Cdotaccent" unicode="&#x10a;" horiz-adv-x="706" 
d="M381 767c-21.333 0 -39 6.16699 -53 18.5s-21 29.166 -21 50.499c0 20.667 7 37.5 21 50.5s31.667 19.5 53 19.5c20.667 0 38 -6.5 52 -19.5s21 -29.833 21 -50.5c0 -21.333 -6.83301 -38.166 -20.5 -50.499s-31.167 -18.5 -52.5 -18.5zM381 -11
c-102.667 0 -186.5 33.333 -251.5 100s-97.5 153.667 -97.5 261s32.5 194.333 97.5 261s148.833 100 251.5 100c74.667 0 139.334 -19 194.001 -57s93.667 -91.667 117 -161l-108 -41c-16.667 47.333 -42.667 84.333 -78 111s-77 40 -125 40
c-66.667 0 -121.167 -22.833 -163.5 -68.5s-63.5 -107.167 -63.5 -184.5s21.167 -138.833 63.5 -184.5s96.833 -68.5 163.5 -68.5c48 0 89.667 13.333 125 40s61.333 63.667 78 111l108 -41c-23.333 -69.333 -62.333 -123 -117 -161s-119.334 -57 -194.001 -57z" />
    <glyph glyph-name="cdotaccent" unicode="&#x10b;" horiz-adv-x="539" 
d="M284 577c-21.333 0 -39 6.33301 -53 19s-21 29.334 -21 50.001c0 21.333 7 38.333 21 51s31.667 19 53 19c20.667 0 38 -6.33301 52 -19s21 -29.667 21 -51c0 -20.667 -7 -37.334 -21 -50.001s-31.333 -19 -52 -19zM282 -11c-72.667 0 -132.833 24.8311 -180.5 74.498
s-71.5 113.834 -71.5 192.501c0 78 24 141.833 72 191.5s108 74.5 180 74.5c57.333 0 107.333 -14.667 150 -44s73 -74.333 91 -135l-99 -36c-24.667 77.333 -72 116 -142 116c-39.333 0 -72.333 -14.667 -99 -44s-40 -70.333 -40 -123
c0 -53.333 13.333 -94.666 40 -123.999s59.667 -44 99 -44c70 0 117.333 38.667 142 116l99 -36c-18 -60.667 -48.333 -105.667 -91 -135s-92.667 -44 -150 -44z" />
    <glyph glyph-name="Ccaron" unicode="&#x10c;" horiz-adv-x="706" 
d="M560 907l-128 -138h-100l-127 138h119l59 -69l58 69h119zM381 97c48 0 89.667 13.333 125 40s61.333 63.667 78 111l108 -41c-23.333 -69.333 -62.333 -123 -117 -161s-119.334 -57 -194.001 -57c-102.667 0 -186.5 33.333 -251.5 100s-97.5 153.667 -97.5 261
s32.5 194.333 97.5 261s148.833 100 251.5 100c74.667 0 139.334 -19 194.001 -57s93.667 -91.667 117 -161l-108 -41c-16.667 47.333 -42.667 84.333 -78 111s-77 40 -125 40c-66.667 0 -121.167 -22.833 -163.5 -68.5s-63.5 -107.167 -63.5 -184.5
s21.167 -138.833 63.5 -184.5s96.833 -68.5 163.5 -68.5z" />
    <glyph glyph-name="ccaron" unicode="&#x10d;" horiz-adv-x="539" 
d="M462 717l-128 -137h-100l-127 137h119l59 -68l58 68h119zM282 88c70 0 117.334 38.665 142.001 115.998l99 -36c-18 -60.667 -48.333 -105.667 -91 -135s-92.667 -44 -150 -44c-72.667 0 -132.834 24.833 -180.501 74.5s-71.5 113.834 -71.5 192.501
c0 78 24 141.833 72 191.5s108 74.5 180 74.5c57.333 0 107.333 -14.667 150 -44s73 -74.333 91 -135l-99 -36c-24.667 77.333 -72 116 -142 116c-39.333 0 -72.333 -14.667 -99 -44s-40 -70.333 -40 -123c0 -53.333 13.333 -94.666 40 -123.999s59.667 -44 99 -44z" />
    <glyph glyph-name="Dcaron" unicode="&#x10e;" horiz-adv-x="714" 
d="M511 907l-128 -138h-100l-127 138h119l59 -69l58 69h119zM331 700c105.333 0 190.166 -31.833 254.499 -95.5s96.5 -148.5 96.5 -254.5s-32.167 -190.833 -96.5 -254.5s-149.166 -95.5 -254.499 -95.5h-268v700h268zM180 105h145c76 0 134.167 21.667 174.5 65
s60.5 103.333 60.5 180s-20.167 136.667 -60.5 180s-98.5 65 -174.5 65h-145v-490z" />
    <glyph glyph-name="dcaron" unicode="&#x10f;" horiz-adv-x="651" 
d="M429 427v273.001h110v-700h-110v84c-38 -63.333 -93.667 -95 -167 -95c-66.667 0 -122 25.167 -166 75.5s-66 114.166 -66 191.499c0 76.667 22 140.167 66 190.5s99.333 75.5 166 75.5c73.333 0 129 -31.667 167 -95zM588 479.001v221h97v-110l-27 -111h-70zM287 88.001
c42.667 0 77.334 15 104.001 45s40 71 40 123c0 51.333 -13.333 91.833 -40 121.5s-61.334 44.5 -104.001 44.5c-43.333 0 -78.333 -14.833 -105 -44.5s-40 -70.167 -40 -121.5c0 -52 13.333 -93 40 -123s61.667 -45 105 -45z" />
    <glyph glyph-name="Dcroat" unicode="&#x110;" horiz-adv-x="744" 
d="M360 700c105.333 0 190.333 -31.833 255 -95.5s97 -148.5 97 -254.5s-32.333 -190.833 -97 -254.5s-149.667 -95.5 -255 -95.5h-268v306h-80v95h80v299h268zM209 105h145c76 0 134.167 21.667 174.5 65s60.5 103.333 60.5 180s-20.167 136.667 -60.5 180
s-98.5 65 -174.5 65h-145v-194h152v-95h-152v-201z" />
    <glyph glyph-name="dcroat" unicode="&#x111;" horiz-adv-x="592" 
d="M539 628h65v-81h-65v-547h-110v82c-38 -62 -93.667 -93 -167 -93c-66.667 0 -122 24.5 -166 73.5s-66 111.5 -66 187.5s22 138.5 66 187.5s99.333 73.5 166 73.5c73.333 0 129 -31 167 -93v129h-123v81h123v72h110v-72zM287 88c42.667 0 77.334 14.5 104.001 43.5
s40 68.5 40 118.5s-13.333 89.333 -40 118s-61.334 43 -104.001 43c-43.333 0 -78.333 -14.333 -105 -43s-40 -68 -40 -118s13.333 -89.5 40 -118.5s61.667 -43.5 105 -43.5z" />
    <glyph glyph-name="Emacron" unicode="&#x112;" horiz-adv-x="581" 
d="M147 880h322v-91h-322v91zM546 700v-105h-366v-188h325v-102h-325v-200h366v-105h-483v700h483z" />
    <glyph glyph-name="emacron" unicode="&#x113;" horiz-adv-x="545" 
d="M116 691h322v-92h-322v92zM515 259c0 -12.667 -0.333008 -21.999 -1 -27.999h-372c4 -48 18.167 -84.333 42.5 -109s55.5 -37 93.5 -37c68 0 115.333 34.333 142 103l94 -36c-20.667 -55.333 -51.5 -96.333 -92.5 -123s-88.167 -40 -141.5 -40
c-73.333 0 -133.333 24.667 -180 74s-70 113.666 -70 192.999s23 143.5 69 192.5s105.333 73.5 178 73.5c70 0 127.167 -24.333 171.5 -73s66.5 -112 66.5 -190zM276 430.001c-72 0 -115.667 -40 -131 -120h256c-6.66699 40 -21 70 -43 90s-49.333 30 -82 30z" />
    <glyph glyph-name="Ebreve" unicode="&#x114;" horiz-adv-x="581" 
d="M308 768c-46 0 -84.333 12.5 -115 37.5s-47.334 58.833 -50.001 101.5h96c4 -42.667 27 -64 69 -64s65 21.333 69 64h96c-1.33301 -42.667 -17.666 -76.5 -48.999 -101.5s-70 -37.5 -116 -37.5zM546 700v-105h-366v-188h325v-102h-325v-200h366v-105h-483v700h483z" />
    <glyph glyph-name="ebreve" unicode="&#x115;" horiz-adv-x="545" 
d="M277 578c-46 0 -84.333 12.5 -115 37.5s-47.334 58.833 -50.001 101.5h96c4 -42 27 -63 69 -63s65 21 69 63h96c-1.33301 -42.667 -17.666 -76.5 -48.999 -101.5s-70 -37.5 -116 -37.5zM515 259c0 -12.667 -0.333008 -21.999 -1 -27.999h-372
c4 -48 18.167 -84.333 42.5 -109s55.5 -37 93.5 -37c68 0 115.333 34.333 142 103l94 -36c-20.667 -55.333 -51.5 -96.333 -92.5 -123s-88.167 -40 -141.5 -40c-73.333 0 -133.333 24.667 -180 74s-70 113.666 -70 192.999s23 143.5 69 192.5s105.333 73.5 178 73.5
c70 0 127.167 -24.333 171.5 -73s66.5 -112 66.5 -190zM276 430.001c-72 0 -115.667 -40 -131 -120h256c-6.66699 40 -21 70 -43 90s-49.333 30 -82 30z" />
    <glyph glyph-name="Edotaccent" unicode="&#x116;" horiz-adv-x="581" 
d="M308 767c-21.333 0 -39 6.16699 -53 18.5s-21 29.166 -21 50.499c0 20.667 7 37.5 21 50.5s31.667 19.5 53 19.5c20.667 0 38 -6.5 52 -19.5s21 -29.833 21 -50.5c0 -21.333 -6.83301 -38.166 -20.5 -50.499s-31.167 -18.5 -52.5 -18.5zM546 700v-105h-366v-188h325v-102
h-325v-200h366v-105h-483v700h483z" />
    <glyph glyph-name="edotaccent" unicode="&#x117;" horiz-adv-x="545" 
d="M278 577c-21.333 0 -39 6.33301 -53 19s-21 29.334 -21 50.001c0 21.333 7 38.333 21 51s31.667 19 53 19c20.667 0 38 -6.33301 52 -19s21 -29.667 21 -51c0 -20.667 -7 -37.334 -21 -50.001s-31.333 -19 -52 -19zM515 259c0 -12.667 -0.333008 -21.999 -1 -27.999h-372
c4 -48 18.167 -84.333 42.5 -109s55.5 -37 93.5 -37c68 0 115.333 34.333 142 103l94 -36c-20.667 -55.333 -51.5 -96.333 -92.5 -123s-88.167 -40 -141.5 -40c-73.333 0 -133.333 24.667 -180 74s-70 113.666 -70 192.999s23 143.5 69 192.5s105.333 73.5 178 73.5
c70 0 127.167 -24.333 171.5 -73s66.5 -112 66.5 -190zM276 430.001c-72 0 -115.667 -40 -131 -120h256c-6.66699 40 -21 70 -43 90s-49.333 30 -82 30z" />
    <glyph glyph-name="Eogonek" unicode="&#x118;" horiz-adv-x="581" 
d="M546 700v-105.001h-366v-188h325v-102h-325v-200h366v-105h-52l-27 -29c-10 -11.333 -15 -21.666 -15 -30.999c0 -14.667 9.66699 -22 29 -22h31v-94h-63c-30.667 0 -54.667 7.66699 -72 23s-26 34 -26 56c0 27.333 13 52.333 39 75l25 22h-352v700h483z" />
    <glyph glyph-name="eogonek" unicode="&#x119;" horiz-adv-x="545" 
d="M515 259c0 -12.667 -0.333008 -22 -1 -28h-372c4 -48 18.167 -84.333 42.5 -109s55.5 -37 93.5 -37c68 0 115.333 34.333 142 103l94 -36c-16.667 -43.333 -40 -78.666 -70 -105.999l-41 -54c-19.333 -26 -29 -43.333 -29 -52c0 -14.667 9.33301 -22 28 -22h31v-94h-63
c-30.667 0 -54.667 7.33301 -72 22s-26 32.667 -26 54c0 24 16 53.667 48 89l3 3c-14 -2 -28.333 -3 -43 -3c-73.333 0 -133.333 24.667 -180 74s-70 113.666 -70 192.999s23 143.5 69 192.5s105.333 73.5 178 73.5c70 0 127.167 -24.333 171.5 -73s66.5 -112 66.5 -190z
M276 430c-72 0 -115.667 -40 -131 -120h256c-6.66699 40 -21 70 -43 90s-49.333 30 -82 30z" />
    <glyph glyph-name="Ecaron" unicode="&#x11a;" horiz-adv-x="581" 
d="M486 907l-128 -138h-100l-127 138h119l59 -69l58 69h119zM546 700v-105h-366v-188h325v-102h-325v-200h366v-105h-483v700h483z" />
    <glyph glyph-name="ecaron" unicode="&#x11b;" horiz-adv-x="545" 
d="M455 717l-128 -137h-100l-127 137h119l59 -68l58 68h119zM515 259c0 -12.667 -0.333008 -21.999 -1 -27.999h-372c4 -48 18.167 -84.333 42.5 -109s55.5 -37 93.5 -37c68 0 115.333 34.333 142 103l94 -36c-20.667 -55.333 -51.5 -96.333 -92.5 -123
s-88.167 -40 -141.5 -40c-73.333 0 -133.333 24.667 -180 74s-70 113.666 -70 192.999s23 143.5 69 192.5s105.333 73.5 178 73.5c70 0 127.167 -24.333 171.5 -73s66.5 -112 66.5 -190zM276 430.001c-72 0 -115.667 -40 -131 -120h256c-6.66699 40 -21 70 -43 90
s-49.333 30 -82 30z" />
    <glyph glyph-name="Gcircumflex" unicode="&#x11c;" horiz-adv-x="739" 
d="M436 770l-58 68l-59 -68h-119l128 137h99l128 -137h-119zM378 378l328.999 0.000976562c1.33301 -10 2 -24.667 2 -44c0 -106.667 -31 -190.834 -93 -252.501s-141.333 -92.5 -238 -92.5c-98.667 0 -181 33.333 -247 100s-99 153.667 -99 261
c0 108 32.667 195.167 98 261.5s148.666 99.5 249.999 99.5c67.333 0 129.333 -17.5 186 -52.5s98.334 -85.833 125.001 -152.5l-101 -53c-42 100 -112.333 150 -211 150c-65.333 0 -119.166 -22.833 -161.499 -68.5s-63.5 -107.167 -63.5 -184.5
c0 -76.667 21.5 -138 64.5 -184s96.167 -69 159.5 -69c60.667 0 109 16 145 48s57.667 77.333 65 136h-210v97z" />
    <glyph glyph-name="gcircumflex" unicode="&#x11d;" horiz-adv-x="556" 
d="M340 580l-58 69l-59 -69h-119l128 138h99l128 -138h-119zM274 115l28.001 -0.000976562c80.667 0 141.5 -13.5 182.5 -40.5s61.5 -63.167 61.5 -108.5c0 -46 -21.833 -82.667 -65.5 -110s-109.5 -41 -197.5 -41c-89.333 0 -155.833 12.167 -199.5 36.5
s-65.5 54.833 -65.5 91.5c0 47.333 28.333 81 85 101c-50 19.333 -75 50 -75 92c0 26 8.83301 47.5 26.5 64.5s42.5 28.833 74.5 35.5c-47.333 29.333 -71 69.333 -71 120c0 49.333 21 89.333 63 120s95.333 46 160 46c42 0 71.167 0.166992 87.5 0.5s39.166 3 68.499 8
s54.333 12.5 75 22.5l33 -86c-30.667 -12.667 -64 -21.667 -100 -27c37.333 -22.667 56 -55 56 -97c0 -45.333 -21 -82 -63 -110s-97 -42 -165 -42c-47.333 0 -82.5 -2.33301 -105.5 -7s-34.5 -15.667 -34.5 -33c0 -15.333 12.5 -25.166 37.5 -29.499s59.5 -6.5 103.5 -6.5z
M281.001 432.999c-34.667 0 -62.167 -6.83301 -82.5 -20.5s-30.5 -32.834 -30.5 -57.501s10.167 -43.834 30.5 -57.501s47.833 -20.5 82.5 -20.5s62 6.83301 82 20.5s30 32.834 30 57.501s-10 43.834 -30 57.501s-47.333 20.5 -82 20.5zM283.001 -101.001
c96.667 0 145 20 145 60c0 39.333 -48.333 59 -145 59c-98.667 0 -148 -19.667 -148 -59c0 -40 49.333 -60 148 -60z" />
    <glyph glyph-name="Gbreve" unicode="&#x11e;" horiz-adv-x="739" 
d="M377 768c-46 0 -84.333 12.5 -115 37.5s-47.334 58.833 -50.001 101.5h96c4 -42.667 27 -64 69 -64s65 21.333 69 64h96c-1.33301 -42.667 -17.666 -76.5 -48.999 -101.5s-70 -37.5 -116 -37.5zM378 378l328.999 0.000976562c1.33301 -10 2 -24.667 2 -44
c0 -106.667 -31 -190.834 -93 -252.501s-141.333 -92.5 -238 -92.5c-98.667 0 -181 33.333 -247 100s-99 153.667 -99 261c0 108 32.667 195.167 98 261.5s148.666 99.5 249.999 99.5c67.333 0 129.333 -17.5 186 -52.5s98.334 -85.833 125.001 -152.5l-101 -53
c-42 100 -112.333 150 -211 150c-65.333 0 -119.166 -22.833 -161.499 -68.5s-63.5 -107.167 -63.5 -184.5c0 -76.667 21.5 -138 64.5 -184s96.167 -69 159.5 -69c60.667 0 109 16 145 48s57.667 77.333 65 136h-210v97z" />
    <glyph glyph-name="gbreve" unicode="&#x11f;" horiz-adv-x="556" 
d="M281 578c-46 0 -84.333 12.5 -115 37.5s-47.334 58.833 -50.001 101.5h96c4 -42 27 -63 69 -63s65 21 69 63h96c-1.33301 -42.667 -17.666 -76.5 -48.999 -101.5s-70 -37.5 -116 -37.5zM283 -185c-89.333 0 -155.832 12.166 -199.499 36.499s-65.5 54.833 -65.5 91.5
c0 47.333 28.333 81 85 101c-50 19.333 -75 50 -75 92c0 26 8.83301 47.5 26.5 64.5s42.5 28.833 74.5 35.5c-47.333 29.333 -71 69.333 -71 120c0 49.333 21 89.333 63 120s95.333 46 160 46c42 0 71.167 0.166992 87.5 0.5s39.166 3 68.499 8s54.333 12.5 75 22.5l33 -86
c-30.667 -12.667 -64 -21.667 -100 -27c37.333 -22.667 56 -55 56 -97c0 -45.333 -21 -82 -63 -110s-97 -42 -165 -42c-47.333 0 -82.5 -2.33301 -105.5 -7s-34.5 -15.667 -34.5 -33c0 -15.333 12.5 -25.166 37.5 -29.499s59.5 -6.5 103.5 -6.5h28
c80.667 0 141.5 -13.5 182.5 -40.5s61.5 -63.167 61.5 -108.5c0 -46 -21.833 -82.667 -65.5 -110s-109.5 -41 -197.5 -41zM281.001 276.999c34.667 0 62 6.83301 82 20.5s30 32.834 30 57.501s-10 43.834 -30 57.501s-47.333 20.5 -82 20.5s-62.167 -6.83301 -82.5 -20.5
s-30.5 -32.834 -30.5 -57.501s10.167 -43.834 30.5 -57.501s47.833 -20.5 82.5 -20.5zM283.001 -101.001c96.667 0 145 20 145 60c0 39.333 -48.333 59 -145 59c-98.667 0 -148 -19.667 -148 -59c0 -40 49.333 -60 148 -60z" />
    <glyph glyph-name="Gdotaccent" unicode="&#x120;" horiz-adv-x="739" 
d="M377 767c-21.333 0 -39 6.16699 -53 18.5s-21 29.166 -21 50.499c0 20.667 7 37.5 21 50.5s31.667 19.5 53 19.5c20.667 0 38 -6.5 52 -19.5s21 -29.833 21 -50.5c0 -21.333 -6.83301 -38.166 -20.5 -50.499s-31.167 -18.5 -52.5 -18.5zM378 378l328.999 0.000976562
c1.33301 -10 2 -24.667 2 -44c0 -106.667 -31 -190.834 -93 -252.501s-141.333 -92.5 -238 -92.5c-98.667 0 -181 33.333 -247 100s-99 153.667 -99 261c0 108 32.667 195.167 98 261.5s148.666 99.5 249.999 99.5c67.333 0 129.333 -17.5 186 -52.5
s98.334 -85.833 125.001 -152.5l-101 -53c-42 100 -112.333 150 -211 150c-65.333 0 -119.166 -22.833 -161.499 -68.5s-63.5 -107.167 -63.5 -184.5c0 -76.667 21.5 -138 64.5 -184s96.167 -69 159.5 -69c60.667 0 109 16 145 48s57.667 77.333 65 136h-210v97z" />
    <glyph glyph-name="gdotaccent" unicode="&#x121;" horiz-adv-x="556" 
d="M282 577c-21.333 0 -39 6.33301 -53 19s-21 29.334 -21 50.001c0 21.333 7 38.333 21 51s31.667 19 53 19c20.667 0 38 -6.33301 52 -19s21 -29.667 21 -51c0 -20.667 -7 -37.334 -21 -50.001s-31.333 -19 -52 -19zM283 -185c-89.333 0 -155.832 12.166 -199.499 36.499
s-65.5 54.833 -65.5 91.5c0 47.333 28.333 81 85 101c-50 19.333 -75 50 -75 92c0 26 8.83301 47.5 26.5 64.5s42.5 28.833 74.5 35.5c-47.333 29.333 -71 69.333 -71 120c0 49.333 21 89.333 63 120s95.333 46 160 46c42 0 71.167 0.166992 87.5 0.5s39.166 3 68.499 8
s54.333 12.5 75 22.5l33 -86c-30.667 -12.667 -64 -21.667 -100 -27c37.333 -22.667 56 -55 56 -97c0 -45.333 -21 -82 -63 -110s-97 -42 -165 -42c-47.333 0 -82.5 -2.33301 -105.5 -7s-34.5 -15.667 -34.5 -33c0 -15.333 12.5 -25.166 37.5 -29.499s59.5 -6.5 103.5 -6.5
h28c80.667 0 141.5 -13.5 182.5 -40.5s61.5 -63.167 61.5 -108.5c0 -46 -21.833 -82.667 -65.5 -110s-109.5 -41 -197.5 -41zM281.001 276.999c34.667 0 62 6.83301 82 20.5s30 32.834 30 57.501s-10 43.834 -30 57.501s-47.333 20.5 -82 20.5s-62.167 -6.83301 -82.5 -20.5
s-30.5 -32.834 -30.5 -57.501s10.167 -43.834 30.5 -57.501s47.833 -20.5 82.5 -20.5zM283.001 -101.001c96.667 0 145 20 145 60c0 39.333 -48.333 59 -145 59c-98.667 0 -148 -19.667 -148 -59c0 -40 49.333 -60 148 -60z" />
    <glyph glyph-name="uni0122" unicode="&#x122;" horiz-adv-x="739" 
d="M378 378l328.999 0.000976562c1.33301 -10 2 -24.667 2 -44c0 -106.667 -31 -190.834 -93 -252.501s-141.333 -92.5 -238 -92.5c-98.667 0 -181 33.333 -247 100s-99 153.667 -99 261c0 108 32.667 195.167 98 261.5s148.666 99.5 249.999 99.5
c67.333 0 129.333 -17.5 186 -52.5s98.334 -85.833 125.001 -152.5l-101 -53c-42 100 -112.333 150 -211 150c-65.333 0 -119.166 -22.833 -161.499 -68.5s-63.5 -107.167 -63.5 -184.5c0 -76.667 21.5 -138 64.5 -184s96.167 -69 159.5 -69c60.667 0 109 16 145 48
s57.667 77.333 65 136h-210v97zM378.999 -39.999c20.667 0 37.333 -5.33301 50 -16s19 -24.667 19 -42s-8 -37 -24 -59l-53 -71l-56 32l38 49c-29.333 7.33301 -44 24.333 -44 51c0 16.667 6.5 30.167 19.5 40.5s29.833 15.5 50.5 15.5z" />
    <glyph glyph-name="uni0123" unicode="&#x123;" horiz-adv-x="556" 
d="M281 571c-20.667 0 -37.499 5.33203 -50.499 15.999s-19.5 24.334 -19.5 41.001c0 17.333 8.33301 37.333 25 60l57 79l57 -31l-44 -58c29.333 -7.33301 44 -24.333 44 -51c0 -16.667 -6.33301 -30.167 -19 -40.5s-29.334 -15.5 -50.001 -15.5zM274.001 114.999
l28.001 -0.000976562c80.667 0 141.5 -13.5 182.5 -40.5s61.5 -63.167 61.5 -108.5c0 -46 -21.833 -82.667 -65.5 -110s-109.5 -41 -197.5 -41c-89.333 0 -155.833 12.167 -199.5 36.5s-65.5 54.833 -65.5 91.5c0 47.333 28.333 81 85 101c-50 19.333 -75 50 -75 92
c0 26 8.83301 47.5 26.5 64.5s42.5 28.833 74.5 35.5c-47.333 29.333 -71 69.333 -71 120c0 49.333 21 89.333 63 120s95.333 46 160 46c42 0 71.167 0.166992 87.5 0.5s39.166 3 68.499 8s54.333 12.5 75 22.5l33 -86c-30.667 -12.667 -64 -21.667 -100 -27
c37.333 -22.667 56 -55 56 -97c0 -45.333 -21 -82 -63 -110s-97 -42 -165 -42c-47.333 0 -82.5 -2.33301 -105.5 -7s-34.5 -15.667 -34.5 -33c0 -15.333 12.5 -25.166 37.5 -29.499s59.5 -6.5 103.5 -6.5zM281.002 432.998c-34.667 0 -62.167 -6.83301 -82.5 -20.5
s-30.5 -32.834 -30.5 -57.501s10.167 -43.834 30.5 -57.501s47.833 -20.5 82.5 -20.5s62 6.83301 82 20.5s30 32.834 30 57.501s-10 43.834 -30 57.501s-47.333 20.5 -82 20.5zM283.002 -101.002c96.667 0 145 20 145 60c0 39.333 -48.333 59 -145 59
c-98.667 0 -148 -19.667 -148 -59c0 -40 49.333 -60 148 -60z" />
    <glyph glyph-name="Hcircumflex" unicode="&#x124;" horiz-adv-x="699" 
d="M403 770l-58 68l-59 -68h-119l128 137h99l128 -137h-119zM520 406v294h117v-700h-117v301h-341v-301h-116v700h116v-294h341z" />
    <glyph glyph-name="hcircumflex" unicode="&#x125;" horiz-adv-x="542" 
d="M333 769l-58 69l-59 -69h-119l128 138h99l128 -138h-119zM310 522c54 0 98.333 -18.167 133 -54.5s52 -83.833 52 -142.5v-325h-111v307c0 36 -9.5 64.5 -28.5 85.5s-43.833 31.5 -74.5 31.5c-35.333 0 -63.833 -11 -85.5 -33s-32.5 -51.667 -32.5 -89v-302h-111v700h111
v-261c30.667 55.333 79.667 83 147 83z" />
    <glyph glyph-name="Hbar" unicode="&#x126;" horiz-adv-x="762" 
d="M668 590h76v-92h-76v-498h-117v301h-340v-301h-117v498h-76v92h76v110h117v-110h340v110h117v-110zM211 406h340v92h-340v-92z" />
    <glyph glyph-name="hbar" unicode="&#x127;" horiz-adv-x="542" 
d="M310 511c54 0 98.333 -18.167 133 -54.5s52 -83.833 52 -142.5v-314h-111v296c0 36 -9.5 64.5 -28.5 85.5s-43.833 31.5 -74.5 31.5c-35.333 0 -63.833 -11 -85.5 -33s-32.5 -51.667 -32.5 -89v-291h-111v547h-64v81h64v72h111v-72h123v-81h-123v-119
c30.667 55.333 79.667 83 147 83z" />
    <glyph glyph-name="Itilde" unicode="&#x128;" horiz-adv-x="243" 
d="M189 769c-20 0 -37.5 4.16797 -52.5 12.501s-27.667 16.666 -38 24.999s-19.5 12.5 -27.5 12.5c-20 0 -30 -15 -30 -45h-90c0 40 11.333 72 34 96s49 36 79 36c20 0 37.5 -4.33301 52.5 -13s27.667 -17.167 38 -25.5s19.5 -12.5 27.5 -12.5c19.333 0 29 15.333 29 46h91
c0 -40 -11.333 -72 -34 -96s-49 -36 -79 -36zM63 700.001h117v-700h-117v700z" />
    <glyph glyph-name="itilde" unicode="&#x129;" horiz-adv-x="215" 
d="M176 580c-20 0 -37.5 4.16699 -52.5 12.5s-27.667 16.666 -38 24.999s-19.5 12.5 -27.5 12.5c-20 0 -30 -15.333 -30 -46h-90c0 40 11.333 72 34 96s49 36 79 36c20 0 37.5 -4.16699 52.5 -12.5s27.667 -16.666 38 -24.999s19.5 -12.5 27.5 -12.5c19.333 0 29 15 29 45
h91c0 -40 -11.333 -71.833 -34 -95.5s-49 -35.5 -79 -35.5zM52 511h111v-511h-111v511z" />
    <glyph glyph-name="Imacron" unicode="&#x12a;" horiz-adv-x="243" 
d="M282 789h-322v91h322v-91zM63 700h117v-700h-117v700z" />
    <glyph glyph-name="imacron" unicode="&#x12b;" horiz-adv-x="215" 
d="M269 599h-322v92h322v-92zM52 511h111v-511h-111v511z" />
    <glyph glyph-name="Ibreve" unicode="&#x12c;" horiz-adv-x="243" 
d="M121 768c-46 0 -84.333 12.5 -115 37.5s-47.334 58.833 -50.001 101.5h96c4 -42.667 27 -64 69 -64s65 21.333 69 64h96c-1.33301 -42.667 -17.666 -76.5 -48.999 -101.5s-70 -37.5 -116 -37.5zM63 700h117v-700h-117v700z" />
    <glyph glyph-name="ibreve" unicode="&#x12d;" horiz-adv-x="215" 
d="M108 578c-46 0 -84.333 12.5 -115 37.5s-47.334 58.833 -50.001 101.5h96c4 -42 27 -63 69 -63s65 21 69 63h96c-1.33301 -42.667 -17.666 -76.5 -48.999 -101.5s-70 -37.5 -116 -37.5zM52 511h111v-511h-111v511z" />
    <glyph glyph-name="Iogonek" unicode="&#x12e;" horiz-adv-x="243" 
d="M166 -82h31v-94h-63c-30.667 0 -54.667 7.66699 -72 23s-26 34 -26 56c0 27.333 13 52.333 39 75l25 22h-37v700h117v-700h-1l-27 -29c-10 -10.667 -15 -21 -15 -31c0 -14.667 9.66699 -22 29 -22z" />
    <glyph glyph-name="iogonek" unicode="&#x12f;" horiz-adv-x="215" 
d="M109 586c-21.333 0 -39 6.16699 -53 18.5s-21 29.166 -21 50.499s7 38.333 21 51s31.667 19 53 19c20.667 0 38 -6.33301 52 -19s21 -29.667 21 -51s-6.83301 -38.166 -20.5 -50.499s-31.167 -18.5 -52.5 -18.5zM121 -60c0 -14.667 9.66699 -22 29 -22h31v-94h-63
c-30.667 0 -54.667 7.66699 -72 23s-26 34 -26 56c0 27.333 13 52.333 39 75l25 22h-32v511h111v-511l-27 -29c-10 -10.667 -15 -21 -15 -31z" />
    <glyph glyph-name="Idotaccent" unicode="&#x130;" horiz-adv-x="243" 
d="M121 767c-21.333 0 -39 6.16699 -53 18.5s-21 29.166 -21 50.499c0 20.667 7 37.5 21 50.5s31.667 19.5 53 19.5c20.667 0 38 -6.5 52 -19.5s21 -29.833 21 -50.5c0 -21.333 -6.83301 -38.166 -20.5 -50.499s-31.167 -18.5 -52.5 -18.5zM63 700h117v-700h-117v700z" />
    <glyph glyph-name="dotlessi" unicode="&#x131;" horiz-adv-x="215" 
d="M52 511h111v-511h-111v511z" />
    <glyph glyph-name="Jcircumflex" unicode="&#x134;" horiz-adv-x="500" 
d="M335 907h99l128 -137h-119l-58 68l-59 -68h-119zM326 226l0.00195312 474h116v-479c0 -74 -20.667 -131.167 -62 -171.5s-96.333 -60.5 -165 -60.5c-101.333 0 -173 49 -215 147l94 51c23.333 -60 62.666 -90 117.999 -90c35.333 0 63.166 11 83.499 33s30.5 54 30.5 96z
" />
    <glyph glyph-name="jcircumflex" unicode="&#x135;" horiz-adv-x="215" 
d="M59 718h99l128 -138h-119l-58 69l-59 -69h-119zM52 -14v525h111v-531c0 -50 -12.333 -88.667 -37 -116s-58 -41 -100 -41h-34v104h17c28.667 0 43 19.667 43 59z" />
    <glyph glyph-name="uni0136" unicode="&#x136;" horiz-adv-x="630" 
d="M625 700l-317 -344l341 -356h-157l-312 328v-328h-117v700h117v-327l294 327h151zM322 -40c20.667 0 37.333 -5.33301 50 -16s19 -24.667 19 -42s-8 -37 -24 -59l-53 -71l-56 32l38 49c-29.333 7.33301 -44 24.333 -44 51c0 16.667 6.5 30.167 19.5 40.5
s29.833 15.5 50.5 15.5z" />
    <glyph glyph-name="uni0137" unicode="&#x137;" horiz-adv-x="495" 
d="M499 511l-218 -240l224 -271h-136l-205 255v-255h-112v700h112v-418l199 229h136zM263 -40c20.667 0 37.333 -5.33301 50 -16s19 -24.667 19 -42s-8 -37 -24 -59l-53 -71l-56 32l38 49c-29.333 7.33301 -44 24.333 -44 51c0 16.667 6.5 30.167 19.5 40.5
s29.833 15.5 50.5 15.5z" />
    <glyph glyph-name="Lacute" unicode="&#x139;" horiz-adv-x="528" 
d="M158 769h-108l88 138h125zM180 700v-595h336v-105h-453v700h117z" />
    <glyph glyph-name="lacute" unicode="&#x13a;" horiz-adv-x="263" 
d="M146 769h-108l88 137h125zM253 0h-58c-46 0 -81.167 13 -105.5 39s-36.5 61.333 -36.5 106v555h111v-548c0 -37.333 16.667 -56 50 -56h39v-96z" />
    <glyph glyph-name="uni013B" unicode="&#x13b;" horiz-adv-x="528" 
d="M180 700v-595h336v-105h-453v700h117zM290 -40c20.667 0 37.333 -5.33301 50 -16s19 -24.667 19 -42s-8 -37 -24 -59l-53 -71l-56 32l38 49c-29.333 7.33301 -44 24.333 -44 51c0 16.667 6.5 30.167 19.5 40.5s29.833 15.5 50.5 15.5z" />
    <glyph glyph-name="uni013C" unicode="&#x13c;" horiz-adv-x="263" 
d="M214 96h39v-96h-58c-46 0 -81.167 13 -105.5 39s-36.5 61.333 -36.5 106v555h111v-548c0 -37.333 16.667 -56 50 -56zM162 -40c20.667 0 37.333 -5.33301 50 -16s19 -24.667 19 -42s-8 -37 -24 -59l-53 -71l-56 32l38 49c-29.333 7.33301 -44 24.333 -44 51
c0 16.667 6.5 30.167 19.5 40.5s29.833 15.5 50.5 15.5z" />
    <glyph glyph-name="Lcaron" unicode="&#x13d;" horiz-adv-x="528" 
d="M180 700v-595h336v-105h-453v700h117zM281 479v221h98v-110l-27 -111h-71z" />
    <glyph glyph-name="lcaron" unicode="&#x13e;" horiz-adv-x="303" 
d="M253 0h-58c-46 0 -81.167 13 -105.5 39s-36.5 61.333 -36.5 106v555h111v-548c0 -37.333 16.667 -56 50 -56h39v-96zM212 479v221h98v-110l-27 -111h-71z" />
    <glyph glyph-name="Ldot" unicode="&#x13f;" horiz-adv-x="528" 
d="M180 700v-595h336v-105h-453v700h117zM385 299c-21.333 0 -39 6.16699 -53 18.5s-21 29.166 -21 50.499s7 38.333 21 51s31.667 19 53 19c20.667 0 38 -6.33301 52 -19s21 -29.667 21 -51s-6.83301 -38.166 -20.5 -50.499s-31.167 -18.5 -52.5 -18.5z" />
    <glyph glyph-name="ldot" unicode="&#x140;" horiz-adv-x="356" 
d="M253 0h-58c-46 0 -81.167 13 -105.5 39s-36.5 61.333 -36.5 106v555h111v-548c0 -37.333 16.667 -56 50 -56h39v-96zM287 298c-20.667 0 -37.834 6.16699 -51.501 18.5s-20.5 28.5 -20.5 48.5s6.83301 36.333 20.5 49s30.834 19 51.501 19s37.667 -6.33301 51 -19
s20 -29 20 -49s-6.66699 -36.167 -20 -48.5s-30.333 -18.5 -51 -18.5z" />
    <glyph glyph-name="Lslash" unicode="&#x141;" horiz-adv-x="564" 
d="M216 302v-197h336v-105h-453v274l-83 -26v103l83 25v324h117v-294l205 63v-103z" />
    <glyph glyph-name="lslash" unicode="&#x142;" horiz-adv-x="332" 
d="M259 96h40v-96h-59c-45.333 0 -80.333 13 -105 39s-37 61.333 -37 106v172l-76 -24v97l76 23v287h112v-259l84 26v-97l-84 -26v-192c0 -37.333 16.333 -56 49 -56z" />
    <glyph glyph-name="Nacute" unicode="&#x143;" horiz-adv-x="719" 
d="M401 769h-108l88 138h125zM539 700h117v-700h-107l-370 505v-505h-116v700h106l370 -505v505z" />
    <glyph glyph-name="nacute" unicode="&#x144;" horiz-adv-x="542" 
d="M296 717h125l-105 -137h-108zM310 522c54 0 98.333 -18.167 133 -54.5s52 -83.833 52 -142.5v-325h-111v307c0 36 -9.5 64.5 -28.5 85.5s-43.833 31.5 -74.5 31.5c-35.333 0 -63.833 -11 -85.5 -33s-32.5 -51.667 -32.5 -89v-302h-111v511h111v-72
c30.667 55.333 79.667 83 147 83z" />
    <glyph glyph-name="uni0145" unicode="&#x145;" horiz-adv-x="719" 
d="M539 195v505h117v-700h-107l-370 505v-505h-116v700h106zM361 -40c20.667 0 37.333 -5.33301 50 -16s19 -24.667 19 -42s-8 -37 -24 -59l-53 -71l-56 32l38 49c-29.333 7.33301 -44 24.333 -44 51c0 16.667 6.5 30.167 19.5 40.5s29.833 15.5 50.5 15.5z" />
    <glyph glyph-name="uni0146" unicode="&#x146;" horiz-adv-x="542" 
d="M310 522c54 0 98.333 -18.167 133 -54.5s52 -83.833 52 -142.5v-325h-111v307c0 36 -9.5 64.5 -28.5 85.5s-43.833 31.5 -74.5 31.5c-35.333 0 -63.833 -11 -85.5 -33s-32.5 -51.667 -32.5 -89v-302h-111v511h111v-72c30.667 55.333 79.667 83 147 83zM275 -40
c20.667 0 37.333 -5.33301 50 -16s19 -24.667 19 -42s-8 -37 -24 -59l-53 -71l-56 32l38 49c-29.333 7.33301 -44 24.333 -44 51c0 16.667 6.5 30.167 19.5 40.5s29.833 15.5 50.5 15.5z" />
    <glyph glyph-name="Ncaron" unicode="&#x147;" horiz-adv-x="719" 
d="M541 907l-128 -138h-100l-127 138h119l59 -69l58 69h119zM539 195v505h117v-700h-107l-370 505v-505h-116v700h106z" />
    <glyph glyph-name="ncaron" unicode="&#x148;" horiz-adv-x="542" 
d="M457 717l-128 -137h-100l-127 137h119l59 -68l58 68h119zM310 522c54 0 98.333 -18.167 133 -54.5s52 -83.833 52 -142.5v-325h-111v307c0 36 -9.5 64.5 -28.5 85.5s-43.833 31.5 -74.5 31.5c-35.333 0 -63.833 -11 -85.5 -33s-32.5 -51.667 -32.5 -89v-302h-111v511h111
v-72c30.667 55.333 79.667 83 147 83z" />
    <glyph glyph-name="Eng" unicode="&#x14a;" horiz-adv-x="714" 
d="M539 195l-0.000976562 505h117v-715c0 -50.667 -14 -90.667 -42 -120s-67.667 -44 -119 -44h-66v104h53c20.667 0 35.334 6.33301 44.001 19s13 31.667 13 57v12l-360 492v-505h-116v700h106z" />
    <glyph glyph-name="eng" unicode="&#x14b;" horiz-adv-x="542" 
d="M310 522c54 0 98.333 -18.167 133 -54.5s52 -83.833 52 -142.5v-345c0 -50 -12.333 -88.667 -37 -116s-58 -41 -100 -41h-34v104h17c28.667 0 43 19.667 43 59v321c0 36 -9.5 64.5 -28.5 85.5s-43.833 31.5 -74.5 31.5c-35.333 0 -63.833 -11 -85.5 -33
s-32.5 -51.667 -32.5 -89v-302h-111v511h111v-72c30.667 55.333 79.667 83 147 83z" />
    <glyph glyph-name="Omacron" unicode="&#x14c;" horiz-adv-x="771" 
d="M547 789h-322v91h322v-91zM386 -11c-104.667 0 -190 33.333 -256 100s-99 153.667 -99 261s33 194.333 99 261s151.333 100 256 100s189.834 -33.333 255.501 -100s98.5 -153.667 98.5 -261s-32.833 -194.333 -98.5 -261s-150.834 -100 -255.501 -100zM386 97
c68 0 123.667 22.833 167 68.5s65 107.167 65 184.5s-21.667 138.833 -65 184.5s-99 68.5 -167 68.5c-68.667 0 -124.667 -22.833 -168 -68.5s-65 -107.167 -65 -184.5s21.667 -138.833 65 -184.5s99.333 -68.5 168 -68.5z" />
    <glyph glyph-name="omacron" unicode="&#x14d;" horiz-adv-x="580" 
d="M451 599h-322v92h322v-92zM290 -11c-75.333 0 -137.666 24.833 -186.999 74.5s-74 113.834 -74 192.501c0 78 24.667 141.833 74 191.5s111.666 74.5 186.999 74.5s137.666 -24.833 186.999 -74.5s74 -113.5 74 -191.5c0 -78.667 -24.667 -142.834 -74 -192.501
s-111.666 -74.5 -186.999 -74.5zM290 88c43.333 0 78.833 15 106.5 45s41.5 71 41.5 123c0 51.333 -13.833 91.833 -41.5 121.5s-63.167 44.5 -106.5 44.5s-78.666 -14.833 -105.999 -44.5s-41 -70.167 -41 -121.5c0 -52 13.667 -93 41 -123s62.666 -45 105.999 -45z" />
    <glyph glyph-name="Obreve" unicode="&#x14e;" horiz-adv-x="771" 
d="M386 768c-46 0 -84.333 12.5 -115 37.5s-47.334 58.833 -50.001 101.5h96c4 -42.667 27 -64 69 -64s65 21.333 69 64h96c-1.33301 -42.667 -17.666 -76.5 -48.999 -101.5s-70 -37.5 -116 -37.5zM386 -11c-104.667 0 -190 33.333 -256 100s-99 153.667 -99 261
s33 194.333 99 261s151.333 100 256 100s189.834 -33.333 255.501 -100s98.5 -153.667 98.5 -261s-32.833 -194.333 -98.5 -261s-150.834 -100 -255.501 -100zM386 97c68 0 123.667 22.833 167 68.5s65 107.167 65 184.5s-21.667 138.833 -65 184.5s-99 68.5 -167 68.5
c-68.667 0 -124.667 -22.833 -168 -68.5s-65 -107.167 -65 -184.5s21.667 -138.833 65 -184.5s99.333 -68.5 168 -68.5z" />
    <glyph glyph-name="obreve" unicode="&#x14f;" horiz-adv-x="580" 
d="M290 578c-46 0 -84.333 12.5 -115 37.5s-47.334 58.833 -50.001 101.5h96c4 -42 27 -63 69 -63s65 21 69 63h96c-1.33301 -42.667 -17.666 -76.5 -48.999 -101.5s-70 -37.5 -116 -37.5zM290 -11c-75.333 0 -137.666 24.833 -186.999 74.5s-74 113.834 -74 192.501
c0 78 24.667 141.833 74 191.5s111.666 74.5 186.999 74.5s137.666 -24.833 186.999 -74.5s74 -113.5 74 -191.5c0 -78.667 -24.667 -142.834 -74 -192.501s-111.666 -74.5 -186.999 -74.5zM290 88c43.333 0 78.833 15 106.5 45s41.5 71 41.5 123
c0 51.333 -13.833 91.833 -41.5 121.5s-63.167 44.5 -106.5 44.5s-78.666 -14.833 -105.999 -44.5s-41 -70.167 -41 -121.5c0 -52 13.667 -93 41 -123s62.666 -45 105.999 -45z" />
    <glyph glyph-name="Ohungarumlaut" unicode="&#x150;" horiz-adv-x="771" 
d="M438 907l-99 -138h-107l87 138h119zM641 907l-109 -138h-107l91 138h125zM386 -11c-104.667 0 -190 33.333 -256 100s-99 153.667 -99 261s33 194.333 99 261s151.333 100 256 100s189.834 -33.333 255.501 -100s98.5 -153.667 98.5 -261s-32.833 -194.333 -98.5 -261
s-150.834 -100 -255.501 -100zM386 97c68 0 123.667 22.833 167 68.5s65 107.167 65 184.5s-21.667 138.833 -65 184.5s-99 68.5 -167 68.5c-68.667 0 -124.667 -22.833 -168 -68.5s-65 -107.167 -65 -184.5s21.667 -138.833 65 -184.5s99.333 -68.5 168 -68.5z" />
    <glyph glyph-name="ohungarumlaut" unicode="&#x151;" horiz-adv-x="580" 
d="M342 717l-99 -137h-107l87 137h119zM545 717l-109 -137h-107l91 137h125zM290 -11c-75.333 0 -137.666 24.833 -186.999 74.5s-74 113.834 -74 192.501c0 78 24.667 141.833 74 191.5s111.666 74.5 186.999 74.5s137.666 -24.833 186.999 -74.5s74 -113.5 74 -191.5
c0 -78.667 -24.667 -142.834 -74 -192.501s-111.666 -74.5 -186.999 -74.5zM290 88c43.333 0 78.833 15 106.5 45s41.5 71 41.5 123c0 51.333 -13.833 91.833 -41.5 121.5s-63.167 44.5 -106.5 44.5s-78.666 -14.833 -105.999 -44.5s-41 -70.167 -41 -121.5
c0 -52 13.667 -93 41 -123s62.666 -45 105.999 -45z" />
    <glyph glyph-name="OE" unicode="&#x152;" horiz-adv-x="1135" 
d="M1099 700v-105h-366v-188h325v-102h-325v-200h366v-105h-483v96c-60 -71.333 -139 -107 -237 -107c-102 0 -185.333 33.333 -250 100s-97 153.667 -97 261s32.333 194.333 97 261s148 100 250 100c98 0 177 -35.667 237 -107v96h483zM386 97
c68.667 0 124.5 22.667 167.5 68s64.5 107 64.5 185s-21.5 139.667 -64.5 185s-98.833 68 -167.5 68c-68 0 -123.667 -22.833 -167 -68.5s-65 -107.167 -65 -184.5s21.667 -138.833 65 -184.5s99 -68.5 167 -68.5z" />
    <glyph glyph-name="oe" unicode="&#x153;" horiz-adv-x="954" 
d="M923 259c0 -12.667 -0.332031 -22.001 -0.999023 -28.001h-371c3.33301 -47.333 17.166 -83.5 41.499 -108.5s55.5 -37.5 93.5 -37.5c67.333 0 114.333 34.333 141 103l94 -36c-20.667 -55.333 -51.5 -96.333 -92.5 -123s-87.5 -40 -139.5 -40
c-90.667 0 -157.667 35.333 -201 106c-21.333 -33.333 -49.5 -59.333 -84.5 -78s-74.167 -28 -117.5 -28c-74.667 0 -136.167 24.833 -184.5 74.5s-72.5 113.834 -72.5 192.501c0 78 24.167 141.833 72.5 191.5s109.833 74.5 184.5 74.5c43.333 0 82.5 -9.33301 117.5 -28
s63.167 -44.667 84.5 -78c43.333 70.667 109 106 197 106c70 0 127.167 -24.333 171.5 -73s66.5 -112 66.5 -190zM685.001 429.999c-72.667 0 -116 -40 -130 -120h255c-6.66699 40 -21 70 -43 90s-49.333 30 -82 30zM290.001 87.999c43.333 0 78.833 15 106.5 45
s41.5 71 41.5 123c0 51.333 -13.833 91.833 -41.5 121.5s-63.167 44.5 -106.5 44.5s-78.666 -14.833 -105.999 -44.5s-41 -70.167 -41 -121.5c0 -52 13.667 -93 41 -123s62.666 -45 105.999 -45z" />
    <glyph glyph-name="Racute" unicode="&#x154;" horiz-adv-x="641" 
d="M318 907h125l-105 -138h-108zM630 0l-141 -0.00195312l-195 261h-115v-261h-116v700h276c77.333 0 138.5 -19.667 183.5 -59s67.5 -93.666 67.5 -162.999c0 -52.667 -15.167 -97.167 -45.5 -133.5s-71.833 -61.166 -124.5 -74.499zM332 594.998l-153 -0.000976562v-234
h153c43.333 0 76.833 10 100.5 30s35.5 49 35.5 87c0 38.667 -11.833 67.834 -35.5 87.501s-57.167 29.5 -100.5 29.5z" />
    <glyph glyph-name="racute" unicode="&#x155;" horiz-adv-x="339" 
d="M208 717h125l-105 -137h-108zM163 511l0.000976562 -79c28.667 60 73.667 90 135 90h28v-118h-52c-32.667 0 -59.334 -12 -80.001 -36s-31 -56.333 -31 -97v-271h-111v511h111z" />
    <glyph glyph-name="uni0156" unicode="&#x156;" horiz-adv-x="641" 
d="M420 270l210 -270.002h-141l-195 261h-115v-261h-116v700h276c77.333 0 138.5 -19.667 183.5 -59s67.5 -93.666 67.5 -162.999c0 -52.667 -15.167 -97.167 -45.5 -133.5s-71.833 -61.166 -124.5 -74.499zM332 594.998l-153 -0.000976562v-234h153
c43.333 0 76.833 10 100.5 30s35.5 49 35.5 87c0 38.667 -11.833 67.834 -35.5 87.501s-57.167 29.5 -100.5 29.5zM326 -40.0029c20.667 0 37.333 -5.33301 50 -16s19 -24.667 19 -42s-8 -37 -24 -59l-53 -71l-56 32l38 49c-29.333 7.33301 -44 24.333 -44 51
c0 16.667 6.5 30.167 19.5 40.5s29.833 15.5 50.5 15.5z" />
    <glyph glyph-name="uni0157" unicode="&#x157;" horiz-adv-x="339" 
d="M298 522h28.001v-118h-52c-32.667 0 -59.334 -12 -80.001 -36s-31 -56.333 -31 -97v-271h-111v511h111v-79c28.667 60 73.667 90 135 90zM109.001 -40c20.667 0 37.333 -5.33301 50 -16s19 -24.667 19 -42s-8 -37 -24 -59l-53 -71l-56 32l38 49
c-29.333 7.33301 -44 24.333 -44 51c0 16.667 6.5 30.167 19.5 40.5s29.833 15.5 50.5 15.5z" />
    <glyph glyph-name="Rcaron" unicode="&#x158;" horiz-adv-x="641" 
d="M479 907l-128 -138h-100l-127 138h119l59 -69l58 69h119zM630 0l-141 -0.00195312l-195 261h-115v-261h-116v700h276c77.333 0 138.5 -19.667 183.5 -59s67.5 -93.666 67.5 -162.999c0 -52.667 -15.167 -97.167 -45.5 -133.5s-71.833 -61.166 -124.5 -74.499z
M332 594.998l-153 -0.000976562v-234h153c43.333 0 76.833 10 100.5 30s35.5 49 35.5 87c0 38.667 -11.833 67.834 -35.5 87.501s-57.167 29.5 -100.5 29.5z" />
    <glyph glyph-name="rcaron" unicode="&#x159;" horiz-adv-x="339" 
d="M368 717l-128 -137h-100l-127 137h119l59 -68l58 68h119zM163 511l0.000976562 -79c28.667 60 73.667 90 135 90h28v-118h-52c-32.667 0 -59.334 -12 -80.001 -36s-31 -56.333 -31 -97v-271h-111v511h111z" />
    <glyph glyph-name="Sacute" unicode="&#x15a;" horiz-adv-x="613" 
d="M346 769h-108l88 138h125zM312 -11c-76.667 0 -140.499 18.332 -191.499 54.999s-84.833 91 -101.5 163l105 33c11.333 -46 33.166 -82 65.499 -108s73.166 -39 122.499 -39c46.667 0 83.667 8.33301 111 25s41 39 41 67c0 24.667 -11 44.834 -33 60.501
s-59 30.5 -111 44.5l-80 22c-128.667 34.667 -193 101.334 -193 200.001c0 58.667 23.5 106.5 70.5 143.5s108.5 55.5 184.5 55.5c72.667 0 133.5 -17.833 182.5 -53.5s79.5 -86.5 91.5 -152.5l-105 -27c-9.33301 43.333 -28.833 75.666 -58.5 96.999s-66.167 32 -109.5 32
c-41.333 0 -74.333 -7.83301 -99 -23.5s-37 -36.834 -37 -63.501s9.83301 -47.167 29.5 -61.5s50.834 -27.166 93.501 -38.499l81 -22c141.333 -36.667 212 -104.667 212 -204c0 -62 -24.333 -111.667 -73 -149s-114.667 -56 -198 -56z" />
    <glyph glyph-name="sacute" unicode="&#x15b;" horiz-adv-x="489" 
d="M282 580h-108l88 137h125zM250 -11c-56.667 0 -105.669 13.833 -147.002 41.5s-68.666 69.5 -81.999 125.5l90 29c8 -34.667 24.333 -60.834 49 -78.501s54.334 -26.5 89.001 -26.5c32 0 57.333 5.5 76 16.5s28 25.167 28 42.5c0 16.667 -7.66699 29.667 -23 39
s-41 18.333 -77 27l-50 13c-56.667 14 -98 33.5 -124 58.5s-39 57.167 -39 96.5c0 44 18 79.667 54 107s84 41 144 41c58 0 106.833 -14.333 146.5 -43s62.834 -69 69.501 -121l-93 -23c-11.333 63.333 -52.333 95 -123 95c-27.333 0 -49.333 -5 -66 -15s-25 -23 -25 -39
c0 -17.333 8.33301 -30.666 25 -39.999s42.667 -18.333 78 -27l51 -12c106 -26.667 159 -77.667 159 -153c0 -45.333 -19.333 -82.333 -58 -111s-89.334 -43 -152.001 -43z" />
    <glyph glyph-name="Scircumflex" unicode="&#x15c;" horiz-adv-x="613" 
d="M367 770l-58 68l-59 -68h-119l128 137h99l128 -137h-119zM290 420l81.001 -22.001c141.333 -36.667 212 -104.667 212 -204c0 -62 -24.333 -111.667 -73 -149s-114.667 -56 -198 -56c-76.667 0 -140.5 18.333 -191.5 55s-84.833 91 -101.5 163l105 33
c11.333 -46 33.166 -82 65.499 -108s73.166 -39 122.499 -39c46.667 0 83.667 8.33301 111 25s41 39 41 67c0 24.667 -11 44.834 -33 60.501s-59 30.5 -111 44.5l-80 22c-128.667 34.667 -193 101.334 -193 200.001c0 58.667 23.5 106.5 70.5 143.5s108.5 55.5 184.5 55.5
c72.667 0 133.5 -17.833 182.5 -53.5s79.5 -86.5 91.5 -152.5l-105 -27c-9.33301 43.333 -28.833 75.666 -58.5 96.999s-66.167 32 -109.5 32c-41.333 0 -74.333 -7.83301 -99 -23.5s-37 -36.834 -37 -63.501s9.83301 -47.167 29.5 -61.5s50.834 -27.166 93.501 -38.499z
" />
    <glyph glyph-name="scircumflex" unicode="&#x15d;" horiz-adv-x="489" 
d="M304 580l-58 69l-59 -69h-119l128 138h99l128 -138h-119zM250 308l50.998 -12c106 -26.667 159 -77.667 159 -153c0 -45.333 -19.333 -82.333 -58 -111s-89.334 -43 -152.001 -43c-56.667 0 -105.667 13.833 -147 41.5s-68.666 69.5 -81.999 125.5l90 29
c8 -34.667 24.333 -60.834 49 -78.501s54.334 -26.5 89.001 -26.5c32 0 57.333 5.5 76 16.5s28 25.167 28 42.5c0 16.667 -7.66699 29.667 -23 39s-41 18.333 -77 27l-50 13c-56.667 14 -98 33.5 -124 58.5s-39 57.167 -39 96.5c0 44 18 79.667 54 107s84 41 144 41
c58 0 106.833 -14.333 146.5 -43s62.834 -69 69.501 -121l-93 -23c-11.333 63.333 -52.333 95 -123 95c-27.333 0 -49.333 -5 -66 -15s-25 -23 -25 -39c0 -17.333 8.33301 -30.666 25 -39.999s42.667 -18.333 78 -27z" />
    <glyph glyph-name="Scedilla" unicode="&#x15e;" horiz-adv-x="613" 
d="M583 194c0 -56.667 -20.332 -103 -60.999 -139s-96.667 -57.333 -168 -64l15 -13c25.333 -22.667 38 -47.667 38 -75c0 -22 -8.66699 -40.667 -26 -56s-41 -23 -71 -23h-79v94h47c18.667 0 28 7.33301 28 22c0 10.667 -5 21 -15 31l-18 20
c-66 5.33301 -121 26.166 -165 62.499s-73.667 87.5 -89 153.5l105 33c11.333 -46 33.166 -82 65.499 -108s73.166 -39 122.499 -39c46.667 0 83.667 8.33301 111 25s41 39 41 67c0 24.667 -11 44.834 -33 60.501s-59 30.5 -111 44.5l-80 22
c-128.667 34.667 -193 101.334 -193 200.001c0 58.667 23.5 106.5 70.5 143.5s108.5 55.5 184.5 55.5c72.667 0 133.5 -17.833 182.5 -53.5s79.5 -86.5 91.5 -152.5l-105 -27c-9.33301 43.333 -28.833 75.666 -58.5 96.999s-66.167 32 -109.5 32
c-41.333 0 -74.333 -7.83301 -99 -23.5s-37 -36.834 -37 -63.501s9.83301 -47.167 29.5 -61.5s50.834 -27.166 93.501 -38.499l81 -22c141.333 -36.667 212 -104.667 212 -204z" />
    <glyph glyph-name="scedilla" unicode="&#x15f;" horiz-adv-x="489" 
d="M460 143c0 -41.333 -16.002 -75.832 -48.002 -103.499s-74.667 -43.834 -128 -48.501l14 -13c25.333 -22.667 38 -47.667 38 -75c0 -22 -8.66699 -40.667 -26 -56s-41 -23 -71 -23h-79v94h47c18.667 0 28 7.33301 28 22c0 10.667 -5 21 -15 31l-20 22
c-97.333 16 -157 70.333 -179 163l90 29c8 -34.667 24.333 -60.834 49 -78.501s54.334 -26.5 89.001 -26.5c32 0 57.333 5.5 76 16.5s28 25.167 28 42.5c0 16.667 -7.66699 29.667 -23 39s-41 18.333 -77 27l-50 13c-56.667 14 -98 33.5 -124 58.5s-39 57.167 -39 96.5
c0 44 18 79.667 54 107s84 41 144 41c58 0 106.833 -14.333 146.5 -43s62.834 -69 69.501 -121l-93 -23c-11.333 63.333 -52.333 95 -123 95c-27.333 0 -49.333 -5 -66 -15s-25 -23 -25 -39c0 -17.333 8.33301 -30.666 25 -39.999s42.667 -18.333 78 -27l51 -12
c106 -26.667 159 -77.667 159 -153z" />
    <glyph glyph-name="Scaron" unicode="&#x160;" horiz-adv-x="613" 
d="M486 907l-128 -138h-100l-127 138h119l59 -69l58 69h119zM290 420l81.001 -22.001c141.333 -36.667 212 -104.667 212 -204c0 -62 -24.333 -111.667 -73 -149s-114.667 -56 -198 -56c-76.667 0 -140.5 18.333 -191.5 55s-84.833 91 -101.5 163l105 33
c11.333 -46 33.166 -82 65.499 -108s73.166 -39 122.499 -39c46.667 0 83.667 8.33301 111 25s41 39 41 67c0 24.667 -11 44.834 -33 60.501s-59 30.5 -111 44.5l-80 22c-128.667 34.667 -193 101.334 -193 200.001c0 58.667 23.5 106.5 70.5 143.5s108.5 55.5 184.5 55.5
c72.667 0 133.5 -17.833 182.5 -53.5s79.5 -86.5 91.5 -152.5l-105 -27c-9.33301 43.333 -28.833 75.666 -58.5 96.999s-66.167 32 -109.5 32c-41.333 0 -74.333 -7.83301 -99 -23.5s-37 -36.834 -37 -63.501s9.83301 -47.167 29.5 -61.5s50.834 -27.166 93.501 -38.499z
" />
    <glyph glyph-name="scaron" unicode="&#x161;" horiz-adv-x="489" 
d="M423 717l-128 -137h-100l-127 137h119l59 -68l58 68h119zM250 308l50.998 -12c106 -26.667 159 -77.667 159 -153c0 -45.333 -19.333 -82.333 -58 -111s-89.334 -43 -152.001 -43c-56.667 0 -105.667 13.833 -147 41.5s-68.666 69.5 -81.999 125.5l90 29
c8 -34.667 24.333 -60.834 49 -78.501s54.334 -26.5 89.001 -26.5c32 0 57.333 5.5 76 16.5s28 25.167 28 42.5c0 16.667 -7.66699 29.667 -23 39s-41 18.333 -77 27l-50 13c-56.667 14 -98 33.5 -124 58.5s-39 57.167 -39 96.5c0 44 18 79.667 54 107s84 41 144 41
c58 0 106.833 -14.333 146.5 -43s62.834 -69 69.501 -121l-93 -23c-11.333 63.333 -52.333 95 -123 95c-27.333 0 -49.333 -5 -66 -15s-25 -23 -25 -39c0 -17.333 8.33301 -30.666 25 -39.999s42.667 -18.333 78 -27z" />
    <glyph glyph-name="uni0162" unicode="&#x162;" horiz-adv-x="579" 
d="M567 595h-219v-595h-27l25 -22c25.333 -22.667 38 -47.667 38 -75c0 -22 -8.66699 -40.667 -26 -56s-41 -23 -71 -23h-79v94h47c18.667 0 28 7.33301 28 22c0 10.667 -5 21 -15 31l-27 29h-10v595h-219v105h555v-105z" />
    <glyph glyph-name="uni0163" unicode="&#x163;" horiz-adv-x="352" 
d="M333 511v-90.999h-116v-247c0 -51.333 20.667 -77 62 -77h54v-96h-66c-8 0 -13.667 0.333008 -17 1l13 -16c30 -36.667 45 -64 45 -82c0 -22 -8.83301 -40.667 -26.5 -56s-41.5 -23 -71.5 -23h-88v94h56c19.333 0 29 7.33301 29 22c0 8.66699 -6 22 -18 40l-42 65
c-27.333 29.333 -41 69.666 -41 120.999v254h-95v91h95v104l111 64v-168h116z" />
    <glyph glyph-name="Tcaron" unicode="&#x164;" horiz-adv-x="579" 
d="M470 907l-128 -138h-100l-127 138h119l59 -69l58 69h119zM12 700h555v-105h-219v-595h-117v595h-219v105z" />
    <glyph glyph-name="tcaron" unicode="&#x165;" horiz-adv-x="352" 
d="M262 553v221h98v-110l-27 -111h-71zM106 615l111 64v-168h116v-91h-116v-247c0 -51.333 20.667 -77 62 -77h54v-96h-66c-51.333 -0 -91 14.833 -119 44.5s-42 70.167 -42 121.5v254h-95v91h95v104z" />
    <glyph glyph-name="Tbar" unicode="&#x166;" horiz-adv-x="579" 
d="M567 700v-105h-219v-220h120v-95h-120v-280h-117v280h-119v95h119v220h-219v105h555z" />
    <glyph glyph-name="tbar" unicode="&#x167;" horiz-adv-x="356" 
d="M336 511v-91h-116v-109h116v-81h-116v-57c0 -51.333 21 -77 63 -77h53v-96h-66c-51.333 0 -91 15 -119 45s-42 70.333 -42 121v64h-94v81h94v109h-94v91h94v104l111 64v-168h116z" />
    <glyph glyph-name="Utilde" unicode="&#x168;" horiz-adv-x="685" 
d="M411 769c-20 0 -37.5 4.16797 -52.5 12.501s-27.667 16.666 -38 24.999s-19.5 12.5 -27.5 12.5c-20 0 -30 -15 -30 -45h-90c0 40 11.333 72 34 96s49 36 79 36c20 0 37.5 -4.33301 52.5 -13s27.667 -17.167 38 -25.5s19.5 -12.5 27.5 -12.5c19.333 0 29 15.333 29 46h91
c0 -40 -11.333 -72 -34 -96s-49 -36 -79 -36zM513 700.001h116.999v-413c0 -94.667 -26.167 -168 -78.5 -220s-121.833 -78 -208.5 -78c-87.333 0 -157.166 26 -209.499 78s-78.5 125.333 -78.5 220v413h118v-407c0 -64.667 15.333 -113.5 46 -146.5s72 -49.5 124 -49.5
s93.333 16.5 124 49.5s46 81.833 46 146.5v407z" />
    <glyph glyph-name="utilde" unicode="&#x169;" horiz-adv-x="537" 
d="M337 580c-20 0 -37.5 4.16699 -52.5 12.5s-27.667 16.666 -38 24.999s-19.5 12.5 -27.5 12.5c-20 0 -30 -15.333 -30 -46h-90c0 40 11.333 72 34 96s49 36 79 36c20 0 37.5 -4.16699 52.5 -12.5s27.667 -16.666 38 -24.999s19.5 -12.5 27.5 -12.5c19.333 0 29 15 29 45
h91c0 -40 -11.333 -71.833 -34 -95.5s-49 -35.5 -79 -35.5zM269 -11c-65.333 0 -118.666 19.333 -159.999 58s-62 91.667 -62 159v305h111v-298c0 -40.667 10.167 -71.5 30.5 -92.5s47.166 -31.5 80.499 -31.5s60 10.5 80 31.5s30 51.833 30 92.5v298h111v-305
c0 -67.333 -20.5 -120.333 -61.5 -159s-94.167 -58 -159.5 -58z" />
    <glyph glyph-name="Umacron" unicode="&#x16a;" horiz-adv-x="685" 
d="M504 789h-322v91h322v-91zM513 700h116.999v-413c0 -94.667 -26.167 -168 -78.5 -220s-121.833 -78 -208.5 -78c-87.333 0 -157.166 26 -209.499 78s-78.5 125.333 -78.5 220v413h118v-407c0 -64.667 15.333 -113.5 46 -146.5s72 -49.5 124 -49.5s93.333 16.5 124 49.5
s46 81.833 46 146.5v407z" />
    <glyph glyph-name="umacron" unicode="&#x16b;" horiz-adv-x="537" 
d="M430 599h-322v92h322v-92zM269 -11c-65.333 0 -118.666 19.333 -159.999 58s-62 91.667 -62 159v305h111v-298c0 -40.667 10.167 -71.5 30.5 -92.5s47.166 -31.5 80.499 -31.5s60 10.5 80 31.5s30 51.833 30 92.5v298h111v-305c0 -67.333 -20.5 -120.333 -61.5 -159
s-94.167 -58 -159.5 -58z" />
    <glyph glyph-name="Ubreve" unicode="&#x16c;" horiz-adv-x="685" 
d="M343 768c-46 0 -84.333 12.5 -115 37.5s-47.334 58.833 -50.001 101.5h96c4 -42.667 27 -64 69 -64s65 21.333 69 64h96c-1.33301 -42.667 -17.666 -76.5 -48.999 -101.5s-70 -37.5 -116 -37.5zM513 700h116.999v-413c0 -94.667 -26.167 -168 -78.5 -220
s-121.833 -78 -208.5 -78c-87.333 0 -157.166 26 -209.499 78s-78.5 125.333 -78.5 220v413h118v-407c0 -64.667 15.333 -113.5 46 -146.5s72 -49.5 124 -49.5s93.333 16.5 124 49.5s46 81.833 46 146.5v407z" />
    <glyph glyph-name="ubreve" unicode="&#x16d;" horiz-adv-x="537" 
d="M269 578c-46 0 -84.333 12.5 -115 37.5s-47.334 58.833 -50.001 101.5h96c4 -42 27 -63 69 -63s65 21 69 63h96c-1.33301 -42.667 -17.666 -76.5 -48.999 -101.5s-70 -37.5 -116 -37.5zM269 -11c-65.333 0 -118.666 19.333 -159.999 58s-62 91.667 -62 159v305h111v-298
c0 -40.667 10.167 -71.5 30.5 -92.5s47.166 -31.5 80.499 -31.5s60 10.5 80 31.5s30 51.833 30 92.5v298h111v-305c0 -67.333 -20.5 -120.333 -61.5 -159s-94.167 -58 -159.5 -58z" />
    <glyph glyph-name="Uring" unicode="&#x16e;" horiz-adv-x="685" 
d="M343 749c-37.333 0 -68 10.333 -92 31s-36 47 -36 79c0 31.333 12 57.5 36 78.5s54.667 31.5 92 31.5s68 -10.5 92 -31.5s36 -47.167 36 -78.5c0 -32 -12 -58.333 -36 -79s-54.667 -31 -92 -31zM343 814c16 0 28.667 4.16699 38 12.5s14 19.166 14 32.499
c0 12.667 -4.66699 23.167 -14 31.5s-22 12.5 -38 12.5s-28.667 -4.16699 -38 -12.5s-14 -18.833 -14 -31.5c0 -13.333 4.66699 -24.166 14 -32.499s22 -12.5 38 -12.5zM513 700h116.999v-413c0 -94.667 -26.167 -168 -78.5 -220s-121.833 -78 -208.5 -78
c-87.333 0 -157.166 26 -209.499 78s-78.5 125.333 -78.5 220v413h118v-407c0 -64.667 15.333 -113.5 46 -146.5s72 -49.5 124 -49.5s93.333 16.5 124 49.5s46 81.833 46 146.5v407z" />
    <glyph glyph-name="uring" unicode="&#x16f;" horiz-adv-x="537" 
d="M269 559c-37.333 0 -68 10.333 -92 31s-36 47 -36 79s12 58.333 36 79s54.667 31 92 31s68 -10.333 92 -31s36 -47 36 -79s-12 -58.333 -36 -79s-54.667 -31 -92 -31zM269 624c16 0 28.667 4.16699 38 12.5s14 19.166 14 32.499s-4.66699 24.166 -14 32.499
s-22 12.5 -38 12.5s-28.667 -4.16699 -38 -12.5s-14 -19.166 -14 -32.499s4.66699 -24.166 14 -32.499s22 -12.5 38 -12.5zM269 -11c-65.333 0 -118.666 19.333 -159.999 58s-62 91.667 -62 159v305h111v-298c0 -40.667 10.167 -71.5 30.5 -92.5s47.166 -31.5 80.499 -31.5
s60 10.5 80 31.5s30 51.833 30 92.5v298h111v-305c0 -67.333 -20.5 -120.333 -61.5 -159s-94.167 -58 -159.5 -58z" />
    <glyph glyph-name="Uhungarumlaut" unicode="&#x170;" horiz-adv-x="685" 
d="M395 907l-99 -138h-107l87 138h119zM598 907l-109 -138h-107l91 138h125zM513 700h116.999v-413c0 -94.667 -26.167 -168 -78.5 -220s-121.833 -78 -208.5 -78c-87.333 0 -157.166 26 -209.499 78s-78.5 125.333 -78.5 220v413h118v-407
c0 -64.667 15.333 -113.5 46 -146.5s72 -49.5 124 -49.5s93.333 16.5 124 49.5s46 81.833 46 146.5v407z" />
    <glyph glyph-name="uhungarumlaut" unicode="&#x171;" horiz-adv-x="537" 
d="M321 717l-99 -137h-107l87 137h119zM524 717l-109 -137h-107l91 137h125zM269 -11c-65.333 0 -118.666 19.333 -159.999 58s-62 91.667 -62 159v305h111v-298c0 -40.667 10.167 -71.5 30.5 -92.5s47.166 -31.5 80.499 -31.5s60 10.5 80 31.5s30 51.833 30 92.5v298h111
v-305c0 -67.333 -20.5 -120.333 -61.5 -159s-94.167 -58 -159.5 -58z" />
    <glyph glyph-name="Uogonek" unicode="&#x172;" horiz-adv-x="685" 
d="M513 293l0.000976562 406.998h117v-413c0 -77.333 -17.833 -140.666 -53.5 -189.999s-84.834 -82 -147.501 -98l-26 -28c-10 -11.333 -15 -21.666 -15 -30.999c0 -14.667 9.66699 -22 29 -22h31v-94h-63c-30.667 0 -54.667 7.66699 -72 23s-26 34 -26 56
c0 27.333 13 52.333 39 75l13 11c-86 1.33301 -154.833 28 -206.5 80s-77.5 124.667 -77.5 218v413h118v-407c0 -64.667 15.333 -113.5 46 -146.5s72 -49.5 124 -49.5s93.333 16.5 124 49.5s46 81.833 46 146.5z" />
    <glyph glyph-name="uogonek" unicode="&#x173;" horiz-adv-x="537" 
d="M379 213v298h111v-305c0 -53.333 -13.167 -98 -39.5 -134s-62.166 -60.333 -107.499 -73l-26 -28c-10 -11.333 -15 -21.666 -15 -30.999c0 -14.667 9.66699 -22 29 -22h31v-94h-63c-30.667 0 -54.667 7.66699 -72 23s-26 34 -26 56c0 27.333 13 52.333 39 75l13 11
c-61.333 3.33301 -111 24.166 -149 62.499s-57 89.833 -57 154.5v305h111v-298c0 -40.667 10.167 -71.5 30.5 -92.5s47.166 -31.5 80.499 -31.5s60 10.5 80 31.5s30 51.833 30 92.5z" />
    <glyph glyph-name="Wcircumflex" unicode="&#x174;" horiz-adv-x="977" 
d="M548 770l-58 68l-59 -68h-119l128 137h99l128 -137h-119zM708 183l145 517h118l-207 -700h-109l-166 506l-167 -506h-109l-207 700h121l144 -517l166 517h104z" />
    <glyph glyph-name="wcircumflex" unicode="&#x175;" horiz-adv-x="763" 
d="M441 580l-58 69l-59 -69h-119l128 138h99l128 -138h-119zM539 159l100 352h116l-159 -511h-108l-107 349l-107 -349h-107l-159 511h117l100 -354l109 354h96z" />
    <glyph glyph-name="Ycircumflex" unicode="&#x176;" horiz-adv-x="676" 
d="M398 770l-58 68l-59 -68h-119l128 137h99l128 -137h-119zM535 700h132l-270 -372v-328h-117v328l-274 372h137l196 -260z" />
    <glyph glyph-name="ycircumflex" unicode="&#x177;" horiz-adv-x="521" 
d="M328 580l-58 69l-59 -69h-119l128 138h99l128 -138h-119zM266 216l137 295h122l-317 -678h-121l122 261l-201 417h126z" />
    <glyph glyph-name="Ydieresis" unicode="&#x178;" horiz-adv-x="676" 
d="M231 766c-20 0 -36.5 6 -49.5 18s-19.5 28.333 -19.5 49s6.5 37 19.5 49s29.5 18 49.5 18c19.333 0 35.5 -6 48.5 -18s19.5 -28.333 19.5 -49s-6.5 -37 -19.5 -49s-29.167 -18 -48.5 -18zM448 766c-20 0 -36.5 6 -49.5 18s-19.5 28.333 -19.5 49s6.5 37 19.5 49
s29.5 18 49.5 18c19.333 0 35.5 -6 48.5 -18s19.5 -28.333 19.5 -49s-6.5 -37 -19.5 -49s-29.167 -18 -48.5 -18zM535 700h132l-270 -372v-328h-117v328l-274 372h137l196 -260z" />
    <glyph glyph-name="Zacute" unicode="&#x179;" horiz-adv-x="569" 
d="M302 907h125l-105 -138h-108zM541 609l-368 -504h371v-105h-521v91l368 504h-360v105h510v-91z" />
    <glyph glyph-name="zacute" unicode="&#x17a;" horiz-adv-x="472" 
d="M256 717h125l-105 -137h-108zM440 428l-270 -332h275v-96h-421v80l273 334h-262v97h405v-83z" />
    <glyph glyph-name="Zdotaccent" unicode="&#x17b;" horiz-adv-x="569" 
d="M284 767c-21.333 0 -39 6.16699 -53 18.5s-21 29.166 -21 50.499c0 20.667 7 37.5 21 50.5s31.667 19.5 53 19.5c20.667 0 38 -6.5 52 -19.5s21 -29.833 21 -50.5c0 -21.333 -6.83301 -38.166 -20.5 -50.499s-31.167 -18.5 -52.5 -18.5zM541 609l-368 -504h371v-105h-521
v91l368 504h-360v105h510v-91z" />
    <glyph glyph-name="zdotaccent" unicode="&#x17c;" horiz-adv-x="472" 
d="M240 577c-21.333 0 -39 6.33301 -53 19s-21 29.334 -21 50.001c0 21.333 7 38.333 21 51s31.667 19 53 19c20.667 0 38 -6.33301 52 -19s21 -29.667 21 -51c0 -20.667 -7 -37.334 -21 -50.001s-31.333 -19 -52 -19zM440 428l-270 -332h275v-96h-421v80l273 334h-262v97
h405v-83z" />
    <glyph glyph-name="Zcaron" unicode="&#x17d;" horiz-adv-x="569" 
d="M463 907l-128 -138h-100l-127 138h119l59 -69l58 69h119zM541 609l-368 -504h371v-105h-521v91l368 504h-360v105h510v-91z" />
    <glyph glyph-name="zcaron" unicode="&#x17e;" horiz-adv-x="472" 
d="M417 717l-128 -137h-100l-127 137h119l59 -68l58 68h119zM440 428l-270 -332h275v-96h-421v80l273 334h-262v97h405v-83z" />
    <glyph glyph-name="longs" unicode="&#x17f;" horiz-adv-x="236" 
d="M164 0h-112v543c0 51.333 14 91.833 42 121.5s68 44.5 120 44.5h66v-97h-53c-42 0 -63 -25 -63 -75v-537z" />
    <glyph glyph-name="uni018F" unicode="&#x18f;" horiz-adv-x="740" 
d="M358 711c102.667 0 186.832 -33.166 252.499 -99.499s98.5 -153.5 98.5 -261.5c0 -107.333 -33.167 -194.333 -99.5 -261s-148.833 -100 -247.5 -100c-100 0 -180.167 31.167 -240.5 93.5s-90.5 145.166 -90.5 248.499c0 10 0.666992 25.667 2 47h552
c-5.33301 70 -28.833 125.333 -70.5 166s-93.5 61 -155.5 61c-104.667 0 -176.667 -52.333 -216 -157l-100 53c24 64 64.333 115 121 153s121.334 57 194.001 57zM361.998 95.001c52.667 0 98.998 16.6689 138.998 50.002s66 78.666 78 135.999h-425
c6.66699 -58.667 28.334 -104.334 65.001 -137.001s84.334 -49 143.001 -49z" />
    <glyph glyph-name="florin" unicode="&#x192;" horiz-adv-x="650" 
d="M481 601c-24.667 0 -42.499 -6.66699 -53.499 -20s-17.833 -34 -20.5 -62l-10 -106h128v-85h-136l-16 -162c-10 -116.667 -71 -175 -183 -175c-30.667 0 -61.667 4 -93 12v109c32 -8 60.333 -12 85 -12s42.667 6.66699 54 20s18.333 34 21 62l14 146h-130v85h138l11 122
c11.333 116.667 72.666 175 183.999 175c30.667 0 61.667 -4 93 -12v-109c-33.333 8 -62 12 -86 12z" />
    <glyph glyph-name="Ohorn" unicode="&#x1a0;" horiz-adv-x="801" 
d="M675 765v25h112v-39c0 -47.333 -13.667 -84 -41 -110s-64.333 -39 -111 -39h-14c78 -65.333 117 -150.333 117 -255c0 -106 -32.667 -192.167 -98 -258.5s-150 -99.5 -254 -99.5c-104.667 0 -190 33.333 -256 100s-99 153.667 -99 261s33 194.333 99 261
s151.333 100 256 100c32 0 63.333 -3.66699 94 -11h134c40.667 0 61 21.667 61 65zM386 97c68 0 123.667 22.833 167 68.5s65 107.167 65 184.5s-21.667 138.833 -65 184.5s-99 68.5 -167 68.5c-68.667 0 -124.667 -22.833 -168 -68.5s-65 -107.167 -65 -184.5
s21.667 -138.833 65 -184.5s99.333 -68.5 168 -68.5z" />
    <glyph glyph-name="ohorn" unicode="&#x1a1;" horiz-adv-x="638" 
d="M536 573v26.999h100v-44c0 -42 -11.5 -74.167 -34.5 -96.5s-54.5 -33.5 -94.5 -33.5h-33c50.667 -45.333 76 -103.333 76 -174c0 -76.667 -24.5 -139.667 -73.5 -189s-111.167 -74 -186.5 -74s-137.666 24.833 -186.999 74.5s-74 113.834 -74 192.501
c0 78 24.667 141.833 74 191.5s111.666 74.5 186.999 74.5c26.667 0 52.667 -3.66699 78 -11h115c35.333 0 53 20.667 53 62zM290 87.999c43.333 0 78.833 15 106.5 45s41.5 71 41.5 123c0 51.333 -13.833 91.833 -41.5 121.5s-63.167 44.5 -106.5 44.5
s-78.666 -14.833 -105.999 -44.5s-41 -70.167 -41 -121.5c0 -52 13.667 -93 41 -123s62.666 -45 105.999 -45z" />
    <glyph glyph-name="Uhorn" unicode="&#x1af;" horiz-adv-x="824" 
d="M716 765l-0.000976562 25h112v-39c0 -48 -13.667 -84.833 -41 -110.5s-64.333 -38.5 -111 -38.5h-46v-315c0 -94.667 -26.167 -168 -78.5 -220s-121.833 -78 -208.5 -78c-87.333 0 -157.166 26 -209.499 78s-78.5 125.333 -78.5 220v413h118v-407
c0 -64.667 15.333 -113.5 46 -146.5s72 -49.5 124 -49.5s93.333 16.5 124 49.5s46 81.833 46 146.5v407h142c40.667 0 61 21.667 61 65z" />
    <glyph glyph-name="uhorn" unicode="&#x1b0;" horiz-adv-x="646" 
d="M555 573v27h100v-44c0 -42 -11.5 -74.167 -34.5 -96.5s-54.5 -33.5 -94.5 -33.5h-36v-220c0 -67.333 -20.5 -120.333 -61.5 -159s-94.167 -58 -159.5 -58s-118.666 19.333 -159.999 58s-62 91.667 -62 159v305h111v-298c0 -40.667 10.167 -71.5 30.5 -92.5
s47.166 -31.5 80.499 -31.5s60 10.5 80 31.5s30 51.833 30 92.5v298h123c35.333 0 53 20.667 53 62z" />
    <glyph glyph-name="uni01C4" unicode="&#x1c4;" horiz-adv-x="1261" 
d="M1154 907l-127 -138h-100l-127 138h119l58 -69l59 69h118zM331 700c105.333 0 190.166 -31.833 254.499 -95.5s96.5 -148.5 96.5 -254.5s-32.167 -190.833 -96.5 -254.5s-149.166 -95.5 -254.499 -95.5h-268v700h268zM1233 609l-368 -504h371v-105h-521v91l368 504h-360
v105h510v-91zM180 105h145c76 0 134.167 21.667 174.5 65s60.5 103.333 60.5 180s-20.167 136.667 -60.5 180s-98.5 65 -174.5 65h-145v-490z" />
    <glyph glyph-name="uni01C5" unicode="&#x1c5;" horiz-adv-x="1186" 
d="M1130 717l-127 -137h-100l-127 137h119l59 -68l58 68h118zM331 700c105.333 0 190.166 -31.833 254.499 -95.5s96.5 -148.5 96.5 -254.5s-32.167 -190.833 -96.5 -254.5s-149.166 -95.5 -254.499 -95.5h-268v700h268zM180 105h145c76 0 134.167 21.667 174.5 65
s60.5 103.333 60.5 180s-20.167 136.667 -60.5 180s-98.5 65 -174.5 65h-145v-490zM1154 428l-270 -332h275v-96h-421v80l273 334h-262v97h405v-83z" />
    <glyph glyph-name="uni01C6" unicode="&#x1c6;" horiz-adv-x="1063" 
d="M1008 717l-127 -137h-100l-127 137h119l59 -68l58 68h118zM429 427v273.001h110v-700h-110v84c-38 -63.333 -93.667 -95 -167 -95c-66.667 0 -122 25.167 -166 75.5s-66 114.166 -66 191.499c0 76.667 22 140.167 66 190.5s99.333 75.5 166 75.5
c73.333 0 129 -31.667 167 -95zM1032 428.001l-270 -332h275v-96h-421v80l273 334h-262v97h405v-83zM287 88.001c42.667 0 77.334 15 104.001 45s40 71 40 123c0 51.333 -13.333 91.833 -40 121.5s-61.334 44.5 -104.001 44.5c-43.333 0 -78.333 -14.833 -105 -44.5
s-40 -70.167 -40 -121.5c0 -52 13.333 -93 40 -123s61.667 -45 105 -45z" />
    <glyph glyph-name="uni01C7" unicode="&#x1c7;" horiz-adv-x="1041" 
d="M180 700v-595h336v-105h-453v700h117zM756 -11c-101.333 0 -172.998 49 -214.998 147l94 51c23.333 -60 62.666 -90 117.999 -90c35.333 0 63.166 11 83.499 33s30.5 54 30.5 96v474h116v-479c0 -74 -20.667 -131.167 -62 -171.5s-96.333 -60.5 -165 -60.5z" />
    <glyph glyph-name="uni01C8" unicode="&#x1c8;" horiz-adv-x="744" 
d="M636 586c-21.333 0 -38.833 6.16699 -52.5 18.5s-20.5 29.166 -20.5 50.499s7 38.333 21 51s31.333 19 52 19c21.333 0 39 -6.33301 53 -19s21 -29.667 21 -51s-7 -38.166 -21 -50.499s-31.667 -18.5 -53 -18.5zM180 700v-595h336v-105h-453v700h117zM580 511h111v-531
c0 -50 -12.333 -88.667 -37 -116s-58 -41 -100 -41h-34v104h17c28.667 0 43 19.667 43 59v525z" />
    <glyph glyph-name="uni01C9" unicode="&#x1c9;" horiz-adv-x="478" 
d="M372 586c-21.333 0 -39 6.16699 -53 18.5s-21 29.166 -21 50.499s7 38.333 21 51s31.667 19 53 19c20.667 0 38 -6.33301 52 -19s21 -29.667 21 -51s-6.83301 -38.166 -20.5 -50.499s-31.167 -18.5 -52.5 -18.5zM253 0h-58c-46 0 -81.167 13 -105.5 39
s-36.5 61.333 -36.5 106v555h111v-548c0 -37.333 16.667 -56 50 -56h39v-96zM315 511h111v-531c0 -50 -12.333 -88.667 -37 -116s-58 -41 -100 -41h-34v104h17c28.667 0 43 19.667 43 59v525z" />
    <glyph glyph-name="uni01CA" unicode="&#x1ca;" horiz-adv-x="1219" 
d="M539 700h117v-700h-107l-370 505v-505h-116v700h106l370 -505v505zM934 -11c-101.333 0 -172.998 49 -214.998 147l94 51c23.333 -60 62.666 -90 117.999 -90c35.333 0 63.166 11 83.499 33s30.5 54 30.5 96v474h116v-479c0 -74 -20.667 -131.167 -62 -171.5
s-96.333 -60.5 -165 -60.5z" />
    <glyph glyph-name="uni01CB" unicode="&#x1cb;" horiz-adv-x="934" 
d="M827 586c-21.333 0 -38.833 6.16699 -52.5 18.5s-20.5 29.166 -20.5 50.499s7 38.333 21 51s31.333 19 52 19c21.333 0 39 -6.33301 53 -19s21 -29.667 21 -51s-7 -38.166 -21 -50.499s-31.667 -18.5 -53 -18.5zM539 700h117v-700h-107l-370 505v-505h-116v700h106
l370 -505v505zM771 511h111v-531c0 -50 -12.333 -88.667 -37 -116s-58 -41 -100 -41h-34v104h17c28.667 0 43 19.667 43 59v525z" />
    <glyph glyph-name="uni01CC" unicode="&#x1cc;" horiz-adv-x="757" 
d="M651 725c20.667 0 38 -6.33301 52 -19s21 -29.667 21 -51s-6.83301 -38.166 -20.5 -50.499s-31.167 -18.5 -52.5 -18.5s-39 6.16699 -53 18.5s-21 29.166 -21 50.499s7 38.333 21 51s31.667 19 53 19zM310 522c54 0 98.333 -18.167 133 -54.5s52 -83.833 52 -142.5v-325
h-111v307c0 36 -9.5 64.5 -28.5 85.5s-43.833 31.5 -74.5 31.5c-35.333 0 -63.833 -11 -85.5 -33s-32.5 -51.667 -32.5 -89v-302h-111v511h111v-72c30.667 55.333 79.667 83 147 83zM594 -14v525h111v-531c0 -50 -12.333 -88.667 -37 -116s-58 -41 -100 -41h-34v104h17
c28.667 0 43 19.667 43 59z" />
    <glyph glyph-name="uni01CD" unicode="&#x1cd;" horiz-adv-x="668" 
d="M513 907l-128 -138h-100l-127 138h119l59 -69l58 69h119zM669 0h-125l-72 192h-278l-72 -192h-121l277 700h113zM333 560l-102 -270h204z" />
    <glyph glyph-name="uni01CE" unicode="&#x1ce;" horiz-adv-x="532" 
d="M444 717l-128 -137h-100l-127 137h119l59 -68l58 68h119zM259 522c64 0 117.503 -17.1689 160.503 -51.502s64.5 -84.5 64.5 -150.5v-320h-104v50c-31.333 -40.667 -83 -61 -155 -61c-58.667 0 -106.667 14.167 -144 42.5s-56 66.833 -56 115.5
s19.167 87.334 57.5 116.001s88.166 43 149.499 43c63.333 0 110.666 -16.667 141.999 -50v53c0 38.667 -10.667 67.334 -32 86.001s-50.333 28 -87 28c-30.667 0 -56.5 -7.83301 -77.5 -23.5s-36.167 -37.5 -45.5 -65.5l-93 37c14.667 50 41.667 87.667 81 113
s85.666 38 138.999 38zM258.003 71.998c35.333 0 63.833 6.66699 85.5 20s32.5 32 32.5 56c0 24.667 -10.833 43.667 -32.5 57s-50.167 20 -85.5 20s-64 -6.66699 -86 -20s-33 -32.333 -33 -57c0 -24 11 -42.667 33 -56s50.667 -20 86 -20z" />
    <glyph glyph-name="uni01CF" unicode="&#x1cf;" horiz-adv-x="243" 
d="M299 907l-128 -138h-100l-127 138h119l59 -69l58 69h119zM180 0h-117v700h117v-700z" />
    <glyph glyph-name="uni01D0" unicode="&#x1d0;" horiz-adv-x="215" 
d="M286 717l-128 -137h-100l-127 137h119l59 -68l58 68h119zM163 0h-111v511h111v-511z" />
    <glyph glyph-name="uni01D1" unicode="&#x1d1;" horiz-adv-x="771" 
d="M564 907l-128 -138h-100l-127 138h119l59 -69l58 69h119zM386 711c104.667 0 189.834 -33.333 255.501 -100s98.5 -153.667 98.5 -261s-32.833 -194.333 -98.5 -261s-150.834 -100 -255.501 -100s-190 33.333 -256 100s-99 153.667 -99 261s33 194.333 99 261
s151.333 100 256 100zM386 97c68 0 123.667 22.833 167 68.5s65 107.167 65 184.5s-21.667 138.833 -65 184.5s-99 68.5 -167 68.5c-68.667 0 -124.667 -22.833 -168 -68.5s-65 -107.167 -65 -184.5s21.667 -138.833 65 -184.5s99.333 -68.5 168 -68.5z" />
    <glyph glyph-name="uni01D2" unicode="&#x1d2;" horiz-adv-x="580" 
d="M468 717l-128 -137h-100l-127 137h119l59 -68l58 68h119zM290 522c75.333 0 137.666 -24.833 186.999 -74.5s74 -113.5 74 -191.5c0 -78.667 -24.667 -142.834 -74 -192.501s-111.666 -74.5 -186.999 -74.5s-137.666 24.833 -186.999 74.5s-74 113.834 -74 192.501
c0 78 24.667 141.833 74 191.5s111.666 74.5 186.999 74.5zM290 88c43.333 0 78.833 15 106.5 45s41.5 71 41.5 123c0 51.333 -13.833 91.833 -41.5 121.5s-63.167 44.5 -106.5 44.5s-78.666 -14.833 -105.999 -44.5s-41 -70.167 -41 -121.5c0 -52 13.667 -93 41 -123
s62.666 -45 105.999 -45z" />
    <glyph glyph-name="uni01D3" unicode="&#x1d3;" horiz-adv-x="685" 
d="M521 907l-128 -138h-100l-127 138h119l59 -69l58 69h119zM513 293l-0.000976562 407h117v-413c0 -94.667 -26.167 -168 -78.5 -220s-121.833 -78 -208.5 -78c-87.333 0 -157.166 26 -209.499 78s-78.5 125.333 -78.5 220v413h118v-407c0 -64.667 15.333 -113.5 46 -146.5
s72 -49.5 124 -49.5s93.333 16.5 124 49.5s46 81.833 46 146.5z" />
    <glyph glyph-name="uni01D4" unicode="&#x1d4;" horiz-adv-x="537" 
d="M447 717l-128 -137h-100l-127 137h119l59 -68l58 68h119zM379 213v298h111v-305c0 -67.333 -20.5 -120.333 -61.5 -159s-94.167 -58 -159.5 -58s-118.666 19.333 -159.999 58s-62 91.667 -62 159v305h111v-298c0 -40.667 10.167 -71.5 30.5 -92.5
s47.166 -31.5 80.499 -31.5s60 10.5 80 31.5s30 51.833 30 92.5z" />
    <glyph glyph-name="uni01D5" unicode="&#x1d5;" horiz-adv-x="685" 
d="M505 913h-323v92h323v-92zM235 737c-19.333 0 -35.5 6 -48.5 18s-19.5 28.333 -19.5 49s6.5 37.167 19.5 49.5s29.167 18.5 48.5 18.5c20 0 36.5 -6.16699 49.5 -18.5s19.5 -28.833 19.5 -49.5s-6.5 -37 -19.5 -49s-29.5 -18 -49.5 -18zM452 737c-20 0 -36.5 6 -49.5 18
s-19.5 28.333 -19.5 49s6.5 37.167 19.5 49.5s29.5 18.5 49.5 18.5c19.333 0 35.5 -6.16699 48.5 -18.5s19.5 -28.833 19.5 -49.5s-6.5 -37 -19.5 -49s-29.167 -18 -48.5 -18zM513 700h116.999v-413c0 -94.667 -26.167 -168 -78.5 -220s-121.833 -78 -208.5 -78
c-87.333 0 -157.166 26 -209.499 78s-78.5 125.333 -78.5 220v413h118v-407c0 -64.667 15.333 -113.5 46 -146.5s72 -49.5 124 -49.5s93.333 16.5 124 49.5s46 81.833 46 146.5v407z" />
    <glyph glyph-name="uni01D6" unicode="&#x1d6;" horiz-adv-x="537" 
d="M430 723h-323v92h323v-92zM160 548c-19.333 0 -35.5 6 -48.5 18s-19.5 28.333 -19.5 49s6.5 37 19.5 49s29.167 18 48.5 18c20 0 36.5 -6 49.5 -18s19.5 -28.333 19.5 -49s-6.5 -37 -19.5 -49s-29.5 -18 -49.5 -18zM377 548c-20 0 -36.5 6 -49.5 18
s-19.5 28.333 -19.5 49s6.5 37 19.5 49s29.5 18 49.5 18c19.333 0 35.5 -6 48.5 -18s19.5 -28.333 19.5 -49s-6.5 -37 -19.5 -49s-29.167 -18 -48.5 -18zM269 -11c-65.333 0 -118.666 19.333 -159.999 58s-62 91.667 -62 159v305h111v-298
c0 -40.667 10.167 -71.5 30.5 -92.5s47.166 -31.5 80.499 -31.5s60 10.5 80 31.5s30 51.833 30 92.5v298h111v-305c0 -67.333 -20.5 -120.333 -61.5 -159s-94.167 -58 -159.5 -58z" />
    <glyph glyph-name="uni01D7" unicode="&#x1d7;" horiz-adv-x="685" 
d="M376 909h-105l70 109h124zM235 737c-20 0 -36.5 6 -49.5 18s-19.5 28.333 -19.5 49s6.5 37.167 19.5 49.5s29.5 18.5 49.5 18.5c19.333 0 35.5 -6.16699 48.5 -18.5s19.5 -28.833 19.5 -49.5s-6.5 -37 -19.5 -49s-29.167 -18 -48.5 -18zM452 737c-20 0 -36.5 6 -49.5 18
s-19.5 28.333 -19.5 49s6.5 37.167 19.5 49.5s29.5 18.5 49.5 18.5c19.333 0 35.5 -6.16699 48.5 -18.5s19.5 -28.833 19.5 -49.5s-6.5 -37 -19.5 -49s-29.167 -18 -48.5 -18zM513 700h116.999v-413c0 -94.667 -26.167 -168 -78.5 -220s-121.833 -78 -208.5 -78
c-87.333 0 -157.166 26 -209.499 78s-78.5 125.333 -78.5 220v413h118v-407c0 -64.667 15.333 -113.5 46 -146.5s72 -49.5 124 -49.5s93.333 16.5 124 49.5s46 81.833 46 146.5v407z" />
    <glyph glyph-name="uni01D8" unicode="&#x1d8;" horiz-adv-x="537" 
d="M302 720h-105l70 109h124zM161 548c-20 0 -36.5 6 -49.5 18s-19.5 28.333 -19.5 49s6.5 37 19.5 49s29.5 18 49.5 18c19.333 0 35.5 -6 48.5 -18s19.5 -28.333 19.5 -49s-6.5 -37 -19.5 -49s-29.167 -18 -48.5 -18zM378 548c-20 0 -36.5 6 -49.5 18
s-19.5 28.333 -19.5 49s6.5 37 19.5 49s29.5 18 49.5 18c19.333 0 35.5 -6 48.5 -18s19.5 -28.333 19.5 -49s-6.5 -37 -19.5 -49s-29.167 -18 -48.5 -18zM269 -11c-65.333 0 -118.666 19.333 -159.999 58s-62 91.667 -62 159v305h111v-298
c0 -40.667 10.167 -71.5 30.5 -92.5s47.166 -31.5 80.499 -31.5s60 10.5 80 31.5s30 51.833 30 92.5v298h111v-305c0 -67.333 -20.5 -120.333 -61.5 -159s-94.167 -58 -159.5 -58z" />
    <glyph glyph-name="uni01D9" unicode="&#x1d9;" horiz-adv-x="685" 
d="M520 1023l-127 -114h-99l-128 114h120l57 -51l57 51h120zM235 872c20 0 36.5 -6.16699 49.5 -18.5s19.5 -28.833 19.5 -49.5s-6.5 -37 -19.5 -49s-29.5 -18 -49.5 -18c-19.333 0 -35.5 6 -48.5 18s-19.5 28.333 -19.5 49s6.5 37.167 19.5 49.5s29.167 18.5 48.5 18.5z
M383 804c0 20.667 6.5 37.167 19.5 49.5s29.5 18.5 49.5 18.5c19.333 0 35.5 -6.16699 48.5 -18.5s19.5 -28.833 19.5 -49.5s-6.5 -37 -19.5 -49s-29.167 -18 -48.5 -18c-20 0 -36.5 6 -49.5 18s-19.5 28.333 -19.5 49zM513 293l-0.000976562 407h117v-413
c0 -94.667 -26.167 -168 -78.5 -220s-121.833 -78 -208.5 -78c-87.333 0 -157.166 26 -209.499 78s-78.5 125.333 -78.5 220v413h118v-407c0 -64.667 15.333 -113.5 46 -146.5s72 -49.5 124 -49.5s93.333 16.5 124 49.5s46 81.833 46 146.5z" />
    <glyph glyph-name="uni01DA" unicode="&#x1da;" horiz-adv-x="537" 
d="M445 834l-127 -115h-99l-128 115h120l57 -51l57 51h120zM160 682c20 0 36.5 -6 49.5 -18s19.5 -28.333 19.5 -49s-6.5 -37 -19.5 -49s-29.5 -18 -49.5 -18c-19.333 0 -35.5 6 -48.5 18s-19.5 28.333 -19.5 49s6.5 37 19.5 49s29.167 18 48.5 18zM308 615
c0 20.667 6.5 37 19.5 49s29.5 18 49.5 18c19.333 0 35.5 -6 48.5 -18s19.5 -28.333 19.5 -49s-6.5 -37 -19.5 -49s-29.167 -18 -48.5 -18c-20 0 -36.5 6 -49.5 18s-19.5 28.333 -19.5 49zM379 213v298h111v-305c0 -67.333 -20.5 -120.333 -61.5 -159
s-94.167 -58 -159.5 -58s-118.666 19.333 -159.999 58s-62 91.667 -62 159v305h111v-298c0 -40.667 10.167 -71.5 30.5 -92.5s47.166 -31.5 80.499 -31.5s60 10.5 80 31.5s30 51.833 30 92.5z" />
    <glyph glyph-name="uni01DB" unicode="&#x1db;" horiz-adv-x="685" 
d="M419 909h-106l-89 109h125zM235 737c-20 0 -36.5 6 -49.5 18s-19.5 28.333 -19.5 49s6.5 37.167 19.5 49.5s29.5 18.5 49.5 18.5c19.333 0 35.5 -6.16699 48.5 -18.5s19.5 -28.833 19.5 -49.5s-6.5 -37 -19.5 -49s-29.167 -18 -48.5 -18zM452 737c-20 0 -36.5 6 -49.5 18
s-19.5 28.333 -19.5 49s6.5 37.167 19.5 49.5s29.5 18.5 49.5 18.5c19.333 0 35.5 -6.16699 48.5 -18.5s19.5 -28.833 19.5 -49.5s-6.5 -37 -19.5 -49s-29.167 -18 -48.5 -18zM513 700h116.999v-413c0 -94.667 -26.167 -168 -78.5 -220s-121.833 -78 -208.5 -78
c-87.333 0 -157.166 26 -209.499 78s-78.5 125.333 -78.5 220v413h118v-407c0 -64.667 15.333 -113.5 46 -146.5s72 -49.5 124 -49.5s93.333 16.5 124 49.5s46 81.833 46 146.5v407z" />
    <glyph glyph-name="uni01DC" unicode="&#x1dc;" horiz-adv-x="537" 
d="M345 720h-106l-89 109h125zM161 548c-20 0 -36.5 6 -49.5 18s-19.5 28.333 -19.5 49s6.5 37 19.5 49s29.5 18 49.5 18c19.333 0 35.5 -6 48.5 -18s19.5 -28.333 19.5 -49s-6.5 -37 -19.5 -49s-29.167 -18 -48.5 -18zM378 548c-20 0 -36.5 6 -49.5 18
s-19.5 28.333 -19.5 49s6.5 37 19.5 49s29.5 18 49.5 18c19.333 0 35.5 -6 48.5 -18s19.5 -28.333 19.5 -49s-6.5 -37 -19.5 -49s-29.167 -18 -48.5 -18zM269 -11c-65.333 0 -118.666 19.333 -159.999 58s-62 91.667 -62 159v305h111v-298
c0 -40.667 10.167 -71.5 30.5 -92.5s47.166 -31.5 80.499 -31.5s60 10.5 80 31.5s30 51.833 30 92.5v298h111v-305c0 -67.333 -20.5 -120.333 -61.5 -159s-94.167 -58 -159.5 -58z" />
    <glyph glyph-name="uni01E2" unicode="&#x1e2;" horiz-adv-x="984" 
d="M533 880h322v-91h-322v91zM949 700v-105h-343v-188h302v-102h-302v-200h343v-105h-460v172h-260l-116 -172h-128l475 700h489zM489 556l-193 -286h193v286z" />
    <glyph glyph-name="uni01E3" unicode="&#x1e3;" horiz-adv-x="888" 
d="M275 691h322v-92h-322v92zM858 259c0 -12.667 -0.332031 -22.002 -0.999023 -28.002h-372c3.33301 -47.333 17.333 -83.5 42 -108.5s56 -37.5 94 -37.5c68 0 115.333 34.333 142 103l94 -36c-20.667 -55.333 -51.5 -96.333 -92.5 -123s-87.833 -40 -140.5 -40
c-80 0 -142.667 29.667 -188 89c-16.667 -28.667 -42 -50.667 -76 -66s-72.667 -23 -116 -23c-66 0 -119 14 -159 42s-60 66.667 -60 116c0 48.667 19.167 87.334 57.5 116.001s88.166 43 149.499 43c63.333 0 110.666 -16.667 141.999 -50v53
c0 38.667 -10.667 67.334 -32 86.001s-50.333 28 -87 28c-30.667 0 -56.5 -7.83301 -77.5 -23.5s-36.167 -37.5 -45.5 -65.5l-93 37c14.667 50 41.334 87.667 80.001 113s84 38 136 38c84.667 0 145 -30 181 -90c44 60 105.333 90 184 90c70 0 127.167 -24.333 171.5 -73
s66.5 -112 66.5 -190zM620.001 429.998c-35.333 0 -64.332 -10.168 -86.999 -30.501s-37.334 -50.166 -44.001 -89.499h256c-6.66699 40 -21 70 -43 90s-49.333 30 -82 30zM258.002 71.9971c35.333 0 63.833 6.66699 85.5 20s32.5 32 32.5 56
c0 24.667 -10.833 43.667 -32.5 57s-50.167 20 -85.5 20s-64 -6.66699 -86 -20s-33 -32.333 -33 -57c0 -24 11 -42.667 33 -56s50.667 -20 86 -20z" />
    <glyph glyph-name="Gcaron" unicode="&#x1e6;" horiz-adv-x="739" 
d="M555 907l-128 -138h-100l-127 138h119l59 -69l58 69h119zM378 378l328.999 0.000976562c1.33301 -10 2 -24.667 2 -44c0 -106.667 -31 -190.834 -93 -252.501s-141.333 -92.5 -238 -92.5c-98.667 0 -181 33.333 -247 100s-99 153.667 -99 261
c0 108 32.667 195.167 98 261.5s148.666 99.5 249.999 99.5c67.333 0 129.333 -17.5 186 -52.5s98.334 -85.833 125.001 -152.5l-101 -53c-42 100 -112.333 150 -211 150c-65.333 0 -119.166 -22.833 -161.499 -68.5s-63.5 -107.167 -63.5 -184.5
c0 -76.667 21.5 -138 64.5 -184s96.167 -69 159.5 -69c60.667 0 109 16 145 48s57.667 77.333 65 136h-210v97z" />
    <glyph glyph-name="gcaron" unicode="&#x1e7;" horiz-adv-x="556" 
d="M459 717l-128 -137h-100l-127 137h119l59 -68l58 68h119zM274 115l28.001 -0.000976562c80.667 0 141.5 -13.5 182.5 -40.5s61.5 -63.167 61.5 -108.5c0 -46 -21.833 -82.667 -65.5 -110s-109.5 -41 -197.5 -41c-89.333 0 -155.833 12.167 -199.5 36.5
s-65.5 54.833 -65.5 91.5c0 47.333 28.333 81 85 101c-50 19.333 -75 50 -75 92c0 26 8.83301 47.5 26.5 64.5s42.5 28.833 74.5 35.5c-47.333 29.333 -71 69.333 -71 120c0 49.333 21 89.333 63 120s95.333 46 160 46c42 0 71.167 0.166992 87.5 0.5s39.166 3 68.499 8
s54.333 12.5 75 22.5l33 -86c-30.667 -12.667 -64 -21.667 -100 -27c37.333 -22.667 56 -55 56 -97c0 -45.333 -21 -82 -63 -110s-97 -42 -165 -42c-47.333 0 -82.5 -2.33301 -105.5 -7s-34.5 -15.667 -34.5 -33c0 -15.333 12.5 -25.166 37.5 -29.499s59.5 -6.5 103.5 -6.5z
M281.001 432.999c-34.667 0 -62.167 -6.83301 -82.5 -20.5s-30.5 -32.834 -30.5 -57.501s10.167 -43.834 30.5 -57.501s47.833 -20.5 82.5 -20.5s62 6.83301 82 20.5s30 32.834 30 57.501s-10 43.834 -30 57.501s-47.333 20.5 -82 20.5zM283.001 -101.001
c96.667 0 145 20 145 60c0 39.333 -48.333 59 -145 59c-98.667 0 -148 -19.667 -148 -59c0 -40 49.333 -60 148 -60z" />
    <glyph glyph-name="uni01F1" unicode="&#x1f1;" horiz-adv-x="1261" 
d="M331 700c105.333 0 190.166 -31.833 254.499 -95.5s96.5 -148.5 96.5 -254.5s-32.167 -190.833 -96.5 -254.5s-149.166 -95.5 -254.499 -95.5h-268v700h268zM1233 609l-368 -504h371v-105h-521v91l368 504h-360v105h510v-91zM180 105h145c76 0 134.167 21.667 174.5 65
s60.5 103.333 60.5 180s-20.167 136.667 -60.5 180s-98.5 65 -174.5 65h-145v-490z" />
    <glyph glyph-name="uni01F2" unicode="&#x1f2;" horiz-adv-x="1186" 
d="M331 700c105.333 0 190.166 -31.833 254.499 -95.5s96.5 -148.5 96.5 -254.5s-32.167 -190.833 -96.5 -254.5s-149.166 -95.5 -254.499 -95.5h-268v700h268zM180 105h145c76 0 134.167 21.667 174.5 65s60.5 103.333 60.5 180s-20.167 136.667 -60.5 180
s-98.5 65 -174.5 65h-145v-490zM1154 428l-270 -332h275v-96h-421v80l273 334h-262v97h405v-83z" />
    <glyph glyph-name="uni01F3" unicode="&#x1f3;" horiz-adv-x="1063" 
d="M429 427v273.001h110v-700h-110v84c-38 -63.333 -93.667 -95 -167 -95c-66.667 0 -122 25.167 -166 75.5s-66 114.166 -66 191.499c0 76.667 22 140.167 66 190.5s99.333 75.5 166 75.5c73.333 0 129 -31.667 167 -95zM1032 428.001l-270 -332h275v-96h-421v80l273 334
h-262v97h405v-83zM287 88.001c42.667 0 77.334 15 104.001 45s40 71 40 123c0 51.333 -13.333 91.833 -40 121.5s-61.334 44.5 -104.001 44.5c-43.333 0 -78.333 -14.833 -105 -44.5s-40 -70.167 -40 -121.5c0 -52 13.333 -93 40 -123s61.667 -45 105 -45z" />
    <glyph glyph-name="uni0218" unicode="&#x218;" horiz-adv-x="613" 
d="M290 420l81.001 -22.001c141.333 -36.667 212 -104.667 212 -204c0 -62 -24.333 -111.667 -73 -149s-114.667 -56 -198 -56c-76.667 0 -140.5 18.333 -191.5 55s-84.833 91 -101.5 163l105 33c11.333 -46 33.166 -82 65.499 -108s73.166 -39 122.499 -39
c46.667 0 83.667 8.33301 111 25s41 39 41 67c0 24.667 -11 44.834 -33 60.501s-59 30.5 -111 44.5l-80 22c-128.667 34.667 -193 101.334 -193 200.001c0 58.667 23.5 106.5 70.5 143.5s108.5 55.5 184.5 55.5c72.667 0 133.5 -17.833 182.5 -53.5s79.5 -86.5 91.5 -152.5
l-105 -27c-9.33301 43.333 -28.833 75.666 -58.5 96.999s-66.167 32 -109.5 32c-41.333 0 -74.333 -7.83301 -99 -23.5s-37 -36.834 -37 -63.501s9.83301 -47.167 29.5 -61.5s50.834 -27.166 93.501 -38.499zM313.001 -40.001c20.667 0 37.333 -5.33301 50 -16
s19 -24.667 19 -42s-8 -37 -24 -59l-53 -71l-56 32l38 49c-29.333 7.33301 -44 24.333 -44 51c0 16.667 6.5 30.167 19.5 40.5s29.833 15.5 50.5 15.5z" />
    <glyph glyph-name="uni0219" unicode="&#x219;" horiz-adv-x="489" 
d="M250 308l50.998 -12c106 -26.667 159 -77.667 159 -153c0 -45.333 -19.333 -82.333 -58 -111s-89.334 -43 -152.001 -43c-56.667 0 -105.667 13.833 -147 41.5s-68.666 69.5 -81.999 125.5l90 29c8 -34.667 24.333 -60.834 49 -78.501s54.334 -26.5 89.001 -26.5
c32 0 57.333 5.5 76 16.5s28 25.167 28 42.5c0 16.667 -7.66699 29.667 -23 39s-41 18.333 -77 27l-50 13c-56.667 14 -98 33.5 -124 58.5s-39 57.167 -39 96.5c0 44 18 79.667 54 107s84 41 144 41c58 0 106.833 -14.333 146.5 -43s62.834 -69 69.501 -121l-93 -23
c-11.333 63.333 -52.333 95 -123 95c-27.333 0 -49.333 -5 -66 -15s-25 -23 -25 -39c0 -17.333 8.33301 -30.666 25 -39.999s42.667 -18.333 78 -27zM241.998 -40c20.667 0 37.333 -5.33301 50 -16s19 -24.667 19 -42s-8 -37 -24 -59l-53 -71l-56 32l38 49
c-29.333 7.33301 -44 24.333 -44 51c0 16.667 6.5 30.167 19.5 40.5s29.833 15.5 50.5 15.5z" />
    <glyph glyph-name="uni021A" unicode="&#x21a;" horiz-adv-x="579" 
d="M12 595v105h555v-105h-219v-595h-117v595h-219zM290 -40c20.667 0 37.333 -5.33301 50 -16s19 -24.667 19 -42s-8 -37 -24 -59l-53 -71l-56 32l38 49c-29.333 7.33301 -44 24.333 -44 51c0 16.667 6.5 30.167 19.5 40.5s29.833 15.5 50.5 15.5z" />
    <glyph glyph-name="uni021B" unicode="&#x21b;" horiz-adv-x="352" 
d="M333 511v-91h-116v-247c0 -51.333 20.667 -77 62 -77h54v-96h-66c-51.333 -0 -91 14.833 -119 44.5s-42 70.167 -42 121.5v254h-95v91h95v104l111 64v-168h116zM226 -40c20.667 0 37.333 -5.33301 50 -16s19 -24.667 19 -42s-8 -37 -24 -59l-53 -71l-56 32l38 49
c-29.333 7.33301 -44 24.333 -44 51c0 16.667 6.5 30.167 19.5 40.5s29.833 15.5 50.5 15.5z" />
    <glyph glyph-name="uni0232" unicode="&#x232;" horiz-adv-x="676" 
d="M178 880h322v-91h-322v91zM535 700h132l-270 -372v-328h-117v328l-274 372h137l196 -260z" />
    <glyph glyph-name="uni0233" unicode="&#x233;" horiz-adv-x="521" 
d="M108 691h322v-92h-322v92zM266 216l137 295h122l-317 -678h-121l122 261l-201 417h126z" />
    <glyph glyph-name="uni0237" unicode="&#x237;" horiz-adv-x="215" 
d="M52 511h111v-531c0 -50 -12.333 -88.667 -37 -116s-58 -41 -100 -41h-34v104h17c28.667 0 43 19.667 43 59v525z" />
    <glyph glyph-name="uni0259" unicode="&#x259;" horiz-adv-x="545" 
d="M265 522c73.333 0 133.333 -24.668 180 -74.001s70 -113.666 70 -192.999s-23 -143.5 -69 -192.5s-105.333 -73.5 -178 -73.5c-70 0 -127.167 24.333 -171.5 73s-66.5 112 -66.5 190c0 12.667 0.333008 22 1 28h372c-4 48 -18.167 84.333 -42.5 109s-55.5 37 -93.5 37
c-68 0 -115.333 -34.333 -142 -103l-94 36c20.667 55.333 51.5 96.333 92.5 123s88.167 40 141.5 40zM269 80.999c72 0 115.667 40 131 120h-256c6.66699 -40 21 -70 43 -90s49.333 -30 82 -30z" />
    <glyph glyph-name="uni02BB" unicode="&#x2bb;" horiz-adv-x="213" 
d="M175 683l-53 -123c16.667 -4.66699 30 -13.667 40 -27s15 -29.333 15 -48c0 -22 -7 -40.167 -21 -54.5s-32 -21.5 -54 -21.5s-40 7.5 -54 22.5s-21 33.833 -21 56.5c0 22 7.33301 49 22 81l60 142z" />
    <glyph glyph-name="uni02BC" unicode="&#x2bc;" horiz-adv-x="211" 
d="M112 711c22 0 40.167 -7.50098 54.5 -22.501s21.5 -33.833 21.5 -56.5c0 -19.333 -7.33301 -46.333 -22 -81l-60 -142l-67 28l54 123c-17.333 4 -31 12.833 -41 26.5s-15 29.834 -15 48.501c0 22.667 7 41 21 55s32 21 54 21z" />
    <glyph glyph-name="uni02BE" unicode="&#x2be;" horiz-adv-x="243" 
d="M46 364v87.999c21.333 0 39.666 8.33301 54.999 25s23 36.334 23 59.001c0 23.333 -7.66699 43.166 -23 59.499s-33.666 24.5 -54.999 24.5v87c46.667 0 86.5 -16.667 119.5 -50s49.5 -73.666 49.5 -120.999s-16.5 -87.833 -49.5 -121.5s-72.833 -50.5 -119.5 -50.5z" />
    <glyph glyph-name="uni02BF" unicode="&#x2bf;" horiz-adv-x="235" 
d="M198 707v-87c-21.333 0 -39.666 -8.16699 -54.999 -24.5s-23 -36.166 -23 -59.499c0 -24 7.66699 -44.167 23 -60.5s33.666 -24.5 54.999 -24.5v-87c-47.333 0 -87.5 16.833 -120.5 50.5s-49.5 74.167 -49.5 121.5s16.5 87.666 49.5 120.999s73.167 50 120.5 50z" />
    <glyph glyph-name="circumflex" unicode="&#x2c6;" horiz-adv-x="487" 
d="M294 717l127 -137h-119l-58 68l-59 -68h-119l128 137h100z" />
    <glyph glyph-name="caron" unicode="&#x2c7;" horiz-adv-x="455" 
d="M228 649l58 68h119l-128 -137h-100l-127 137h119z" />
    <glyph glyph-name="breve" unicode="&#x2d8;" horiz-adv-x="430" 
d="M215 578c-46 0 -84.333 12.5 -115 37.5s-47.334 58.833 -50.001 101.5h96c4 -42 27 -63 69 -63s65 21 69 63h96c-1.33301 -42.667 -17.666 -76.5 -48.999 -101.5s-70 -37.5 -116 -37.5z" />
    <glyph glyph-name="dotaccent" unicode="&#x2d9;" horiz-adv-x="237" 
d="M118 586c-21.333 0 -38.833 6.16699 -52.5 18.5s-20.5 29.166 -20.5 50.499s7 38.333 21 51s31.333 19 52 19c21.333 0 39 -6.33301 53 -19s21 -29.667 21 -51s-7 -38.166 -21 -50.499s-31.667 -18.5 -53 -18.5z" />
    <glyph glyph-name="ring" unicode="&#x2da;" horiz-adv-x="356" 
d="M178 559c-37.333 0 -68 10.333 -92 31s-36 47 -36 79s12 58.333 36 79s54.667 31 92 31s68 -10.333 92 -31s36 -47 36 -79s-12 -58.333 -36 -79s-54.667 -31 -92 -31zM178 624c16 0 28.667 4.16699 38 12.5s14 19.166 14 32.499s-4.66699 24.166 -14 32.499
s-22 12.5 -38 12.5s-28.667 -4.16699 -38 -12.5s-14 -19.166 -14 -32.499s4.66699 -24.166 14 -32.499s22 -12.5 38 -12.5z" />
    <glyph glyph-name="ogonek" unicode="&#x2db;" horiz-adv-x="373" 
d="M265 -176h-63c-30 0 -53.833 7.66699 -71.5 23s-26.5 34 -26.5 56c0 27.333 13 52.333 39 75l33 29l72 -7l-27 -29c-10 -10 -15 -20.333 -15 -31c0 -14.667 9.33301 -22 28 -22h31v-94z" />
    <glyph glyph-name="tilde" unicode="&#x2dc;" horiz-adv-x="487" 
d="M306 580c-20 0 -37.5 4.16699 -52.5 12.5s-27.667 16.666 -38 24.999s-19.5 12.5 -27.5 12.5c-20 0 -30 -15.333 -30 -46h-90c0 40 11.333 72 34 96s49 36 79 36c20 0 37.5 -4.16699 52.5 -12.5s27.667 -16.666 38 -24.999s19.5 -12.5 27.5 -12.5c20 0 30 15 30 45h90
c0 -40 -11.333 -71.833 -34 -95.5s-49 -35.5 -79 -35.5z" />
    <glyph glyph-name="hungarumlaut" unicode="&#x2dd;" horiz-adv-x="487" 
d="M142 580h-108l88 137h125zM348 580h-108l88 137h125z" />
    <glyph glyph-name="gravecomb" unicode="&#x300;" 
d="M-77 580h-109l-104 137h124z" />
    <glyph glyph-name="acutecomb" unicode="&#x301;" 
d="M-155 580h-108l88 137h125z" />
    <glyph glyph-name="uni0302" unicode="&#x302;" 
d="M-178 718l128 -138h-119l-58 69l-59 -69h-119l128 138h99z" />
    <glyph glyph-name="tildecomb" unicode="&#x303;" 
d="M-163 580c-20 0 -37.5 4.16699 -52.5 12.5s-27.667 16.666 -38 24.999s-19.5 12.5 -27.5 12.5c-20 0 -30 -15.333 -30 -46h-90c0 40 11.333 72 34 96s49 36 79 36c20 0 37.5 -4.16699 52.5 -12.5s27.667 -16.666 38 -24.999s19.5 -12.5 27.5 -12.5c19.333 0 29 15 29 45
h91c0 -40 -11.333 -71.833 -34 -95.5s-49 -35.5 -79 -35.5z" />
    <glyph glyph-name="uni0304" unicode="&#x304;" 
d="M-50 599h-322v92h322v-92z" />
    <glyph glyph-name="uni0306" unicode="&#x306;" 
d="M-215 578c-46 0 -84.333 12.5 -115 37.5s-47.334 58.833 -50.001 101.5h96c4 -42 27 -63 69 -63s65 21 69 63h96c-1.33301 -42.667 -17.666 -76.5 -48.999 -101.5s-70 -37.5 -116 -37.5z" />
    <glyph glyph-name="uni0307" unicode="&#x307;" 
d="M-121 586c-21.333 0 -39 6.16699 -53 18.5s-21 29.166 -21 50.499s7 38.333 21 51s31.667 19 53 19c20.667 0 38 -6.33301 52 -19s21 -29.667 21 -51s-6.83301 -38.166 -20.5 -50.499s-31.167 -18.5 -52.5 -18.5z" />
    <glyph glyph-name="uni0308" unicode="&#x308;" 
d="M-335 577c-20 0 -36.5 6 -49.5 18s-19.5 28.333 -19.5 49s6.5 37 19.5 49s29.5 18 49.5 18c19.333 0 35.5 -6 48.5 -18s19.5 -28.333 19.5 -49s-6.5 -37 -19.5 -49s-29.167 -18 -48.5 -18zM-118 577c-20 0 -36.5 6 -49.5 18s-19.5 28.333 -19.5 49s6.5 37 19.5 49
s29.5 18 49.5 18c19.333 0 35.5 -6 48.5 -18s19.5 -28.333 19.5 -49s-6.5 -37 -19.5 -49s-29.167 -18 -48.5 -18z" />
    <glyph glyph-name="hookabovecomb" unicode="&#x309;" 
d="M-90 563l-88.001 -0.00195312c24 30.667 36 53.334 36 68.001c0 16 -8.66699 24 -26 24c-16.667 0 -30 -10.333 -40 -31l-71 30c20.667 54.667 59.334 82 116.001 82c33.333 0 60.333 -8.16699 81 -24.5s31 -37.166 31 -62.499c0 -28 -13 -56.667 -39 -86z" />
    <glyph glyph-name="uni030A" unicode="&#x30a;" 
d="M-178 559c-37.333 0 -68 10.333 -92 31s-36 47 -36 79s12 58.333 36 79s54.667 31 92 31s68 -10.333 92 -31s36 -47 36 -79s-12 -58.333 -36 -79s-54.667 -31 -92 -31zM-178 624c16 0 28.667 4.16699 38 12.5s14 19.166 14 32.499s-4.66699 24.166 -14 32.499
s-22 12.5 -38 12.5s-28.667 -4.16699 -38 -12.5s-14 -19.166 -14 -32.499s4.66699 -24.166 14 -32.499s22 -12.5 38 -12.5z" />
    <glyph glyph-name="uni030B" unicode="&#x30b;" 
d="M-253 717l-99 -137h-107l87 137h119zM-50 717l-109 -137h-107l91 137h125z" />
    <glyph glyph-name="uni030C" unicode="&#x30c;" 
d="M-227 649l58 68h119l-128 -137h-100l-127 137h119z" />
    <glyph glyph-name="uni0312" unicode="&#x312;" 
d="M-53 736l-43.999 -58.001c29.333 -7.33301 44 -24.333 44 -51c0 -16.667 -6.33301 -30.167 -19 -40.5s-29.334 -15.5 -50.001 -15.5s-37.5 5.33301 -50.5 16s-19.5 24.334 -19.5 41.001c0 17.333 8.33301 37.333 25 60l57 79z" />
    <glyph glyph-name="uni031B" unicode="&#x31b;" 
d="M-56 600l-0.000976562 -44c0 -41.333 -11.667 -73.333 -35 -96s-54.666 -34 -93.999 -34h-86l-13 85h75c34.667 0 52 20.667 52 62v27h101z" />
    <glyph glyph-name="dotbelowcomb" unicode="&#x323;" 
d="M-124 -189c-20.667 0 -38 6.33301 -52 19s-21 29.667 -21 51c0 20.667 7 37.5 21 50.5s31.333 19.5 52 19.5c21.333 0 39 -6.5 53 -19.5s21 -29.833 21 -50.5c0 -21.333 -7 -38.333 -21 -51s-31.667 -19 -53 -19z" />
    <glyph glyph-name="uni0326" unicode="&#x326;" 
d="M-119 -40c20.667 0 37.333 -5.33301 50 -16s19 -24.667 19 -42s-8 -37 -24 -59l-53 -71l-56 32l38 49c-29.333 7.33301 -44 24.333 -44 51c0 16.667 6.5 30.167 19.5 40.5s29.833 15.5 50.5 15.5z" />
    <glyph glyph-name="uni0327" unicode="&#x327;" 
d="M-147 -176h-79v94h47c18.667 0 28 7.33301 28 22c0 10.667 -5 21 -15 31l-27 29l72 7l33 -29c25.333 -22.667 38 -47.667 38 -75c0 -22 -8.66699 -40.667 -26 -56s-41 -23 -71 -23z" />
    <glyph glyph-name="uni0328" unicode="&#x328;" 
d="M-50 -176l-63 -0.000976562c-30.667 0 -54.667 7.66699 -72 23s-26 34 -26 56c0 27.333 13 52.333 39 75l33 29l71 -7l-27 -29c-10 -11.333 -15 -21.666 -15 -30.999c0 -14.667 9.66699 -22 29 -22h31v-94z" />
    <glyph glyph-name="uni032E" unicode="&#x32e;" 
d="M-215 -183c-46 0 -84.333 12.5 -115 37.5s-47.334 58.833 -50.001 101.5h96c4 -42 27 -63 69 -63s65 21 69 63h96c-1.33301 -42.667 -17.666 -76.5 -48.999 -101.5s-70 -37.5 -116 -37.5z" />
    <glyph glyph-name="uni0331" unicode="&#x331;" 
d="M-49 -154h-323v92h323v-92z" />
    <glyph glyph-name="uni037E" unicode="&#x37e;" horiz-adv-x="254" 
d="M126 369c-22 0 -40 7.16699 -54 21.5s-21 32.833 -21 55.5c0 22 7 40.167 21 54.5s32 21.5 54 21.5s40.167 -7.16699 54.5 -21.5s21.5 -32.5 21.5 -54.5c0 -22.667 -7.16699 -41.167 -21.5 -55.5s-32.5 -21.5 -54.5 -21.5zM128 142c22 0 40.167 -7.5 54.5 -22.5
s21.5 -33.833 21.5 -56.5c0 -19.333 -7.33301 -46.333 -22 -81l-60 -142l-67 28l53 123c-16.667 4.66699 -30 13.667 -40 27s-15 29.333 -15 48c0 22 7 40.167 21 54.5s32 21.5 54 21.5z" />
    <glyph glyph-name="tonos" unicode="&#x384;" horiz-adv-x="574" 
d="M352 717l-60 -137h-92l37 137h115z" />
    <glyph glyph-name="dieresistonos" unicode="&#x385;" horiz-adv-x="574" 
d="M372 580h-85l10 145h107zM209 590c-18 0 -32.668 5.5 -44.001 16.5s-17 26.5 -17 46.5s5.66699 35.667 17 47s26 17 44 17s32.5 -5.5 43.5 -16.5s16.5 -26.833 16.5 -47.5c0 -20 -5.66699 -35.5 -17 -46.5s-25.666 -16.5 -42.999 -16.5zM472.999 590
c-17.333 0 -31.667 5.5 -43 16.5s-17 26.5 -17 46.5c0 20.667 5.5 36.5 16.5 47.5s25.5 16.5 43.5 16.5c17.333 0 31.666 -5.66699 42.999 -17s17 -27 17 -47s-5.66699 -35.5 -17 -46.5s-25.666 -16.5 -42.999 -16.5z" />
    <glyph glyph-name="Alphatonos" unicode="&#x386;" horiz-adv-x="703" 
d="M65 700h115l-58 -197h-92zM704 0h-125l-72 192h-278l-72 -192h-121l277 700h113zM368 560l-102 -270h204z" />
    <glyph glyph-name="anoteleia" unicode="&#x387;" horiz-adv-x="387" 
d="M193 369c-22 0 -40 7.16699 -54 21.5s-21 32.833 -21 55.5c0 22 7 40.167 21 54.5s32 21.5 54 21.5s40.167 -7.16699 54.5 -21.5s21.5 -32.5 21.5 -54.5c0 -22.667 -7.16699 -41.167 -21.5 -55.5s-32.5 -21.5 -54.5 -21.5z" />
    <glyph glyph-name="Epsilontonos" unicode="&#x388;" horiz-adv-x="707" 
d="M91 503h-93l36 197h115zM672 700v-105h-366v-188h325v-102h-325v-200h366v-105h-483v700h483z" />
    <glyph glyph-name="Etatonos" unicode="&#x389;" horiz-adv-x="825" 
d="M91 503h-93l36 197h115zM646 406v294h116v-700h-116v301h-341v-301h-116v700h116v-294h341z" />
    <glyph glyph-name="Iotatonos" unicode="&#x38a;" horiz-adv-x="368" 
d="M149 700l-58 -197h-93l36 197h115zM189 700h117v-700h-117v700z" />
    <glyph glyph-name="Omicrontonos" unicode="&#x38c;" horiz-adv-x="870" 
d="M485 -11c-104.667 0 -190 33.333 -256 100s-99 153.667 -99 261s33 194.333 99 261s151.333 100 256 100s189.834 -33.333 255.501 -100s98.5 -153.667 98.5 -261s-32.833 -194.333 -98.5 -261s-150.834 -100 -255.501 -100zM152 700l-58 -197h-92l35 197h115zM485 97
c68 0 123.667 22.833 167 68.5s65 107.167 65 184.5s-21.667 138.833 -65 184.5s-99 68.5 -167 68.5c-68.667 0 -124.667 -22.833 -168 -68.5s-65 -107.167 -65 -184.5s21.667 -138.833 65 -184.5s99.333 -68.5 168 -68.5z" />
    <glyph glyph-name="Upsilontonos" unicode="&#x38e;" horiz-adv-x="878" 
d="M113 503h-92l35 197h115zM737 700h132l-271 -372v-328h-117v328l-273 372h136l197 -260z" />
    <glyph glyph-name="Omegatonos" unicode="&#x38f;" horiz-adv-x="873" 
d="M704 105h136.001v-105h-304v91c53.333 16.667 94.666 47 123.999 91s44 99.333 44 166c0 78 -20.667 140 -62 186s-95 69 -161 69c-65.333 0 -118.666 -23 -159.999 -69s-62 -108 -62 -186c0 -66.667 14.667 -122 44 -166s70.333 -74.333 123 -91v-91h-303v105h135
c-38.667 30.667 -68.5 68.167 -89.5 112.5s-31.5 92.166 -31.5 143.499c0 103.333 32.167 187.5 96.5 252.5s146.833 97.5 247.5 97.5c101.333 0 184.166 -32.5 248.499 -97.5s96.5 -149.167 96.5 -252.5c0 -51.333 -10.5 -99.166 -31.5 -143.499
s-51.167 -81.833 -90.5 -112.5zM4.00098 503l36 197h114l-58 -197h-92z" />
    <glyph glyph-name="iotadieresistonos" unicode="&#x390;" horiz-adv-x="263" 
d="M145 580h-85l10 145h107zM-18 590c-18 0 -32.667 5.5 -44 16.5s-17 26.5 -17 46.5s5.66699 35.667 17 47s26 17 44 17c17.333 0 31.666 -5.5 42.999 -16.5s17 -26.833 17 -47.5c0 -20 -5.66699 -35.5 -17 -46.5s-25.666 -16.5 -42.999 -16.5zM246 590
c-17.333 0 -31.666 5.5 -42.999 16.5s-17 26.5 -17 46.5c0 20.667 5.66699 36.5 17 47.5s25.666 16.5 42.999 16.5s31.666 -5.66699 42.999 -17s17 -27 17 -47s-5.66699 -35.5 -17 -46.5s-25.666 -16.5 -42.999 -16.5zM256 0h-61c-46 0 -81.167 13 -105.5 39
s-36.5 61.333 -36.5 106v366h111v-359c0 -37.333 16.667 -56 50 -56h42v-96z" />
    <glyph glyph-name="Alpha" unicode="&#x391;" horiz-adv-x="668" 
d="M669 0h-125l-72 192h-278l-72 -192h-121l277 700h113zM333 560l-102 -270h204z" />
    <glyph glyph-name="Beta" unicode="&#x392;" horiz-adv-x="635" 
d="M474 371c42 -13.333 74.833 -35.165 98.5 -65.498s35.5 -66.166 35.5 -107.499c0 -64.667 -22 -113.834 -66 -147.501s-106 -50.5 -186 -50.5h-293v700h270c75.333 0 133.833 -15.667 175.5 -47s62.5 -78 62.5 -140c0 -32.667 -8.66699 -61.334 -26 -86.001
s-41 -43.334 -71 -56.001zM325 598.001l-145 -0.000976562v-187h145c40 0 70.833 6.83301 92.5 20.5s32.5 37.834 32.5 72.501s-10.833 59 -32.5 73s-52.5 21 -92.5 21zM180 102h172c90 0 135 35.333 135 106s-45 106 -135 106h-172v-212z" />
    <glyph glyph-name="Gamma" unicode="&#x393;" horiz-adv-x="528" 
d="M516 595h-336v-595h-117v700h453v-105z" />
    <glyph glyph-name="uni0394" unicode="&#x394;" horiz-adv-x="647" 
d="M266 700h113l251 -609v-91h-613v91zM322 558l-184 -460h367z" />
    <glyph glyph-name="Epsilon" unicode="&#x395;" horiz-adv-x="581" 
d="M546 700v-105h-366v-188h325v-102h-325v-200h366v-105h-483v700h483z" />
    <glyph glyph-name="Zeta" unicode="&#x396;" horiz-adv-x="569" 
d="M541 609l-368 -504h371v-105h-521v91l368 504h-360v105h510v-91z" />
    <glyph glyph-name="Eta" unicode="&#x397;" horiz-adv-x="699" 
d="M520 406v294h117v-700h-117v301h-341v-301h-116v700h116v-294h341z" />
    <glyph glyph-name="Theta" unicode="&#x398;" horiz-adv-x="771" 
d="M386 -11c-104.667 0 -190 33.333 -256 100s-99 153.667 -99 261s33 194.333 99 261s151.333 100 256 100s189.834 -33.333 255.501 -100s98.5 -153.667 98.5 -261s-32.833 -194.333 -98.5 -261s-150.834 -100 -255.501 -100zM386 97c68 0 123.667 22.833 167 68.5
s65 107.167 65 184.5s-21.667 138.833 -65 184.5s-99 68.5 -167 68.5c-68.667 0 -124.667 -22.833 -168 -68.5s-65 -107.167 -65 -184.5s21.667 -138.833 65 -184.5s99.333 -68.5 168 -68.5zM224 407h321v-102h-321v102z" />
    <glyph glyph-name="Iota" unicode="&#x399;" horiz-adv-x="243" 
d="M63 700h117v-700h-117v700z" />
    <glyph glyph-name="Kappa" unicode="&#x39a;" horiz-adv-x="630" 
d="M308 356l341 -356h-157l-312 328v-328h-117v700h117v-327l294 327h151z" />
    <glyph glyph-name="Lambda" unicode="&#x39b;" horiz-adv-x="668" 
d="M391 700l278 -700h-125l-211 560l-211 -560h-121l277 700h113z" />
    <glyph glyph-name="Mu" unicode="&#x39c;" horiz-adv-x="798" 
d="M401 385l225 315h109v-700h-116v510l-209 -287h-21l-210 287v-510h-116v700h109z" />
    <glyph glyph-name="Nu" unicode="&#x39d;" horiz-adv-x="719" 
d="M539 700h117v-700h-107l-370 505v-505h-116v700h106l370 -505v505z" />
    <glyph glyph-name="Xi" unicode="&#x39e;" horiz-adv-x="557" 
d="M33 700h491v-105h-491v105zM483 407v-102h-409v102h409zM33 0v105h491v-105h-491z" />
    <glyph glyph-name="Omicron" unicode="&#x39f;" horiz-adv-x="771" 
d="M386 -11c-104.667 0 -190 33.333 -256 100s-99 153.667 -99 261s33 194.333 99 261s151.333 100 256 100s189.834 -33.333 255.501 -100s98.5 -153.667 98.5 -261s-32.833 -194.333 -98.5 -261s-150.834 -100 -255.501 -100zM386 97c68 0 123.667 22.833 167 68.5
s65 107.167 65 184.5s-21.667 138.833 -65 184.5s-99 68.5 -167 68.5c-68.667 0 -124.667 -22.833 -168 -68.5s-65 -107.167 -65 -184.5s21.667 -138.833 65 -184.5s99.333 -68.5 168 -68.5z" />
    <glyph glyph-name="Pi" unicode="&#x3a0;" horiz-adv-x="688" 
d="M63 700h562v-700h-116v595h-329v-595h-117v700z" />
    <glyph glyph-name="Rho" unicode="&#x3a1;" horiz-adv-x="609" 
d="M326 700c82 0 146.166 -20.5 192.499 -61.5s69.5 -96.833 69.5 -167.5c0 -70 -23.167 -125.167 -69.5 -165.5s-110.166 -60.5 -191.499 -60.5h-148v-245h-116v700h263zM178.999 347h139c46.667 0 82.834 10.5 108.501 31.5s38.5 51.833 38.5 92.5
s-12.833 71.5 -38.5 92.5s-61.834 31.5 -108.501 31.5h-139v-248z" />
    <glyph glyph-name="Sigma" unicode="&#x3a3;" horiz-adv-x="553" 
d="M381 340l-199 -235h344v-105h-501v91l228 262l-219 257v90h491v-105h-333l189 -227v-28z" />
    <glyph glyph-name="Tau" unicode="&#x3a4;" horiz-adv-x="579" 
d="M12 700h555v-105h-219v-595h-117v595h-219v105z" />
    <glyph glyph-name="Upsilon" unicode="&#x3a5;" horiz-adv-x="676" 
d="M535 700h132l-270 -372v-328h-117v328l-274 372h137l196 -260z" />
    <glyph glyph-name="Phi" unicode="&#x3a6;" horiz-adv-x="830" 
d="M802 354c0 -88.667 -29.667 -160.002 -89 -214.002s-139.333 -83.333 -240 -88v-74h-117v74c-100 5.33301 -179.667 34.833 -239 88.5s-89 124.834 -89 213.501s29.667 159.834 89 213.501s139 83.167 239 88.5v72h117v-72c100.667 -4.66699 180.667 -34 240 -88
s89 -125.333 89 -214zM150 353.998c0 -62 18.3311 -110.499 54.998 -145.499s88.334 -53.5 155.001 -55.5v402c-67.333 -2 -119.166 -20.333 -155.499 -55s-54.5 -83.334 -54.5 -146.001zM470.998 554.999v-402.002c66.667 2 118.167 20.333 154.5 55
s54.5 83.334 54.5 146.001s-18.167 111.334 -54.5 146.001s-87.833 53 -154.5 55z" />
    <glyph glyph-name="Chi" unicode="&#x3a7;" horiz-adv-x="637" 
d="M126 0h-134l259 354l-251 346h136l183 -251l184 251h134l-251 -344l258 -356h-136l-190 261z" />
    <glyph glyph-name="Psi" unicode="&#x3a8;" horiz-adv-x="780" 
d="M623 438v262h118v-268c0 -88.667 -27.167 -158.334 -81.5 -209.001s-124.833 -76.334 -211.5 -77.001v-146h-117v146c-86.667 0.666992 -157 26.334 -211 77.001s-81 120.334 -81 209.001v268h117v-262c0 -62.667 15.667 -109.5 47 -140.5s74 -46.833 128 -47.5v450h117
v-450c54 0.666992 96.667 16.5 128 47.5s47 77.833 47 140.5z" />
    <glyph glyph-name="uni03A9" unicode="&#x3a9;" horiz-adv-x="783" 
d="M614 105h136v-105h-303v91c52.667 16.667 93.667 47 123 91s44 99.333 44 166c0 78 -20.667 140 -62 186s-95 69 -161 69c-65.333 0 -118.666 -23 -159.999 -69s-62 -108 -62 -186c0 -66.667 14.667 -122 44 -166s70.333 -74.333 123 -91v-91h-303v105h135
c-38.667 30.667 -68.5 68.167 -89.5 112.5s-31.5 92.166 -31.5 143.499c0 103.333 32.167 187.5 96.5 252.5s146.833 97.5 247.5 97.5c101.333 0 184.166 -32.5 248.499 -97.5s96.5 -149.167 96.5 -252.5c0 -51.333 -10.5 -99.166 -31.5 -143.499
s-51.167 -81.833 -90.5 -112.5z" />
    <glyph glyph-name="Iotadieresis" unicode="&#x3aa;" horiz-adv-x="243" 
d="M13 766c-20 0 -36.5 6 -49.5 18s-19.5 28.333 -19.5 49s6.5 37 19.5 49s29.5 18 49.5 18c19.333 0 35.5 -6 48.5 -18s19.5 -28.333 19.5 -49s-6.5 -37 -19.5 -49s-29.167 -18 -48.5 -18zM230 766c-20 0 -36.5 6 -49.5 18s-19.5 28.333 -19.5 49s6.5 37 19.5 49
s29.5 18 49.5 18c19.333 0 35.5 -6 48.5 -18s19.5 -28.333 19.5 -49s-6.5 -37 -19.5 -49s-29.167 -18 -48.5 -18zM63 700h117v-700h-117v700z" />
    <glyph glyph-name="Upsilondieresis" unicode="&#x3ab;" horiz-adv-x="676" 
d="M231 766c-20 0 -36.5 6 -49.5 18s-19.5 28.333 -19.5 49s6.5 37 19.5 49s29.5 18 49.5 18c19.333 0 35.5 -6 48.5 -18s19.5 -28.333 19.5 -49s-6.5 -37 -19.5 -49s-29.167 -18 -48.5 -18zM448 766c-20 0 -36.5 6 -49.5 18s-19.5 28.333 -19.5 49s6.5 37 19.5 49
s29.5 18 49.5 18c19.333 0 35.5 -6 48.5 -18s19.5 -28.333 19.5 -49s-6.5 -37 -19.5 -49s-29.167 -18 -48.5 -18zM535 700h132l-270 -372v-328h-117v328l-274 372h137l196 -260z" />
    <glyph glyph-name="alphatonos" unicode="&#x3ac;" horiz-adv-x="592" 
d="M289 717h115l-60 -137h-92zM429 427v84.001h110v-511h-110v84c-38 -63.333 -93.667 -95 -167 -95c-66.667 0 -122 25.167 -166 75.5s-66 114.166 -66 191.499c0 76.667 22 140.167 66 190.5s99.333 75.5 166 75.5c73.333 0 129 -31.667 167 -95zM287 88.001
c42.667 0 77.334 15 104.001 45s40 71 40 123c0 51.333 -13.333 91.833 -40 121.5s-61.334 44.5 -104.001 44.5c-43.333 0 -78.333 -14.833 -105 -44.5s-40 -70.167 -40 -121.5c0 -52 13.333 -93 40 -123s61.667 -45 105 -45z" />
    <glyph glyph-name="epsilontonos" unicode="&#x3ad;" horiz-adv-x="505" 
d="M245 717h115l-60 -137h-92zM396 189l95.999 -36c-18 -54 -48.333 -94.833 -91 -122.5s-93.667 -41.5 -153 -41.5c-61.333 0 -113.166 13.667 -155.499 41s-63.5 66 -63.5 116c0 56.667 35 97.667 105 123c-58.667 22.667 -88 57.667 -88 105c0 44.667 19 80.5 57 107.5
s87.667 40.5 149 40.5c52.667 0 99.167 -12.667 139.5 -38s68.166 -62 83.499 -110l-95 -35c-25.333 58.667 -66.666 88 -123.999 88c-30 0 -53.833 -5.33301 -71.5 -16s-26.5 -26.667 -26.5 -48c0 -20 9.66699 -35.167 29 -45.5s44 -15.5 74 -15.5h73v-80h-76
c-77.333 0 -116 -22.667 -116 -68c0 -47.333 37.667 -71 113 -71c66.667 0 113.667 35.333 141 106z" />
    <glyph glyph-name="etatonos" unicode="&#x3ae;" horiz-adv-x="542" 
d="M269 717h115l-60 -137h-92zM310 522c54 0 98.333 -18.167 133 -54.5s52 -83.833 52 -142.5v-492h-111v474c0 36 -9.5 64.5 -28.5 85.5s-43.833 31.5 -74.5 31.5c-35.333 0 -63.833 -11 -85.5 -33s-32.5 -51.667 -32.5 -89v-302h-111v511h111v-72
c30.667 55.333 79.667 83 147 83z" />
    <glyph glyph-name="iotatonos" unicode="&#x3af;" horiz-adv-x="263" 
d="M214 717l-60 -137h-92l37 137h115zM256 0h-61c-46 0 -81.167 13 -105.5 39s-36.5 61.333 -36.5 106v366h111v-359c0 -37.333 16.667 -56 50 -56h42v-96z" />
    <glyph glyph-name="upsilondieresistonos" unicode="&#x3b0;" horiz-adv-x="537" 
d="M306 580h-85l10 145h107zM143 590c-18 0 -32.668 5.5 -44.001 16.5s-17 26.5 -17 46.5s5.66699 35.667 17 47s26 17 44 17s32.5 -5.5 43.5 -16.5s16.5 -26.833 16.5 -47.5c0 -20 -5.66699 -35.5 -17 -46.5s-25.666 -16.5 -42.999 -16.5zM406.999 590
c-17.333 0 -31.667 5.5 -43 16.5s-17 26.5 -17 46.5c0 20.667 5.5 36.5 16.5 47.5s25.5 16.5 43.5 16.5c17.333 0 31.666 -5.66699 42.999 -17s17 -27 17 -47s-5.66699 -35.5 -17 -46.5s-25.666 -16.5 -42.999 -16.5zM268.998 -11c-65.333 0 -118.666 19.333 -159.999 58
s-62 91.667 -62 159v305h111v-298c0 -40.667 10.167 -71.5 30.5 -92.5s47.166 -31.5 80.499 -31.5s60 10.5 80 31.5s30 51.833 30 92.5v298h111v-305c0 -67.333 -20.5 -120.333 -61.5 -159s-94.167 -58 -159.5 -58z" />
    <glyph glyph-name="alpha" unicode="&#x3b1;" horiz-adv-x="592" 
d="M429 427v84.001h110v-511h-110v84c-38 -63.333 -93.667 -95 -167 -95c-66.667 0 -122 25.167 -166 75.5s-66 114.166 -66 191.499c0 76.667 22 140.167 66 190.5s99.333 75.5 166 75.5c73.333 0 129 -31.667 167 -95zM287 88.001c42.667 0 77.334 15 104.001 45
s40 71 40 123c0 51.333 -13.333 91.833 -40 121.5s-61.334 44.5 -104.001 44.5c-43.333 0 -78.333 -14.833 -105 -44.5s-40 -70.167 -40 -121.5c0 -52 13.333 -93 40 -123s61.667 -45 105 -45z" />
    <glyph glyph-name="beta" unicode="&#x3b2;" horiz-adv-x="578" 
d="M418 364c37.333 -8 68.667 -27.8311 94 -59.498s38 -67.834 38 -108.501c0 -62.667 -20.667 -112.834 -62 -150.501s-94.333 -56.5 -159 -56.5c-76 0 -131.333 29.333 -166 88v-244h-111v664c0 60.667 19.5 111.5 58.5 152.5s96.167 61.5 171.5 61.5
c66.667 0 121.5 -18.833 164.5 -56.5s64.5 -84.167 64.5 -139.5c0 -38 -8.5 -70 -25.5 -96s-39.5 -44.333 -67.5 -55zM300.001 88.002c42 0 75.334 10 100.001 30s37 48 37 84s-12.333 63.667 -37 83s-57.667 29 -99 29h-54v95h33c34 0 62.167 9 84.5 27
s33.5 42.667 33.5 74c0 30.667 -11.167 55.334 -33.5 74.001s-50.5 28 -84.5 28c-36.667 0 -65.334 -10.167 -86.001 -30.5s-31 -47.833 -31 -82.5v-267c0 -44.667 11.833 -79.834 35.5 -105.501s57.5 -38.5 101.5 -38.5z" />
    <glyph glyph-name="gamma" unicode="&#x3b3;" horiz-adv-x="525" 
d="M262 144l140 367h118l-203 -511v-167h-109v167l-204 511h121z" />
    <glyph glyph-name="delta" unicode="&#x3b4;" horiz-adv-x="566" 
d="M277 607l166 -162.001c62 -62 93 -131 93 -207c0 -71.333 -24 -130.666 -72 -177.999s-108 -71 -180 -71c-72.667 0 -133.167 23.333 -181.5 70s-72.5 105 -72.5 175c0 68 22 124.333 66 169s100.333 67 169 67h7l-159 153v77h391v-93h-227zM284 88.999
c40.667 0 74.167 13.333 100.5 40s39.5 61.667 39.5 105c0 44 -13.167 79.5 -39.5 106.5s-59.833 40.5 -100.5 40.5c-41.333 0 -75.166 -13.5 -101.499 -40.5s-39.5 -62.5 -39.5 -106.5c0 -43.333 13.167 -78.333 39.5 -105s60.166 -40 101.499 -40z" />
    <glyph glyph-name="epsilon" unicode="&#x3b5;" horiz-adv-x="505" 
d="M396 189l95.999 -36c-18 -54 -48.333 -94.833 -91 -122.5s-93.667 -41.5 -153 -41.5c-61.333 0 -113.166 13.667 -155.499 41s-63.5 66 -63.5 116c0 56.667 35 97.667 105 123c-58.667 22.667 -88 57.667 -88 105c0 44.667 19 80.5 57 107.5s87.667 40.5 149 40.5
c52.667 0 99.167 -12.667 139.5 -38s68.166 -62 83.499 -110l-95 -35c-25.333 58.667 -66.666 88 -123.999 88c-30 0 -53.833 -5.33301 -71.5 -16s-26.5 -26.667 -26.5 -48c0 -20 9.66699 -35.167 29 -45.5s44 -15.5 74 -15.5h73v-80h-76c-77.333 0 -116 -22.667 -116 -68
c0 -47.333 37.667 -71 113 -71c66.667 0 113.667 35.333 141 106z" />
    <glyph glyph-name="zeta" unicode="&#x3b6;" horiz-adv-x="429" 
d="M431 700l-0.000976562 -82l-219 -243c-46.667 -51.333 -70 -101.333 -70 -150c0 -35.333 9.83301 -62 29.5 -80s52.834 -36.667 99.501 -56c22.667 -8.66699 40.834 -16.667 54.501 -24s28.167 -17 43.5 -29s26.666 -26.5 33.999 -43.5s11 -36.5 11 -58.5
c0 -30 -9.66699 -63.667 -29 -101h-108c17.333 31.333 26 57.333 26 78c0 22.667 -6.66699 40 -20 52s-37.333 25 -72 39c-28.667 11.333 -52.5 22.333 -71.5 33s-37.833 24.167 -56.5 40.5s-32.5 36 -41.5 59s-13.5 49.833 -13.5 80.5c0 71.333 33.667 144 101 218l159 171
h-227v96h370z" />
    <glyph glyph-name="eta" unicode="&#x3b7;" horiz-adv-x="542" 
d="M310 522c54 0 98.333 -18.167 133 -54.5s52 -83.833 52 -142.5v-492h-111v474c0 36 -9.5 64.5 -28.5 85.5s-43.833 31.5 -74.5 31.5c-35.333 0 -63.833 -11 -85.5 -33s-32.5 -51.667 -32.5 -89v-302h-111v511h111v-72c30.667 55.333 79.667 83 147 83z" />
    <glyph glyph-name="theta" unicode="&#x3b8;" horiz-adv-x="580" 
d="M289 711c78.667 0 140.834 -30.5 186.501 -91.5s68.5 -150.833 68.5 -269.5s-22.833 -208.5 -68.5 -269.5s-107.834 -91.5 -186.501 -91.5c-78 0 -139.5 30.5 -184.5 91.5s-67.5 150.833 -67.5 269.5s22.5 208.5 67.5 269.5s106.5 91.5 184.5 91.5zM289 614
c-84.667 0 -131.332 -69.667 -139.999 -209h283c-8.66699 139.333 -56.334 209 -143.001 209zM289.002 85c90.667 0 138.667 77.333 144 232h-285c5.33301 -154.667 52.333 -232 141 -232z" />
    <glyph glyph-name="iota" unicode="&#x3b9;" horiz-adv-x="263" 
d="M256 0h-61c-46 0 -81.167 13 -105.5 39s-36.5 61.333 -36.5 106v366h111v-359c0 -37.333 16.667 -56 50 -56h42v-96z" />
    <glyph glyph-name="kappa" unicode="&#x3ba;" horiz-adv-x="493" 
d="M280 261l225 -261h-136l-205 246v-246h-112v511h112v-238l194 238h133z" />
    <glyph glyph-name="lambda" unicode="&#x3bb;" horiz-adv-x="535" 
d="M286 598l245 -598h-122l-141 372l-138 -372h-126l206 503l-26 58c-7.33301 16.667 -16 28 -26 34s-23.333 9 -40 9h-32v96h47c37.333 0 68.333 -7.5 93 -22.5s44.667 -41.5 60 -79.5z" />
    <glyph glyph-name="uni03BC" unicode="&#x3bc;" horiz-adv-x="547" 
d="M384 209v302h111v-511h-111v74c-25.333 -56.667 -68 -85 -128 -85c-38.667 0 -69.667 11.667 -93 35v-191h-111v678h111v-307c0 -36.667 9.5 -65.5 28.5 -86.5s43.833 -31.5 74.5 -31.5c35.333 0 63.833 11 85.5 33s32.5 52 32.5 90z" />
    <glyph glyph-name="nu" unicode="&#x3bd;" horiz-adv-x="519" 
d="M261 149l135 362h118l-202 -511h-104l-204 511h121z" />
    <glyph glyph-name="xi" unicode="&#x3be;" horiz-adv-x="437" 
d="M283 94c47.333 -17.333 84.167 -38.0039 110.5 -62.0039s39.5 -55.333 39.5 -94c0 -30 -10 -65 -30 -105h-108c18 33.333 27 60 27 80c0 22 -6.83301 39.5 -20.5 52.5s-38.5 25.833 -74.5 38.5c-30 10.667 -54.833 20.834 -74.5 30.501s-40 22.334 -61 38.001
s-36.833 34.667 -47.5 57s-16 47.833 -16 76.5c0 40 12.333 73.833 37 101.5s58 47.167 100 58.5c-71.333 26.667 -107 69.667 -107 129c0 44 21.333 80 64 108h-90v97h383v-97h-126c-36 0 -64.667 -8.5 -86 -25.5s-32 -40.5 -32 -70.5c0 -30.667 10.833 -54.5 32.5 -71.5
s49.167 -25.5 82.5 -25.5h83v-96h-95c-40 0 -72.167 -8.66699 -96.5 -26s-36.5 -41.666 -36.5 -72.999c0 -28.667 10.5 -51.167 31.5 -67.5s57.833 -34.166 110.5 -53.499z" />
    <glyph glyph-name="omicron" unicode="&#x3bf;" horiz-adv-x="580" 
d="M290 -11c-75.333 0 -137.666 24.833 -186.999 74.5s-74 113.834 -74 192.501c0 78 24.667 141.833 74 191.5s111.666 74.5 186.999 74.5s137.666 -24.833 186.999 -74.5s74 -113.5 74 -191.5c0 -78.667 -24.667 -142.834 -74 -192.501s-111.666 -74.5 -186.999 -74.5z
M290 88c43.333 0 78.833 15 106.5 45s41.5 71 41.5 123c0 51.333 -13.833 91.833 -41.5 121.5s-63.167 44.5 -106.5 44.5s-78.666 -14.833 -105.999 -44.5s-41 -70.167 -41 -121.5c0 -52 13.667 -93 41 -123s62.666 -45 105.999 -45z" />
    <glyph glyph-name="pi" unicode="&#x3c0;" horiz-adv-x="598" 
d="M23 511h552v-97h-71v-414h-110v414h-190v-414h-111v414h-70v97z" />
    <glyph glyph-name="rho" unicode="&#x3c1;" horiz-adv-x="589" 
d="M300 522c75.333 0 137.5 -24.665 186.5 -73.998s73.5 -113.333 73.5 -192s-22.667 -142.834 -68 -192.501s-102 -74.5 -170 -74.5c-72 0 -127.667 31 -167 93v-249h-111v413c0 87.333 23.5 155.166 70.5 203.499s108.833 72.5 185.5 72.5zM300 88.002
c43.333 0 78.666 15 105.999 45s41 71 41 123c0 51.333 -13.667 91.833 -41 121.5s-62.666 44.5 -105.999 44.5s-78.666 -14.833 -105.999 -44.5s-41 -70.167 -41 -121.5c0 -52 13.667 -93 41 -123s62.666 -45 105.999 -45z" />
    <glyph glyph-name="uni03C2" unicode="&#x3c2;" horiz-adv-x="495" 
d="M419 -167l-107.999 0.000976562c17.333 32.667 26 59.667 26 81c0 20.667 -7.16699 36.834 -21.5 48.501s-44.5 27.167 -90.5 46.5c-28 12 -51.667 23.667 -71 35s-39.5 26.666 -60.5 45.999s-37 43.333 -48 72s-16.5 61.667 -16.5 99
c0 78.667 22.833 141.834 68.5 189.501s104.5 71.5 176.5 71.5c57.333 0 104.833 -14.5 142.5 -43.5s63.834 -70.5 78.501 -124.5l-98 -31c-20.667 66 -61.667 99 -123 99c-38.667 0 -70.167 -14 -94.5 -42s-36.5 -64.667 -36.5 -110c0 -48 11.5 -83.833 34.5 -107.5
s60.167 -46.5 111.5 -68.5c28 -12.667 49.167 -22.834 63.5 -30.501s30.166 -17.834 47.499 -30.501s29.666 -26.667 36.999 -42s11 -33 11 -53c0 -34 -9.66699 -69 -29 -105z" />
    <glyph glyph-name="sigma" unicode="&#x3c3;" horiz-adv-x="606" 
d="M289 511l300 -0.00292969v-97h-117c52.667 -43.333 79 -102 79 -176c0 -73.333 -24.667 -133.166 -74 -179.499s-112 -69.5 -188 -69.5c-75.333 0 -137.5 24.333 -186.5 73s-73.5 111.334 -73.5 188.001s24.5 139.334 73.5 188.001s111.167 73 186.5 73zM289 87.9971
c43.333 0 79 14.667 107 44s42 69.333 42 120c0 50 -14 89.667 -42 119s-63.667 44 -107 44c-42.667 0 -77.667 -14.667 -105 -44s-41 -69 -41 -119c0 -50.667 13.5 -90.667 40.5 -120s62.167 -44 105.5 -44z" />
    <glyph glyph-name="tau" unicode="&#x3c4;" horiz-adv-x="484" 
d="M466 511v-97h-174v-262c0 -37.333 16.667 -56 50 -56h52v-96h-71c-46 0 -81.167 13 -105.5 39s-36.5 61.333 -36.5 106v269h-165v97h450z" />
    <glyph glyph-name="upsilon" unicode="&#x3c5;" horiz-adv-x="537" 
d="M269 -11c-65.333 0 -118.666 19.333 -159.999 58s-62 91.667 -62 159v305h111v-298c0 -40.667 10.167 -71.5 30.5 -92.5s47.166 -31.5 80.499 -31.5s60 10.5 80 31.5s30 51.833 30 92.5v298h111v-305c0 -67.333 -20.5 -120.333 -61.5 -159s-94.167 -58 -159.5 -58z" />
    <glyph glyph-name="phi" unicode="&#x3c6;" horiz-adv-x="702" 
d="M674 255c0 -75.333 -24.335 -137.501 -73.002 -186.501s-113.334 -75.833 -194.001 -80.5v-155h-111v155c-81.333 4.66699 -146.166 31.334 -194.499 80.001s-72.5 111 -72.5 187c0 75.333 24.333 137.5 73 186.5s113.334 75.833 194.001 80.5v135h111v-135
c80.667 -4.66699 145.334 -31.5 194.001 -80.5s73 -111.167 73 -186.5zM140.998 254.999c0 -54 14.833 -95.667 44.5 -125s67.5 -45 113.5 -47v344c-46 -2 -83.833 -17.833 -113.5 -47.5s-44.5 -71.167 -44.5 -124.5zM403.998 426.999v-344c46 2 83.833 17.667 113.5 47
s44.5 71 44.5 125c0 53.333 -14.833 94.833 -44.5 124.5s-67.5 45.5 -113.5 47.5z" />
    <glyph glyph-name="chi" unicode="&#x3c7;" horiz-adv-x="503" 
d="M319 180l200 -347h-125l-140 249l-143 -249h-123l201 344l-186 334h126l125 -234l128 234h122z" />
    <glyph glyph-name="psi" unicode="&#x3c8;" horiz-adv-x="712" 
d="M554 210v301h111v-302c0 -68.667 -20.667 -122.5 -62 -161.5s-94.666 -58.5 -159.999 -58.5h-32v-156h-110v156h-32c-65.333 0 -118.666 19.5 -159.999 58.5s-62 92.833 -62 161.5v302h111v-301c0 -40.667 10.167 -71.667 30.5 -93s47.166 -32 80.499 -32h32v572h110
v-572h32c33.333 0 60.166 10.667 80.499 32s30.5 52.333 30.5 93z" />
    <glyph glyph-name="omega" unicode="&#x3c9;" horiz-adv-x="832" 
d="M572 425l37.002 97c58.667 -18 105.5 -50.833 140.5 -98.5s52.5 -105.5 52.5 -173.5c0 -80.667 -19.333 -144.334 -58 -191.001s-90 -70 -154 -70c-82 0 -140 37 -174 111c-30.667 -74 -88.667 -111 -174 -111c-64 0 -115.333 23.333 -154 70s-58 110.334 -58 191.001
c0 68 17.5 125.833 52.5 173.5s81.833 80.5 140.5 98.5l37 -97c-78 -30.667 -117 -92.334 -117 -185.001c0 -45.333 9.66699 -82 29 -110s46.666 -42 81.999 -42c34.667 0 61.167 11.167 79.5 33.5s27.5 54.833 27.5 97.5v149h111v-149c0 -42.667 9 -75.167 27 -97.5
s44.333 -33.5 79 -33.5c35.333 0 62.666 14 81.999 42s29 64.667 29 110c0 92.667 -39 154.334 -117 185.001z" />
    <glyph glyph-name="iotadieresis" unicode="&#x3ca;" horiz-adv-x="263" 
d="M0 577c-20 0 -36.5 6 -49.5 18s-19.5 28.333 -19.5 49s6.5 37 19.5 49s29.5 18 49.5 18c19.333 0 35.5 -6 48.5 -18s19.5 -28.333 19.5 -49s-6.5 -37 -19.5 -49s-29.167 -18 -48.5 -18zM217 577c-20 0 -36.5 6 -49.5 18s-19.5 28.333 -19.5 49s6.5 37 19.5 49
s29.5 18 49.5 18c19.333 0 35.5 -6 48.5 -18s19.5 -28.333 19.5 -49s-6.5 -37 -19.5 -49s-29.167 -18 -48.5 -18zM256 0h-61c-46 0 -81.167 13 -105.5 39s-36.5 61.333 -36.5 106v366h111v-359c0 -37.333 16.667 -56 50 -56h42v-96z" />
    <glyph glyph-name="upsilondieresis" unicode="&#x3cb;" horiz-adv-x="537" 
d="M160 577c-20 0 -36.5 6 -49.5 18s-19.5 28.333 -19.5 49s6.5 37 19.5 49s29.5 18 49.5 18c19.333 0 35.5 -6 48.5 -18s19.5 -28.333 19.5 -49s-6.5 -37 -19.5 -49s-29.167 -18 -48.5 -18zM377 577c-20 0 -36.5 6 -49.5 18s-19.5 28.333 -19.5 49s6.5 37 19.5 49
s29.5 18 49.5 18c19.333 0 35.5 -6 48.5 -18s19.5 -28.333 19.5 -49s-6.5 -37 -19.5 -49s-29.167 -18 -48.5 -18zM269 -11c-65.333 0 -118.666 19.333 -159.999 58s-62 91.667 -62 159v305h111v-298c0 -40.667 10.167 -71.5 30.5 -92.5s47.166 -31.5 80.499 -31.5
s60 10.5 80 31.5s30 51.833 30 92.5v298h111v-305c0 -67.333 -20.5 -120.333 -61.5 -159s-94.167 -58 -159.5 -58z" />
    <glyph glyph-name="omicrontonos" unicode="&#x3cc;" horiz-adv-x="580" 
d="M396 717l-60 -137h-92l37 137h115zM290 -11c-75.333 0 -137.666 24.833 -186.999 74.5s-74 113.834 -74 192.501c0 78 24.667 141.833 74 191.5s111.666 74.5 186.999 74.5s137.666 -24.833 186.999 -74.5s74 -113.5 74 -191.5c0 -78.667 -24.667 -142.834 -74 -192.501
s-111.666 -74.5 -186.999 -74.5zM290 88c43.333 0 78.833 15 106.5 45s41.5 71 41.5 123c0 51.333 -13.833 91.833 -41.5 121.5s-63.167 44.5 -106.5 44.5s-78.666 -14.833 -105.999 -44.5s-41 -70.167 -41 -121.5c0 -52 13.667 -93 41 -123s62.666 -45 105.999 -45z" />
    <glyph glyph-name="upsilontonos" unicode="&#x3cd;" horiz-adv-x="537" 
d="M374 717l-60 -137h-92l37 137h115zM269 -11c-65.333 0 -118.666 19.333 -159.999 58s-62 91.667 -62 159v305h111v-298c0 -40.667 10.167 -71.5 30.5 -92.5s47.166 -31.5 80.499 -31.5s60 10.5 80 31.5s30 51.833 30 92.5v298h111v-305
c0 -67.333 -20.5 -120.333 -61.5 -159s-94.167 -58 -159.5 -58z" />
    <glyph glyph-name="omegatonos" unicode="&#x3ce;" horiz-adv-x="832" 
d="M407 717h115l-60 -137h-92zM572 425l37.002 97c58.667 -18 105.5 -50.833 140.5 -98.5s52.5 -105.5 52.5 -173.5c0 -80.667 -19.333 -144.334 -58 -191.001s-90 -70 -154 -70c-82 0 -140 37 -174 111c-30.667 -74 -88.667 -111 -174 -111c-64 0 -115.333 23.333 -154 70
s-58 110.334 -58 191.001c0 68 17.5 125.833 52.5 173.5s81.833 80.5 140.5 98.5l37 -97c-78 -30.667 -117 -92.334 -117 -185.001c0 -45.333 9.66699 -82 29 -110s46.666 -42 81.999 -42c34.667 0 61.167 11.167 79.5 33.5s27.5 54.833 27.5 97.5v149h111v-149
c0 -42.667 9 -75.167 27 -97.5s44.333 -33.5 79 -33.5c35.333 0 62.666 14 81.999 42s29 64.667 29 110c0 92.667 -39 154.334 -117 185.001z" />
    <glyph glyph-name="uni0400" unicode="&#x400;" horiz-adv-x="581" 
d="M290 907l89 -138h-109l-104 138h124zM546 700v-105h-366v-188h325v-102h-325v-200h366v-105h-483v700h483z" />
    <glyph glyph-name="uni0401" unicode="&#x401;" horiz-adv-x="581" 
d="M200 766c-20 0 -36.5 6 -49.5 18s-19.5 28.333 -19.5 49s6.5 37 19.5 49s29.5 18 49.5 18c19.333 0 35.5 -6 48.5 -18s19.5 -28.333 19.5 -49s-6.5 -37 -19.5 -49s-29.167 -18 -48.5 -18zM417 766c-20 0 -36.5 6 -49.5 18s-19.5 28.333 -19.5 49s6.5 37 19.5 49
s29.5 18 49.5 18c19.333 0 35.5 -6 48.5 -18s19.5 -28.333 19.5 -49s-6.5 -37 -19.5 -49s-29.167 -18 -48.5 -18zM546 700v-105h-366v-188h325v-102h-325v-200h366v-105h-483v700h483z" />
    <glyph glyph-name="uni0402" unicode="&#x402;" horiz-adv-x="735" 
d="M465 437c76.667 0 137.832 -20.166 183.499 -60.499s68.5 -94.833 68.5 -163.5c0 -66.667 -21.5 -119.834 -64.5 -159.501s-100.833 -59.5 -173.5 -59.5h-51v103h41c40.667 0 71.834 9.83301 93.501 29.5s32.5 48.5 32.5 86.5c0 77.333 -48 116 -144 116
c-50 0 -98 -8.66699 -144 -26v-303h-117v595h-176v105h549v-105h-256v-187c50 19.333 102.667 29 158 29z" />
    <glyph glyph-name="uni0403" unicode="&#x403;" horiz-adv-x="528" 
d="M327 769h-108l88 138h125zM516 595h-336v-595h-117v700h453v-105z" />
    <glyph glyph-name="uni0404" unicode="&#x404;" horiz-adv-x="710" 
d="M381 97c48 0 89.667 13.333 125 40s61.333 63.667 78 111l108 -41c-23.333 -69.333 -62.333 -123 -117 -161s-119.334 -57 -194.001 -57c-102.667 0 -186.5 33.333 -251.5 100s-97.5 153.667 -97.5 261s32.5 194.333 97.5 261s148.833 100 251.5 100
c74.667 0 139.334 -19 194.001 -57s93.667 -91.667 117 -161l-108 -41c-16.667 47.333 -42.667 84.333 -78 111s-77 40 -125 40c-58 0 -107 -17.333 -147 -52s-65 -82.667 -75 -144h317v-102h-319c8 -64.667 32.333 -115.5 73 -152.5s91 -55.5 151 -55.5z" />
    <glyph glyph-name="uni0405" unicode="&#x405;" horiz-adv-x="613" 
d="M312 -11c-76.667 0 -140.499 18.332 -191.499 54.999s-84.833 91 -101.5 163l105 33c11.333 -46 33.166 -82 65.499 -108s73.166 -39 122.499 -39c46.667 0 83.667 8.33301 111 25s41 39 41 67c0 24.667 -11 44.834 -33 60.501s-59 30.5 -111 44.5l-80 22
c-128.667 34.667 -193 101.334 -193 200.001c0 58.667 23.5 106.5 70.5 143.5s108.5 55.5 184.5 55.5c72.667 0 133.5 -17.833 182.5 -53.5s79.5 -86.5 91.5 -152.5l-105 -27c-9.33301 43.333 -28.833 75.666 -58.5 96.999s-66.167 32 -109.5 32
c-41.333 0 -74.333 -7.83301 -99 -23.5s-37 -36.834 -37 -63.501s9.83301 -47.167 29.5 -61.5s50.834 -27.166 93.501 -38.499l81 -22c141.333 -36.667 212 -104.667 212 -204c0 -62 -24.333 -111.667 -73 -149s-114.667 -56 -198 -56z" />
    <glyph glyph-name="uni0406" unicode="&#x406;" horiz-adv-x="243" 
d="M63 700h117v-700h-117v700z" />
    <glyph glyph-name="uni0407" unicode="&#x407;" horiz-adv-x="243" 
d="M13 766c-20 0 -36.5 6 -49.5 18s-19.5 28.333 -19.5 49s6.5 37 19.5 49s29.5 18 49.5 18c19.333 0 35.5 -6 48.5 -18s19.5 -28.333 19.5 -49s-6.5 -37 -19.5 -49s-29.167 -18 -48.5 -18zM230 766c-20 0 -36.5 6 -49.5 18s-19.5 28.333 -19.5 49s6.5 37 19.5 49
s29.5 18 49.5 18c19.333 0 35.5 -6 48.5 -18s19.5 -28.333 19.5 -49s-6.5 -37 -19.5 -49s-29.167 -18 -48.5 -18zM63 700h117v-700h-117v700z" />
    <glyph glyph-name="uni0408" unicode="&#x408;" horiz-adv-x="500" 
d="M215 -11c-101.333 0 -172.998 49 -214.998 147l94 51c23.333 -60 62.666 -90 117.999 -90c35.333 0 63.166 11 83.499 33s30.5 54 30.5 96v474h116v-479c0 -74 -20.667 -131.167 -62 -171.5s-96.333 -60.5 -165 -60.5z" />
    <glyph glyph-name="uni0409" unicode="&#x409;" horiz-adv-x="1036" 
d="M609 435h162c74.667 0 134 -19.167 178 -57.5s66 -90.833 66 -157.5c0 -68.667 -22 -122.5 -66 -161.5s-103.333 -58.5 -178 -58.5h-279v595h-251l-10 -330c-2.66699 -84.667 -19.167 -148 -49.5 -190s-76.833 -70.667 -139.5 -86l-29 107c38 12 64.667 31 80 57
s24 69.667 26 131l12 416h478v-265zM609 103h152c88 0 132 39 132 117c0 74.667 -44 112 -132 112h-152v-229z" />
    <glyph glyph-name="uni040A" unicode="&#x40a;" horiz-adv-x="1034" 
d="M607 435h162c74.667 0 134 -19.167 178 -57.5s66 -90.833 66 -157.5c0 -68.667 -22 -122.5 -66 -161.5s-103.333 -58.5 -178 -58.5h-278v331h-311v-331h-117v700h117v-265h311v265h116v-265zM607 103h152c88 0 132 39 132 117c0 74.667 -44 112 -132 112h-152v-229z" />
    <glyph glyph-name="uni040B" unicode="&#x40b;" horiz-adv-x="741" 
d="M459 437c78.667 0 139.833 -21.168 183.5 -63.501s65.5 -101.166 65.5 -176.499v-197h-116v185c0 97.333 -48.667 146 -146 146c-52 0 -98.333 -7.66699 -139 -23v-308h-117v595h-176v105h549v-105h-256v-185c47.333 18 98 27 152 27z" />
    <glyph glyph-name="uni040C" unicode="&#x40c;" horiz-adv-x="630" 
d="M340 906h125l-105 -137h-108zM308 356l341 -356h-157l-312 328v-328h-117v700h117v-327l294 327h151z" />
    <glyph glyph-name="uni040D" unicode="&#x40d;" horiz-adv-x="719" 
d="M430 769h-109l-104 137h124zM169 0h-106v700h116v-508l372 508h105v-700h-117v509z" />
    <glyph glyph-name="uni040E" unicode="&#x40e;" horiz-adv-x="644" 
d="M326 767c-46 0 -84.333 12.5 -115 37.5s-47.334 58.833 -50.001 101.5h96c4 -42 27 -63 69 -63s65 21 69 63h96c-1.33301 -42.667 -17.666 -76.5 -48.999 -101.5s-70 -37.5 -116 -37.5zM333 298l185 402h128l-339 -700h-124l88 178l-261 522h130z" />
    <glyph glyph-name="uni040F" unicode="&#x40f;" horiz-adv-x="676" 
d="M497 700h116v-700h-219v-136h-111v136h-220v700h117v-595h317v595z" />
    <glyph glyph-name="uni0410" unicode="&#x410;" horiz-adv-x="668" 
d="M669 0h-125l-72 192h-278l-72 -192h-121l277 700h113zM333 560l-102 -270h204z" />
    <glyph glyph-name="uni0411" unicode="&#x411;" horiz-adv-x="608" 
d="M179 417h173c71.333 0 128 -18.333 170 -55s63 -87.334 63 -152.001c0 -65.333 -21 -116.666 -63 -153.999s-98.667 -56 -170 -56h-289v700h477v-105h-361v-178zM179 101h163c80.667 0 121 36.333 121 109c0 71.333 -40.333 107 -121 107h-163v-216z" />
    <glyph glyph-name="uni0412" unicode="&#x412;" horiz-adv-x="635" 
d="M474 371c42 -13.333 74.833 -35.165 98.5 -65.498s35.5 -66.166 35.5 -107.499c0 -64.667 -22 -113.834 -66 -147.501s-106 -50.5 -186 -50.5h-293v700h270c75.333 0 133.833 -15.667 175.5 -47s62.5 -78 62.5 -140c0 -32.667 -8.66699 -61.334 -26 -86.001
s-41 -43.334 -71 -56.001zM325 598.001l-145 -0.000976562v-187h145c40 0 70.833 6.83301 92.5 20.5s32.5 37.834 32.5 72.501s-10.833 59 -32.5 73s-52.5 21 -92.5 21zM180 102h172c90 0 135 35.333 135 106s-45 106 -135 106h-172v-212z" />
    </font>
</defs>
</svg>
