<svg xmlns="http://www.w3.org/2000/svg" xmlns:xlink="http://www.w3.org/1999/xlink" width="200" height="26.125" viewBox="0 0 200 26.125"><defs><style>.a,.s,.w,.x{isolation:isolate;}.b,.j{fill:#009e57;}.c{fill:#2f3139;}.d,.w,.x{fill:#fff;}.e{fill:#77d0f7;}.f{fill:#00baf2;}.aa,.g{fill:#00a7ee;}.h{fill:#9cd0ae;}.i{fill:#59a77b;}.aa,.j{opacity:0.7;}.k{fill:#f0787a;}.l{fill:#e9445d;}.m{fill:#e61341;}.n{fill:url(#a);}.o{fill:url(#b);}.p{fill:#51bdc6;}.q{opacity:0.45;fill:url(#c);}.r{fill:#e4003b;opacity:0.6;}.s,.w{opacity:0.4;}.s,.w,.x{mix-blend-mode:multiply;}.s{fill:url(#d);}.t{fill:url(#e);}.u{fill:url(#f);}.v{fill:#d56576;}.x{opacity:0.35;}.y{fill:#866071;}.z{fill:url(#g);}.ab{fill:url(#h);}.ac{fill:#98a17f;}.ad{fill:#22ab8e;}.ae{fill:#9e6a5f;}</style><linearGradient id="a" x1="-0.075" y1="1.146" x2="1.549" y2="-2.067" gradientUnits="objectBoundingBox"><stop offset="0" stop-color="#fff"/><stop offset="1" stop-color="#00a7ee"/></linearGradient><linearGradient id="b" x1="0.845" y1="2.978" x2="0.451" y2="0.716" gradientUnits="objectBoundingBox"><stop offset="0" stop-color="#fff"/><stop offset="1" stop-color="#50c6f5"/></linearGradient><linearGradient id="c" x1="2624.14" y1="42.9" x2="-1860.086" y2="-28.8" xlink:href="#a"/><linearGradient id="d" x1="-1104.333" y1="1911.493" x2="-433.473" y2="750.997" xlink:href="#a"/><linearGradient id="e" x1="0.213" y1="-0.655" x2="2.389" y2="4.308" gradientUnits="objectBoundingBox"><stop offset="0" stop-color="#fff"/><stop offset="1" stop-color="#e4003b"/></linearGradient><linearGradient id="f" x1="-1.609" y1="-0.177" x2="0.755" y2="0.683" gradientUnits="objectBoundingBox"><stop offset="0" stop-color="#fff"/><stop offset="1" stop-color="#de6069"/></linearGradient><linearGradient id="g" x1="1.116" y1="0.507" x2="-1.487" y2="0.46" gradientUnits="objectBoundingBox"><stop offset="0" stop-color="#fff"/><stop offset="1" stop-color="#009e57"/></linearGradient><linearGradient id="h" x1="1.485" y1="-0.797" x2="0.5" y2="0.941" gradientUnits="objectBoundingBox"><stop offset="0" stop-color="#fff"/><stop offset="1" stop-color="#6fbd8d"/></linearGradient></defs><g transform="translate(100 13.062)"><g class="a" transform="translate(-100 -13.062)"><path class="b" d="M363.676,469a1.156,1.156,0,1,1-.831.331A1.167,1.167,0,0,1,363.676,469Zm0,2.161a.964.964,0,0,0,.959-1,.953.953,0,0,0-.959-.989.995.995,0,0,0,0,1.989Zm-.457-1.674h.528c.325,0,.477.127.477.391s-.157.35-.36.37l.391.6h-.228l-.37-.583h-.223v.583h-.213Zm.213.6h.223c.188,0,.36-.01.36-.223s-.157-.208-.3-.208h-.279Z" transform="translate(-344.11 -445.205)"/><g transform="translate(29.93 0.096)"><path class="c" d="M3884.326,106.9a1.506,1.506,0,1,1-1.078.434A1.516,1.516,0,0,1,3884.326,106.9Zm0,2.805a1.249,1.249,0,0,0,1.243-1.3,1.236,1.236,0,0,0-1.243-1.283,1.292,1.292,0,0,0,0,2.582Zm-.593-2.181h.685c.421,0,.619.167.619.507s-.2.451-.467.482l.507.781h-.294l-.482-.761h-.289v.761h-.274Zm.274.786h.289c.244,0,.467-.01.467-.289s-.2-.274-.391-.274h-.365Z" transform="translate(-3715.762 -101.571)"/><path class="c" d="M599.882,106.913a1.951,1.951,0,0,0-.609-1.354,2.043,2.043,0,0,0-1.385-.472c-2.105,0-2.41,1.826-2.41,3.571s.3,3.541,2.41,3.541a2.205,2.205,0,0,0,2.131-2.105h5.23a6.684,6.684,0,0,1-2.491,4.51,7.893,7.893,0,0,1-4.982,1.578c-4.317,0-7.777-2.988-7.777-7.528a7.428,7.428,0,0,1,7.777-7.553c3.764,0,6.97,1.852,7.3,5.808Z" transform="translate(-590 -96.068)"/><path class="c" d="M921.332,116.181c-5.4,0-7.832-3.571-7.832-7.553s2.435-7.528,7.832-7.528,7.827,3.541,7.827,7.528S926.73,116.181,921.332,116.181Zm0-11.094c-2.075,0-2.354,2.019-2.354,3.541s.279,3.571,2.354,3.571,2.354-2.049,2.354-3.571S923.407,105.087,921.332,105.087Z" transform="translate(-897.089 -96.068)"/><path class="c" d="M1243.405,101.56h5.255v2.3h.056a4.2,4.2,0,0,1,4.038-2.658,6.241,6.241,0,0,1,1.6.223v4.839a5.544,5.544,0,0,0-2.156-.36c-2.156,0-3.323,1.273-3.323,4.342v5.671H1243.4Z" transform="translate(-1210.254 -96.163)"/><path class="c" d="M1477.925,110.066a2.72,2.72,0,0,0,2.8,2.8,2.761,2.761,0,0,0,2.3-1.025h5.119c-1.106,3.1-4.124,4.54-7.386,4.54-4.591,0-8.05-2.714-8.05-7.5a7.368,7.368,0,0,1,7.579-7.579c5.7,0,8.162,3.181,8.162,8.771Zm5.255-2.851a2.353,2.353,0,0,0-2.4-2.4,2.6,2.6,0,0,0-2.82,2.4Z" transform="translate(-1427.922 -96.258)"/><path class="c" d="M1815.344,106.3c-.081-2.156-1.745-3.125-3.734-3.125-1.547,0-3.373.609-3.373,2.46,0,1.547,1.77,2.1,2.963,2.4l2.323.528c1.994.3,4.068,1.466,4.068,3.957,0,3.1-3.069,4.292-5.727,4.292-3.323,0-5.59-1.547-5.864-5.037h1.745c.137,2.354,1.882,3.571,4.205,3.571,1.633,0,3.9-.72,3.9-2.714,0-1.659-1.547-2.212-3.125-2.6l-2.242-.5c-2.268-.609-3.982-1.385-3.982-3.82,0-2.907,2.851-4.013,5.367-4.013,2.851,0,5.118,1.491,5.23,4.591Z" transform="translate(-1744.315 -96.637)"/><path class="c" d="M2049.531,29.687h2.907v1.466h-2.907v9.628c0,1.131.167,1.8,1.41,1.882a13.52,13.52,0,0,0,1.5-.081v1.491c-.528,0-1.025.056-1.547.056-2.323,0-3.125-.776-3.1-3.211V31.153H2045.3V29.687h2.491V25.4h1.745Z" transform="translate(-1971.475 -24.208)"/><path class="c" d="M2225.8,106.173h1.6v3.348h.056a5.273,5.273,0,0,1,5.4-3.541v1.745a4.914,4.914,0,0,0-5.311,5.118v7.609H2225.8Z" transform="translate(-2142.819 -100.694)"/><path class="c" d="M2365.54,109.725c.025,2.547,1.354,5.616,4.7,5.616a4.352,4.352,0,0,0,4.484-3.652h1.745c-.746,3.236-2.628,5.118-6.224,5.118-4.535,0-6.448-3.485-6.448-7.553,0-3.764,1.907-7.553,6.448-7.553s6.417,4.013,6.28,8.025Zm9.243-1.466c-.081-2.628-1.715-5.093-4.54-5.093s-4.428,2.491-4.7,5.093Z" transform="translate(-2273.818 -96.637)"/><path class="c" d="M2650.606,102.116h1.74v2.46h.056a4.84,4.84,0,0,1,4.565-2.876c4.013,0,5.23,2.105,5.23,5.5v9.187h-1.745v-8.908c0-2.46-.8-4.317-3.622-4.317s-4.429,2.105-4.484,4.9v8.33H2650.6Z" transform="translate(-2546.07 -96.637)"/><path class="c" d="M2932.789,115.229c-.025,4.261-1.659,6.863-6.336,6.863-2.851,0-5.672-1.273-5.92-4.317h1.745c.386,2.105,2.242,2.851,4.175,2.851,3.211,0,4.591-1.907,4.591-5.4v-1.938h-.056a4.944,4.944,0,0,1-4.54,2.932c-4.565,0-6.448-3.267-6.448-7.33,0-3.926,2.323-7.193,6.448-7.193a5.029,5.029,0,0,1,4.54,2.876h.056v-2.46h1.745Zm-1.745-6.143c0-2.8-1.3-5.92-4.591-5.92s-4.7,2.963-4.7,5.92c0,2.876,1.491,5.671,4.7,5.671C2929.466,114.757,2931.043,111.993,2931.043,109.086Z" transform="translate(-2801.804 -96.637)"/><path class="c" d="M3203.13,29.687h2.907v1.466h-2.907v9.628c0,1.131.167,1.8,1.41,1.882a13.533,13.533,0,0,0,1.5-.081v1.491c-.527,0-1.024.056-1.547.056-2.323,0-3.125-.776-3.1-3.211V31.153H3198.9V29.687h2.491V25.4h1.745Z" transform="translate(-3066.555 -24.208)"/><path class="c" d="M3378.8,1.9h1.745V9.839h.056a4.839,4.839,0,0,1,4.565-2.876c4.013,0,5.23,2.105,5.23,5.5v9.187h-1.745V12.746c0-2.46-.8-4.317-3.622-4.317s-4.429,2.105-4.479,4.9v8.33H3378.8Z" transform="translate(-3237.329 -1.9)"/><path class="c" d="M3656.044,106.3c-.081-2.156-1.745-3.125-3.734-3.125-1.547,0-3.373.609-3.373,2.46,0,1.547,1.77,2.1,2.962,2.4l2.323.528c1.994.3,4.068,1.466,4.068,3.957,0,3.1-3.069,4.292-5.727,4.292-3.318,0-5.59-1.547-5.864-5.037h1.745c.137,2.354,1.882,3.571,4.206,3.571,1.633,0,3.9-.72,3.9-2.714,0-1.659-1.547-2.212-3.125-2.6l-2.242-.5c-2.268-.609-3.982-1.385-3.982-3.82,0-2.907,2.851-4.013,5.367-4.013,2.851,0,5.118,1.491,5.23,4.591Z" transform="translate(-3491.639 -96.637)"/></g><path class="d" d="M231.751,118.2l1.659-2.841-1.644-2.856h-3.353l-1.613,2.831,1.644,2.866Z" transform="translate(-215.295 -106.793)"/><path class="e" d="M133.572,5.707,136.869,0H130.3Z" transform="translate(-123.69)"/><path class="f" d="M71.774,112.5l-6.574.01,3.287,5.7Z" transform="translate(-61.893 -106.793)"/><path class="g" d="M3.307,5.717l6.574-.01L6.61,0H0Z"/><path class="h" d="M169.044,281.3H162.5l3.262,5.656Z" transform="translate(-154.257 -267.03)"/><path class="i" d="M294.787,287.022l3.323-5.722H291.5Z" transform="translate(-276.713 -267.03)"/><path class="j" d="M354.8,237.9h0Z" transform="translate(-336.802 -225.832)"/><path class="b" d="M233.369,287.022l-3.287-5.722-3.282,5.656,3.307,5.722,3.262-5.656Z" transform="translate(-215.295 -267.03)"/><path class="k" d="M389.9,112.5l3.277,5.7,3.277-5.7Z" transform="translate(-370.121 -106.793)"/><path class="l" d="M329.332.1H322.6l3.414,5.7Z" transform="translate(-306.235 -0.095)"/><path class="m" d="M396.454,5.8,399.746.1h-6.529L389.9,5.8Z" transform="translate(-370.121 -0.095)"/><path class="n" d="M196.423,115.331l1.613-2.831H194.8Z" transform="translate(-184.918 -106.793)"/><path class="o" d="M201.39,5.707,198.1,0l-3.3,5.707Z" transform="translate(-184.918)"/><path class="p" d="M134.91,115.331l-1.623-2.831L130,118.207h3.272Z" transform="translate(-123.405 -106.793)"/><path class="q" d="M352.905,12.9H352.9v.005Z" transform="translate(-334.998 -12.246)"/><path class="r" d="M352.905,12.9H352.9v.005Z" transform="translate(-334.998 -12.246)"/><path class="s" d="M352.905,12.9H352.9v.005Z" transform="translate(-334.998 -12.246)"/><path class="t" d="M324.7,112.5l1.644,2.856,1.664-2.856Z" transform="translate(-308.229 -106.793)"/><path class="u" d="M324.4,118.2H331l-3.277-5.7Z" transform="translate(-307.944 -106.793)"/><path class="v" d="M292.883,0,291.3,2.775l1.694,2.932H296.3Z" transform="translate(-276.523)"/><path class="w" d="M354.71,125.3Z" transform="translate(-336.707 -118.944)"/><path class="x" d="M354.71,125.3Z" transform="translate(-336.707 -118.944)"/><path class="r" d="M354.9,125.3Z" transform="translate(-336.897 -118.944)"/><path class="w" d="M354.9,125.3Z" transform="translate(-336.897 -118.944)"/><path class="x" d="M354.9,125.3Z" transform="translate(-336.897 -118.944)"/><path class="y" d="M261.4,2.775l1.588-2.77L262.981,0H259.8Z" transform="translate(-246.621)"/><path class="z" d="M259.2,224.8l1.639,2.866h.005l1.664-2.866Z" transform="translate(-246.051 -213.396)"/><path class="aa" d="M192.8,294.3Z" transform="translate(-183.02 -279.371)"/><path class="w" d="M192.8,294.3Z" transform="translate(-183.02 -279.371)"/><path class="ab" d="M165.762,168.3l-3.262,5.732h6.544Z" transform="translate(-154.257 -159.762)"/><path class="ac" d="M293.169,224.8l-1.669,2.866h6.61l-1.649-2.866Z" transform="translate(-276.713 -213.396)"/><path class="ad" d="M133.272,225H130l1.649,2.856Z" transform="translate(-123.405 -213.586)"/><path class="ae" d="M389.3,224.8l1.649,2.866,1.659-2.866Z" transform="translate(-369.552 -213.396)"/></g></g></svg>