<svg width="28" height="34" viewBox="0 0 28 34" fill="none" xmlns="http://www.w3.org/2000/svg">
<path d="M3.29403 25.751C1.87633 26.266 0.765747 27.8509 0.765747 29.3591V33.0039C0.765747 33.554 1.21173 33.9999 1.76184 33.9999H13.0038V27.9112L8.15756 23.9854L3.29403 25.751ZM9.79361 30.0153C9.79361 30.5654 9.34763 31.0114 8.79752 31.0114H6.80526C6.25515 31.0114 5.80917 30.5654 5.80917 30.0153C5.80917 29.4652 6.25515 29.0192 6.80526 29.0192H8.79752C9.34763 29.0192 9.79361 29.4652 9.79361 30.0153Z" fill="#262D3F"/>
<path d="M18.3935 21.134C17.1012 21.8871 15.6005 22.3201 13.9999 22.3201C12.3994 22.3201 10.8987 21.8871 9.60638 21.134L9.41406 22.4395L13.9999 26.1544L18.5857 22.4395L18.3935 21.134Z" fill="#262D3F"/>
<path d="M13.7915 13.4196L7.23572 12.017V13.5634C7.23572 17.2933 10.2702 20.3277 13.9999 20.3277C17.7298 20.3277 20.7643 17.2933 20.7643 13.5634V12.017L14.2083 13.4195C14.1396 13.4342 14.0698 13.4416 13.9999 13.4416C13.9301 13.4417 13.8603 13.4343 13.7915 13.4196Z" fill="#262D3F"/>
<path d="M24.7057 25.7509L19.8423 23.9854L14.9961 27.9112V34H26.238C26.7881 34 27.2341 33.554 27.2341 33.0039V29.3592C27.2341 27.8508 26.1236 26.2659 24.7057 25.7509ZM20.1193 31.0117C19.5692 31.0117 19.1232 30.5657 19.1232 30.0156C19.1232 29.4655 19.5692 29.0195 20.1193 29.0195C20.6694 29.0195 21.1154 29.4655 21.1154 30.0156C21.1154 30.5657 20.6694 31.0117 20.1193 31.0117Z" fill="#262D3F"/>
<path d="M13.0039 6.15294V4.9808C13.0039 4.43069 13.4499 3.98471 14 3.98471C14.5501 3.98471 14.9961 4.43069 14.9961 4.9808V6.15294H21.5417C21.7502 5.61438 21.7869 5.03027 21.6362 4.48242C21.435 3.75122 20.9148 3.13438 20.2048 2.78249C19.8435 2.5662 17.232 1.00526 16.2642 0.496652C15.6549 0.176375 14.8508 0 14 0C13.1493 0 12.3451 0.176375 11.7357 0.496652C10.768 1.00519 8.15688 2.566 7.79536 2.78242C7.08541 3.13431 6.56512 3.75116 6.36391 4.48242C6.21317 5.03027 6.24995 5.61438 6.4584 6.15294H13.0039Z" fill="#262D3F"/>
<path d="M20.7643 8.14514H7.23572V9.97981L13.9999 11.4269L20.7643 9.97981V8.14514Z" fill="#262D3F"/>
</svg>
