<?xml version="1.0" encoding="UTF-8"?>
<svg width="120px" height="90px" viewBox="0 0 120 90" version="1.1" xmlns="http://www.w3.org/2000/svg" xmlns:xlink="http://www.w3.org/1999/xlink">
    <title>Group 39</title>
    <g id="v1" stroke="none" stroke-width="1" fill="none" fillRule="evenodd">
        <g id="HP-Landing" transform="translate(-107.000000, -2519.000000)">
            <g id="Group-9" transform="translate(0.000000, 2085.000000)">
                <g id="Group-39" transform="translate(107.000000, 434.000000)">
                    <g id="Group-4" transform="translate(0.000000, 0.094110)" fill="#8A8B8A">
                        <path d="M90.5525998,44.1241208 C90.5525998,47.1687281 90.2365513,50.1414188 89.6336905,53.0131704 C89.0310431,55.8842818 88.1424369,58.6540272 86.9979616,61.2935974 C85.8539131,63.9323139 84.4533553,66.4397882 82.8276584,68.7867841 C81.2026017,71.1344203 79.3513388,73.3207244 77.3048129,75.3168873 C75.2589273,77.3128369 73.0177789,79.119072 70.611884,80.7052895 C68.2057757,82.2908669 65.6351344,83.6566401 62.9300498,84.7731597 C60.2247518,85.8898927 57.3845837,86.7571587 54.441129,87.3452948 C51.4974609,87.9327907 48.4494392,88.2415835 45.3275804,88.2415835 C42.2057216,88.2415835 39.1583401,87.9327907 36.2140318,87.3452948 C33.2705771,86.7571587 30.4310492,85.8898927 27.7257512,84.7731597 C25.0204532,83.6566401 22.449812,82.2908669 20.0439171,80.7052895 C17.6386624,79.119072 15.3975139,77.3128369 13.3514149,75.3168873 C11.3055293,73.3207244 9.45490656,71.1344203 7.82984983,68.7867841 C6.2043663,66.4397882 4.80487555,63.9323139 3.66018687,61.2935974 C2.5163518,58.6540272 1.6277456,55.8842818 1.02573837,53.0131704 C0.422877533,50.1414188 0.106615672,47.1687281 0.106615672,44.1241208 C0.106615672,41.0784465 0.422877533,38.1044753 1.02573837,35.2325103 C1.6277456,32.3607587 2.5163518,29.5905865 3.66018687,26.9516566 C4.80487555,24.31294 6.2043663,21.8052524 7.82984983,19.4584698 C9.45490656,17.1121141 11.3055293,14.9262368 13.3514149,12.9309275 C15.3975139,10.9347645 17.6386624,9.12980986 20.0439171,7.54487271 C22.449812,5.95929537 25.0204532,4.59394895 27.7257512,3.47806955 C30.4310492,2.36261695 33.2705771,1.49599116 36.2140318,0.908495274 C39.1583401,0.320999387 42.2057216,0.0126334023 45.3275804,0.0126334023 C48.4494392,0.0126334023 51.4974609,0.320999387 54.441129,0.908495274 C57.3845837,1.49599116 60.2247518,2.36261695 62.9300498,3.47806955 C65.6351344,4.59394895 68.2057757,5.95929537 70.611884,7.54487271 C73.0177789,9.12980986 75.2589273,10.9347645 77.3048129,12.9309275 C79.3513388,14.9262368 81.2026017,17.1121141 82.8276584,19.4584698 C84.4533553,21.8052524 85.8539131,24.31294 86.9979616,26.9516566 C88.1424369,29.5905865 89.0310431,32.3607587 89.6336905,35.2325103 C90.2365513,38.1044753 90.5525998,41.0784465 90.5525998,44.1241208" id="Fill-1"></path>
                    </g>
                    <path d="M6.31401228,55.3578403 L6.31401228,55.1664186 L6.31401228,54.9754238 L6.31401228,54.7840021 L6.31401228,54.5921537 L6.31401228,54.400732 L6.31401228,54.209097 L6.31401228,54.0181021 L6.31401228,53.8264671 L6.52378651,53.8264671 L6.73356074,53.8264671 L6.94354837,53.8264671 L7.1533226,53.8264671 L7.36309683,53.8264671 L7.57287107,53.8264671 L7.7828587,53.8264671 L7.99263293,53.8264671 L7.99263293,54.0181021 L7.99263293,54.209097 L7.99263293,54.400732 L7.99263293,54.5921537 L7.99263293,54.7840021 L7.99263293,54.9754238 L7.99263293,55.1664186 L7.99263293,55.3578403 L7.7828587,55.3578403 L7.57287107,55.3578403 L7.36309683,55.3578403 L7.1533226,55.3578403 L6.94354837,55.3578403 L6.73356074,55.3578403 L6.52378651,55.3578403 L6.31401228,55.3578403 Z M7.99263293,63.4946476 L7.7828587,63.4946476 L7.57287107,63.4946476 L7.36309683,63.4946476 L7.1533226,63.4946476 L6.94354837,63.4946476 L6.73356074,63.4946476 L6.52378651,63.4946476 L6.31401228,63.4946476 L6.31401228,62.6359177 L6.31401228,61.777828 L6.31401228,60.9190981 L6.31401228,60.0610084 L6.31401228,59.2022785 L6.31401228,58.3433352 L6.31401228,57.4854589 L6.31401228,56.6265156 L6.52378651,56.6265156 L6.73356074,56.6265156 L6.94354837,56.6265156 L7.1533226,56.6265156 L7.36309683,56.6265156 L7.57287107,56.6265156 L7.7828587,56.6265156 L7.99263293,56.6265156 L7.99263293,57.4854589 L7.99263293,58.3433352 L7.99263293,59.2022785 L7.99263293,60.0610084 L7.99263293,60.9190981 L7.99263293,61.777828 L7.99263293,62.6359177 L7.99263293,63.4946476 Z" id="Fill-5" fill="#FFFFFF"></path>
                    <path d="M9.62966151,63.4946476 L9.62966151,62.6359177 L9.62966151,61.777828 L9.62966151,60.9190981 L9.62966151,60.060795 L9.62966151,59.2022785 L9.62966151,58.3433352 L9.62966151,57.4852455 L9.62966151,56.6265156 L9.82236358,56.6265156 L10.015279,56.6265156 L10.2086213,56.6265156 L10.4013234,56.6265156 L10.5942389,56.6265156 L10.7869409,56.6265156 L10.9798564,56.6265156 L11.1725585,56.6265156 L11.1725585,56.7189187 L11.1725585,56.8115352 L11.1725585,56.9037248 L11.1725585,56.9963413 L11.1725585,57.0887444 L11.1725585,57.1811475 L11.1725585,57.273764 L11.1725585,57.3653135 C11.2510904,57.3126032 11.3300492,57.2596795 11.4109286,57.2067558 C11.4918079,57.1544723 11.5746079,57.1021888 11.658475,57.0511857 C11.742342,57.000396 11.8274894,56.9513135 11.9151976,56.9043651 C12.0020523,56.8569898 12.0904007,56.8126022 12.180243,56.7712022 C12.2709389,56.7300156 12.362275,56.6922434 12.4557451,56.6580991 C12.5487884,56.6248083 12.6437523,56.5949321 12.7404234,56.5706042 C12.8370946,56.546063 12.9350461,56.527497 13.0349183,56.5140527 C13.134577,56.5008217 13.2361564,56.4937795 13.339443,56.4937795 C13.5152863,56.4937795 13.6800327,56.5080774 13.8332554,56.5353929 C13.9866915,56.5627083 14.1288173,56.6028279 14.2596327,56.6563919 C14.3904482,56.7093156 14.50974,56.7750434 14.6183616,56.8520815 C14.7267699,56.9293331 14.8240812,57.0181084 14.910509,57.1179805 C14.9967235,57.2182795 15.0720544,57.3288218 15.1367152,57.4500341 C15.2011626,57.5710331 15.2545132,57.7016352 15.2971936,57.8422671 C15.339874,57.9826857 15.3720977,58.1329207 15.3932245,58.2910517 C15.4145647,58.4498228 15.4250214,58.61713 15.4250214,58.7916929 L15.4250214,59.379829 L15.4250214,59.9679651 L15.4250214,60.555461 L15.4250214,61.1433837 L15.4250214,61.7308796 L15.4250214,62.3190157 L15.4250214,62.9065116 L15.4250214,63.4946476 L15.2150338,63.4946476 L15.0052596,63.4946476 L14.7954853,63.4946476 L14.5857111,63.4946476 L14.3757235,63.4946476 L14.1659492,63.4946476 L13.956175,63.4946476 L13.7464008,63.4946476 L13.7464008,62.937028 L13.7464008,62.3787682 L13.7464008,61.8209352 L13.7464008,61.2633156 L13.7464008,60.7050558 L13.7464008,60.1472228 L13.7464008,59.5896032 L13.7464008,59.0313434 C13.7464008,58.9156795 13.7414925,58.8098321 13.7323162,58.7138012 C13.7233533,58.61713 13.7092688,58.530062 13.6904894,58.4511032 C13.6721368,58.3725713 13.6490894,58.3021486 13.621774,58.2400486 C13.5944585,58.1779486 13.5620214,58.1233177 13.5255296,58.0763692 C13.4890379,58.0289939 13.4484915,57.9895146 13.4034636,57.9560104 C13.3577956,57.9227197 13.3084997,57.8958311 13.2542956,57.875131 C13.2000915,57.8537908 13.1418327,57.8392795 13.0793059,57.829463 C13.0172059,57.8196465 12.9504111,57.8149517 12.8791348,57.8149517 C12.7877987,57.8149517 12.6990234,57.8215671 12.6132358,57.8333042 C12.5276616,57.8452548 12.4448616,57.8623269 12.3659028,57.8843073 C12.2860904,57.9056475 12.2094791,57.9316826 12.1358554,57.9613455 C12.0628719,57.9905816 11.9930894,58.0240857 11.9267214,58.059297 C11.8603533,58.0945084 11.7971863,58.1329207 11.7380739,58.1726135 C11.6785347,58.2114527 11.6232636,58.2528527 11.5716203,58.2942527 C11.5197636,58.3354393 11.4717481,58.3774795 11.4280007,58.4188795 C11.3836131,58.4600661 11.3441337,58.5010393 11.3082822,58.5405187 L11.3082822,59.1595981 L11.3082822,59.7793177 L11.3082822,60.3983971 L11.3082822,61.0176899 L11.3082822,61.6367693 L11.3082822,62.2556353 L11.3082822,62.8755683 L11.3082822,63.4946476 L11.0982945,63.4946476 L10.8885203,63.4946476 L10.6787461,63.4946476 L10.4689718,63.4946476 L10.2591976,63.4946476 L10.04921,63.4946476 L9.83943575,63.4946476 L9.62966151,63.4946476 Z" id="Fill-7" fill="#FFFFFF"></path>
                    <path d="M20.3083009,58.4363358 C20.2658339,58.3919482 20.221873,58.3469203 20.1764184,58.3025327 C20.1307504,58.2581451 20.0833751,58.2150379 20.0347194,58.1725708 C19.9860638,58.129677 19.9354875,58.0891306 19.8838442,58.0500781 C19.8322009,58.0112389 19.778637,57.9741069 19.7231524,57.9395358 C19.6685215,57.9056049 19.6119699,57.8744482 19.554138,57.8464925 C19.496306,57.8183234 19.4374071,57.794209 19.3765875,57.7739358 C19.3164081,57.7540894 19.2543081,57.7382976 19.1911411,57.7274141 C19.1277607,57.7169574 19.0628864,57.7109822 18.9971586,57.7109822 C18.915639,57.7109822 18.8403081,57.7150368 18.769672,57.7229327 C18.6996761,57.7308286 18.6345885,57.7429925 18.5750493,57.758144 C18.5155101,57.7739358 18.4606658,57.7929286 18.4113699,57.8161894 C18.3627143,57.8385966 18.3183266,57.8639915 18.2794874,57.8932275 C18.2406483,57.9231038 18.2065039,57.9553275 18.1779081,57.9905389 C18.148672,58.0257502 18.1249843,58.0641626 18.1055648,58.1055626 C18.086572,58.1469626 18.0727008,58.1900698 18.0630978,58.2368049 C18.0532813,58.2831131 18.0490132,58.3317688 18.0490132,58.3827719 C18.0490132,58.5300193 18.1036441,58.6505915 18.1998885,58.7538781 C18.2959194,58.8580183 18.4339905,58.9442327 18.5987369,59.0231915 C18.7634833,59.1017234 18.9557586,59.1727863 19.161905,59.2447028 C19.3680514,59.3170461 19.5882823,59.3900296 19.8085132,59.4738966 C20.0278906,59.5579771 20.2481215,59.6520874 20.4542679,59.7658307 C20.6604143,59.879574 20.8526896,60.0129503 21.0174359,60.1751358 C21.1828225,60.3368946 21.3202535,60.5278894 21.4162844,60.7566565 C21.5125287,60.9852101 21.5671597,61.2521761 21.5671597,61.5654503 C21.5671597,61.743641 21.5503009,61.9096678 21.5167968,62.0635307 C21.4839329,62.2173936 21.434637,62.3590926 21.3708298,62.4892678 C21.3076628,62.6194431 21.229771,62.7378812 21.1384349,62.8443689 C21.047739,62.9514967 20.9433854,63.0468874 20.8283617,63.1309678 C20.7129112,63.2154751 20.5857236,63.2884586 20.4482926,63.3503452 C20.3112885,63.4130854 20.1642545,63.4643019 20.008471,63.5054885 C19.8529009,63.5462483 19.6885813,63.5767648 19.5165792,63.5968246 C19.345004,63.6166709 19.166173,63.6264874 18.982007,63.6264874 C18.8413751,63.6264874 18.7045844,63.6192318 18.5707813,63.6040802 C18.4369782,63.5889287 18.3061627,63.5663081 18.1796153,63.5364318 C18.052641,63.5067689 17.9290813,63.4696369 17.8093627,63.4252493 C17.6896441,63.3808617 17.5739802,63.3292184 17.4615173,63.2707462 C17.3494812,63.2118472 17.2412864,63.1461194 17.1373596,63.0735627 C17.0332194,63.0014328 16.9329204,62.9218338 16.8375297,62.8358328 C16.7414988,62.7496184 16.6501627,62.6563617 16.5630946,62.5575565 C16.47624,62.4576843 16.39344,62.3518369 16.3157616,62.2391606 L16.4561802,62.1371544 L16.5965988,62.0349348 L16.7365905,61.9322884 L16.8770091,61.8298555 L17.0174276,61.7278493 L17.1580596,61.6256297 L17.2984781,61.5236235 L17.4388967,61.4211905 C17.4881926,61.4871317 17.5391957,61.5522194 17.5927596,61.615173 C17.6463235,61.6785534 17.7022349,61.7397998 17.7600668,61.7984853 C17.8178988,61.8573843 17.8780782,61.9139359 17.9412452,61.9668596 C18.0039854,62.0191431 18.069073,62.0688658 18.1365081,62.1138936 C18.2041565,62.1595616 18.273939,62.201175 18.3469225,62.2374534 C18.419906,62.2733049 18.4952369,62.3051019 18.5737689,62.3311369 C18.6516606,62.3567452 18.73254,62.3768049 18.816407,62.3906761 C18.9004875,62.4041204 18.9867019,62.4113761 19.0767576,62.4113761 C19.1510215,62.4113761 19.2227246,62.4064678 19.29144,62.3968647 C19.3595153,62.3872616 19.4246029,62.3729637 19.4854225,62.3541843 C19.5462421,62.3358317 19.6034339,62.3134245 19.6563576,62.2867493 C19.7092813,62.260074 19.757937,62.2289173 19.8023246,62.194773 C19.846072,62.1608421 19.8857648,62.1224297 19.9196957,62.0818833 C19.9542669,62.0404833 19.9835029,61.9960957 20.0071906,61.9491472 C20.0304514,61.9017719 20.0485906,61.8520493 20.0607545,61.7991256 C20.0735586,61.7462018 20.0797473,61.6913575 20.0797473,61.6335256 C20.0797473,61.4864915 20.0249029,61.3642121 19.9282318,61.2583647 C19.8322009,61.1525173 19.6947699,61.0631018 19.5298101,60.9815822 C19.3644235,60.8994224 19.1721483,60.8257987 18.9655751,60.751108 C18.7592153,60.6762039 18.5396246,60.6010864 18.319607,60.5157255 C18.0993761,60.4305781 17.8793586,60.3356142 17.6729988,60.2231513 C17.4670658,60.1106884 17.2741503,59.9798729 17.1094039,59.8223822 C16.9444441,59.6648915 16.8070132,59.4807255 16.7103421,59.2611348 C16.6143111,59.0415441 16.55904,58.786742 16.55904,58.4879791 C16.55904,58.328141 16.576539,58.1772657 16.6094029,58.0349265 C16.6422668,57.8925873 16.6902823,57.7600647 16.7517421,57.6367183 C16.8132019,57.5131585 16.8878926,57.3989884 16.9749606,57.2948482 C17.0613885,57.1902811 17.1591266,57.0953172 17.2662544,57.01081 C17.3740225,56.9263028 17.49054,56.8520389 17.6153802,56.7875914 C17.740007,56.723144 17.8718895,56.6691533 18.0095338,56.6254059 C18.147605,56.5820853 18.290371,56.5492213 18.4376184,56.5274543 C18.5846524,56.5048337 18.7348875,56.4937368 18.8876833,56.4937368 C19.0044143,56.4937368 19.1211452,56.4992853 19.2372359,56.5103822 C19.3541802,56.5206255 19.4696308,56.5370574 19.5840143,56.5583976 C19.6983978,56.580378 19.8115009,56.6070533 19.9220431,56.6399172 C20.033439,56.6719275 20.1429143,56.7096997 20.2494019,56.7534471 C20.3556761,56.7967677 20.4598164,56.8454234 20.5607555,56.9002677 C20.6616947,56.9542585 20.7596463,57.0137976 20.8533298,57.0797389 C20.9474401,57.1446131 21.0374957,57.215676 21.1232834,57.2925007 C21.209071,57.3684719 21.2899504,57.4506317 21.3665617,57.5381265 L21.2338256,57.6505894 L21.1019432,57.7626255 L20.9694205,57.8750884 L20.8373246,57.9875513 L20.7048019,58.0995873 L20.5729194,58.2118368 L20.4403968,58.3238729 L20.3083009,58.4363358 Z" id="Fill-9" fill="#FFFFFF"></path>
                    <path d="M22.8938163,56.626793 L22.8938163,56.3427548 L22.8938163,56.0587167 L22.8938163,55.7753187 L22.8938163,55.4912806 L22.8938163,55.2074558 L22.8938163,54.9234177 L22.8938163,54.6393795 L22.8938163,54.3557682 L23.1035905,54.3557682 L23.3129379,54.3557682 L23.5227122,54.3557682 L23.7324864,54.3557682 L23.942474,54.3557682 L24.1516081,54.3557682 L24.3613823,54.3557682 L24.5711565,54.3557682 L24.5711565,54.6393795 L24.5711565,54.9234177 L24.5711565,55.2074558 L24.5711565,55.4912806 L24.5711565,55.7753187 L24.5711565,56.0587167 L24.5711565,56.3427548 L24.5711565,56.626793 L24.7437988,56.626793 L24.9166545,56.626793 L25.0892967,56.626793 L25.2615122,56.626793 L25.4341545,56.626793 L25.6067968,56.626793 L25.7796524,56.626793 L25.9525081,56.626793 L25.9525081,56.7921796 L25.9525081,56.9571394 L25.9525081,57.1223126 L25.9525081,57.2879126 L25.9525081,57.4532992 L25.9525081,57.618259 L25.9525081,57.7834322 L25.9525081,57.9488188 L25.7796524,57.9488188 L25.6067968,57.9488188 L25.4341545,57.9488188 L25.2615122,57.9488188 L25.0892967,57.9488188 L24.9166545,57.9488188 L24.7437988,57.9488188 L24.5711565,57.9488188 L24.5711565,58.4343085 L24.5711565,58.9189446 L24.5711565,59.4044343 L24.5711565,59.8897106 L24.5711565,60.3743467 L24.5711565,60.859623 L24.5711565,61.3448993 L24.5711565,61.8297488 C24.5711565,61.8766972 24.5743576,61.918524 24.5803328,61.9569364 C24.5858813,61.9951354 24.5948442,62.0297065 24.6070081,62.0608632 C24.619172,62.0918065 24.6345369,62.119122 24.6533163,62.1436632 C24.6716689,62.1677776 24.6934359,62.1891178 24.718404,62.207257 C24.743372,62.2256096 24.7713277,62.2409745 24.8029112,62.252925 C24.8344947,62.2657292 24.869706,62.2761859 24.9081184,62.2840817 C24.9465308,62.2919776 24.9883576,62.2973127 25.0340256,62.3011539 C25.0796937,62.3045683 25.1283493,62.306489 25.181273,62.306489 C25.2128565,62.306489 25.2450803,62.3052086 25.2779442,62.3028611 C25.3101679,62.3005137 25.3423916,62.2973127 25.3752555,62.293258 C25.4081194,62.2887766 25.4409833,62.2840817 25.4729937,62.2778931 C25.506071,62.2723446 25.5389349,62.2663694 25.5709452,62.2597539 C25.6038091,62.252925 25.6362462,62.2463096 25.6688968,62.2390539 C25.7011205,62.2317982 25.7333442,62.2243292 25.7651411,62.2170735 C25.7967246,62.2098178 25.8283081,62.2025622 25.8598916,62.1953065 C25.8908349,62.1884776 25.9219916,62.1818622 25.9525081,62.1750333 L25.9525081,62.3436209 L25.9525081,62.5113549 L25.9525081,62.6799426 L25.9525081,62.8483168 L25.9525081,63.0160508 L25.9525081,63.1846385 L25.9525081,63.3532261 L25.9525081,63.5211735 C25.8946761,63.527789 25.8379112,63.5344045 25.7819998,63.5403797 C25.7260885,63.5472086 25.6708174,63.5531838 25.6153328,63.5597993 C25.5607019,63.5662014 25.506071,63.5721766 25.4518669,63.5775117 C25.3970225,63.5830601 25.3434586,63.5886086 25.2894679,63.5935168 C25.2346236,63.5982117 25.1806328,63.6031199 25.1264287,63.607388 C25.0722246,63.6112292 25.0175936,63.6146436 24.9627493,63.6178447 C24.9074782,63.6206189 24.852207,63.6225395 24.7962957,63.6244601 C24.740171,63.6263807 24.6831926,63.6268075 24.6260009,63.6268075 C24.4702174,63.6268075 24.3265978,63.6172045 24.1940751,63.5988519 C24.0621926,63.5800725 23.9405534,63.5525436 23.830438,63.5166921 C23.7196823,63.4802003 23.6206637,63.4358127 23.5312483,63.382889 C23.4418328,63.3299653 23.3626606,63.2693591 23.2935184,63.2006436 C23.2241627,63.1317148 23.1646235,63.0557436 23.1140472,62.9723034 C23.0634709,62.88929 23.0222843,62.7985941 22.9894204,62.7012828 C22.9569833,62.6039714 22.9328689,62.4998312 22.9168637,62.3899292 C22.901072,62.2796003 22.8938163,62.1635096 22.8938163,62.0412302 L22.8938163,61.5299188 L22.8938163,61.0183941 L22.8938163,60.5070827 L22.8938163,59.9947044 L22.8938163,59.483393 L22.8938163,58.9718683 L22.8938163,58.4605569 L22.8938163,57.9488188 L22.7715369,57.9488188 L22.6498977,57.9488188 L22.5282586,57.9488188 L22.4059792,57.9488188 L22.2839132,57.9488188 L22.162274,57.9488188 L22.0406348,57.9488188 L21.9183554,57.9488188 L21.9183554,57.7834322 L21.9183554,57.618259 L21.9183554,57.4532992 L21.9183554,57.2879126 L21.9183554,57.1223126 L21.9183554,56.9571394 L21.9183554,56.7921796 L21.9183554,56.626793 L22.0406348,56.626793 L22.162274,56.626793 L22.2839132,56.626793 L22.4059792,56.626793 L22.5282586,56.626793 L22.6498977,56.626793 L22.7715369,56.626793 L22.8938163,56.626793 Z" id="Fill-11" fill="#FFFFFF"></path>
                    <path d="M27.0349474,55.3578403 L27.0349474,55.1664186 L27.0349474,54.9754238 L27.0349474,54.7840021 L27.0349474,54.5921537 L27.0349474,54.400732 L27.0349474,54.209097 L27.0349474,54.0181021 L27.0349474,53.8264671 L27.2447216,53.8264671 L27.4538557,53.8264671 L27.6638433,53.8264671 L27.8736175,53.8264671 L28.0827515,53.8264671 L28.2927392,53.8264671 L28.5018732,53.8264671 L28.7116474,53.8264671 L28.7116474,54.0181021 L28.7116474,54.209097 L28.7116474,54.400732 L28.7116474,54.5921537 L28.7116474,54.7840021 L28.7116474,54.9754238 L28.7116474,55.1664186 L28.7116474,55.3578403 L28.5018732,55.3578403 L28.2927392,55.3578403 L28.0827515,55.3578403 L27.8736175,55.3578403 L27.6638433,55.3578403 L27.4538557,55.3578403 L27.2447216,55.3578403 L27.0349474,55.3578403 Z M28.7116474,63.4946476 L28.5018732,63.4946476 L28.2927392,63.4946476 L28.0827515,63.4946476 L27.8736175,63.4946476 L27.6638433,63.4946476 L27.4538557,63.4946476 L27.2447216,63.4946476 L27.0349474,63.4946476 L27.0349474,62.6359177 L27.0349474,61.777828 L27.0349474,60.9190981 L27.0349474,60.0610084 L27.0349474,59.2022785 L27.0349474,58.3433352 L27.0349474,57.4854589 L27.0349474,56.6265156 L27.2447216,56.6265156 L27.4538557,56.6265156 L27.6638433,56.6265156 L27.8736175,56.6265156 L28.0827515,56.6265156 L28.2927392,56.6265156 L28.5018732,56.6265156 L28.7116474,56.6265156 L28.7116474,57.4854589 L28.7116474,58.3433352 L28.7116474,59.2022785 L28.7116474,60.0610084 L28.7116474,60.9190981 L28.7116474,61.777828 L28.7116474,62.6359177 L28.7116474,63.4946476 Z" id="Fill-13" fill="#FFFFFF"></path>
                    <path d="M30.6206996,56.626793 L30.6206996,56.3427548 L30.6206996,56.0587167 L30.6206996,55.7753187 L30.6206996,55.4912806 L30.6206996,55.2074558 L30.6206996,54.9234177 L30.6206996,54.6393795 L30.6206996,54.3557682 L30.8304739,54.3557682 L31.0404615,54.3557682 L31.2502357,54.3557682 L31.46001,54.3557682 L31.6697842,54.3557682 L31.8795584,54.3557682 L32.089546,54.3557682 L32.2993203,54.3557682 L32.2993203,54.6393795 L32.2993203,54.9234177 L32.2993203,55.2074558 L32.2993203,55.4912806 L32.2993203,55.7753187 L32.2993203,56.0587167 L32.2993203,56.3427548 L32.2993203,56.626793 L32.4719625,56.626793 L32.6448182,56.626793 L32.8174605,56.626793 L32.9903162,56.626793 L33.1629584,56.626793 L33.3349605,56.626793 L33.5078162,56.626793 L33.6804584,56.626793 L33.6804584,56.7921796 L33.6804584,56.9571394 L33.6804584,57.1223126 L33.6804584,57.2879126 L33.6804584,57.4532992 L33.6804584,57.618259 L33.6804584,57.7834322 L33.6804584,57.9488188 L33.5078162,57.9488188 L33.3349605,57.9488188 L33.1629584,57.9488188 L32.9903162,57.9488188 L32.8174605,57.9488188 L32.6448182,57.9488188 L32.4719625,57.9488188 L32.2993203,57.9488188 L32.2993203,58.4343085 L32.2993203,58.9189446 L32.2993203,59.4044343 L32.2993203,59.8897106 L32.2993203,60.3743467 L32.2993203,60.859623 L32.2993203,61.3448993 L32.2993203,61.8297488 C32.2993203,61.8766972 32.3023079,61.918524 32.3084966,61.9569364 C32.3144718,61.9951354 32.3236481,62.0297065 32.335812,62.0608632 C32.3479759,62.0918065 32.3631275,62.119122 32.3819069,62.1436632 C32.4002595,62.1677776 32.4220265,62.1891178 32.4472079,62.207257 C32.4719625,62.2256096 32.5005584,62.2409745 32.5323553,62.252925 C32.5637254,62.2657292 32.59851,62.2761859 32.6369223,62.2840817 C32.6751213,62.2919776 32.7171615,62.2973127 32.7628296,62.3011539 C32.8078574,62.3045683 32.8565131,62.306489 32.9092234,62.306489 C32.9414471,62.306489 32.9736708,62.3052086 33.0061079,62.3028611 C33.0389718,62.3005137 33.0716224,62.2973127 33.1038461,62.293258 C33.13671,62.2887766 33.1695739,62.2840817 33.2024378,62.2778931 C33.2346615,62.2723446 33.2675254,62.2663694 33.2997492,62.2597539 C33.3326131,62.252925 33.3648368,62.2463096 33.3970605,62.2390539 C33.4292842,62.2317982 33.4615079,62.2243292 33.4930914,62.2170735 C33.5253151,62.2098178 33.5564718,62.2025622 33.5880554,62.1953065 C33.6189987,62.1884776 33.649942,62.1818622 33.6804584,62.1750333 L33.6804584,62.3436209 L33.6804584,62.5113549 L33.6804584,62.6799426 L33.6804584,62.8483168 L33.6804584,63.0160508 L33.6804584,63.1846385 L33.6804584,63.3532261 L33.6804584,63.5211735 C33.6232667,63.527789 33.5660749,63.5344045 33.5101636,63.5403797 C33.4542523,63.5472086 33.3989811,63.5531838 33.3441368,63.5597993 C33.2888657,63.5662014 33.2340213,63.5721766 33.1800306,63.5775117 C33.1258265,63.5830601 33.0716224,63.5886086 33.0174182,63.5935168 C32.9634275,63.5982117 32.9092234,63.6031199 32.8545925,63.607388 C32.8003883,63.6112292 32.7457574,63.6146436 32.6909131,63.6178447 C32.6362821,63.6206189 32.5803708,63.6225395 32.5242461,63.6244601 C32.4683347,63.6263807 32.4117832,63.6268075 32.3541646,63.6268075 C32.1983811,63.6268075 32.0547615,63.6172045 31.9222388,63.5988519 C31.7897161,63.5800725 31.6687172,63.5525436 31.5579615,63.5166921 C31.4472058,63.4802003 31.3475471,63.4358127 31.2581316,63.382889 C31.1687161,63.3299653 31.089544,63.2693591 31.0204017,63.2006436 C30.951046,63.1317148 30.8915068,63.0557436 30.8409306,62.9723034 C30.7903543,62.88929 30.7491677,62.7985941 30.7163038,62.7012828 C30.6838666,62.6039714 30.6597522,62.4998312 30.6443873,62.3899292 C30.6285955,62.2796003 30.6206996,62.1635096 30.6206996,62.0412302 L30.6206996,61.5299188 L30.6206996,61.0183941 L30.6206996,60.5070827 L30.6206996,59.9947044 L30.6206996,59.483393 L30.6206996,58.9718683 L30.6206996,58.4605569 L30.6206996,57.9488188 L30.4990605,57.9488188 L30.3774213,57.9488188 L30.2553553,57.9488188 L30.1335027,57.9488188 L30.0118635,57.9488188 L29.8904378,57.9488188 L29.767945,57.9488188 L29.6465192,57.9488188 L29.6465192,57.7834322 L29.6465192,57.618259 L29.6465192,57.4532992 L29.6465192,57.2879126 L29.6465192,57.1223126 L29.6465192,56.9571394 L29.6465192,56.7921796 L29.6465192,56.626793 L29.767945,56.626793 L29.8904378,56.626793 L30.0118635,56.626793 L30.1335027,56.626793 L30.2553553,56.626793 L30.3774213,56.626793 L30.4990605,56.626793 L30.6206996,56.626793 Z" id="Fill-15" fill="#FFFFFF"></path>
                    <path d="M40.3812193,56.626793 L40.3812193,57.4848827 L40.3812193,58.3436126 L40.3812193,59.2023425 L40.3812193,60.0606456 L40.3812193,60.9191621 L40.3812193,61.7774652 L40.3812193,62.6361952 L40.3812193,63.4949251 L40.1885172,63.4949251 L39.9949616,63.4949251 L39.8022595,63.4949251 L39.6089172,63.4949251 L39.4162151,63.4949251 L39.2226595,63.4949251 L39.0299574,63.4949251 L38.8370419,63.4949251 L38.8370419,63.4018818 L38.8370419,63.3092653 L38.8370419,63.2170756 L38.8370419,63.1244591 L38.8370419,63.0314158 L38.8370419,62.9390127 L38.8370419,62.8466096 L38.8370419,62.7542065 C38.7591502,62.8071302 38.6795512,62.8600539 38.599312,62.9127642 C38.5184327,62.9656879 38.4356327,63.0179715 38.3524059,63.0689745 C38.2685388,63.1197642 38.1827512,63.1694869 38.0956832,63.2164354 C38.0094687,63.2631704 37.9206935,63.3081983 37.8306378,63.3489581 C37.7405821,63.3901447 37.6488192,63.428557 37.5557759,63.4627014 C37.4620924,63.4959921 37.3671285,63.5258684 37.2704574,63.5501962 C37.1744264,63.574524 37.0758347,63.5935168 36.9759625,63.6067478 C36.8763038,63.6195519 36.7747244,63.6268075 36.672078,63.6268075 C36.4955945,63.6268075 36.3312749,63.612723 36.1782656,63.5854075 C36.0241893,63.5580921 35.8824903,63.5179725 35.7518883,63.4644086 C35.6210728,63.4114849 35.5013543,63.345757 35.392946,63.2687189 C35.2847512,63.1914673 35.1874398,63.1026921 35.101012,63.0028199 C35.0147975,62.9025209 34.9392532,62.7919787 34.8748058,62.6707663 C34.8103584,62.5497673 34.7570078,62.418525 34.7143274,62.2778931 C34.6712202,62.1374745 34.6394233,61.9872395 34.6182965,61.8291085 C34.5969563,61.6703374 34.5864996,61.5032436 34.5864996,61.3278271 L34.5864996,60.739691 L34.5864996,60.1524085 L34.5864996,59.5649126 L34.5864996,58.9774167 L34.5864996,58.3899209 L34.5864996,57.8017848 L34.5864996,57.2142889 L34.5864996,56.626793 L34.7964872,56.626793 L35.0062615,56.626793 L35.2160357,56.626793 L35.4258099,56.626793 L35.6355842,56.626793 L35.8455718,56.626793 L36.055346,56.626793 L36.2651202,56.626793 L36.2651202,57.1844126 L36.2651202,57.7426724 L36.2651202,58.3011456 L36.2651202,58.8587652 L36.2651202,59.417025 L36.2651202,59.9746446 L36.2651202,60.5331178 L36.2651202,61.0907374 C36.2651202,61.2064013 36.2693883,61.3120353 36.2789914,61.4082797 C36.2881677,61.5049508 36.3022522,61.5920188 36.3203914,61.6703374 C36.338744,61.7488694 36.3617914,61.819292 36.3891068,61.8813921 C36.4170625,61.9434921 36.4488594,61.9974828 36.4853512,62.0450714 C36.5218429,62.0918065 36.5623893,62.1319261 36.6080574,62.1654302 C36.6530852,62.1987209 36.7030213,62.2256096 36.7572254,62.2463096 C36.8107893,62.2670096 36.8690481,62.2821611 36.9315749,62.2919776 C36.9943151,62.3017941 37.06111,62.306489 37.1323862,62.306489 C37.2237223,62.306489 37.3124976,62.2998735 37.397645,62.2881364 C37.4832192,62.2761859 37.5660192,62.2591137 37.6456182,62.2371333 C37.7254306,62.2151529 37.8020419,62.1891178 37.8750254,62.1600951 C37.9486491,62.1302189 38.0184316,62.0967147 38.0847997,62.0615034 C38.1511677,62.0262921 38.2136945,61.9878797 38.2734471,61.9484003 C38.3323461,61.9087075 38.3882574,61.8681611 38.4399007,61.8259075 C38.4917574,61.7847209 38.5397729,61.7428941 38.5835203,61.7012807 C38.6272677,61.6600941 38.6673873,61.6186941 38.7025986,61.5792147 L38.7025986,60.9601353 L38.7025986,60.3408425 L38.7025986,59.7217631 L38.7025986,59.1026838 L38.7025986,58.4840312 L38.7025986,57.8649518 L38.7025986,57.2458724 L38.7025986,56.626793 L38.9125863,56.626793 L39.1223605,56.626793 L39.3321347,56.626793 L39.541909,56.626793 L39.7518966,56.626793 L39.9616708,56.626793 L40.1714451,56.626793 L40.3812193,56.626793 Z" id="Fill-17" fill="#FFFFFF"></path>
                    <path d="M42.1116753,56.626793 L42.1116753,56.3427548 L42.1116753,56.0587167 L42.1116753,55.7753187 L42.1116753,55.4912806 L42.1116753,55.2074558 L42.1116753,54.9234177 L42.1116753,54.6393795 L42.1116753,54.3557682 L42.3214495,54.3557682 L42.5314372,54.3557682 L42.7412114,54.3557682 L42.9509856,54.3557682 L43.1607599,54.3557682 L43.3705341,54.3557682 L43.5805217,54.3557682 L43.7902959,54.3557682 L43.7902959,54.6393795 L43.7902959,54.9234177 L43.7902959,55.2074558 L43.7902959,55.4912806 L43.7902959,55.7753187 L43.7902959,56.0587167 L43.7902959,56.3427548 L43.7902959,56.626793 L43.9629382,56.626793 L44.1355805,56.626793 L44.3084362,56.626793 L44.4812918,56.626793 L44.6539341,56.626793 L44.8265764,56.626793 L44.9992187,56.626793 L45.1714341,56.626793 L45.1714341,56.7921796 L45.1714341,56.9571394 L45.1714341,57.1223126 L45.1714341,57.2879126 L45.1714341,57.4532992 L45.1714341,57.618259 L45.1714341,57.7834322 L45.1714341,57.9488188 L44.9992187,57.9488188 L44.8265764,57.9488188 L44.6539341,57.9488188 L44.4812918,57.9488188 L44.3084362,57.9488188 L44.1355805,57.9488188 L43.9629382,57.9488188 L43.7902959,57.9488188 L43.7902959,58.4343085 L43.7902959,58.9189446 L43.7902959,59.4044343 L43.7902959,59.8897106 L43.7902959,60.3743467 L43.7902959,60.859623 L43.7902959,61.3448993 L43.7902959,61.8297488 C43.7902959,61.8766972 43.7932836,61.918524 43.7994722,61.9569364 C43.8054475,61.9951354 43.8139836,62.0297065 43.8267877,62.0608632 C43.8389516,62.0918065 43.8541032,62.119122 43.8722423,62.1436632 C43.8905949,62.1677776 43.9125753,62.1891178 43.9375434,62.207257 C43.962298,62.2256096 43.9908939,62.2409745 44.0226908,62.252925 C44.0542743,62.2657292 44.0888454,62.2761859 44.127898,62.2840817 C44.166097,62.2919776 44.2081372,62.2973127 44.253165,62.3011539 C44.2988331,62.3045683 44.3479155,62.306489 44.4001991,62.306489 C44.4324228,62.306489 44.4646465,62.3052086 44.4968702,62.3028611 C44.5293073,62.3005137 44.5619578,62.2973127 44.5948217,62.293258 C44.6270454,62.2887766 44.6599094,62.2840817 44.6927733,62.2778931 C44.724997,62.2723446 44.7578609,62.2663694 44.7907248,62.2597539 C44.8229485,62.252925 44.8558125,62.2463096 44.8880362,62.2390539 C44.9202599,62.2317982 44.9524836,62.2243292 44.9840671,62.2170735 C45.0162908,62.2098178 45.0478743,62.2025622 45.079031,62.1953065 C45.1106145,62.1884776 45.1409176,62.1818622 45.1714341,62.1750333 L45.1714341,62.3436209 L45.1714341,62.5113549 L45.1714341,62.6799426 L45.1714341,62.8483168 L45.1714341,63.0160508 L45.1714341,63.1846385 L45.1714341,63.3532261 L45.1714341,63.5211735 C45.1142424,63.527789 45.0576908,63.5344045 45.0017795,63.5403797 C44.9452279,63.5472086 44.8899568,63.5531838 44.8351125,63.5597993 C44.7796279,63.5662014 44.7256372,63.5721766 44.6710063,63.5775117 C44.6168021,63.5830601 44.562598,63.5886086 44.5083939,63.5935168 C44.4544032,63.5982117 44.4001991,63.6031199 44.3462083,63.607388 C44.291364,63.6112292 44.2371599,63.6146436 44.1818887,63.6178447 C44.1272578,63.6206189 44.0719867,63.6225395 44.0152217,63.6244601 C43.9593104,63.6263807 43.9027588,63.6268075 43.8451403,63.6268075 C43.6893568,63.6268075 43.545097,63.6172045 43.4125743,63.5988519 C43.2800516,63.5800725 43.1584124,63.5525436 43.048297,63.5166921 C42.9375413,63.4802003 42.8378825,63.4358127 42.7484671,63.382889 C42.6590516,63.3299653 42.5798794,63.2693591 42.5107372,63.2006436 C42.4413815,63.1317148 42.3818423,63.0557436 42.331266,62.9723034 C42.2806897,62.88929 42.2395031,62.7985941 42.2072794,62.7012828 C42.1748423,62.6039714 42.1507279,62.4998312 42.1347227,62.3899292 C42.118931,62.2796003 42.1116753,62.1635096 42.1116753,62.0412302 L42.1116753,61.5299188 L42.1116753,61.0183941 L42.1116753,60.5070827 L42.1116753,59.9947044 L42.1116753,59.483393 L42.1116753,58.9718683 L42.1116753,58.4605569 L42.1116753,57.9488188 L41.9900361,57.9488188 L41.8683969,57.9488188 L41.7467578,57.9488188 L41.6244784,57.9488188 L41.5028392,57.9488188 L41.3814134,57.9488188 L41.2595609,57.9488188 L41.1374949,57.9488188 L41.1374949,57.7834322 L41.1374949,57.618259 L41.1374949,57.4532992 L41.1374949,57.2879126 L41.1374949,57.1223126 L41.1374949,56.9571394 L41.1374949,56.7921796 L41.1374949,56.626793 L41.2595609,56.626793 L41.3814134,56.626793 L41.5028392,56.626793 L41.6244784,56.626793 L41.7467578,56.626793 L41.8683969,56.626793 L41.9900361,56.626793 L42.1116753,56.626793 Z" id="Fill-19" fill="#FFFFFF"></path>
                    <path d="M47.2147802,60.3248587 C47.2184081,60.5030494 47.2312122,60.6677958 47.2531926,60.8199515 C47.2749596,60.9712536 47.3061163,61.1101783 47.3443153,61.2365123 C47.3827277,61.3624196 47.4294627,61.4763763 47.4823864,61.5783825 C47.5353101,61.680602 47.5954895,61.7710845 47.6618576,61.8500433 C47.727372,61.9298557 47.7999287,61.9979309 47.87654,62.0551227 C47.9531514,62.1129546 48.0353112,62.1605433 48.1210988,62.1974618 C48.206673,62.2345938 48.2967287,62.2619093 48.389772,62.2796216 C48.4828153,62.2977608 48.5790596,62.3062969 48.6767978,62.3062969 C48.7747493,62.3062969 48.8665122,62.3009619 48.9522999,62.2905052 C49.0387277,62.2802619 49.1189669,62.2651103 49.1942978,62.2448371 C49.2704823,62.2254175 49.340905,62.2010897 49.4085535,62.1724938 C49.4753483,62.1438979 49.5387287,62.111034 49.5993349,62.0751825 C49.6597277,62.0386907 49.7175597,61.9985711 49.7728308,61.9554639 C49.8287421,61.9117165 49.8827329,61.8654082 49.9352298,61.8154722 C49.9881535,61.7663897 50.0397968,61.713466 50.0914401,61.6586216 C50.1430834,61.6037773 50.1947267,61.5461587 50.2470102,61.4870464 L50.3991659,61.5790227 L50.5517483,61.6714258 L50.703904,61.7638289 L50.8564865,61.8562319 L51.0086422,61.948635 L51.1605844,62.0412515 L51.3133803,62.1336546 L51.4653226,62.2260577 C51.3844432,62.3476969 51.2986556,62.4614402 51.2073195,62.5666474 C51.116837,62.6718546 51.0212329,62.7685258 50.9202937,62.8566608 C50.8199947,62.9454361 50.7141473,63.0256753 50.6029648,63.098232 C50.4922092,63.1712155 50.3754782,63.2356629 50.2538391,63.2926413 C50.1315597,63.3500464 50.004372,63.3991289 49.8712092,63.4413825 C49.7380463,63.4832093 49.5993349,63.5177804 49.4546483,63.5453093 C49.3099617,63.5726248 49.1590865,63.5931114 49.0028761,63.6065557 C48.8460256,63.62 48.6829865,63.6268289 48.5137586,63.6268289 C48.2858452,63.6268289 48.0675349,63.6052753 47.8611751,63.5628083 C47.6550287,63.5209815 47.460406,63.4582413 47.2779472,63.3760815 C47.0954885,63.2939217 46.925407,63.1925557 46.7689833,63.0732639 C46.6121328,62.953332 46.4691534,62.8154742 46.3402586,62.6607577 C46.2107235,62.5058278 46.09634,62.3342526 45.9966812,62.1464588 C45.8968091,61.9590917 45.8129421,61.7552928 45.7442266,61.5369825 C45.6761513,61.3186721 45.6242946,61.0856371 45.5890833,60.8393711 C45.553872,60.5931051 45.5361596,60.3327546 45.5361596,60.0604536 C45.5361596,59.7877257 45.553872,59.5282288 45.5890833,59.2811092 C45.6242946,59.0350566 45.6765781,58.8020216 45.7461472,58.5837113 C45.8146493,58.3651876 45.8997967,58.161602 46.0009493,57.9735948 C46.1018885,57.7862277 46.2186194,57.6142257 46.3505019,57.4597226 C46.4819575,57.3047927 46.6285648,57.1671484 46.7890431,57.0474298 C46.9495215,56.928138 47.1240844,56.8265587 47.3127318,56.7446123 C47.5005256,56.6624525 47.7026174,56.5999257 47.9166596,56.5578855 C48.1307019,56.5158453 48.3575483,56.4940782 48.5959184,56.4940782 C48.8257524,56.4921576 49.0436359,56.5147782 49.2478617,56.5585257 C49.4523009,56.6022731 49.6437226,56.6667205 49.8214865,56.7499473 C49.999037,56.8333875 50.1631432,56.9349669 50.3133782,57.0516978 C50.4636133,57.169069 50.599337,57.3022319 50.7216164,57.4484123 C50.8430422,57.5941659 50.95017,57.7535772 51.0432133,57.9225917 C51.1358298,58.0922463 51.2135081,58.2717174 51.2762484,58.4584443 C51.3387752,58.6458113 51.3855102,58.840434 51.4179473,59.0399649 C51.4495308,59.2392824 51.4653226,59.4437216 51.4653226,59.649868 L51.4653226,59.7343752 L51.4653226,59.8188824 L51.4653226,59.9033896 L51.4653226,59.9874701 L51.4653226,60.0717639 L51.4653226,60.1564845 L51.4653226,60.2403515 L51.4653226,60.3248587 L50.933738,60.3248587 L50.4027937,60.3248587 L49.8712092,60.3248587 L49.3402648,60.3248587 L48.8088937,60.3248587 L48.2773091,60.3248587 L47.7463648,60.3248587 L47.2147802,60.3248587 Z M49.9224256,59.216235 C49.9192246,59.0969432 49.9077009,58.9838401 49.8895617,58.8782061 C49.8712092,58.7717185 49.8458143,58.6718463 49.8135906,58.578803 C49.7807267,58.4863999 49.7416741,58.3999721 49.6960061,58.3214401 C49.6499112,58.2424814 49.5976277,58.1707783 49.5391555,58.1063308 C49.4808968,58.0418834 49.4164494,57.9851185 49.3458133,57.936036 C49.2758174,57.8867401 49.1998463,57.8453401 49.1183267,57.8120494 C49.0368071,57.7789721 48.9499524,57.7535772 48.8586164,57.7365051 C48.7668535,57.7194329 48.6701823,57.7108968 48.5686029,57.7108968 C48.4670236,57.7108968 48.3703524,57.7194329 48.2777359,57.7365051 C48.185973,57.7535772 48.0995452,57.7789721 48.018239,57.8120494 C47.9367194,57.8453401 47.8607483,57.8867401 47.7901122,57.936036 C47.7201163,57.9851185 47.6556689,58.0418834 47.5971967,58.1063308 C47.538938,58.1707783 47.4866545,58.2424814 47.4409864,58.3214401 C47.3955318,58.3999721 47.355839,58.4863999 47.3236153,58.578803 C47.2913916,58.6718463 47.2657833,58.7717185 47.2476442,58.8782061 C47.2292916,58.9838401 47.2184081,59.0969432 47.2147802,59.216235 L47.5534493,59.216235 L47.8916916,59.216235 L48.2303607,59.216235 L48.5686029,59.216235 L48.907272,59.216235 L49.2455143,59.216235 L49.5841834,59.216235 L49.9224256,59.216235 Z" id="Fill-21" fill="#FFFFFF"></path>
                    <path d="M101.74016,41.7988919 C101.668457,41.6443888 101.595474,41.4935135 101.519503,41.3475465 C101.443958,41.2022197 101.365,41.062228 101.281773,40.9290651 C101.197692,40.795262 101.108917,40.668928 101.013526,40.5509166 C100.917495,40.4329053 100.814636,40.3227898 100.703453,40.2224908 C100.591417,40.1221919 100.470418,40.031496 100.338536,39.951897 C100.20644,39.8720846 100.063674,39.8033692 99.9072501,39.7474578 C99.7510397,39.6921867 99.5818119,39.6482259 99.3970057,39.6192032 C99.2126263,39.5899671 99.0126686,39.5741754 98.7960655,39.5741754 C98.5465985,39.5741754 98.3137768,39.597863 98.0967469,39.6458785 C97.8801438,39.6938939 97.6795459,39.7664506 97.4945263,39.8631218 C97.3097201,39.9597929 97.1404923,40.0814321 96.987483,40.2280393 C96.8340469,40.3744331 96.696616,40.5460084 96.5749768,40.7429785 C96.453551,40.940162 96.3470634,41.1627403 96.2563675,41.4115671 C96.1650314,41.6601805 96.0894871,41.9344022 96.0293077,42.2355125 C95.9693417,42.5366228 95.9243139,42.8644084 95.8944376,43.218229 C95.8647747,43.5729033 95.8494098,43.9542528 95.8494098,44.3622775 C95.8494098,44.7711559 95.8647747,45.152292 95.8944376,45.506326 C95.9249541,45.8607868 95.9704088,46.1879322 96.0312283,46.4892559 C96.0926881,46.7901528 96.1695129,47.0643745 96.2623428,47.3132013 C96.3555995,47.5620281 96.4642211,47.7846064 96.5894881,47.9815765 C96.7153954,48.17876 96.8570943,48.3501219 97.0158655,48.4967291 C97.1752768,48.6431229 97.3511201,48.7649755 97.5438222,48.8616467 C97.7371645,48.9583178 97.9477923,49.0306611 98.1757057,49.0786766 C98.4038325,49.1260518 98.6496717,49.1497394 98.9134366,49.1497394 C99.1074191,49.1497394 99.2915851,49.1339477 99.4663614,49.1032178 C99.6407109,49.0720611 99.8060975,49.0263931 99.9638016,48.9674941 C100.120652,48.9083817 100.268967,48.8366786 100.410879,48.7528116 C100.551938,48.6693714 100.685741,48.5739807 100.813355,48.4681333 C100.940543,48.362926 101.061328,48.2474755 101.176352,48.1226353 C101.291803,47.9986487 101.401491,47.8654858 101.506699,47.7254941 C101.611906,47.5855023 101.712205,47.4384683 101.808876,47.286526 C101.905547,47.1337301 101.998804,46.9755992 102.088859,46.8132002 L102.428169,46.999927 L102.767265,47.1866538 L103.106147,47.3733807 L103.445456,47.5601075 L103.784339,47.7468343 L104.123648,47.9335611 L104.462531,48.1202879 L104.80184,48.3070147 C104.621088,48.6348003 104.435002,48.938258 104.241659,49.2186683 C104.048104,49.4988652 103.848146,49.7555879 103.640079,49.98969 C103.432225,50.223792 103.215622,50.4357003 102.990483,50.6252013 C102.765131,50.8157694 102.530815,50.9841436 102.28647,51.1318178 C102.041911,51.2797055 101.787109,51.4066797 101.521423,51.5144477 C101.255524,51.6213622 100.978315,51.708857 100.688728,51.7777859 C100.399142,51.8465014 100.097605,51.896224 99.7824099,51.9286611 C99.4676418,51.9602447 99.139216,51.9743292 98.7960655,51.9711282 C98.286248,51.9711282 97.8028923,51.9250333 97.3462119,51.8349776 C96.8895314,51.744922 96.4588861,51.6111189 96.0574768,51.4359158 C95.6567077,51.2609261 95.2832541,51.044323 94.9409572,50.7888807 C94.5984469,50.5340786 94.2858128,50.2397972 94.0047623,49.9094508 C93.724352,49.5793178 93.4757386,49.2124797 93.2604159,48.8123508 C93.0446664,48.4113683 92.8626345,47.9773085 92.7162407,47.5118786 C92.56942,47.0462353 92.4575973,46.5494353 92.382053,46.023826 C92.3075757,45.4977899 92.2691633,44.9435847 92.2691633,44.3622775 C92.2691633,43.7816105 92.3075757,43.2267651 92.382053,42.7013692 C92.4575973,42.1759733 92.56942,41.6785331 92.7162407,41.2131032 C92.8626345,40.7478867 93.0446664,40.3138269 93.2604159,39.9134846 C93.4757386,39.5127156 93.724352,39.1465176 94.0047623,38.8163846 C94.2858128,38.4862516 94.5984469,38.192397 94.9409572,37.9369547 C95.2832541,37.6821526 95.6567077,37.4655495 96.0574768,37.2905599 C96.4588861,37.115997 96.8895314,36.9821939 97.3462119,36.8921382 C97.8028923,36.8020825 98.286248,36.7557743 98.7960655,36.7557743 C99.1492459,36.7557743 99.4936769,36.7783949 99.8274377,36.8234227 C100.161839,36.8684506 100.484929,36.9352454 100.795643,37.0235939 C101.106996,37.1110887 101.405759,37.2199238 101.691078,37.3488186 C101.975756,37.4783537 102.246137,37.6273083 102.501579,37.7952557 C102.757235,37.96363 102.997312,38.150997 103.220104,38.3567166 C103.442682,38.5626496 103.647975,38.7858681 103.834702,39.0274393 C104.021428,39.2683702 104.189376,39.5268001 104.336623,39.8010218 C104.483657,40.0758836 104.610845,40.3671774 104.715412,40.673196 L104.343239,40.8142548 L103.971706,40.9546733 L103.599533,41.0953053 L103.227786,41.236364 L102.85604,41.3767826 L102.483867,41.5172012 L102.112334,41.6582599 L101.74016,41.7988919 Z" id="Fill-23" fill="#FFFFFF"></path>
                    <path d="M110.291032,44.9257443 C110.298287,45.3064536 110.326243,45.6575 110.373192,45.9808041 C110.419927,46.3045351 110.485014,46.6007371 110.567174,46.8700505 C110.649334,47.1395773 110.748352,47.3822155 110.862096,47.5998856 C110.975199,47.8177691 111.103667,48.0104712 111.244085,48.1794856 C111.385144,48.3485001 111.538367,48.4934001 111.702473,48.6161062 C111.866793,48.7390258 112.041356,48.838898 112.224455,48.918497 C112.40734,48.9974557 112.599615,49.0552877 112.797866,49.0934867 C112.996116,49.131899 113.201196,49.1502516 113.41097,49.1502516 C113.620317,49.1502516 113.815367,49.1385145 113.998466,49.1167475 C114.181351,49.0947671 114.352927,49.0625434 114.514045,49.0205032 C114.675377,48.9780361 114.826679,48.9263928 114.969659,48.8655733 C115.112638,48.8053939 115.248148,48.7358248 115.377257,48.6587867 C115.505938,48.5808949 115.629071,48.4957475 115.747509,48.4033444 C115.866801,48.3113681 115.980971,48.2117093 116.094074,48.1065021 C116.20675,48.0006547 116.316653,47.888832 116.426981,47.7721011 C116.537097,47.6547299 116.646999,47.5324506 116.759035,47.4052629 L117.08362,47.6030866 L117.408631,47.8000567 L117.733215,47.9972403 L118.058013,48.1946372 L118.382811,48.3918207 L118.707396,48.589431 L119.032407,48.7866145 L119.357632,48.9835846 C119.184349,49.2443619 119.001251,49.4865733 118.808548,49.7108588 C118.615206,49.9353578 118.411407,50.1415042 118.196725,50.3305784 C117.982042,50.5192259 117.756903,50.6914413 117.519813,50.845731 C117.283364,51.0002341 117.035177,51.1383053 116.775467,51.2599444 C116.515757,51.3815836 116.243882,51.4867908 115.959631,51.5762063 C115.675593,51.6656218 115.379604,51.7392455 115.071238,51.7975042 C114.762232,51.8566166 114.440422,51.8997238 114.106021,51.9281063 C113.770979,51.9569156 113.423134,51.9716403 113.061844,51.9716403 C112.574647,51.9716403 112.109431,51.9253321 111.669823,51.8346362 C111.229361,51.7445805 110.81344,51.6107774 110.424195,51.4357877 C110.03559,51.2605846 109.672593,51.0439815 109.338618,50.7893929 C109.004858,50.5337372 108.698839,50.2398826 108.423977,49.9093228 C108.148475,49.5789764 107.903916,49.2127784 107.691581,48.8120093 C107.478819,48.4118805 107.299348,47.9769671 107.154021,47.5117506 C107.008054,47.046534 106.897512,46.5495206 106.822608,46.0236979 C106.747917,45.4980887 106.709505,44.9434567 106.709505,44.3625763 C106.709505,43.7819092 106.747917,43.2272773 106.822608,42.7010278 C106.898152,42.1756319 107.009975,41.6788319 107.156582,41.213402 C107.302976,40.7475453 107.485648,40.3134855 107.700758,39.9131432 C107.91608,39.5130143 108.164694,39.1461762 108.445317,38.8160432 C108.726154,38.4859102 109.038788,38.1920555 109.381085,37.9372535 C109.724236,37.6818112 110.097049,37.4658483 110.498459,37.2908586 C110.899868,37.1156555 111.32966,36.9818524 111.786553,36.8917968 C112.243234,36.8017411 112.727443,36.7553003 113.236407,36.7553003 C113.727232,36.7524452 114.191168,36.8000339 114.627148,36.892437 C115.062702,36.9854803 115.470727,37.1235514 115.849729,37.3004617 C116.228517,37.4780122 116.578924,37.6952555 116.898813,37.9451493 C117.219343,38.1956834 117.509997,38.4797215 117.769707,38.7917153 C118.029418,39.103069 118.258611,39.4425916 118.456435,39.8043081 C118.653832,40.1655978 118.819432,40.5486546 118.953235,40.9483566 C119.087038,41.3478453 119.187977,41.7633391 119.255626,42.1890762 C119.322847,42.6145999 119.357632,43.0507938 119.357632,43.4910422 L119.357632,43.6705134 L119.357632,43.8497711 L119.357632,44.0292422 L119.357632,44.2087134 L119.357632,44.3875443 L119.357632,44.5670154 L119.357632,44.7462732 L119.357632,44.9257443 L118.22404,44.9257443 L117.090875,44.9257443 L115.957497,44.9257443 L114.824332,44.9257443 L113.69074,44.9257443 L112.557575,44.9257443 L111.424197,44.9257443 L110.291032,44.9257443 Z M116.066118,42.5576216 C116.058863,42.3045267 116.035815,42.064236 115.996763,41.8380298 C115.958137,41.6124638 115.903933,41.399702 115.835004,41.2018783 C115.765648,41.004268 115.682635,40.8205288 115.584683,40.6527948 C115.487372,40.4844205 115.375336,40.3316246 115.251136,40.1941937 C115.126509,40.057403 114.988651,39.9357638 114.839057,39.8309834 C114.688608,39.7257762 114.526423,39.6376411 114.352927,39.5665782 C114.179004,39.495302 113.993558,39.4413112 113.797868,39.4048195 C113.601325,39.3687545 113.394538,39.3499751 113.177935,39.3499751 C112.961545,39.3499751 112.755399,39.3687545 112.558856,39.4048195 C112.362952,39.4413112 112.178146,39.495302 112.004864,39.5665782 C111.830941,39.6376411 111.668542,39.7257762 111.518947,39.8309834 C111.369352,39.9357638 111.231281,40.057403 111.107081,40.1941937 C110.982454,40.3316246 110.871272,40.4844205 110.77332,40.6527948 C110.676009,40.8205288 110.591929,41.004268 110.523427,41.2018783 C110.454071,41.399702 110.399867,41.6124638 110.360814,41.8380298 C110.322188,42.064236 110.298287,42.3045267 110.291032,42.5576216 L111.012971,42.5576216 L111.73491,42.5576216 L112.456636,42.5576216 L113.178575,42.5576216 L113.900514,42.5576216 L114.622454,42.5576216 L115.344393,42.5576216 L116.066118,42.5576216 Z" id="Fill-25" fill="#FFFFFF"></path>
                    <path d="M9.23328852,40.8962225 C9.14259264,40.801472 9.04890913,40.7065081 8.95181119,40.6121843 C8.85385965,40.5185008 8.75292047,40.4254575 8.64878026,40.3356153 C8.54421325,40.2449194 8.43665861,40.1580647 8.32590293,40.0746245 C8.21472046,39.9913977 8.10076376,39.9122256 7.98360602,39.8392421 C7.86602148,39.7662586 7.74502251,39.6994637 7.62167612,39.6397111 C7.49811632,39.580172 7.3715689,39.5278884 7.24203384,39.4854214 C7.11249879,39.4421008 6.97997611,39.4085967 6.84446579,39.3855493 C6.70938229,39.3625018 6.57131115,39.3503379 6.43025238,39.3503379 C6.25696991,39.3503379 6.09563795,39.358874 5.94540289,39.3757328 C5.79602145,39.3928049 5.6573101,39.4184132 5.53012247,39.4512771 C5.40293484,39.4847812 5.28684412,39.525541 5.1822771,39.5735565 C5.07706989,39.6222122 4.98338638,39.6774833 4.89994617,39.7402235 C4.81735957,39.8021101 4.74501627,39.8714658 4.68355648,39.9470101 C4.62209668,40.022341 4.57109359,40.1038606 4.53033379,40.1919957 C4.489574,40.2794905 4.45969771,40.373174 4.43963792,40.4717658 C4.41957812,40.5709977 4.40933482,40.6749246 4.40933482,40.7837596 C4.40933482,41.0974606 4.52649256,41.3548235 4.73221215,41.5763349 C4.93707813,41.7976328 5.23029257,41.982439 5.58240598,42.1503864 C5.93451939,42.3187607 6.34510496,42.4696359 6.78535342,42.6234988 C7.22517508,42.7773617 7.69401942,42.9342122 8.16350396,43.1130432 C8.63298851,43.2918741 9.10183285,43.4926854 9.54229471,43.7353236 C9.98190296,43.9783885 10.3924885,44.2630669 10.7446019,44.6085648 C11.0967154,44.954703 11.3899298,45.3620875 11.595436,45.8497112 C11.800302,46.3381886 11.9178865,46.9073319 11.9178865,47.5769876 C11.9178865,47.9564164 11.8807545,48.3106639 11.8101185,48.6384494 C11.7396958,48.9668752 11.6342752,49.2690525 11.4994051,49.5464752 C11.3636813,49.8234711 11.1976545,50.0754989 11.0036721,50.3036258 C10.8096896,50.530899 10.5883916,50.7346979 10.3419122,50.9141691 C10.0956463,51.0942804 9.82505245,51.2498505 9.53247821,51.3823732 C9.24054419,51.5148959 8.92662975,51.6252248 8.59414933,51.7120794 C8.26209572,51.7995742 7.91104932,51.8640217 7.54506478,51.9073423 C7.17886683,51.9504495 6.79687713,51.9711495 6.40336372,51.9711495 C6.10353382,51.9711495 5.81053279,51.9547175 5.52457402,51.9224938 C5.23882865,51.8909103 4.96033896,51.8420412 4.68953173,51.7784474 C4.41851111,51.7146402 4.15495956,51.6354681 3.89951729,51.5405041 C3.64428842,51.4457536 3.39588841,51.3354247 3.1568781,51.2103711 C2.91808119,51.0857443 2.68696675,50.9451124 2.4648152,50.7908227 C2.24223684,50.635466 2.02883478,50.4664515 1.824609,50.2822856 C1.62016982,50.0987598 1.42490693,49.9002959 1.23882033,49.6881742 C1.05337394,49.4758391 0.876890428,49.249633 0.710436817,49.0093422 L1.01005332,48.7910319 L1.31009662,48.5731484 L1.61035333,48.3550515 L1.91039663,48.137168 L2.21001313,47.9188577 L2.51048324,47.7011876 L2.81031314,47.4828773 L3.11014305,47.2649937 C3.21471006,47.4060525 3.32439872,47.5449773 3.43792862,47.6794206 C3.55231213,47.8140773 3.67096367,47.9451061 3.79431007,48.0710133 C3.91786986,48.1962804 4.04676471,48.3159989 4.18056781,48.4284618 C4.3137307,48.5417783 4.45308225,48.6469855 4.59712864,48.7436567 C4.74202864,48.8403278 4.89141009,48.9284628 5.04655339,49.0061412 C5.2023369,49.0836061 5.36345546,49.150401 5.53012247,49.2058855 C5.69742969,49.2605165 5.87007196,49.3029835 6.04890289,49.3322196 C6.22816063,49.3614556 6.41318022,49.3766072 6.60481527,49.3766072 C6.76358641,49.3766072 6.91616889,49.3663639 7.0614957,49.3463041 C7.2068225,49.3256041 7.34489364,49.295301 7.47442869,49.2562484 C7.60460395,49.216769 7.72688334,49.1681134 7.83998643,49.1115618 C7.95244932,49.0550103 8.05637613,48.9892824 8.15069984,48.9162989 C8.24438335,48.8433154 8.32889056,48.7630762 8.40187407,48.6749412 C8.47549778,48.5874463 8.53759778,48.4929092 8.58796067,48.3919701 C8.63917717,48.2910309 8.67801634,48.1841164 8.7042648,48.0710133 C8.73029985,47.9583371 8.74374418,47.8398989 8.74374418,47.7163391 C8.74374418,47.4026381 8.62637304,47.1422876 8.42129366,46.9165082 C8.21578747,46.6909422 7.92193282,46.5005875 7.57003282,46.3266649 C7.21770601,46.1527422 6.80733383,45.9952515 6.36687197,45.8358401 C5.92662351,45.6766422 5.45713896,45.5153102 4.98765442,45.3341319 C4.51816988,45.1529535 4.04868533,44.9515019 3.60822347,44.7112112 C3.16797501,44.4711339 2.75738943,44.1926442 2.40527602,43.8569628 C2.05316261,43.5210679 1.75952137,43.1288349 1.55444199,42.6606308 C1.3489358,42.1928534 1.23156466,41.649105 1.23156466,41.0123132 C1.23156466,40.6706565 1.26869662,40.3477792 1.3384791,40.0447483 C1.40783477,39.7412905 1.51069456,39.4578926 1.64215024,39.1939142 C1.77339251,38.9307895 1.93323065,38.6872977 2.11825024,38.4642926 C2.30241623,38.2417142 2.51176365,38.0396224 2.74095747,37.8590843 C2.96972449,37.6783327 3.21961831,37.5191348 3.48530388,37.3817039 C3.75056265,37.2446997 4.03268018,37.1292492 4.32653482,37.0362059 C4.62017606,36.9438028 4.92555442,36.873807 5.23946886,36.8264317 C5.55252969,36.7794832 5.8736998,36.7557956 6.19849774,36.7557956 C6.44775135,36.7557956 6.69721837,36.7673193 6.94540497,36.7899399 C7.19273797,36.8129874 7.43921735,36.8475585 7.68292251,36.8932265 C7.92684107,36.9395348 8.167772,36.9971534 8.4048617,37.066509 C8.6421648,37.1352245 8.87498645,37.2161039 9.10247305,37.308507 C9.32995965,37.4011235 9.5518978,37.5056905 9.76722049,37.621141 C9.98254317,37.7374451 10.1912504,37.8650596 10.3918483,38.0044111 C10.5926597,38.1437627 10.7847215,38.2950647 10.9678205,38.4581039 C11.1502793,38.6211431 11.324202,38.795706 11.4866009,38.9828596 L11.2049102,39.2218699 L10.9234329,39.4608802 L10.6419556,39.7001039 L10.3602648,39.939541 L10.0779339,40.1785513 L9.79645657,40.4175617 L9.51476584,40.6572122 L9.23328852,40.8962225 Z" id="Fill-27" fill="#FFFFFF"></path>
                    <path d="M26.9668081,37.0386174 L26.9668081,38.8698205 L26.9668081,40.7003834 L26.9668081,42.5315865 L26.9668081,44.3621495 L26.9668081,46.1933526 L26.9668081,48.0245557 L26.9668081,49.855332 L26.9668081,51.6865352 L26.5551555,51.6865352 L26.1439298,51.6865352 L25.7322772,51.6865352 L25.3204112,51.6865352 L24.9093988,51.6865352 L24.4975328,51.6865352 L24.0858802,51.6865352 L23.6748679,51.6865352 L23.6748679,51.4895651 L23.6748679,51.2923815 L23.6748679,51.0954114 L23.6748679,50.8982279 L23.6748679,50.7012578 L23.6748679,50.5042877 L23.6748679,50.3077444 L23.6748679,50.1107743 C23.5086276,50.2232372 23.3402534,50.3369805 23.1682513,50.4494434 C22.9960359,50.5619063 22.8201926,50.6733022 22.6413616,50.781497 C22.4627441,50.8896919 22.2809256,50.9948991 22.0952658,51.0954114 C21.9098194,51.1957104 21.7211719,51.2904609 21.5291101,51.3788094 C21.3370482,51.4669444 21.1411451,51.548464 20.9416142,51.6201671 C20.7427235,51.6918702 20.5402049,51.7552506 20.3340585,51.8075341 C20.1279121,51.8591774 19.9187781,51.9005774 19.7051626,51.9285331 C19.4924008,51.9564888 19.2757977,51.9712135 19.0551399,51.9712135 C18.6797657,51.9712135 18.3289327,51.9413372 18.0017873,51.8830785 C17.674642,51.8246063 17.371611,51.7381785 17.0931213,51.6250754 C16.8139914,51.5119723 16.558976,51.3719805 16.3278615,51.2074475 C16.0969605,51.0424877 15.8895337,50.8525599 15.7053677,50.6391578 C15.5209883,50.4261826 15.3602966,50.1897331 15.2235058,49.9319434 C15.0860749,49.6735135 14.9719048,49.3941702 14.8805687,49.0943403 C14.7898728,48.7947238 14.7217976,48.4748341 14.6761295,48.1365918 C14.6311017,47.7989897 14.6086945,47.4426083 14.6086945,47.0691547 L14.6086945,45.8158443 L14.6086945,44.5616804 L14.6086945,43.3077299 L14.6086945,42.0542061 L14.6086945,40.8000422 L14.6086945,39.5460916 L14.6086945,38.2925679 L14.6086945,37.0386174 L15.0557718,37.0386174 L15.503276,37.0386174 L15.9503533,37.0386174 L16.3980708,37.0386174 L16.8449347,37.0386174 L17.2926523,37.0386174 L17.7395162,37.0386174 L18.1872337,37.0386174 L18.1872337,38.2294009 L18.1872337,39.4195442 L18.1872337,40.6103277 L18.1872337,41.8004711 L18.1872337,42.991468 L18.1872337,44.1816113 L18.1872337,45.3723948 L18.1872337,46.5625382 C18.1872337,46.8094444 18.1968368,47.0345835 18.21711,47.2400897 C18.2365296,47.4458093 18.2661925,47.6312557 18.3052451,47.7983495 C18.3447245,47.966297 18.3933801,48.1152516 18.4524925,48.2477743 C18.5107513,48.3798702 18.5788265,48.4955341 18.6567183,48.5956196 C18.7339698,48.696132 18.8214647,48.7806392 18.917709,48.8512753 C19.0143801,48.9223382 19.1200142,48.9788898 19.2350379,49.0232774 C19.3500616,49.067665 19.4746884,49.0994619 19.6078513,49.1199485 C19.7416544,49.1406485 19.8839936,49.150465 20.035509,49.150465 C20.2307719,49.150465 20.4198461,49.1363805 20.6029451,49.1114124 C20.7854039,49.0864444 20.9623142,49.0493124 21.1319688,49.0038578 C21.3022637,48.9577629 21.4653029,48.9022784 21.6215132,48.8391114 C21.7779369,48.7763712 21.9268915,48.7059485 22.0685905,48.6304042 C22.2102895,48.5550733 22.3447328,48.4741939 22.4712802,48.3901135 C22.5976142,48.3062464 22.7162658,48.2187516 22.8263812,48.1306165 C22.9364967,48.0418413 23.0385029,47.9524258 23.1321864,47.8642908 C23.2252297,47.7755155 23.3103771,47.6875939 23.3859215,47.6033 L23.3859215,46.2827681 L23.3859215,44.9620227 L23.3859215,43.6414907 L23.3859215,42.3211721 L23.3859215,41.0002133 L23.3859215,39.6798947 L23.3859215,38.358936 L23.3859215,37.0386174 L23.8334256,37.0386174 L24.2811431,37.0386174 L24.7286473,37.0386174 L25.1763648,37.0386174 L25.6240823,37.0386174 L26.0715865,37.0386174 L26.5190906,37.0386174 L26.9668081,37.0386174 Z" id="Fill-29" fill="#FFFFFF"></path>
                    <path d="M30.357895,51.6864498 L30.357895,49.8552467 L30.357895,48.0246838 L30.357895,46.1934806 L30.357895,44.3622775 L30.357895,42.5317146 L30.357895,40.7005115 L30.357895,38.8697351 L30.357895,37.038532 L30.7695476,37.038532 L31.1814136,37.038532 L31.5930661,37.038532 L32.0047187,37.038532 L32.4159445,37.038532 L32.8275971,37.038532 L33.2394631,37.038532 L33.6511157,37.038532 L33.6511157,37.2357155 L33.6511157,37.4333258 L33.6511157,37.6302959 L33.6511157,37.8274794 L33.6511157,38.0250898 L33.6511157,38.2220599 L33.6511157,38.4198836 L33.6511157,38.6168537 C33.8171425,38.5037506 33.9867971,38.3900073 34.1590126,38.2775444 C34.3316548,38.1648681 34.5074982,38.0530454 34.6863291,37.9448506 C34.86516,37.8366557 35.0476188,37.7312351 35.2330652,37.6309361 C35.4185116,37.5306372 35.607159,37.4356733 35.7992209,37.3475382 C35.9919229,37.2594032 36.1871858,37.1785238 36.3860765,37.1061805 C36.5856075,37.034264 36.788126,36.971097 36.9942724,36.9194537 C37.2004188,36.8678104 37.4095528,36.8264104 37.6231683,36.7984547 C37.8359302,36.770499 38.0531735,36.7557743 38.273191,36.7557743 C38.6485652,36.7557743 39.0000384,36.7856506 39.3265436,36.8439093 C39.6539024,36.9023815 39.9560797,36.9885959 40.2352096,37.1019124 C40.5136993,37.2154423 40.769355,37.3554341 41.000256,37.5201805 C41.2313704,37.6851403 41.4387972,37.8748547 41.6231766,38.0876166 C41.8073426,38.301232 41.9680344,38.5370413 42.1054653,38.7950444 C42.242256,39.0528341 42.3566395,39.3326042 42.4477622,39.6324341 C42.5390983,39.9316238 42.6071736,40.2517269 42.6522014,40.5891156 C42.697656,40.9273579 42.7202767,41.2830991 42.7202767,41.6559125 L42.7202767,42.9094362 L42.7202767,44.1633868 L42.7202767,45.4173373 L42.7202767,46.6708611 L42.7202767,47.925025 L42.7202767,49.1789755 L42.7202767,50.4324993 L42.7202767,51.6864498 L42.2727725,51.6864498 L41.8256952,51.6864498 L41.3779777,51.6864498 L40.9302601,51.6864498 L40.482756,51.6864498 L40.0358921,51.6864498 L39.5881745,51.6864498 L39.140457,51.6864498 L39.140457,50.4963065 L39.140457,49.3061632 L39.140457,48.1160198 L39.140457,46.9256631 L39.140457,45.7355198 L39.140457,44.5453765 L39.140457,43.354593 L39.140457,42.1642362 C39.140457,41.9179702 39.1308539,41.6930445 39.1107941,41.4875383 C39.0911611,41.2818187 39.0614982,41.0957321 39.0220189,40.9277847 C38.9825395,40.7606908 38.9338838,40.611096 38.8747714,40.4783599 C38.8162993,40.3458372 38.748224,40.2303867 38.6705456,40.1298743 C38.5924405,40.0295754 38.5055859,39.9450681 38.4089147,39.8737919 C38.3128838,39.802729 38.2070364,39.7461774 38.0913724,39.7017898 C37.9765621,39.6574022 37.8523621,39.6251785 37.7191992,39.6044785 C37.5860364,39.5837785 37.443057,39.5741754 37.2923951,39.5741754 C37.0971322,39.5741754 36.9078446,39.5880465 36.7247456,39.6130145 C36.5422868,39.6384094 36.3653765,39.6751145 36.1957219,39.7212094 C36.025427,39.7675176 35.8623879,39.823429 35.7061776,39.8868094 C35.5499672,39.9499764 35.400159,40.0203991 35.25846,40.0963702 C35.116761,40.1719145 34.9823177,40.2527939 34.8559837,40.3373011 C34.7294363,40.4211682 34.6107848,40.5088764 34.5008827,40.5976517 C34.390127,40.6857867 34.2879074,40.7758424 34.1942239,40.8646176 C34.1005404,40.9527527 34.015393,41.040461 33.9394219,41.1249682 L33.9394219,42.4452867 L33.9394219,43.7656053 L33.9394219,45.0852837 L33.9394219,46.4058157 L33.9394219,47.7259209 L33.9394219,49.0464528 L33.9394219,50.3661312 L33.9394219,51.6864498 L33.4919177,51.6864498 L33.0442002,51.6864498 L32.5964827,51.6864498 L32.1489785,51.6864498 L31.701261,51.6864498 L31.2531166,51.6864498 L30.8056125,51.6864498 L30.357895,51.6864498 Z" id="Fill-31" fill="#FFFFFF"></path>
                    <path d="M70.5797029,51.6864498 L70.5504668,51.5285323 L70.5214442,51.3704013 L70.4915679,51.212057 L70.4623318,51.0539261 L70.4330957,50.8957952 L70.4038596,50.7378776 L70.3746235,50.5795333 L70.3447473,50.4214024 C70.1644225,50.5406941 69.9855916,50.6550776 69.8067606,50.7626323 C69.6279297,50.8704003 69.4490988,50.9717663 69.2689874,51.0669436 C69.0897297,51.1623343 68.9089782,51.2504694 68.7258792,51.331989 C68.5427802,51.4135086 68.3573338,51.4881993 68.1688998,51.5552075 C67.9802524,51.6220024 67.7888307,51.681755 67.5922874,51.7327581 C67.3953173,51.7844014 67.1947194,51.8281488 66.9877194,51.8633601 C66.7809328,51.8987849 66.5681709,51.9254601 66.3485802,51.9438127 C66.1292028,51.9619519 65.9021431,51.9711282 65.668041,51.9711282 C65.3280915,51.9711282 65.009909,51.9418921 64.7132801,51.8859807 C64.4164379,51.8307096 64.1402956,51.7485498 63.8854935,51.644623 C63.6311183,51.5404828 63.3978698,51.4135086 63.186175,51.2675415 C62.9738399,51.1220013 62.7828451,50.9566147 62.6131904,50.7760766 C62.4435358,50.5955384 62.2952213,50.3996353 62.1680337,50.1909281 C62.0408461,49.9830745 61.9349986,49.7622034 61.8500646,49.5330096 C61.765344,49.3036023 61.7013234,49.0658724 61.6588564,48.8232343 C61.6170296,48.5799559 61.5956894,48.3317693 61.5956894,48.0823023 C61.5956894,47.6663817 61.63901,47.2754291 61.7258646,46.9079507 C61.8133595,46.541326 61.9441749,46.1977487 62.1198048,45.8765786 C62.2958615,45.5556219 62.5152389,45.256859 62.7804976,44.9807167 C63.045543,44.7039342 63.3551894,44.4491321 63.7109306,44.2150301 C64.0666719,43.980928 64.467441,43.7668857 64.9151585,43.5733301 C65.3622358,43.3793476 65.8551946,43.2054249 66.3955286,43.050495 C66.9354359,42.8953517 67.5225049,42.7592012 68.1560957,42.6399094 C68.7903266,42.5212579 69.4717194,42.4203187 70.2009143,42.3364517 L70.2009143,42.1813084 L70.2009143,42.0261651 L70.2009143,41.870595 L70.2009143,41.7154517 L70.2009143,41.5603084 L70.2009143,41.4053785 L70.2009143,41.2502352 L70.2009143,41.0944517 C70.2009143,40.9540331 70.1861895,40.8208702 70.1580204,40.6962434 C70.130705,40.5716166 70.0895184,40.4546723 70.0365947,40.3464774 C69.9830308,40.2382826 69.9179431,40.1384104 69.8413318,40.0472877 C69.7647204,39.9559517 69.6776524,39.8733651 69.5803411,39.7997413 C69.4823895,39.7254774 69.3754751,39.66103 69.2593843,39.6051187 C69.1432936,39.5492073 69.0186668,39.5016187 68.8863575,39.4640599 C68.7538349,39.4262877 68.6140565,39.3976918 68.4676627,39.3789125 C68.3208421,39.3599197 68.1676194,39.3503166 68.0094885,39.3503166 C67.8003544,39.3503166 67.6027441,39.3635475 67.4153771,39.3891558 C67.2286503,39.414764 67.0523802,39.4523228 66.8854998,39.5005516 C66.719473,39.5485671 66.5626224,39.6074661 66.4140946,39.6744743 C66.2657802,39.7419094 66.126642,39.8178805 65.9947595,39.9019609 C65.8626637,39.9851877 65.7384637,40.0758836 65.6213059,40.1725547 C65.5032946,40.2685857 65.3925389,40.3708053 65.2873317,40.4772929 C65.1821245,40.5837805 65.0822523,40.6936826 64.9875018,40.8069991 C64.8927513,40.9192486 64.8020554,41.0349125 64.7156276,41.1510032 L64.4266812,40.9363207 L64.1377348,40.7216383 L63.8483616,40.5069558 L63.5596286,40.2922733 L63.2706822,40.0775908 L62.9817358,39.8629084 L62.6927894,39.6482259 L62.403843,39.4335434 C62.5195069,39.2395609 62.6588585,39.0515537 62.819977,38.8710156 C62.9806688,38.6911176 63.1616337,38.5178351 63.3607379,38.3535155 C63.5596286,38.1898362 63.7747379,38.0346929 64.0045719,37.8906465 C64.2339791,37.7466001 64.4766173,37.6134372 64.7297121,37.492865 C64.9825935,37.371866 65.2452915,37.264098 65.5148183,37.1699877 C65.7841317,37.0763042 66.0596338,36.9967052 66.3376967,36.9326846 C66.6155462,36.8688774 66.8965967,36.8215021 67.1763668,36.791199 C67.4559235,36.7613227 67.7352668,36.7485186 68.0094885,36.7557743 C68.5148245,36.7666578 68.9836689,36.7984547 69.4181555,36.8550062 C69.8522153,36.9109176 70.2519174,36.9911568 70.6174751,37.099565 C70.9830328,37.2071196 71.3142328,37.3419897 71.6136359,37.5075898 C71.9121854,37.6734032 72.1785112,37.8693063 72.4132535,38.0993537 C72.6479958,38.3291877 72.8513679,38.5925259 73.0237968,38.892996 C73.1966525,39.1934661 73.3389916,39.5304279 73.4514545,39.9066558 C73.5645576,40.2837372 73.6479978,40.7009383 73.703269,41.1608197 C73.7585401,41.6207012 73.7852154,42.1234764 73.7852154,42.6727734 L73.7852154,43.5357713 L73.7852154,44.3987693 L73.7852154,45.2617672 L73.7852154,46.1247652 L73.7852154,46.9875497 L73.7852154,47.8507611 L73.7852154,48.713759 L73.7852154,49.576757 C73.7852154,49.6678797 73.7864958,49.7592157 73.7884164,49.8503384 C73.7907638,49.9416745 73.7939648,50.0323704 73.7980195,50.1234931 C73.8025009,50.214189 73.8084762,50.3046714 73.8157319,50.3947271 C73.8229875,50.4847828 73.8321638,50.5741982 73.8424071,50.6629735 C73.853504,50.752389 73.8660947,50.840524 73.8808195,50.9273787 C73.8953308,51.0150869 73.9117628,51.1015147 73.9313958,51.187089 C73.9501752,51.27309 73.9715154,51.3573838 73.995203,51.440824 C74.0188906,51.5234106 74.0449257,51.6055704 74.0741618,51.6864498 L73.6375411,51.6864498 L73.2002803,51.6864498 L72.7634463,51.6864498 L72.327039,51.6864498 L71.8904184,51.6864498 L71.4529442,51.6864498 L71.0163236,51.6864498 L70.5797029,51.6864498 Z M70.2009143,44.6736311 C69.900871,44.7301827 69.5980534,44.7867342 69.2969431,44.8469136 C68.9960462,44.907093 68.6968565,44.9709002 68.4055627,45.0408961 C68.1134153,45.1115322 67.8293771,45.1881435 67.5589967,45.2745713 C67.2875493,45.3601456 67.0303998,45.4563899 66.7907493,45.5645847 C66.5517389,45.6727796 66.331508,45.793992 66.1351781,45.9301425 C65.939275,46.066293 65.7670595,46.2184487 65.6253606,46.3893837 C65.4836616,46.5596786 65.3711987,46.7487528 65.2952276,46.9598074 C65.2186162,47.1702219 65.1772162,47.4032569 65.1772162,47.6597662 C65.1772162,47.7971972 65.1887399,47.9267322 65.2100802,48.0483714 C65.2318472,48.1706508 65.2642843,48.2850343 65.3054709,48.3908817 C65.3475111,48.4973693 65.3987276,48.5953209 65.458907,48.6851632 C65.5190863,48.7750054 65.5875884,48.856525 65.6644131,48.9297219 C65.7410245,49.0027054 65.8255317,49.0671528 65.9172946,49.1230642 C66.0092709,49.1783353 66.1076492,49.2252838 66.2128565,49.2630559 C66.3174235,49.3006147 66.4288193,49.3292106 66.5457637,49.34799 C66.6618544,49.3669828 66.7841338,49.3767992 66.9106812,49.3767992 C67.0510998,49.3767992 67.1964266,49.3618611 67.3441008,49.335826 C67.4924152,49.3091508 67.6426503,49.2709518 67.7941658,49.2220827 C67.9456812,49.1742807 68.0982637,49.1164487 68.249139,49.0505075 C68.4006544,48.9856333 68.5506761,48.91329 68.6981369,48.8360384 C68.8451709,48.7581467 68.9892173,48.6762003 69.1285689,48.5914796 C69.2679204,48.5069724 69.4021503,48.4199044 69.5299782,48.3324095 C69.657806,48.2453415 69.7785916,48.1578466 69.8910545,48.0733394 C70.0037308,47.988192 70.1070174,47.9060322 70.2009143,47.8283539 L70.2009143,47.43356 L70.2009143,47.0394064 L70.2009143,46.6452528 L70.2009143,46.250459 L70.2009143,45.8565188 L70.2009143,45.4623652 L70.2009143,45.0675713 L70.2009143,44.6736311 Z" id="Fill-33" fill="#FFFFFF"></path>
                    <path d="M77.3643948,51.6864498 L77.3643948,49.8552467 L77.3643948,48.0246838 L77.3643948,46.1934806 L77.3643948,44.3622775 L77.3643948,42.5317146 L77.3643948,40.7005115 L77.3643948,38.8697351 L77.3643948,37.038532 L77.7760474,37.038532 L78.1870598,37.038532 L78.5989258,37.038532 L79.0101515,37.038532 L79.4218041,37.038532 L79.8334567,37.038532 L80.2446825,37.038532 L80.6565485,37.038532 L80.6565485,37.2357155 L80.6565485,37.4333258 L80.6565485,37.6302959 L80.6565485,37.8274794 L80.6565485,38.0250898 L80.6565485,38.2220599 L80.6565485,38.4198836 L80.6565485,38.6168537 C80.8223619,38.5037506 80.9920165,38.3900073 81.164232,38.2775444 C81.3368743,38.1648681 81.5125042,38.0530454 81.6913351,37.9448506 C81.8708062,37.8366557 82.0534784,37.7312351 82.2389248,37.6309361 C82.4243712,37.5306372 82.6136588,37.4356733 82.8057207,37.3475382 C82.9977825,37.2594032 83.1936856,37.1785238 83.3932166,37.1061805 C83.5921073,37.034264 83.7946258,36.971097 84.0007722,36.9194537 C84.2069186,36.8678104 84.4160527,36.8264104 84.6296681,36.7984547 C84.8430702,36.770499 85.0596733,36.7557743 85.2796908,36.7557743 C85.6550651,36.7557743 86.0065383,36.7856506 86.3330434,36.8439093 C86.6604022,36.9023815 86.9630063,36.9885959 87.2423496,37.1019124 C87.5208393,37.2154423 87.7756414,37.3554341 88.0067558,37.5201805 C88.2385105,37.6851403 88.4459373,37.8748547 88.6294631,38.0876166 C88.8138424,38.301232 88.9743208,38.5370413 89.1119651,38.7950444 C89.2491826,39.0528341 89.3637796,39.3326042 89.454262,39.6324341 C89.5453847,39.9316238 89.61346,40.2517269 89.659128,40.5891156 C89.7041559,40.9273579 89.7267765,41.2830991 89.7267765,41.6559125 L89.7267765,42.9094362 L89.7267765,44.1633868 L89.7267765,45.4173373 L89.7267765,46.6708611 L89.7267765,47.925025 L89.7267765,49.1789755 L89.7267765,50.4324993 L89.7267765,51.6864498 L89.2790589,51.6864498 L88.8313414,51.6864498 L88.3838373,51.6864498 L87.9363331,51.6864498 L87.4886156,51.6864498 L87.0411115,51.6864498 L86.5933939,51.6864498 L86.1456764,51.6864498 L86.1456764,50.4963065 L86.1456764,49.3061632 L86.1456764,48.1160198 L86.1456764,46.9256631 L86.1456764,45.7355198 L86.1456764,44.5453765 L86.1456764,43.354593 L86.1456764,42.1642362 C86.1456764,41.9179702 86.1360733,41.6930445 86.1160135,41.4875383 C86.0965939,41.2818187 86.0667176,41.0957321 86.0278785,40.9277847 C85.9881857,40.7606908 85.9391032,40.611096 85.880631,40.4783599 C85.8223723,40.3458372 85.7540836,40.2303867 85.6761919,40.1298743 C85.5985135,40.0295754 85.5114455,39.9450681 85.4147743,39.8737919 C85.3181032,39.802729 85.2122558,39.7461774 85.0965919,39.7017898 C84.9815681,39.6574022 84.8569413,39.6251785 84.7237784,39.6044785 C84.5899753,39.5837785 84.446996,39.5741754 84.2952671,39.5741754 C84.100431,39.5741754 83.9113568,39.5880465 83.728898,39.6130145 C83.545799,39.6384094 83.3695289,39.6751145 83.1998743,39.7212094 C83.0302197,39.7675176 82.8669671,39.823429 82.7109702,39.8868094 C82.5549733,39.9499764 82.4060186,40.0203991 82.2643196,40.0963702 C82.1226207,40.1719145 81.9888176,40.2527939 81.8624835,40.3373011 C81.7363629,40.4211682 81.6179248,40.5088764 81.5071691,40.5976517 C81.3970536,40.6857867 81.2950475,40.7758424 81.2011505,40.8646176 C81.1083206,40.9527527 81.0231732,41.040461 80.9469887,41.1249682 L80.9469887,42.4452867 L80.9469887,43.7656053 L80.9469887,45.0852837 L80.9469887,46.4058157 L80.9469887,47.7259209 L80.9469887,49.0464528 L80.9469887,50.3661312 L80.9469887,51.6864498 L80.4994846,51.6864498 L80.0513402,51.6864498 L79.6036227,51.6864498 L79.1554783,51.6864498 L78.7077608,51.6864498 L78.2600433,51.6864498 L77.8121123,51.6864498 L77.3643948,51.6864498 Z" id="Fill-35" fill="#FFFFFF"></path>
                    <path d="M58.6143985,51.6864498 L58.2349696,51.6864498 L57.8557541,51.6864498 L57.4769655,51.6864498 L57.0975366,51.6864498 L56.7185345,51.6864498 L56.3391057,51.6864498 L55.9601036,51.6864498 L55.5806747,51.6864498 L55.5595479,51.4894797 L55.5382077,51.2922962 L55.5162273,51.0953261 L55.4951005,50.898356 L55.4731201,50.7013859 L55.4517799,50.5042024 L55.4297995,50.3076591 L55.4086727,50.110689 C55.2499015,50.2622044 55.0924108,50.4045436 54.9353469,50.5383467 C54.7784964,50.6719364 54.6216458,50.7974168 54.4641551,50.9128673 C54.3070912,51.0285312 54.1491737,51.1348055 53.9891221,51.2321168 C53.829284,51.3294281 53.6673118,51.416923 53.5032056,51.495455 C53.338886,51.5739869 53.1717922,51.6427024 53.0014974,51.7022416 C52.8305623,51.7613539 52.6559994,51.81129 52.4765283,51.8507694 C52.2976973,51.890889 52.1135314,51.9207653 51.9238169,51.9406117 C51.7341025,51.9613117 51.5388396,51.9711282 51.336321,51.9711282 C50.8386674,51.9711282 50.3711035,51.9175642 49.9344829,51.8149178 C49.4976488,51.7114178 49.0919715,51.5592622 48.7174509,51.3629323 C48.3422901,51.1659622 47.9978591,50.9246044 47.6854385,50.6427003 C47.3721643,50.361223 47.0900467,50.0396261 46.8395127,49.6819642 C46.5883385,49.3245157 46.3687477,48.9307889 46.1801003,48.5069724 C45.9916663,48.0823023 45.8341756,47.6271157 45.7082684,47.1446136 C45.5823611,46.662325 45.4873972,46.153361 45.4242302,45.6224167 C45.36149,45.0914724 45.3299065,44.5385476 45.3299065,43.9674837 C45.3299065,43.5167785 45.3634106,43.0662868 45.4291385,42.6221971 C45.4952931,42.1783208 45.5938848,41.7414867 45.7247003,41.3189506 C45.8546622,40.8968414 46.0172745,40.4881764 46.2106168,40.1006383 C46.4039591,39.7133135 46.6282447,39.347329 46.8826199,39.0090867 C47.137422,38.6708444 47.4221003,38.3614114 47.7364416,38.0865496 C48.050356,37.8121145 48.3939334,37.572464 48.7661066,37.3754939 C49.1382798,37.1785238 49.5390488,37.0233805 49.9677736,36.917533 C50.3967117,36.8116856 50.852752,36.7557743 51.336321,36.7557743 C51.4882633,36.7557743 51.6483149,36.7666578 51.812421,36.787998 C51.9771674,36.808698 52.1463953,36.8402815 52.3173303,36.8806145 C52.4876252,36.9207341 52.6602675,36.9698165 52.8324829,37.0276485 C53.0038448,37.0854805 53.1747798,37.1512083 53.3414468,37.2239784 C53.5081139,37.2976021 53.6709396,37.3780547 53.8273633,37.4642691 C53.9829335,37.5513372 54.1327417,37.6443805 54.2725201,37.742332 C54.4125118,37.8407104 54.5424737,37.9448506 54.660485,38.0530454 C54.7778561,38.1612403 54.8832768,38.2737032 54.973119,38.3900073 L54.9810149,38.3900073 L54.9882706,38.3900073 L54.9955263,38.3900073 L55.0036355,38.3900073 L55.0108912,38.3900073 L55.0187871,38.3900073 L55.0260428,38.3900073 L55.0332984,38.3900073 L55.0332984,37.7798908 L55.0332984,37.1699877 L55.0332984,36.5594444 L55.0332984,35.9493279 L55.0332984,35.3392114 L55.0332984,34.7293083 L55.0332984,34.1194052 L55.0332984,33.5092886 L55.4808026,33.5092886 L55.9285201,33.5092886 L56.3762376,33.5092886 L56.8237418,33.5092886 L57.2714593,33.5092886 L57.7191768,33.5092886 L58.166681,33.5092886 L58.6143985,33.5092886 L58.6143985,35.7815938 L58.6143985,38.0536856 L58.6143985,40.3257774 L58.6143985,42.5978692 L58.6143985,44.8701744 L58.6143985,47.1422662 L58.6143985,49.414358 L58.6143985,51.6864498 Z M55.0332984,40.8116939 C54.9432427,40.7308146 54.8501994,40.6505754 54.7548087,40.5726836 C54.6587778,40.4943651 54.560186,40.4181805 54.4586067,40.345197 C54.3570273,40.2715733 54.2518201,40.2017908 54.1442654,40.1354228 C54.0358572,40.0692681 53.9253149,40.0071681 53.8102912,39.9499764 C53.6961211,39.8927846 53.5778963,39.8411413 53.4564706,39.7948331 C53.3352582,39.7487382 53.2099912,39.7090455 53.0810963,39.6761815 C52.9528417,39.6439578 52.820319,39.618563 52.6839551,39.6008506 C52.5471644,39.5831382 52.407386,39.5741754 52.262486,39.5741754 C51.99552,39.5741754 51.7424252,39.6008506 51.5046953,39.6531341 C51.2669654,39.7054176 51.044387,39.7833094 50.8369602,39.8868094 C50.6295334,39.990096 50.4385385,40.1189908 50.2629086,40.2722135 C50.0870653,40.4260764 49.927654,40.6042671 49.7853148,40.8069991 C49.6425488,41.0093042 49.5166416,41.2355104 49.4082334,41.4862579 C49.2996117,41.7367919 49.2082756,42.0103733 49.1346519,42.3078558 C49.0610282,42.6046981 49.0051169,42.9245878 48.9679849,43.2675249 C48.9310664,43.6098218 48.9114334,43.9753796 48.9114334,44.3622775 C48.9114334,44.7502425 48.9310664,45.1158002 48.9679849,45.4580971 C49.0051169,45.8012476 49.0610282,46.1211373 49.1346519,46.4184064 C49.2082756,46.7152487 49.2996117,46.9894703 49.4082334,47.2395776 C49.5166416,47.4901116 49.6425488,47.7163178 49.7853148,47.9188363 C49.927654,48.1213549 50.0870653,48.2995456 50.2629086,48.4529817 C50.4385385,48.605991 50.6295334,48.734459 50.8369602,48.8377456 C51.044387,48.9412456 51.2669654,49.0197776 51.5046953,49.0714209 C51.7424252,49.1237044 51.99552,49.1503797 52.262486,49.1503797 C52.4541211,49.1503797 52.6293242,49.1388559 52.7910829,49.1175157 C52.9522015,49.0968157 53.1000891,49.0658724 53.2362396,49.0274601 C53.3730303,48.9886209 53.4982974,48.942526 53.6150283,48.8896023 C53.7313324,48.8371054 53.8395273,48.7782065 53.9417469,48.714826 C54.0433262,48.651659 54.1393572,48.584224 54.2311201,48.5135879 C54.3237366,48.4438054 54.4118716,48.3708219 54.4993665,48.2971982 C54.5875015,48.2231477 54.6739293,48.1486704 54.7620644,48.0744064 C54.8501994,48.0007827 54.9396149,47.9280126 55.0332984,47.8575899 L55.0332984,46.9768796 L55.0332984,46.0961693 L55.0332984,45.2156724 L55.0332984,44.334962 L55.0332984,43.4542517 L55.0332984,42.5729012 L55.0332984,41.6924043 L55.0332984,40.8116939 Z" id="Fill-37" fill="#FFFFFF"></path>
                </g>
            </g>
        </g>
    </g>
</svg>