<svg width="101" height="65" viewBox="0 0 101 65" fill="none" xmlns="http://www.w3.org/2000/svg">
<path fillRule="evenodd" clipRule="evenodd" d="M50.479 46.4216H55.5446L55.846 47.6563H52.0289V50.0095H55.3151V51.2296H52.603L52.0289 51.3166V54.1202H50.479V46.4216Z" fill="black"/>
<path fillRule="evenodd" clipRule="evenodd" d="M57.0278 54.1202V46.4216H62.2082L62.5095 47.6564H58.5776V49.5882H61.8637V50.7793H59.123L58.5776 50.8664V52.8856H62.6387L62.323 54.1202H57.0278Z" fill="black"/>
<path fillRule="evenodd" clipRule="evenodd" d="M67.606 51.9414C67.606 51.1572 66.7307 50.9538 65.9128 50.6778C64.6499 50.271 63.6884 49.8499 63.6884 48.5135C63.6884 47.148 64.7074 46.291 66.6446 46.291C67.4051 46.291 68.0796 46.4217 68.5818 46.596L68.8544 47.918C68.2518 47.7146 67.4339 47.5403 66.6876 47.5403C65.683 47.5403 65.2669 47.8452 65.2669 48.3682C65.2669 49.0364 66.0848 49.2397 66.9028 49.5157C67.9504 49.8499 69.1701 50.3437 69.1701 51.8834C69.1701 53.6263 67.606 54.2656 65.9271 54.2656C65.066 54.2656 64.4491 54.1348 63.9182 53.9605L63.6455 52.595C64.2194 52.784 65.0087 52.9873 65.8552 52.9873C66.8023 52.9873 67.606 52.7112 67.606 51.9414Z" fill="black"/>
<path fillRule="evenodd" clipRule="evenodd" d="M70.1182 46.4216H76.8198L77.1355 47.6563H74.2512V54.1202H72.7158V47.6563H69.8169L70.1182 46.4216Z" fill="black"/>
<mask id="mask0" mask-type="alpha" maskUnits="userSpaceOnUse" x="0" y="0" width="101" height="65">
<path fillRule="evenodd" clipRule="evenodd" d="M0 65H101V0H0V65Z" fill="white"/>
</mask>
<g mask="url(#mask0)">
<path fillRule="evenodd" clipRule="evenodd" d="M78.1812 54.1202H79.7166V46.4216H78.1812V54.1202Z" fill="black"/>
<path fillRule="evenodd" clipRule="evenodd" d="M84.5062 52.3044L86.6444 46.4216H88.1368L85.0516 54.1202H83.7458L80.7466 46.4216H82.325L84.5062 52.3044Z" fill="black"/>
<path fillRule="evenodd" clipRule="evenodd" d="M89.3976 50.9681H91.464L90.4309 48.2664L89.3976 50.9681ZM91.8802 52.0576H88.9671L88.178 54.1202H86.6997L89.8998 46.4216H91.2057L94.248 54.1202H92.6694L91.8802 52.0576Z" fill="black"/>
<path fillRule="evenodd" clipRule="evenodd" d="M95.3003 46.4216H96.8502V52.8708H100.509L100.093 54.1202H95.3003V46.4216Z" fill="black"/>
<path fillRule="evenodd" clipRule="evenodd" d="M50.5352 35.3225H55.6007L55.9022 36.5571H52.085V38.9103H55.3711V40.1305H52.659L52.085 40.2176V43.0212H50.5352V35.3225Z" fill="black"/>
<path fillRule="evenodd" clipRule="evenodd" d="M57.2246 43.0212H58.7601V35.3225H57.2246V43.0212Z" fill="black"/>
<path fillRule="evenodd" clipRule="evenodd" d="M60.2681 35.3225H61.8178V41.7719H65.4771L65.061 43.0212H60.2681V35.3225Z" fill="black"/>
<path fillRule="evenodd" clipRule="evenodd" d="M70.9916 41.0602L73.632 35.3081L75.2392 35.3516L75.3685 43.0212H73.8616L73.7898 38.0534L71.5656 42.905L70.4032 43.1374L68.0211 38.0099L67.9349 43.0212H66.4712L66.6292 35.3516L68.2363 35.25L70.9916 41.0602Z" fill="black"/>
<path fillRule="evenodd" clipRule="evenodd" d="M50.5003 0C48.7817 0 47.3833 1.41535 47.3833 3.1551C47.3833 4.89473 48.7817 6.30996 50.5003 6.30996C52.2189 6.30996 53.617 4.89473 53.617 3.1551C53.617 1.41535 52.2189 0 50.5003 0Z" fill="#FCB63F"/>
<path fillRule="evenodd" clipRule="evenodd" d="M6.78848 28.0887C6.78848 26.6234 5.14137 26.3202 3.79358 25.8656C1.67222 25.1834 0.174707 24.2992 0.174707 22.1266C0.174707 19.373 2.54587 18.0845 5.01653 18.0845C6.1645 18.0845 7.99839 18.3624 8.97178 18.8171L9.42116 21.4193C8.67235 20.7372 6.48905 20.2824 5.1165 20.2824C3.91842 20.2824 2.89505 20.6362 2.89505 21.7223C2.89505 22.8592 3.94341 23.1876 5.16636 23.5412C7.96156 24.4254 9.50894 25.2845 9.50894 27.7602C9.50894 31.019 6.86345 32.0044 4.29271 32.0044C2.62061 32.0044 1.17309 31.5749 0.474257 31.1958L0 28.6192C1.07324 29.4276 2.96991 29.7559 4.24284 29.7559C5.51566 29.7559 6.78848 29.4022 6.78848 28.0887Z" fill="black"/>
<path fillRule="evenodd" clipRule="evenodd" d="M33.5399 18.0844C35.786 18.0844 37.4833 19.5498 37.4833 22.4297V31.6759H34.7378L34.7877 23.4655C34.7877 21.2171 33.7396 20.6108 32.1173 20.6108C31.3436 20.6108 30.0957 20.7372 29.0974 21.1917C30.0707 18.9686 31.7928 18.0844 33.5399 18.0844ZM26.3022 18.8676L28.9975 18.0339V31.6759H26.3022V18.8676Z" fill="black"/>
<path fillRule="evenodd" clipRule="evenodd" d="M49.1523 32.08V20.8381C48.4286 20.5096 47.019 20.358 46.295 20.358C44.0739 20.358 42.5515 21.8739 42.5515 25.2085C42.5515 27.7852 43.4748 29.7558 46.1204 29.7558C46.894 29.7558 48.129 29.5788 49.0774 29.1747C48.2787 30.9431 46.3949 32.0294 44.6978 32.0294C41.8277 32.0294 39.7563 29.6294 39.7563 25.4358C39.7563 20.5854 42.5266 18.0844 46.4698 18.0844C47.2187 18.0844 48.3786 18.1854 49.1523 18.3876V13.1834L51.8477 12.3499V31.5242L49.1523 32.08Z" fill="black"/>
<path fillRule="evenodd" clipRule="evenodd" d="M74.1152 18.0844C76.3614 18.0844 77.4764 19.5498 77.4764 22.4297V31.6759H74.9207L74.9707 23.4655C74.9707 21.2171 74.3149 20.6108 72.6926 20.6108C71.919 20.6108 70.671 20.7372 69.6728 21.1917C70.646 18.9686 72.3682 18.0844 74.1152 18.0844ZM66.8774 18.8676L69.573 18.0339V31.6759H66.8774V18.8676Z" fill="black"/>
<path fillRule="evenodd" clipRule="evenodd" d="M100.343 28.7603L100.917 30.8066C99.7939 31.5392 98.3428 32.0042 96.521 32.0042C92.3033 32.0042 90.3643 29.7558 90.3643 25.2842C90.3643 21.3685 91.879 18.0842 95.972 18.0842C99.491 18.0842 101 20.4843 101 23.4401C101 24.0716 100.925 24.7284 100.776 25.3853L93.384 25.2842C94.0579 24.4253 95.0603 23.5916 98.2798 23.5916C98.4296 22.0254 98.1432 20.2318 95.8472 20.2318C93.6009 20.2318 93.1595 22.0254 93.1595 24.5768C93.1595 28.0631 93.9754 29.7305 96.8954 29.7305C98.1183 29.7305 99.3198 29.4424 100.343 28.7603Z" fill="black"/>
<path fillRule="evenodd" clipRule="evenodd" d="M64.9146 29.73C64.9066 29.7301 64.8993 29.7307 64.8911 29.7307C63.8678 29.7307 63.6181 29.0487 63.6181 27.2802C63.6181 25.7897 63.7928 23.1119 63.7928 22.2023C63.7928 19.3983 62.0209 18.0845 59.2007 18.0845C57.5035 18.0845 56.0311 18.5392 55.2074 18.8929L54.4339 21.4445C55.5318 20.7624 57.1792 20.4087 58.3272 20.4087C60.3987 20.4087 61.1224 21.4698 61.1224 22.8592C61.1224 23.1119 61.0975 23.7433 61.0725 24.5265C56.8548 24.4508 53.8599 25.7391 53.8599 28.6697C53.8599 30.6654 55.2324 31.9286 57.254 31.9286C58.951 31.9286 60.0492 31.019 60.8728 28.5686C60.124 29.2507 59.2757 29.6548 58.3771 29.6548C57.3788 29.6548 56.5802 29.1749 56.5802 28.1138C56.5802 26.6233 58.2023 26.0676 60.149 25.9918C60.4735 25.9918 60.7731 25.9918 60.9976 26.017C60.9726 27.0782 60.9476 28.0887 60.9476 28.5181C60.9476 29.857 61.372 31.9286 63.7428 31.9286C64.0125 31.9286 64.2304 31.9037 64.4444 31.8489L64.9146 29.73Z" fill="black"/>
<path fillRule="evenodd" clipRule="evenodd" d="M88.6814 28.9979C87.8791 29.4144 87.0722 29.6649 86.094 29.6649C83.4617 29.6649 82.2202 27.9307 82.2202 24.9897C82.2202 22.2247 83.2629 20.4401 86.094 20.4401C87.0374 20.4401 87.9276 20.6386 88.8097 21.1841L88.3476 18.67C87.668 18.3655 86.8536 18.1528 85.796 18.1528C81.8724 18.1528 79.439 21.0938 79.439 25.3918C79.439 29.7905 82.0215 32.0024 85.6468 32.0024C86.962 32.0024 88.3561 31.6976 89.3643 31.09L88.6814 28.9979Z" fill="black"/>
<path fillRule="evenodd" clipRule="evenodd" d="M20.5724 32.0163V18.3623H23.2678V31.1827L20.5724 32.0163ZM15.6937 32.0548C13.4473 32.0548 11.7505 30.5894 11.7505 27.7096V19.095L14.4708 18.2612L14.4457 26.6738C14.4457 28.9222 15.494 29.5285 17.0913 29.5285C17.8649 29.5285 19.5242 29.3768 20.5226 28.9474C19.5242 31.1454 17.4406 32.0548 15.6937 32.0548Z" fill="black"/>
<path fillRule="evenodd" clipRule="evenodd" d="M23.9812 59.2663L24.3751 57.8501C24.8234 57.644 25.4346 57.4238 26.4669 57.4238C27.9203 57.4238 28.8848 58.2627 28.8848 59.4726C28.8848 61.1225 27.187 62.4975 24.9728 63.4875H29.7272L29.4147 64.8212H23.8861L23.7231 64.2025C26.4128 61.9614 27.35 60.7238 27.35 59.7476C27.35 59.0464 26.8745 58.7026 25.9916 58.7026C25.3802 58.7026 24.5652 58.8676 23.9812 59.2663Z" fill="black"/>
<path fillRule="evenodd" clipRule="evenodd" d="M35.8473 61.0539C35.8473 59.3627 35.1818 58.6615 33.9319 58.6615C32.6688 58.6615 31.908 59.5416 31.908 61.1914C31.908 62.8277 32.6144 63.7626 33.8369 63.7626C35.2088 63.7626 35.8473 62.6077 35.8473 61.0539ZM37.3957 60.999C37.3957 63.2677 36.0102 65.0001 33.7689 65.0001C31.6635 65.0001 30.3867 63.5428 30.3867 61.3151C30.3867 59.0465 31.8537 57.4241 34.0271 57.4241C36.0102 57.4241 37.3957 58.7853 37.3957 60.999Z" fill="black"/>
<path fillRule="evenodd" clipRule="evenodd" d="M38.2986 59.2663L38.6925 57.8501C39.1408 57.644 39.7521 57.4238 40.7844 57.4238C42.2378 57.4238 43.2023 58.2627 43.2023 59.4726C43.2023 61.1225 41.5044 62.4975 39.2903 63.4875H44.0446L43.7321 64.8212H38.2035L38.0405 64.2025C40.7301 61.9614 41.6674 60.7238 41.6674 59.7476C41.6674 59.0464 41.192 58.7026 40.309 58.7026C39.6977 58.7026 38.8827 58.8676 38.2986 59.2663Z" fill="black"/>
<path fillRule="evenodd" clipRule="evenodd" d="M45.0676 59.2663L45.4615 57.8501C45.9098 57.644 46.521 57.4238 47.5533 57.4238C49.0067 57.4238 49.9713 58.2627 49.9713 59.4726C49.9713 61.1225 48.2735 62.4975 46.0592 63.4875H50.8135L50.5011 64.8212H44.9726L44.8096 64.2025C47.4992 61.9614 48.4365 60.7238 48.4365 59.7476C48.4365 59.0464 47.9609 58.7026 47.078 58.7026C46.4667 58.7026 45.6518 58.8676 45.0676 59.2663Z" fill="black"/>
</g>
</svg>
