<?xml version="1.0" encoding="UTF-8"?>
<svg width="21px" height="22px" viewBox="0 0 21 22" version="1.1" xmlns="http://www.w3.org/2000/svg" xmlns:xlink="http://www.w3.org/1999/xlink">
    <title>Group 3</title>
    <defs>
        <polygon id="path-1" points="0 0.0627 20.8684 0.0627 20.8684 20.9317 0 20.9317"></polygon>
    </defs>
    <g id="DESKTOP" stroke="none" stroke-width="1" fill="none" fillRule="evenodd">
        <g id="06-CAT-PARTNER" transform="translate(-1474.000000, -8304.000000)">
            <g id="Group-11-Copy" transform="translate(0.000000, 7796.000000)">
                <g id="Group-17" transform="translate(0.000000, 392.000000)">
                    <g id="Group-6" transform="translate(1474.000000, 114.005900)">
                        <g id="Group-3" transform="translate(0.000000, 2.000000)">
                            <g id="Group-8">
                                <mask id="mask-2" fill="white">
                                    <use xlink:href="#path-1"></use>
                                </mask>
                                <g id="Clip-7"></g>
                                <path d="M10.4344,0.0627 C7.6004,0.0627 7.2454,0.0747 6.1324,0.1247 C5.0214,0.1757 4.2634,0.3527 3.5994,0.6107 C2.9134,0.8767 2.3314,1.2337 1.7514,1.8137 C1.1714,2.3947 0.8144,2.9767 0.5474,3.6627 C0.2894,4.3257 0.1134,5.0837 0.0624,6.1947 C0.0124,7.3087 -0.0006,7.6637 -0.0006,10.4977 C-0.0006,13.3307 0.0124,13.6867 0.0624,14.7997 C0.1134,15.9097 0.2894,16.6677 0.5474,17.3327 C0.8144,18.0187 1.1714,18.6007 1.7514,19.1807 C2.3314,19.7607 2.9134,20.1177 3.5994,20.3837 C4.2634,20.6417 5.0214,20.8177 6.1324,20.8687 C7.2454,20.9197 7.6004,20.9317 10.4344,20.9317 C13.2684,20.9317 13.6234,20.9197 14.7364,20.8687 C15.8474,20.8177 16.6054,20.6417 17.2694,20.3837 C17.9554,20.1177 18.5374,19.7607 19.1174,19.1807 C19.6974,18.6007 20.0544,18.0187 20.3214,17.3327 C20.5794,16.6677 20.7554,15.9097 20.8064,14.7997 C20.8564,13.6867 20.8684,13.3307 20.8684,10.4977 C20.8684,7.6637 20.8564,7.3087 20.8064,6.1947 C20.7554,5.0837 20.5794,4.3257 20.3214,3.6627 C20.0544,2.9767 19.6974,2.3947 19.1174,1.8137 C18.5374,1.2337 17.9554,0.8767 17.2694,0.6107 C16.6054,0.3527 15.8474,0.1757 14.7364,0.1247 C13.6234,0.0747 13.2684,0.0627 10.4344,0.0627 M10.4344,1.9427 C13.2204,1.9427 13.5504,1.9537 14.6504,2.0037 C15.6674,2.0497 16.2204,2.2197 16.5884,2.3627 C17.0754,2.5527 17.4234,2.7777 17.7884,3.1437 C18.1534,3.5087 18.3794,3.8557 18.5684,4.3427 C18.7114,4.7107 18.8814,5.2637 18.9284,6.2807 C18.9774,7.3807 18.9884,7.7107 18.9884,10.4977 C18.9884,13.2837 18.9774,13.6137 18.9284,14.7137 C18.8814,15.7307 18.7114,16.2837 18.5684,16.6507 C18.3794,17.1387 18.1534,17.4857 17.7884,17.8507 C17.4234,18.2157 17.0754,18.4417 16.5884,18.6317 C16.2204,18.7747 15.6674,18.9447 14.6504,18.9907 C13.5504,19.0407 13.2204,19.0517 10.4344,19.0517 C7.6474,19.0517 7.3184,19.0407 6.2184,18.9907 C5.2004,18.9447 4.6484,18.7747 4.2804,18.6317 C3.7934,18.4417 3.4454,18.2157 3.0804,17.8507 C2.7154,17.4857 2.4894,17.1387 2.3004,16.6507 C2.1574,16.2837 1.9874,15.7307 1.9404,14.7137 C1.8904,13.6137 1.8804,13.2837 1.8804,10.4977 C1.8804,7.7107 1.8904,7.3807 1.9404,6.2807 C1.9874,5.2637 2.1574,4.7107 2.3004,4.3427 C2.4894,3.8557 2.7154,3.5087 3.0804,3.1437 C3.4454,2.7777 3.7934,2.5527 4.2804,2.3627 C4.6484,2.2197 5.2004,2.0497 6.2184,2.0037 C7.3184,1.9537 7.6484,1.9427 10.4344,1.9427" id="Fill-6" fill="#FFFFFF" mask="url(#mask-2)"></path>
                            </g>
                            <path d="M10.4344,13.9753 C8.5134,13.9753 6.9564,12.4183 6.9564,10.4973 C6.9564,8.5763 8.5134,7.0193 10.4344,7.0193 C12.3554,7.0193 13.9124,8.5763 13.9124,10.4973 C13.9124,12.4183 12.3554,13.9753 10.4344,13.9753 M10.4344,5.1393 C7.4754,5.1393 5.0764,7.5383 5.0764,10.4973 C5.0764,13.4563 7.4754,15.8553 10.4344,15.8553 C13.3934,15.8553 15.7924,13.4563 15.7924,10.4973 C15.7924,7.5383 13.3934,5.1393 10.4344,5.1393" id="Fill-9" fill="#FFFFFF"></path>
                            <path d="M17.2567,4.9269 C17.2567,5.6189 16.6957,6.1789 16.0047,6.1789 C15.3127,6.1789 14.7527,5.6189 14.7527,4.9269 C14.7527,4.2359 15.3127,3.6749 16.0047,3.6749 C16.6957,3.6749 17.2567,4.2359 17.2567,4.9269" id="Fill-11" fill="#FFFFFF"></path>
                        </g>
                    </g>
                </g>
            </g>
        </g>
    </g>
</svg>