<svg xmlns="http://www.w3.org/2000/svg" viewBox="0 0 979 136.43"><defs><style>.cls-1{fill:#ffc52b;}</style></defs><g id="Layer_2" data-name="Layer 2"><g id="Layer_1-2" data-name="Layer 1"><path d="M850.35,109.27l1.89-6.71a22.55,22.55,0,0,1,10-2c7,0,11.59,4,11.59,9.71,0,7.81-8.14,14.32-18.76,19h22.8l-1.5,6.32H849.89l-.78-2.93C862,122,866.5,116.17,866.5,111.55c0-3.32-2.28-5-6.51-5A18.3,18.3,0,0,0,850.35,109.27Z"/><path d="M914.67,117.47c0,10.75-6.65,19-17.39,19-10.1,0-16.22-6.91-16.22-17.46,0-10.74,7-18.43,17.46-18.43C908,100.54,914.67,107,914.67,117.47Zm-7.43.27c0-8-3.19-11.34-9.18-11.34s-9.7,4.17-9.7,12,3.38,12.18,9.24,12.18C904.18,130.57,907.24,125.09,907.24,117.74Z"/><path d="M919,109.27l1.89-6.71a22.55,22.55,0,0,1,10-2c7,0,11.6,4,11.6,9.71,0,7.81-8.14,14.32-18.76,19h22.79l-1.49,6.32H918.54l-.78-2.93c12.89-10.62,17.39-16.48,17.39-21.1,0-3.32-2.28-5-6.52-5A18.33,18.33,0,0,0,919,109.27Z"/><path d="M951.45,109.27l1.89-6.71a22.55,22.55,0,0,1,10-2c7,0,11.59,4,11.59,9.71,0,7.81-8.14,14.32-18.75,19H979l-1.5,6.32H951l-.79-2.93c12.9-10.62,17.39-16.48,17.39-21.1,0-3.32-2.28-5-6.51-5A18.3,18.3,0,0,0,951.45,109.27Z"/><path d="M597.83,100.37H621.4l1.41,5.68H605.05v10.81h15.29v5.61H607.72l-2.67.4v12.89h-7.22Z"/><path d="M628.31,135.76V100.37h24.1l1.4,5.68H635.52v8.88h15.29v5.47H638.06l-2.54.4v9.28h18.89L653,135.76Z"/><path d="M677.53,125.74c0-3.6-4.08-4.54-7.88-5.81-5.88-1.87-10.35-3.8-10.35-9.94S664,99.77,673.05,99.77a28.47,28.47,0,0,1,9,1.4l1.27,6.08a33.75,33.75,0,0,0-10.09-1.74c-4.67,0-6.61,1.4-6.61,3.81,0,3.07,3.81,4,7.62,5.27,4.87,1.54,10.55,3.81,10.55,10.89,0,8-7.28,11-15.09,11a28.76,28.76,0,0,1-9.35-1.41l-1.27-6.27a33.73,33.73,0,0,0,10.28,1.8C673.79,130.55,677.53,129.28,677.53,125.74Z"/><path d="M689.22,100.37H720.4l1.47,5.68H708.45v29.71H701.3V106.05H687.81Z"/><path d="M726.73,135.76V100.37h7.15v35.39Z"/><path d="M756.16,127.41l10-27h6.95L758.7,135.76h-6.07l-14-35.39H746Z"/><path d="M790.48,126.28H776.92l-3.67,9.48h-6.88l14.89-35.39h6.08l14.15,35.39h-7.34Zm-11.56-5h9.62l-4.81-12.42Z"/><path d="M806.39,100.37h7.21V130h17l-1.94,5.74h-22.3Z"/><path d="M461,100.5h23.57l1.41,5.68H468.23V117h15.3v5.6H470.91l-2.68.41v12.88H461Z"/><path d="M492.15,135.89V100.5h7.14v35.39Z"/><path d="M506.31,100.5h7.21v29.65h17l-1.94,5.74h-22.3Z"/><path d="M556.21,126.88l12.28-26.44,7.48.2.6,35.25h-7l-.33-22.83-10.35,22.3-5.41,1.07-11.09-23.57-.4,23h-6.81l.74-35.25,7.48-.47Z"/><path class="cls-1" d="M217.39,0A13.42,13.42,0,1,0,230.8,13.42,13.43,13.43,0,0,0,217.39,0Z"/><path d="M29.22,119.45c0-6.23-7.09-7.52-12.89-9.45C7.2,107.1.75,103.34.75,94.1.75,82.39,11,76.91,21.59,76.91c4.95,0,12.84,1.18,17,3.11l1.93,11.07c-3.22-2.9-12.62-4.84-18.53-4.84-5.15,0-9.56,1.51-9.56,6.13,0,4.83,4.51,6.23,9.78,7.73,12,3.76,18.69,7.42,18.69,18,0,13.85-11.39,18-22.45,18-7.2,0-13.43-1.82-16.44-3.43l-2-11c4.62,3.44,12.78,4.83,18.26,4.83S29.22,125,29.22,119.45Z"/><path d="M113.22,80.24l11.6-3.55v58h-11.6Zm31.16-3.33c9.67,0,17,6.23,17,18.48v39.32H149.54l.21-34.92c0-9.56-4.51-12.14-11.5-12.14a34.09,34.09,0,0,0-13,2.47C129.44,80.67,136.86,76.91,144.38,76.91Z"/><path d="M211.59,136.43V88.62c-3.12-1.4-9.19-2-12.3-2-9.57,0-16.12,6.44-16.12,20.62,0,11,4,19.34,15.36,19.34a36.42,36.42,0,0,0,12.73-2.47,21.46,21.46,0,0,1-18.85,12.14c-12.35,0-21.27-10.2-21.27-28,0-20.63,11.92-31.26,28.9-31.26a53.59,53.59,0,0,1,11.55,1.29V56.07l11.6-3.55v81.54Z"/><path d="M287.89,80.24l11.6-3.55v58h-11.6ZM319,76.91c9.67,0,14.47,6.23,14.47,18.48v39.32h-11l.22-34.92c0-9.56-2.83-12.14-9.81-12.14a34.17,34.17,0,0,0-13,2.47C304.11,80.67,311.52,76.91,319,76.91Z"/><path d="M432,122.31l2.47,8.7c-4.84,3.12-11.08,5.09-18.93,5.09-18.15,0-26.5-9.56-26.5-28.57,0-16.66,6.52-30.62,24.14-30.62,15.15,0,21.64,10.2,21.64,22.77a37.28,37.28,0,0,1-1,8.28L402,107.53c2.9-3.66,7.22-7.2,21.07-7.2.65-6.66-.58-14.29-10.47-14.29C402.92,86,401,93.67,401,104.52c0,14.82,3.51,21.92,16.08,21.92A26.75,26.75,0,0,0,432,122.31Z"/><path d="M279.44,126.43h-.1c-4.41,0-5.48-2.91-5.48-10.43,0-6.33.75-17.72.75-21.59,0-11.93-7.63-17.51-19.77-17.51a45.68,45.68,0,0,0-17.19,3.44L234.32,91.2c4.73-2.9,11.82-4.41,16.76-4.41,8.92,0,12,4.51,12,10.42,0,1.08-.1,3.76-.21,7.09-18.16-.32-31,5.16-31,17.62,0,8.49,5.91,13.86,14.61,13.86,7.31,0,12-3.87,15.58-14.29-3.22,2.9-6.88,4.62-10.74,4.62-4.3,0-7.74-2-7.74-6.55,0-6.34,7-8.7,15.36-9,1.4,0,2.69,0,3.66.1-.11,4.51-.22,8.81-.22,10.64,0,5.69,1.83,14.5,12,14.5a11.62,11.62,0,0,0,3-.34Z"/><path d="M381.75,123.32a23.53,23.53,0,0,1-11.14,2.84c-11.33,0-16.68-7.38-16.68-19.89,0-11.75,4.49-19.34,16.68-19.34a21.61,21.61,0,0,1,11.69,3.16l-2-10.69a26.35,26.35,0,0,0-11-2.2C352.43,77.2,342,89.71,342,108c0,18.71,11.12,28.12,26.72,28.12,5.66,0,11.67-1.3,16-3.88Z"/><path d="M67.56,136.32c-9.67,0-17-6.23-17-18.48V81.2l11.71-3.54-.11,35.78c0,9.56,4.52,12.14,11.39,12.14,3.33,0,10.48-.65,14.77-2.48A22.73,22.73,0,0,1,67.56,136.32Zm21-.16V78.09h11.6v54.52Z"/></g></g></svg>