<?xml version="1.0" encoding="UTF-8"?>
<svg width="18px" height="18px" viewBox="0 0 18 18" version="1.1" xmlns="http://www.w3.org/2000/svg" xmlns:xlink="http://www.w3.org/1999/xlink">
    <title>Shape</title>
    <g id="PROGRAM" stroke="none" stroke-width="1" fill="none" fillRule="evenodd">
        <g id="FPG-08-NEW-FRONTIER-2" transform="translate(-901.000000, -864.000000)" fill="#C9C9C9" fillRule="nonzero">
            <path d="M910,864 C905.02948,864 901,868.029487 901,873 C901,877.970716 905.02948,882 910,882 C914.9707,882 919,877.970716 919,873 C919,868.029487 914.9707,864 910,864 L910,864 Z M910.000001,867.600004 C911.317601,867.583106 912.543626,868.369595 913.178126,869.512507 C913.699226,870.33997 913.779326,871.420285 913.290626,872.296886 C913.003526,872.867483 912.595601,873.337958 912.025001,873.618759 C911.519201,873.861759 911.0548,874.23841 910.900001,874.800011 L910.900001,875.700012 L909.1,875.700012 C909.097296,875.320212 909.092802,874.924886 909.128082,874.546885 C909.343182,873.899784 909.790032,873.349433 910.309332,872.915633 C910.816933,872.543032 911.450983,872.265611 911.715582,871.650012 C912.036883,870.741551 911.368857,869.669919 910.449957,869.456257 C909.375357,869.139908 908.152617,870.07708 908.199957,871.200009 L906.399957,871.200009 C906.491397,870.482801 906.504312,870.452198 906.540582,870.18751 C906.912462,868.657415 908.445657,867.575346 909.999957,867.600004 L910.000001,867.600004 Z M910.000001,876.600014 C910.496801,876.600014 910.900001,877.003214 910.900001,877.500015 C910.900001,877.996816 910.496801,878.400017 910.000001,878.400017 C909.503201,878.400017 909.1,877.996816 909.1,877.500015 C909.1,877.003214 909.503201,876.600014 910.000001,876.600014 Z" id="Shape"></path>
        </g>
    </g>
</svg>