<?xml version="1.0" encoding="UTF-8"?>
<svg width="70px" height="23px" viewBox="0 0 70 23" version="1.1" xmlns="http://www.w3.org/2000/svg" xmlns:xlink="http://www.w3.org/1999/xlink">
    <title>Group 30</title>
    <defs>
        <polygon id="path-1" points="0 0.49825 2.2614 0.49825 2.2614 3.29825 0 3.29825"></polygon>
    </defs>
    <g id="DESKTOP" stroke="none" stroke-width="1" fill="none" fillRule="evenodd">
        <g id="06-CAT-PARTNER" transform="translate(-1341.000000, -8303.000000)">
            <g id="Group-11-Copy" transform="translate(0.000000, 7796.000000)">
                <g id="Group-17" transform="translate(0.000000, 392.000000)">
                    <g id="Group-30" transform="translate(1341.666667, 115.000000)">
                        <path d="M9.6496,10.2125 C9.1241,9.0675 8.5466,8.1565 6.9721,8.1565 C5.1601,8.1565 4.2941,9.562 4.2941,12.5805 C4.2941,15.5995 5.1601,17.0055 7.0766,17.0055 C8.4941,17.0055 9.3076,16.042 9.9641,14.8455 L12.4316,16.224 C11.1196,18.645 9.4656,19.6335 6.9721,19.6075 C3.2701,19.6075 1.0391,16.875 1.0391,12.5805 C1.0391,8.287 3.2701,5.5545 6.9721,5.5545 C9.5446,5.5545 11.5921,6.9075 12.3531,9.172 L9.6496,10.2125 Z" id="Fill-1" fill="#FFFFFF"></path>
                        <path d="M20.2287,5.55455 C23.9302,5.55455 26.1617,8.28655 26.1617,12.58055 C26.1617,16.87505 23.9302,19.60755 20.2287,19.60755 C16.5272,19.60755 14.2962,16.87505 14.2962,12.58055 C14.2962,8.28655 16.5272,5.55455 20.2287,5.55455 M20.2287,8.15705 C18.4177,8.15705 17.5512,9.56205 17.5512,12.58055 C17.5512,15.60005 18.4177,17.00505 20.2287,17.00505 C22.0402,17.00505 22.9062,15.60005 22.9062,12.58055 C22.9062,9.56205 22.0402,8.15705 20.2287,8.15705" id="Fill-3" fill="#FFFFFF"></path>
                        <path d="M50.4445,19.3473 L50.2345,18.1763 C48.922,19.0613 47.6875,19.6078 45.9815,19.6078 C43.514,19.6078 42.28,17.8643 42.28,16.0158 C42.28,12.9448 44.8,11.3323 50.103,10.7073 L50.103,9.5623 C50.103,8.5213 49.263,7.9483 48.108,7.9483 C46.5855,7.9483 45.745,8.7553 45.1155,9.6138 L43.015,8.0263 C43.8555,6.5958 46.1125,5.5023 48.108,5.5548 C51.783,5.6323 53.358,6.9598 53.358,11.0198 L53.358,17.3958 C53.358,18.0718 53.411,18.7493 53.6205,19.3473 L50.4445,19.3473 Z M50.103,12.8673 C47.924,13.2838 45.5355,13.7258 45.5355,15.6258 C45.5355,16.6408 46.192,17.2133 47.1105,17.2133 C48.134,17.2133 49.4205,16.3548 50.103,15.7818 L50.103,12.8673 Z" id="Fill-5" fill="#FFFFFF"></path>
                        <path d="M56.74455,0.5577 L60.00005,0.5577 L60.00005,7.0632 L60.05255,7.0632 C60.70855,6.2047 62.25805,5.5547 63.35955,5.5547 C66.87755,5.5547 68.82005,8.8857 68.82005,12.2162 C68.82005,16.4327 66.98255,19.6077 63.35955,19.6077 C61.89055,19.6077 60.81355,19.0092 59.65855,17.8902 L59.29155,19.3472 L56.74455,19.3472 L56.74455,0.5577 Z M60.00005,15.8082 C60.68205,16.3287 61.12855,17.0057 62.52005,17.0057 C64.46255,17.0057 65.56505,15.4437 65.56505,12.5807 C65.56505,9.7182 64.46255,8.1567 62.52005,8.1567 C61.47055,8.1567 60.65605,8.7032 60.00005,9.3017 L60.00005,15.8082 Z" id="Fill-7" fill="#FFFFFF"></path>
                        <polygon id="Fill-9" fill="#FFFFFF" points="26.34005 22.70175 31.19105 0.10825 34.94805 0.10825 30.09755 22.70175"></polygon>
                        <polygon id="Fill-11" fill="#FFFFFF" points="33.67305 22.70175 38.52355 0.10825 42.28055 0.10825 37.42955 22.70175"></polygon>
                        <path d="M22.34005,1.62805 C22.32505,1.59955 22.30955,1.57205 22.29355,1.54505 C22.27755,1.51805 22.26105,1.49255 22.24355,1.46805 C22.22555,1.44355 22.20705,1.42005 22.18705,1.39855 C22.16705,1.37655 22.14505,1.35655 22.12155,1.33805 C22.09805,1.31955 22.07255,1.30305 22.04505,1.28805 C22.01705,1.27355 21.98705,1.26105 21.95455,1.25055 C21.92155,1.24055 21.88555,1.23205 21.84705,1.22705 C21.80805,1.22155 21.76605,1.21855 21.72005,1.21855 C21.66755,1.21855 21.61855,1.22305 21.57305,1.23205 C21.52755,1.24105 21.48505,1.25405 21.44605,1.27205 C21.40705,1.28955 21.37155,1.31205 21.33955,1.33905 C21.30755,1.36605 21.27805,1.39755 21.25255,1.43355 C21.22705,1.47005 21.20455,1.51105 21.18555,1.55655 C21.16655,1.60255 21.15055,1.65305 21.13805,1.70855 C21.12505,1.76355 21.11555,1.82405 21.10955,1.88905 C21.10305,1.95455 21.10005,2.02455 21.10005,2.09955 C21.10005,2.17505 21.10305,2.24505 21.10955,2.31005 C21.11605,2.37555 21.12555,2.43555 21.13805,2.49105 C21.15105,2.54655 21.16705,2.59705 21.18655,2.64255 C21.20605,2.68855 21.22955,2.72955 21.25605,2.76555 C21.28205,2.80205 21.31205,2.83355 21.34555,2.86055 C21.37905,2.88755 21.41605,2.90955 21.45655,2.92755 C21.49705,2.94555 21.54155,2.95905 21.58955,2.96755 C21.63755,2.97655 21.68955,2.98105 21.74505,2.98105 C21.78605,2.98105 21.82455,2.97805 21.86105,2.97205 C21.89805,2.96655 21.93305,2.95805 21.96605,2.94705 C21.99905,2.93655 22.03005,2.92305 22.06005,2.90755 C22.09005,2.89205 22.11805,2.87505 22.14455,2.85555 C22.17155,2.83605 22.19705,2.81455 22.22155,2.79155 C22.24605,2.76905 22.26855,2.74455 22.29105,2.71855 C22.31305,2.69305 22.33405,2.66605 22.35455,2.63805 C22.37505,2.60955 22.39455,2.58055 22.41355,2.55055 L22.48505,2.58505 L22.55655,2.61955 L22.62755,2.65405 L22.69905,2.68805 L22.77055,2.72255 L22.84155,2.75705 L22.91305,2.79105 L22.98455,2.82605 C22.94655,2.88605 22.90755,2.94155 22.86655,2.99305 C22.82605,3.04505 22.78405,3.09205 22.74005,3.13505 C22.69605,3.17855 22.65055,3.21755 22.60305,3.25255 C22.55605,3.28705 22.50655,3.31805 22.45505,3.34555 C22.40355,3.37255 22.35005,3.39605 22.29405,3.41605 C22.23805,3.43555 22.17955,3.45155 22.11905,3.46405 C22.05805,3.47705 21.99455,3.48605 21.92805,3.49205 C21.86155,3.49805 21.79255,3.50055 21.72005,3.50005 C21.61305,3.50005 21.51105,3.49155 21.41505,3.47455 C21.31905,3.45805 21.22805,3.43355 21.14355,3.40105 C21.05905,3.36905 20.98105,3.32905 20.90855,3.28255 C20.83655,3.23555 20.77055,3.18105 20.71155,3.12055 C20.65255,3.05955 20.60005,2.99255 20.55505,2.91855 C20.50955,2.84505 20.47105,2.76505 20.44005,2.67955 C20.40955,2.59355 20.38555,2.50255 20.37005,2.40555 C20.35405,2.30855 20.34605,2.20655 20.34605,2.09955 C20.34605,1.99305 20.35405,1.89055 20.37005,1.79405 C20.38555,1.69755 20.40955,1.60605 20.44005,1.52055 C20.47105,1.43455 20.50955,1.35455 20.55505,1.28105 C20.60005,1.20755 20.65255,1.14005 20.71155,1.07905 C20.77055,1.01855 20.83655,0.96455 20.90855,0.91755 C20.98105,0.87055 21.05905,0.83055 21.14355,0.79855 C21.22805,0.76605 21.31905,0.74205 21.41505,0.72505 C21.51105,0.70855 21.61305,0.70005 21.72005,0.70005 C21.79455,0.70005 21.86705,0.70405 21.93755,0.71255 C22.00755,0.72105 22.07605,0.73305 22.14155,0.74905 C22.20655,0.76555 22.26955,0.78555 22.32955,0.80905 C22.38955,0.83305 22.44655,0.86055 22.50055,0.89155 C22.55405,0.92205 22.60455,0.95705 22.65155,0.99455 C22.69855,1.03255 22.74155,1.07355 22.78105,1.11805 C22.82005,1.16255 22.85555,1.21005 22.88655,1.26055 C22.91755,1.31105 22.94405,1.36455 22.96655,1.42055 L22.88805,1.44705 L22.80955,1.47255 L22.73155,1.49855 L22.65305,1.52455 L22.57505,1.55055 L22.49655,1.57605 L22.41855,1.60205 L22.34005,1.62805 Z" id="Fill-13" fill="#FFFFFF"></path>
                        <path d="M24.60885,2.20345 C24.61035,2.27345 24.61635,2.33845 24.62585,2.39745 C24.63585,2.45745 24.64935,2.51145 24.66635,2.56145 C24.68335,2.61045 24.70385,2.65545 24.72785,2.69545 C24.75135,2.73545 24.77835,2.77095 24.80735,2.80245 C24.83735,2.83345 24.86935,2.85995 24.90335,2.88245 C24.93735,2.90495 24.97385,2.92345 25.01185,2.93795 C25.05035,2.95295 25.09035,2.96345 25.13185,2.97045 C25.17285,2.97745 25.21585,2.98095 25.25935,2.98095 C25.30335,2.98095 25.34385,2.97895 25.38235,2.97445 C25.42035,2.97095 25.45635,2.96445 25.48985,2.95695 C25.52335,2.94945 25.55485,2.93945 25.58485,2.92845 C25.61435,2.91745 25.64285,2.90445 25.66985,2.89045 C25.69635,2.87595 25.72235,2.86045 25.74685,2.84345 C25.77185,2.82645 25.79585,2.80795 25.81935,2.78845 C25.84285,2.76945 25.86585,2.74895 25.88885,2.72695 C25.91185,2.70545 25.93485,2.68295 25.95835,2.65995 L26.02585,2.69595 L26.09335,2.73245 L26.16135,2.76845 L26.22885,2.80495 L26.29685,2.84145 L26.36435,2.87745 L26.43235,2.91395 L26.49985,2.95045 C26.46385,2.99795 26.42585,3.04295 26.38535,3.08395 C26.34535,3.12545 26.30285,3.16345 26.25785,3.19795 C26.21285,3.23295 26.16635,3.26445 26.11685,3.29295 C26.06735,3.32145 26.01535,3.34695 25.96135,3.36895 C25.90735,3.39145 25.85035,3.41095 25.79135,3.42745 C25.73235,3.44345 25.67035,3.45745 25.60585,3.46795 C25.54135,3.47895 25.47435,3.48695 25.40435,3.49195 C25.33485,3.49745 25.26235,3.49995 25.18685,3.49995 C25.08535,3.49995 24.98835,3.49145 24.89635,3.47495 C24.80435,3.45845 24.71785,3.43345 24.63685,3.40145 C24.55535,3.36945 24.47985,3.32945 24.41035,3.28245 C24.34035,3.23545 24.27635,3.18145 24.21935,3.12045 C24.16185,3.05945 24.11085,2.99245 24.06635,2.91895 C24.02235,2.84495 23.98435,2.76495 23.95435,2.67945 C23.92385,2.59345 23.90085,2.50245 23.88535,2.40545 C23.86935,2.30845 23.86135,2.20645 23.86135,2.09995 C23.86135,1.99295 23.86935,1.89095 23.88535,1.79395 C23.90085,1.69745 23.92435,1.60595 23.95485,1.52045 C23.98535,1.43445 24.02335,1.35445 24.06835,1.28095 C24.11335,1.20745 24.16535,1.13995 24.22385,1.07895 C24.28235,1.01845 24.34735,0.96445 24.41885,0.91745 C24.49035,0.87045 24.56835,0.83045 24.65185,0.79845 C24.73585,0.76595 24.82535,0.74195 24.92085,0.72495 C25.01585,0.70845 25.11685,0.699929156 25.22335,0.699929156 C25.32585,0.69945 25.42235,0.70795 25.51335,0.72495 C25.60435,0.74245 25.68935,0.76745 25.76835,0.80045 C25.84735,0.83295 25.92035,0.87295 25.98735,0.91895 C26.05435,0.96495 26.11485,1.01745 26.16885,1.07495 C26.22335,1.13195 26.27085,1.19445 26.31235,1.26095 C26.35335,1.32745 26.38785,1.39795 26.41585,1.47145 C26.44335,1.54495 26.46485,1.62145 26.47885,1.69995 C26.49285,1.77795 26.49985,1.85845 26.49985,1.93945 L26.49985,1.97245 L26.49985,2.00545 L26.49985,2.03845 L26.49985,2.07145 L26.49985,2.10445 L26.49985,2.13745 L26.49985,2.17045 L26.49985,2.20345 L26.26385,2.20345 L26.02735,2.20345 L25.79085,2.20345 L25.55435,2.20345 L25.31785,2.20345 L25.08135,2.20345 L24.84535,2.20345 L24.60885,2.20345 Z M25.81335,1.76745 C25.81185,1.72095 25.80685,1.67695 25.79885,1.63545 C25.79085,1.59345 25.77985,1.55495 25.76535,1.51795 C25.75085,1.48195 25.73335,1.44795 25.71285,1.41695 C25.69285,1.38645 25.66935,1.35795 25.64335,1.33295 C25.61785,1.30745 25.58885,1.28545 25.55735,1.26595 C25.52585,1.24645 25.49235,1.23045 25.45635,1.21745 C25.41985,1.20395 25.38085,1.19395 25.34035,1.18745 C25.29935,1.18095 25.25635,1.17745 25.21135,1.17745 C25.16585,1.17745 25.12285,1.18095 25.08185,1.18745 C25.04085,1.19395 25.00235,1.20395 24.96635,1.21745 C24.92985,1.23045 24.89635,1.24645 24.86485,1.26595 C24.83385,1.28545 24.80485,1.30745 24.77885,1.33295 C24.75335,1.35795 24.72985,1.38645 24.70935,1.41695 C24.68935,1.44795 24.67135,1.48195 24.65735,1.51795 C24.64285,1.55495 24.63135,1.59345 24.62335,1.63545 C24.61535,1.67695 24.61035,1.72095 24.60885,1.76745 L24.75935,1.76745 L24.90985,1.76745 L25.06035,1.76745 L25.21135,1.76745 L25.36185,1.76745 L25.51235,1.76745 L25.66285,1.76745 L25.81335,1.76745 Z" id="Fill-15" fill="#FFFFFF"></path>
                        <g id="Group-19" transform="translate(0.000000, 0.201750)">
                            <mask id="mask-2" fill="white">
                                <use xlink:href="#path-1"></use>
                            </mask>
                            <g id="Clip-18"></g>
                            <path d="M1.7199,1.26025 C1.7014,1.24275 1.6824,1.22525 1.6629,1.20825 C1.6434,1.19075 1.6229,1.17375 1.6019,1.15675 C1.5809,1.14025 1.5589,1.12425 1.5369,1.10875 C1.5144,1.09375 1.4914,1.07925 1.4679,1.06575 C1.4439,1.05225 1.4194,1.03975 1.3949,1.02925 C1.3699,1.01825 1.3444,1.00875 1.3179,1.00025 C1.2919,0.99275 1.2649,0.98675 1.2379,0.98225 C1.2104,0.97825 1.1829,0.97575 1.1544,0.97575 C1.1194,0.97575 1.0864,0.97725 1.0564,0.98025 C1.0264,0.98375 0.9984,0.98825 0.9724,0.99425 C0.9469,1.00025 0.9234,1.00825 0.9024,1.01675 C0.8809,1.02575 0.8624,1.03575 0.8454,1.04725 C0.8289,1.05875 0.8139,1.07175 0.8019,1.08525 C0.7894,1.09925 0.7789,1.11425 0.7709,1.13075 C0.7624,1.14675 0.7564,1.16375 0.7524,1.18225 C0.7484,1.20025 0.7464,1.21925 0.7464,1.23925 C0.7464,1.29725 0.7704,1.34475 0.8114,1.38525 C0.8529,1.42625 0.9119,1.46025 0.9829,1.49075 C1.0539,1.52175 1.1369,1.54975 1.2259,1.57825 C1.3144,1.60625 1.4094,1.63525 1.5039,1.66775 C1.5984,1.70075 1.6934,1.73825 1.7824,1.78275 C1.8709,1.82725 1.9539,1.87975 2.0249,1.94325 C2.0954,2.00725 2.1549,2.08225 2.1964,2.17175 C2.2379,2.26175 2.2614,2.36625 2.2614,2.48925 C2.2614,2.55975 2.2539,2.62475 2.2399,2.68475 C2.2254,2.74525 2.2044,2.80125 2.1774,2.85225 C2.1499,2.90325 2.1159,2.94925 2.0769,2.99125 C2.0379,3.03325 1.9934,3.07075 1.9434,3.10375 C1.8939,3.13675 1.8394,3.16575 1.7804,3.18975 C1.7214,3.21425 1.6579,3.23425 1.5909,3.25025 C1.5239,3.26675 1.4529,3.27875 1.3789,3.28625 C1.3054,3.29425 1.2284,3.29825 1.1489,3.29825 C1.0884,3.29825 1.0294,3.29525 0.9714,3.28925 C0.9139,3.28325 0.8574,3.27425 0.8029,3.26275 C0.7484,3.25075 0.6949,3.23625 0.6434,3.21875 C0.5919,3.20125 0.5419,3.18125 0.4934,3.15825 C0.4454,3.13525 0.3989,3.10925 0.3544,3.08125 C0.3094,3.05225 0.2659,3.02125 0.2249,2.98725 C0.1834,2.95375 0.1444,2.91675 0.1064,2.87775 C0.0694,2.83875 0.0334,2.79725 -0.0001,2.75325 L0.0604,2.71275 L0.1209,2.67275 L0.1814,2.63275 L0.2419,2.59275 L0.3029,2.55225 L0.3634,2.51225 L0.4239,2.47225 L0.4844,2.43225 C0.5054,2.45825 0.5274,2.48375 0.5504,2.50825 C0.5734,2.53325 0.5974,2.55725 0.6224,2.58025 C0.6474,2.60375 0.6734,2.62525 0.6999,2.64625 C0.7274,2.66675 0.7554,2.68675 0.7844,2.70425 C0.8134,2.72225 0.8439,2.73825 0.8749,2.75275 C0.9064,2.76675 0.9389,2.77925 0.9724,2.78925 C1.0064,2.79925 1.0414,2.80725 1.0774,2.81275 C1.1134,2.81775 1.1509,2.82075 1.1894,2.82075 C1.2214,2.82075 1.2519,2.81875 1.2814,2.81525 C1.3109,2.81125 1.3389,2.80575 1.3649,2.79875 C1.3914,2.79125 1.4159,2.78225 1.4389,2.77175 C1.4614,2.76125 1.4824,2.74975 1.5014,2.73625 C1.5204,2.72275 1.5374,2.70775 1.5524,2.69175 C1.5669,2.67575 1.5794,2.65775 1.5899,2.63975 C1.5999,2.62075 1.6079,2.60125 1.6129,2.58075 C1.6184,2.55975 1.6209,2.53825 1.6209,2.51525 C1.6209,2.45775 1.5974,2.40975 1.5559,2.36825 C1.5144,2.32675 1.4554,2.29175 1.3844,2.25975 C1.3134,2.22725 1.2304,2.19825 1.1414,2.16925 C1.0529,2.13975 0.9579,2.11025 0.8634,2.07675 C0.7684,2.04325 0.6739,2.00625 0.5849,1.96225 C0.4959,1.91775 0.4129,1.86675 0.3419,1.80525 C0.2709,1.74325 0.2119,1.67075 0.1704,1.58475 C0.1289,1.49875 0.1054,1.39875 0.1054,1.28125 C0.1054,1.21875 0.1129,1.15925 0.1264,1.10375 C0.1409,1.04775 0.1614,0.99575 0.1879,0.94725 C0.2144,0.89825 0.2469,0.85375 0.2839,0.81275 C0.3214,0.77175 0.3634,0.73475 0.4099,0.70125 C0.4559,0.66775 0.5064,0.63875 0.5599,0.61375 C0.6134,0.58825 0.6704,0.56725 0.7299,0.55025 C0.7889,0.53275 0.8509,0.52025 0.9139,0.51125 C0.9774,0.50275 1.0419,0.49825 1.1074,0.49825 C1.1574,0.49825 1.2079,0.50025 1.2579,0.50475 C1.3079,0.50875 1.3579,0.51525 1.4069,0.52375 C1.4564,0.53225 1.5049,0.54275 1.5529,0.55525 C1.6004,0.56825 1.6474,0.58325 1.6934,0.60025 C1.7394,0.61725 1.7839,0.63625 1.8274,0.65725 C1.8709,0.67875 1.9134,0.70225 1.9534,0.72825 C1.9939,0.75375 2.0329,0.78125 2.0699,0.81175 C2.1064,0.84175 2.1419,0.87375 2.1744,0.90775 L2.1174,0.95225 L2.0609,0.99625 L2.0039,1.04025 L1.9474,1.08425 L1.8904,1.12825 L1.8339,1.17225 L1.7769,1.21625 L1.7199,1.26025 Z" id="Fill-17" fill="#FFFFFF" mask="url(#mask-2)"></path>
                        </g>
                        <path d="M5.65375,0.70005 L5.65375,1.04355 L5.65375,1.38655 L5.65375,1.73005 L5.65375,2.07355 L5.65375,2.41655 L5.65375,2.76005 L5.65375,3.10355 L5.65375,3.44655 L5.56625,3.44655 L5.47825,3.44655 L5.39025,3.44655 L5.30225,3.44655 L5.21475,3.44655 L5.12675,3.44655 L5.03925,3.44655 L4.95125,3.44655 L4.95125,3.40955 L4.95125,3.37305 L4.95125,3.33555 L4.95125,3.29905 L4.95125,3.26205 L4.95125,3.22505 L4.95125,3.18805 L4.95125,3.15105 C4.91575,3.17205 4.87975,3.19355 4.84275,3.21455 C4.80625,3.23555 4.76875,3.25655 4.73025,3.27705 C4.69225,3.29705 4.65375,3.31705 4.61375,3.33555 C4.57425,3.35455 4.53375,3.37255 4.49275,3.38905 C4.45175,3.40555 4.41025,3.42055 4.36775,3.43405 C4.32525,3.44755 4.28175,3.45955 4.23775,3.46955 C4.19375,3.47905 4.14925,3.48655 4.10375,3.49205 C4.05825,3.49705 4.01175,3.50005 3.96475,3.50005 C3.88475,3.50005 3.80975,3.49455 3.73975,3.48355 C3.67025,3.47255 3.60525,3.45605 3.54575,3.43505 C3.48625,3.41405 3.43225,3.38755 3.38275,3.35655 C3.33325,3.32555 3.28925,3.29005 3.24975,3.25055 C3.21025,3.21055 3.17625,3.16605 3.14675,3.11755 C3.11725,3.06905 3.09325,3.01655 3.07375,2.96055 C3.05425,2.90455 3.03925,2.84455 3.02975,2.78105 C3.02025,2.71755 3.01525,2.65055 3.01525,2.58105 L3.01525,2.34605 L3.01525,2.11055 L3.01525,1.87555 L3.01525,1.64055 L3.01525,1.40555 L3.01525,1.17005 L3.01525,0.93505 L3.01525,0.70005 L3.11125,0.70005 L3.20625,0.70005 L3.30175,0.70005 L3.39725,0.70005 L3.49275,0.70005 L3.58875,0.70005 L3.68425,0.70005 L3.77925,0.70005 L3.77925,0.92305 L3.77925,1.14655 L3.77925,1.36955 L3.77925,1.59305 L3.77925,1.81605 L3.77925,2.03955 L3.77925,2.26255 L3.77925,2.48605 C3.77925,2.53205 3.78175,2.57455 3.78575,2.61305 C3.78975,2.65155 3.79625,2.68605 3.80475,2.71755 C3.81325,2.74905 3.82375,2.77705 3.83625,2.80155 C3.84875,2.82655 3.86325,2.84805 3.87975,2.86705 C3.89625,2.88605 3.91475,2.90155 3.93525,2.91505 C3.95575,2.92855 3.97875,2.93905 4.00325,2.94705 C4.02775,2.95555 4.05425,2.96155 4.08275,2.96555 C4.11125,2.96955 4.14175,2.97105 4.17425,2.97105 C4.21575,2.97105 4.25625,2.96855 4.29525,2.96355 C4.33425,2.95905 4.37225,2.95205 4.40825,2.94355 C4.44475,2.93505 4.47925,2.92455 4.51275,2.91255 C4.54625,2.90105 4.57775,2.88755 4.60825,2.87355 C4.63825,2.85955 4.66725,2.84455 4.69425,2.82855 C4.72125,2.81255 4.74675,2.79655 4.76975,2.78005 C4.79325,2.76305 4.81525,2.74655 4.83525,2.73005 C4.85525,2.71305 4.87325,2.69705 4.88925,2.68105 L4.88925,2.43305 L4.88925,2.18555 L4.88925,1.93805 L4.88925,1.69055 L4.88925,1.44305 L4.88925,1.19505 L4.88925,0.94755 L4.88925,0.70005 L4.98525,0.70005 L5.08075,0.70005 L5.17625,0.70005 L5.27175,0.70005 L5.36725,0.70005 L5.46275,0.70005 L5.55825,0.70005 L5.65375,0.70005 Z" id="Fill-20" fill="#FFFFFF"></path>
                        <path d="M6.5307,3.5001 L6.5307,3.1566 L6.5307,2.8131 L6.5307,2.4696 L6.5307,2.1266 L6.5307,1.7831 L6.5307,1.4396 L6.5307,1.0966 L6.5307,0.7531 L6.6187,0.7531 L6.7067,0.7531 L6.7942,0.7531 L6.8822,0.7531 L6.9702,0.7531 L7.0582,0.7531 L7.1457,0.7531 L7.2337,0.7531 L7.2337,0.7901 L7.2337,0.8271 L7.2337,0.8641 L7.2337,0.9011 L7.2337,0.9381 L7.2337,0.9751 L7.2337,1.0121 L7.2337,1.0491 C7.2692,1.0281 7.3052,1.0066 7.3422,0.9851 C7.3787,0.9641 7.4162,0.9436 7.4547,0.9231 C7.4927,0.9026 7.5317,0.8831 7.5712,0.8641 C7.6107,0.8451 7.6512,0.8276 7.6922,0.8111 C7.7332,0.7946 7.7752,0.7791 7.8172,0.7656 C7.8602,0.7521 7.9032,0.7406 7.9472,0.7306 C7.9912,0.7211 8.0357,0.7131 8.0817,0.7081 C8.1267,0.7026 8.1732,0.7001 8.2202,0.7001 C8.3002,0.7001 8.3752,0.7056 8.4452,0.7166 C8.5147,0.7276 8.5797,0.7436 8.6392,0.7651 C8.6982,0.7861 8.7527,0.8126 8.8022,0.8436 C8.8517,0.8741 8.8957,0.9096 8.9352,0.9496 C8.9747,0.9896 9.0087,1.0341 9.0382,1.0826 C9.0672,1.1306 9.0917,1.1831 9.1112,1.2396 C9.1307,1.2956 9.1452,1.3556 9.1547,1.4186 C9.1647,1.4821 9.1692,1.5491 9.1692,1.6186 L9.1692,1.8541 L9.1692,2.0891 L9.1692,2.3241 L9.1692,2.5596 L9.1692,2.7946 L9.1692,3.0296 L9.1692,3.2646 L9.1692,3.5001 L9.0737,3.5001 L8.9782,3.5001 L8.8827,3.5001 L8.7872,3.5001 L8.6917,3.5001 L8.5962,3.5001 L8.5007,3.5001 L8.4052,3.5001 L8.4052,3.2766 L8.4052,3.0536 L8.4052,2.8306 L8.4052,2.6071 L8.4052,2.3841 L8.4052,2.1606 L8.4052,1.9376 L8.4052,1.7141 C8.4052,1.6681 8.4032,1.6256 8.3987,1.5871 C8.3947,1.5486 8.3882,1.5136 8.3802,1.4826 C8.3717,1.4511 8.3612,1.4231 8.3487,1.3981 C8.3362,1.3736 8.3217,1.3516 8.3047,1.3331 C8.2882,1.3141 8.2697,1.2981 8.2492,1.2846 C8.2287,1.2711 8.2062,1.2606 8.1812,1.2526 C8.1567,1.2441 8.1302,1.2381 8.1017,1.2341 C8.0732,1.2301 8.0427,1.2286 8.0107,1.2286 C7.9692,1.2286 7.9287,1.2311 7.8897,1.2361 C7.8507,1.2406 7.8127,1.2476 7.7767,1.2561 C7.7402,1.2646 7.7057,1.2751 7.6722,1.2871 C7.6387,1.2991 7.6072,1.3126 7.5767,1.3266 C7.5467,1.3406 7.5177,1.3556 7.4907,1.3716 C7.4637,1.3876 7.4382,1.4041 7.4152,1.4206 C7.3912,1.4371 7.3697,1.4541 7.3497,1.4706 C7.3297,1.4871 7.3117,1.5036 7.2952,1.5196 L7.2952,1.7671 L7.2952,2.0146 L7.2952,2.2621 L7.2952,2.5096 L7.2952,2.7571 L7.2952,3.0051 L7.2952,3.2526 L7.2952,3.5001 L7.1997,3.5001 L7.1042,3.5001 L7.0087,3.5001 L6.9132,3.5001 L6.8172,3.5001 L6.7217,3.5001 L6.6262,3.5001 L6.5307,3.5001 Z" id="Fill-22" fill="#FFFFFF"></path>
                        <path d="M15.33805,3.4476 L15.33205,3.4186 L15.32555,3.3891 L15.31955,3.3606 L15.31305,3.3311 L15.30705,3.3021 L15.30105,3.2731 L15.29455,3.2441 L15.28855,3.2151 C15.25005,3.2371 15.21255,3.2576 15.17455,3.2776 C15.13705,3.2976 15.09905,3.3161 15.06105,3.3336 C15.02305,3.3511 14.98455,3.3676 14.94605,3.3826 C14.90755,3.3971 14.86855,3.4111 14.82805,3.4236 C14.78855,3.4356 14.74755,3.4466 14.70655,3.4561 C14.66505,3.4656 14.62205,3.4736 14.57855,3.4801 C14.53505,3.4866 14.49005,3.4916 14.44305,3.4951 C14.39705,3.4981 14.34905,3.5001 14.29955,3.5001 C14.22755,3.5001 14.16055,3.4946 14.09755,3.4846 C14.03505,3.4741 13.97655,3.4591 13.92255,3.4396 C13.86905,3.4206 13.81955,3.3971 13.77505,3.3706 C13.73005,3.3436 13.68955,3.3131 13.65355,3.2801 C13.61755,3.2471 13.58655,3.2106 13.55955,3.1726 C13.53255,3.1341 13.51005,3.0936 13.49205,3.0516 C13.47405,3.0096 13.46105,2.9656 13.45205,2.9206 C13.44305,2.8761 13.43855,2.8306 13.43855,2.7841 C13.43855,2.7081 13.44755,2.6361 13.46605,2.5686 C13.48455,2.5006 13.51205,2.4376 13.54905,2.3786 C13.58655,2.3196 13.63305,2.2646 13.68905,2.2136 C13.74505,2.1626 13.81055,2.1156 13.88555,2.0726 C13.96105,2.0296 14.04605,1.9901 14.14005,1.9551 C14.23455,1.9191 14.33905,1.8871 14.45305,1.8586 C14.56755,1.8301 14.69155,1.8046 14.82555,1.7831 C14.95955,1.7611 15.10355,1.7426 15.25805,1.7271 L15.25805,1.6986 L15.25805,1.6701 L15.25805,1.6416 L15.25805,1.6131 L15.25805,1.5841 L15.25805,1.5556 L15.25805,1.5276 L15.25805,1.4986 C15.25805,1.4726 15.25455,1.4481 15.24905,1.4256 C15.24305,1.4026 15.23405,1.3811 15.22305,1.3611 C15.21205,1.3411 15.19805,1.3226 15.18205,1.3061 C15.16605,1.2891 15.14705,1.2741 15.12655,1.2601 C15.10605,1.2471 15.08355,1.2351 15.05905,1.2246 C15.03455,1.2141 15.00805,1.2056 14.98005,1.1986 C14.95205,1.1916 14.92205,1.1866 14.89155,1.1831 C14.86055,1.1796 14.82805,1.1776 14.79455,1.1776 C14.75055,1.1776 14.70855,1.1801 14.66905,1.1851 C14.62955,1.1896 14.59205,1.1966 14.55705,1.2056 C14.52155,1.2141 14.48855,1.2251 14.45705,1.2376 C14.42605,1.2496 14.39655,1.2636 14.36855,1.2791 C14.34055,1.2946 14.31455,1.3116 14.28955,1.3291 C14.26505,1.3466 14.24155,1.3656 14.21905,1.3851 C14.19655,1.4046 14.17555,1.4251 14.15555,1.4456 C14.13555,1.4666 14.11655,1.4876 14.09805,1.5091 L14.03705,1.4696 L13.97555,1.4301 L13.91455,1.3906 L13.85355,1.3511 L13.79255,1.3116 L13.73155,1.2721 L13.67055,1.2326 L13.60905,1.1931 C13.63355,1.1576 13.66305,1.1231 13.69705,1.0896 C13.73105,1.0566 13.76955,1.0246 13.81155,0.9941 C13.85355,0.9641 13.89955,0.9356 13.94755,0.9091 C13.99605,0.8826 14.04755,0.8581 14.10105,0.8361 C14.15455,0.8136 14.21005,0.7936 14.26705,0.7766 C14.32405,0.7596 14.38205,0.7446 14.44105,0.7331 C14.50005,0.7211 14.55905,0.7126 14.61855,0.7071 C14.67755,0.7011 14.73655,0.6991 14.79455,0.7001 C14.90155,0.7026 15.00055,0.7081 15.09255,0.7186 C15.18405,0.7291 15.26855,0.7436 15.34605,0.7636 C15.42305,0.7831 15.49355,0.8081 15.55655,0.8386 C15.61955,0.8691 15.67605,0.9056 15.72555,0.9476 C15.77555,0.9896 15.81805,1.0386 15.85505,1.0936 C15.89105,1.1486 15.92155,1.2106 15.94505,1.2801 C15.96905,1.3496 15.98655,1.4266 15.99855,1.5106 C16.01005,1.5956 16.01555,1.6881 16.01555,1.7891 L16.01555,1.9476 L16.01555,2.1066 L16.01555,2.2656 L16.01555,2.4241 L16.01555,2.5831 L16.01555,2.7416 L16.01555,2.9006 L16.01555,3.0596 C16.01555,3.0761 16.01605,3.0931 16.01655,3.1096 C16.01705,3.1266 16.01755,3.1431 16.01855,3.1601 C16.01955,3.1766 16.02055,3.1931 16.02255,3.2096 C16.02405,3.2266 16.02555,3.2431 16.02805,3.2596 C16.03005,3.2756 16.03305,3.2916 16.03605,3.3081 C16.03905,3.3241 16.04255,3.3401 16.04655,3.3556 C16.05055,3.3716 16.05505,3.3871 16.06005,3.4021 C16.06555,3.4176 16.07055,3.4326 16.07705,3.4476 L15.98455,3.4476 L15.89205,3.4476 L15.79955,3.4476 L15.70755,3.4476 L15.61505,3.4476 L15.52305,3.4476 L15.43055,3.4476 L15.33805,3.4476 Z M15.25805,2.1571 C15.19455,2.1676 15.13055,2.1781 15.06705,2.1891 C15.00305,2.2001 14.94005,2.2121 14.87855,2.2251 C14.81655,2.2381 14.75655,2.2516 14.69955,2.2676 C14.64205,2.2836 14.58755,2.3016 14.53655,2.3211 C14.48605,2.3411 14.43955,2.3636 14.39855,2.3881 C14.35705,2.4136 14.32055,2.4416 14.29055,2.4731 C14.26055,2.5041 14.23655,2.5391 14.22055,2.5781 C14.20455,2.6166 14.19555,2.6596 14.19555,2.7066 C14.19555,2.7321 14.19805,2.7556 14.20255,2.7781 C14.20705,2.8006 14.21405,2.8216 14.22305,2.8411 C14.23155,2.8606 14.24255,2.8786 14.25505,2.8956 C14.26805,2.9121 14.28255,2.9266 14.29855,2.9401 C14.31505,2.9536 14.33305,2.9656 14.35205,2.9761 C14.37155,2.9861 14.39255,2.9946 14.41455,3.0016 C14.43705,3.0086 14.46055,3.0136 14.48505,3.0176 C14.50955,3.0206 14.53555,3.0226 14.56205,3.0226 C14.59205,3.0226 14.62255,3.0201 14.65405,3.0151 C14.68505,3.0101 14.71705,3.0031 14.74905,2.9941 C14.78105,2.9856 14.81355,2.9746 14.84505,2.9626 C14.87755,2.9506 14.90905,2.9371 14.94005,2.9231 C14.97155,2.9086 15.00155,2.8936 15.03105,2.8781 C15.06055,2.8626 15.08905,2.8466 15.11605,2.8306 C15.14305,2.8141 15.16855,2.7986 15.19255,2.7826 C15.21605,2.7671 15.23805,2.7521 15.25805,2.7376 L15.25805,2.6651 L15.25805,2.5926 L15.25805,2.5201 L15.25805,2.4476 L15.25805,2.3746 L15.25805,2.3021 L15.25805,2.2296 L15.25805,2.1571 Z" id="Fill-24" fill="#FFFFFF"></path>
                        <path d="M16.83075,3.5001 L16.83075,3.1566 L16.83075,2.8131 L16.83075,2.4696 L16.83075,2.1266 L16.83075,1.7831 L16.83075,1.4396 L16.83075,1.0966 L16.83075,0.7531 L16.91875,0.7531 L17.00675,0.7531 L17.09425,0.7531 L17.18225,0.7531 L17.26975,0.7531 L17.35775,0.7531 L17.44525,0.7531 L17.53325,0.7531 L17.53325,0.7901 L17.53325,0.8271 L17.53325,0.8641 L17.53325,0.9011 L17.53325,0.9381 L17.53325,0.9751 L17.53325,1.0121 L17.53325,1.0491 C17.56875,1.0281 17.60475,1.0066 17.64175,0.9851 C17.67875,0.9641 17.71625,0.9436 17.75425,0.9231 C17.79275,0.9026 17.83125,0.8831 17.87125,0.8641 C17.91075,0.8451 17.95125,0.8276 17.99225,0.8111 C18.03325,0.7946 18.07475,0.7791 18.11725,0.7656 C18.16025,0.7521 18.20325,0.7406 18.24725,0.7306 C18.29075,0.7211 18.33575,0.7131 18.38175,0.7081 C18.42675,0.7026 18.47325,0.7001 18.52025,0.7001 C18.60025,0.7001 18.67525,0.7056 18.74525,0.7166 C18.81475,0.7276 18.87925,0.7436 18.93875,0.7651 C18.99825,0.7861 19.05275,0.8126 19.10225,0.8436 C19.15175,0.8741 19.19575,0.9096 19.23525,0.9496 C19.27425,0.9896 19.30875,1.0341 19.33825,1.0826 C19.36725,1.1306 19.39175,1.1831 19.41125,1.2396 C19.43075,1.2956 19.44525,1.3556 19.45475,1.4186 C19.46475,1.4821 19.46925,1.5491 19.46925,1.6186 L19.46925,1.8541 L19.46925,2.0891 L19.46925,2.3241 L19.46925,2.5596 L19.46925,2.7946 L19.46925,3.0296 L19.46925,3.2646 L19.46925,3.5001 L19.37375,3.5001 L19.27825,3.5001 L19.18275,3.5001 L19.08725,3.5001 L18.99175,3.5001 L18.89575,3.5001 L18.80025,3.5001 L18.70525,3.5001 L18.70525,3.2766 L18.70525,3.0536 L18.70525,2.8306 L18.70525,2.6071 L18.70525,2.3841 L18.70525,2.1606 L18.70525,1.9376 L18.70525,1.7141 C18.70525,1.6681 18.70275,1.6256 18.69875,1.5871 C18.69475,1.5486 18.68825,1.5136 18.67975,1.4826 C18.67125,1.4511 18.66075,1.4231 18.64825,1.3981 C18.63575,1.3736 18.62125,1.3516 18.60475,1.3331 C18.58825,1.3141 18.56975,1.2981 18.54925,1.2846 C18.52825,1.2711 18.50575,1.2606 18.48125,1.2526 C18.45625,1.2441 18.42975,1.2381 18.40175,1.2341 C18.37275,1.2301 18.34225,1.2286 18.30975,1.2286 C18.26825,1.2286 18.22775,1.2311 18.18925,1.2361 C18.15025,1.2406 18.11225,1.2476 18.07625,1.2561 C18.03975,1.2646 18.00525,1.2751 17.97175,1.2871 C17.93875,1.2991 17.90675,1.3126 17.87675,1.3266 C17.84625,1.3406 17.81775,1.3556 17.79075,1.3716 C17.76375,1.3876 17.73825,1.4041 17.71525,1.4206 C17.69125,1.4371 17.66975,1.4541 17.64975,1.4706 C17.62975,1.4871 17.61175,1.5036 17.59525,1.5196 L17.59525,1.7671 L17.59525,2.0146 L17.59525,2.2621 L17.59525,2.5096 L17.59525,2.7571 L17.59525,3.0051 L17.59525,3.2526 L17.59525,3.5001 L17.49975,3.5001 L17.40425,3.5001 L17.30875,3.5001 L17.21325,3.5001 L17.11725,3.5001 L17.02175,3.5001 L16.92625,3.5001 L16.83075,3.5001 Z" id="Fill-26" fill="#FFFFFF"></path>
                        <path d="M12.56145,3.4459 L12.48645,3.4459 L12.41095,3.4459 L12.33545,3.4459 L12.26045,3.4459 L12.18495,3.4459 L12.10945,3.4459 L12.03445,3.4459 L11.95895,3.4459 L11.95495,3.4089 L11.95045,3.3714 L11.94645,3.3339 L11.94195,3.2969 L11.93745,3.2589 L11.93345,3.2219 L11.92895,3.1849 L11.92495,3.1474 C11.89345,3.1759 11.86195,3.2029 11.83095,3.2284 C11.79995,3.2539 11.76845,3.2774 11.73745,3.2994 C11.70595,3.3209 11.67445,3.3414 11.64295,3.3599 C11.61095,3.3784 11.57895,3.3949 11.54645,3.4099 C11.51395,3.4249 11.48045,3.4374 11.44695,3.4489 C11.41295,3.4604 11.37795,3.4694 11.34245,3.4769 C11.30695,3.4849 11.27045,3.4904 11.23245,3.4944 C11.19495,3.4979 11.15595,3.4999 11.11595,3.4999 C11.01745,3.4999 10.92445,3.4899 10.83745,3.4704 C10.75095,3.4509 10.67045,3.4219 10.59595,3.3844 C10.52145,3.3474 10.45295,3.3014 10.39095,3.2479 C10.32895,3.1949 10.27245,3.1334 10.22295,3.0659 C10.17295,2.9979 10.12945,2.9239 10.09195,2.8429 C10.05445,2.7629 10.02295,2.6764 9.99845,2.5849 C9.97295,2.4934 9.95445,2.3969 9.94195,2.2964 C9.92895,2.1959 9.92295,2.0909 9.92295,1.9829 C9.92295,1.8974 9.92945,1.8114 9.94295,1.7274 C9.95595,1.6434 9.97545,1.5609 10.00145,1.4804 C10.02745,1.4004 10.05945,1.3229 10.09795,1.2494 C10.13645,1.1759 10.18095,1.1069 10.23145,1.0424 C10.28195,0.9784 10.33845,0.9199 10.40095,0.8679 C10.46345,0.8159 10.53145,0.7704 10.60545,0.7329 C10.67945,0.6959 10.75945,0.6664 10.84395,0.6459 C10.92945,0.6259 11.01995,0.6154 11.11595,0.6154 C11.14595,0.6154 11.17795,0.6174 11.21045,0.6214 C11.24345,0.6254 11.27695,0.6314 11.31095,0.6389 C11.34445,0.6464 11.37895,0.6559 11.41345,0.6669 C11.44695,0.6779 11.48095,0.6904 11.51445,0.7044 C11.54745,0.7179 11.57995,0.7334 11.61095,0.7499 C11.64195,0.7664 11.67145,0.7839 11.69895,0.8024 C11.72695,0.8209 11.75295,0.8409 11.77595,0.8614 C11.79995,0.8819 11.82045,0.9034 11.83845,0.9249 L11.83995,0.9249 L11.84145,0.9249 L11.84295,0.9249 L11.84445,0.9249 L11.84595,0.9249 L11.84745,0.9249 L11.84895,0.9249 L11.85045,0.9249 L11.85045,0.8099 L11.85045,0.6939 L11.85045,0.5784 L11.85045,0.4624 L11.85045,0.3469 L11.85045,0.2314 L11.85045,0.1154 L11.85045,-0.0001 L11.93895,-0.0001 L12.02795,-0.0001 L12.11695,-0.0001 L12.20595,-0.0001 L12.29495,-0.0001 L12.38395,-0.0001 L12.47245,-0.0001 L12.56145,-0.0001 L12.56145,0.4309 L12.56145,0.8619 L12.56145,1.2924 L12.56145,1.7229 L12.56145,2.1539 L12.56145,2.5844 L12.56145,3.0154 L12.56145,3.4459 Z M11.85045,1.3844 C11.83245,1.3689 11.81395,1.3539 11.79495,1.3389 C11.77595,1.3244 11.75645,1.3099 11.73595,1.2959 C11.71595,1.2819 11.69545,1.2689 11.67395,1.2564 C11.65245,1.2434 11.63045,1.2319 11.60745,1.2209 C11.58445,1.2104 11.56145,1.2004 11.53695,1.1914 C11.51295,1.1829 11.48845,1.1754 11.46245,1.1689 C11.43695,1.1629 11.41095,1.1579 11.38345,1.1549 C11.35645,1.1514 11.32895,1.1499 11.29995,1.1499 C11.24695,1.1499 11.19695,1.1549 11.14945,1.1649 C11.10245,1.1749 11.05795,1.1894 11.01695,1.2089 C10.97595,1.2284 10.93745,1.2529 10.90295,1.2824 C10.86795,1.3109 10.83645,1.3449 10.80795,1.3834 C10.77995,1.4219 10.75445,1.4649 10.73295,1.5124 C10.71145,1.5599 10.69345,1.6119 10.67895,1.6679 C10.66445,1.7244 10.65295,1.7849 10.64545,1.8499 C10.63795,1.9149 10.63445,1.9844 10.63445,2.0574 C10.63445,2.1309 10.63795,2.2004 10.64545,2.2654 C10.65295,2.3304 10.66445,2.3909 10.67895,2.4474 C10.69345,2.5034 10.71145,2.5554 10.73295,2.6029 C10.75445,2.6504 10.77995,2.6934 10.80795,2.7319 C10.83645,2.7699 10.86795,2.8039 10.90295,2.8329 C10.93745,2.8619 10.97595,2.8864 11.01695,2.9059 C11.05795,2.9254 11.10245,2.9404 11.14945,2.9504 C11.19695,2.9604 11.24695,2.9654 11.29995,2.9654 C11.33795,2.9654 11.37295,2.9629 11.40495,2.9589 C11.43695,2.9549 11.46645,2.9489 11.49345,2.9419 C11.52045,2.9349 11.54545,2.9259 11.56845,2.9159 C11.59195,2.9059 11.61345,2.8944 11.63345,2.8829 C11.65345,2.8709 11.67245,2.8579 11.69095,2.8444 C11.70895,2.8314 11.72695,2.8174 11.74445,2.8034 C11.76145,2.7894 11.77895,2.7754 11.79645,2.7614 C11.81395,2.7474 11.83195,2.7334 11.85045,2.7199 L11.85045,2.5529 L11.85045,2.3859 L11.85045,2.2194 L11.85045,2.0524 L11.85045,1.8854 L11.85045,1.7184 L11.85045,1.5514 L11.85045,1.3844 Z" id="Fill-28" fill="#FFFFFF"></path>
                    </g>
                </g>
            </g>
        </g>
    </g>
</svg>