<?xml version="1.0" encoding="UTF-8"?>
<svg width="21px" height="17px" viewBox="0 0 21 17" version="1.1" xmlns="http://www.w3.org/2000/svg" xmlns:xlink="http://www.w3.org/1999/xlink">
    <title>Fill 1</title>
    <g id="DESKTOP" stroke="none" stroke-width="1" fill="none" fillRule="evenodd">
        <g id="06-CAT-PARTNER" transform="translate(-1577.000000, -8306.000000)" fill="#FFFFFF">
            <g id="Group-11-Copy" transform="translate(0.000000, 7796.000000)">
                <g id="Group-17" transform="translate(0.000000, 392.000000)">
                    <g id="Group-6" transform="translate(1474.000000, 114.005900)">
                        <path d="M103.555,18.8679 C105.396,20.0489 107.583,20.7369 109.932,20.7369 C117.657,20.7369 122.021,14.2129 121.758,8.3609 C122.571,7.7749 123.276,7.0419 123.834,6.2069 C123.088,6.5379 122.285,6.7619 121.445,6.8619 C122.304,6.3479 122.963,5.5329 123.273,4.5599 C122.47,5.0369 121.579,5.3839 120.632,5.5709 C119.873,4.7619 118.792,4.2569 117.595,4.2569 C114.909,4.2569 112.936,6.7629 113.542,9.3659 C110.084,9.1919 107.019,7.5349 104.967,5.0179 C103.877,6.8889 104.402,9.3349 106.255,10.5729 C105.573,10.5519 104.93,10.3639 104.369,10.0529 C104.325,11.9799 105.706,13.7829 107.707,14.1849 C107.121,14.3449 106.479,14.3799 105.828,14.2559 C106.357,15.9089 107.894,17.1109 109.715,17.1449 C107.966,18.5159 105.763,19.1289 103.555,18.8679" id="Fill-1"></path>
                    </g>
                </g>
            </g>
        </g>
    </g>
</svg>