<svg width="38" height="38" viewBox="0 0 38 38" fill="none" xmlns="http://www.w3.org/2000/svg">
<rect width="38" height="38" fill="black"/>
<mask id="mask0" mask-type="alpha" maskUnits="userSpaceOnUse" x="0" y="0" width="38" height="38">
<rect width="38" height="38" fill="white"/>
</mask>
<g mask="url(#mask0)">
<path d="M19.0829 42C13.7677 42 8.45252 42 3.1373 42C1.61502 42 0.620015 41.0811 0.594502 39.6207C0.577493 38.5788 0.568989 37.545 0.611511 36.503C0.662537 35.2724 1.28335 34.3289 2.38892 33.7464C6.02027 31.8347 9.66864 29.9641 13.3 28.0607C13.5636 27.9212 13.7252 28.0525 13.9208 28.151C17.0249 29.718 20.1885 29.8493 23.4202 28.5448C23.5137 28.5119 23.6158 28.4873 23.6923 28.4217C24.3641 27.872 24.968 28.0935 25.6653 28.4627C28.9225 30.1938 32.2051 31.8922 35.4878 33.5823C36.9081 34.3125 37.6054 35.4119 37.5799 36.9625C37.5629 37.8404 37.5799 38.71 37.5799 39.5879C37.5714 41.0401 36.5679 42 35.0711 42C29.7389 42 24.4067 42 19.0829 42Z" fill="white"/>
<path d="M18.3081 27C15.1893 26.8968 12.6021 25.4002 10.6971 22.7426C7.57835 18.3819 7.95047 12.1893 11.5211 8.21571C15.4019 3.90668 21.8344 3.93248 25.6797 8.26732C29.7643 12.8774 29.5073 20.1537 25.0861 24.3337C23.2786 26.0453 21.1167 26.9656 18.3081 27Z" fill="white"/>
</g>
</svg>
