<?xml version="1.0" encoding="UTF-8"?>
<svg width="32px" height="24px" viewBox="0 0 32 24" version="1.1" xmlns="http://www.w3.org/2000/svg" xmlns:xlink="http://www.w3.org/1999/xlink">
    <title>Group 3</title>
    <defs>
        <polygon id="path-1" points="0 0.000315789474 31.9496211 0.000315789474 31.9496211 23.43 0 23.43"></polygon>
    </defs>
    <g id="v1" stroke="none" stroke-width="1" fill="none" fillRule="evenodd">
        <g id="HP-Landing" transform="translate(-1625.000000, -2521.000000)">
            <g id="Group-9" transform="translate(0.000000, 2085.000000)">
                <g id="Group-6" transform="translate(1482.000000, 436.000000)">
                    <g id="Group-3" transform="translate(143.000000, 0.000000)">
                        <mask id="mask-2" fill="white">
                            <use xlink:href="#path-1"></use>
                        </mask>
                        <g id="Clip-2"></g>
                        <path d="M21.3176211,11.3605263 L12.6757263,16.0184211 L12.6757263,8.84873684 L12.6757263,6.66726316 L16.5902526,8.79757895 L21.3176211,11.3605263 Z M31.6382526,5.05673684 C31.6382526,5.05673684 31.3098316,2.754 30.3567789,1.74915789 C29.1454105,0.433578947 27.7767789,0.415894737 27.1710947,0.328736842 C22.7026737,0.000315789474 16.0016211,0.000315789474 16.0016211,0.000315789474 L15.9656211,0.000315789474 C15.9656211,0.000315789474 9.28225263,0.000315789474 4.8132,0.328736842 C4.17341053,0.415894737 2.82309474,0.433578947 1.61109474,1.74915789 C0.658042105,2.754 0.330252632,5.05673684 0.330252632,5.05673684 C0.330252632,5.05673684 -6.31578947e-05,7.758 -6.31578947e-05,10.4251579 L-6.31578947e-05,10.7712632 L-6.31578947e-05,12.9704211 C-6.31578947e-05,15.6716842 0.330252632,18.3388421 0.330252632,18.3388421 C0.330252632,18.3388421 0.658042105,20.6422105 1.61109474,21.6634737 C2.82309474,22.9967368 4.41656842,22.9455789 5.14414737,23.0838947 C7.68941053,23.3434737 16.0016211,23.43 16.0016211,23.43 C16.0016211,23.43 22.7026737,23.3958947 27.1710947,23.0838947 C27.7767789,22.9967368 29.1454105,22.9967368 30.3567789,21.6634737 C31.3098316,20.6422105 31.6382526,18.3388421 31.6382526,18.3388421 C31.6382526,18.3388421 31.9496211,15.6716842 31.9496211,12.9704211 L31.9496211,10.9102105 L31.9496211,10.4251579 C31.9496211,7.758 31.6382526,5.05673684 31.6382526,5.05673684 L31.6382526,5.05673684 Z" id="Fill-1" fill="#FFFFFF" mask="url(#mask-2)"></path>
                    </g>
                </g>
            </g>
        </g>
    </g>
</svg>