<svg width="10" height="20" viewBox="0 0 10 20" fill="none" xmlns="http://www.w3.org/2000/svg">
<path d="M9.94364 8.93002C10.0255 8.76483 10.0178 8.58338 9.92324 8.42546C9.82878 8.26747 9.66104 8.2045 9.4803 8.2045H5.52906L6.37965 0.6197C6.40862 0.362558 6.25323 0.0961535 6.01117 0.0224558C5.96121 0.00726316 5.9106 0 5.86064 0C5.66873 0 5.48735 0.112013 5.39802 0.29599L0.0544449 11.3091C-0.0257221 11.4743 -0.0168868 11.6942 0.0778324 11.8512C0.172617 12.0081 0.339707 12.1359 0.519726 12.1359H4.41887L3.61954 19.4353C3.5916 19.6914 3.74628 19.9068 3.98705 19.9807C4.03648 19.9959 4.08657 20 4.13601 20C4.32753 20 4.50891 19.8909 4.59941 19.7083L9.94364 8.93002Z" fill="#07BFFF"/>
</svg>
