<svg width="325" height="45" viewBox="0 0 325 45" fill="none" xmlns="http://www.w3.org/2000/svg">
<path d="M15.2697 14.9507V19.0031H9.67372V35.2344H5.62854V19.0031H0V14.9507H15.2697Z" fill="white"/>
<path d="M45.9067 25.0765C45.9067 30.8563 41.2 35.5714 35.4305 35.5714C29.661 35.5714 24.9543 30.8563 24.9543 25.0765C24.9543 19.2967 29.661 14.5815 35.4305 14.5815C41.2 14.5815 45.9067 19.2967 45.9067 25.0765ZM29.1079 25.0765C29.1079 28.5748 31.9384 31.4104 35.4305 31.4104C38.9226 31.4104 41.7531 28.5748 41.7531 25.0765C41.7531 21.5782 38.9226 18.7426 35.4305 18.7426C31.9384 18.7426 29.1079 21.5782 29.1079 25.0765Z" fill="white"/>
<path d="M64.5275 14.9507C67.8786 14.9507 70.5899 17.6994 70.5899 21.0564C70.5899 24.4135 67.8786 27.1296 64.5275 27.1296H62.0115V35.2235H57.9663V14.9507H64.5275ZM64.5275 23.0772C65.6229 23.0772 66.5447 22.1755 66.5447 21.0564C66.5447 19.9265 65.6229 19.0031 64.5275 19.0031H62.0115V23.0772H64.5275Z" fill="white"/>
<path d="M113.243 19.0031H103.797V22.7295H111.595V26.7819H103.797V31.182H113.156V35.2344H99.7521V14.9507H113.243V19.0031Z" fill="white"/>
<path d="M135.519 23.4473H125.65V26.8043H135.519V23.4473Z" fill="white"/>
<path d="M153.174 14.9839C156.439 14.9839 159.096 17.6456 159.096 20.9158C159.096 22.1543 158.716 23.2842 158.055 24.2403C159.53 25.3702 160.451 27.1302 160.451 29.0966C160.451 32.508 157.708 35.2241 154.335 35.2241H147.665V14.9839H153.174ZM153.001 22.9909C154.129 22.9909 155.343 22.0674 155.343 20.6442C155.343 19.2318 154.129 18.3627 153.001 18.3627H151.244V22.9909H153.001ZM154.27 31.791C155.625 31.791 156.753 30.7263 156.753 29.3574C156.753 27.9993 155.625 26.902 154.27 26.902H151.32V31.791H154.27Z" fill="white"/>
<path d="M178.779 19.0031V31.182H180.916V35.2344H172.576V31.182H174.734V19.0031H172.576V14.9507H180.916V19.0031H178.779Z" fill="white"/>
<path d="M198.929 25.9454L197.378 27.5316V35.2018H193.333V14.9507H197.378V21.491L203.289 14.9507H208.744L201.673 22.8816L208.918 35.2018H204.102L198.929 25.9454Z" fill="white"/>
<path d="M234.826 19.0031H225.38V22.7295H233.178V26.7819H225.38V31.182H234.739V35.2344H221.335V14.9507H234.826V19.0031Z" fill="white"/>
<path d="M253.675 26.6415C253.013 26.4677 251.766 26.1527 250.616 25.3704C249.001 24.3057 248.1 22.7413 248.014 20.7965C247.927 19.1778 248.447 17.7545 249.489 16.6572C250.985 15.0928 253.154 14.6582 254.195 14.6582C257.145 14.6582 258.783 15.7229 260.258 16.679L260.919 17.1135L258.815 20.5575L258.089 20.0904C256.787 19.2538 255.952 18.6997 254.195 18.6997C253.935 18.6997 252.926 18.9062 252.406 19.4494C252.232 19.6232 252.026 19.9383 252.059 20.601C252.091 21.644 252.807 22.2198 254.662 22.6869C254.889 22.7413 255.063 22.8064 255.236 22.8608C257.167 23.5235 258.674 24.4252 259.715 25.5551C260.757 26.7067 261.299 28.0756 261.299 29.5206C261.299 30.933 260.691 32.4105 259.683 33.5404C258.501 34.8658 256.852 35.6263 255.03 35.6263C254.13 35.6263 252.926 35.572 251.484 35.1374C249.662 34.5616 248.046 33.5513 246.658 32.0737L249.608 29.2924C251.744 31.5739 254.141 31.5739 255.03 31.5739C256.7 31.5739 257.254 30.0421 257.254 29.5206C257.254 28.4233 256.017 27.4129 253.902 26.685L253.816 26.6524L253.675 26.6415Z" fill="white"/>
<path d="M307.759 11.7977V9.6792H295.038V11.7977H300.341V18.7944H299.321H297.792H297.196V28.4745H299.321V20.9129H303.486V28.4745H305.601V18.7944H305.004H303.486H302.455V11.7977H307.759Z" fill="white"/>
<path d="M301.707 23.1738H301.089C300.558 23.1738 300.124 23.6084 300.124 24.1408V36.9063C300.124 37.4387 300.558 37.8732 301.089 37.8732H301.707C302.239 37.8732 302.672 37.4387 302.672 36.9063V24.1516C302.683 23.6193 302.249 23.1738 301.707 23.1738Z" fill="white"/>
<path d="M301.805 45C289.42 45 279.345 34.9071 279.345 22.5C279.345 10.093 289.42 0 301.805 0C314.19 0 324.265 10.093 324.265 22.5C324.265 34.9071 314.19 45 301.805 45ZM301.805 2.66176C290.884 2.66176 282.002 11.5596 282.002 22.5C282.002 33.4404 290.884 42.3382 301.805 42.3382C312.726 42.3382 321.608 33.4404 321.608 22.5C321.608 11.5596 312.726 2.66176 301.805 2.66176Z" fill="white"/>
</svg>
