<svg width="245" height="34" viewBox="0 0 245 34" fill="none" xmlns="http://www.w3.org/2000/svg">
<path d="M11.5371 11.2949V14.3567H7.30903V26.6204H4.25268V14.3567H0V11.2949H11.5371Z" fill="black"/>
<path d="M34.6851 18.9454C34.6851 23.3123 31.1289 26.8749 26.7697 26.8749C22.4105 26.8749 18.8543 23.3123 18.8543 18.9454C18.8543 14.5784 22.4105 11.0159 26.7697 11.0159C31.1289 11.0159 34.6851 14.5784 34.6851 18.9454ZM21.9926 18.9454C21.9926 21.5885 24.1312 23.731 26.7697 23.731C29.4082 23.731 31.5468 21.5885 31.5468 18.9454C31.5468 16.3022 29.4082 14.1598 26.7697 14.1598C24.1312 14.1598 21.9926 16.3022 21.9926 18.9454Z" fill="black"/>
<path d="M48.7542 11.2949C51.2861 11.2949 53.3346 13.3717 53.3346 15.9082C53.3346 18.4446 51.2861 20.4968 48.7542 20.4968H46.8532V26.6122H43.7968V11.2949H48.7542ZM48.7542 17.435C49.5818 17.435 50.2782 16.7536 50.2782 15.9082C50.2782 15.0545 49.5818 14.3567 48.7542 14.3567H46.8532V17.435H48.7542Z" fill="black"/>
<path d="M85.5615 14.3567H78.4246V17.1723H84.3161V20.2341H78.4246V23.5586H85.496V26.6204H75.3682V11.2949H85.5615V14.3567Z" fill="black"/>
<path d="M102.392 17.7141H94.9354V20.2506H102.392V17.7141Z" fill="black"/>
<path d="M115.732 11.3196C118.198 11.3196 120.206 13.3307 120.206 15.8015C120.206 16.7373 119.919 17.5909 119.419 18.3133C120.533 19.167 121.23 20.4968 121.23 21.9825C121.23 24.56 119.157 26.6122 116.609 26.6122H111.569V11.3196H115.732ZM115.601 17.3693C116.453 17.3693 117.371 16.6716 117.371 15.5963C117.371 14.5291 116.453 13.8725 115.601 13.8725H114.273V17.3693H115.601ZM116.559 24.0183C117.584 24.0183 118.436 23.2138 118.436 22.1796C118.436 21.1535 117.584 20.3244 116.559 20.3244H114.331V24.0183H116.559Z" fill="black"/>
<path d="M135.078 14.3567V23.5586H136.692V26.6204H130.391V23.5586H132.021V14.3567H130.391V11.2949H136.692V14.3567H135.078Z" fill="black"/>
<path d="M150.302 19.602L149.13 20.8005V26.5957H146.074V11.2949H149.13V16.2365L153.596 11.2949H157.718L152.375 17.2872L157.849 26.5957H154.211L150.302 19.602Z" fill="black"/>
<path d="M177.424 14.3567H170.287V17.1723H176.179V20.2341H170.287V23.5586H177.359V26.6204H167.231V11.2949H177.424V14.3567Z" fill="black"/>
<path d="M191.665 20.1273C191.166 19.996 190.223 19.7579 189.355 19.1669C188.134 18.3625 187.454 17.1804 187.388 15.7111C187.323 14.488 187.716 13.4127 188.502 12.5836C189.633 11.4016 191.272 11.0732 192.059 11.0732C194.287 11.0732 195.525 11.8777 196.639 12.6L197.139 12.9284L195.549 15.5305L195 15.1775C194.017 14.5455 193.386 14.1268 192.059 14.1268C191.862 14.1268 191.1 14.2828 190.707 14.6932C190.576 14.8246 190.42 15.0626 190.444 15.5633C190.469 16.3514 191.01 16.7864 192.411 17.1394C192.583 17.1804 192.714 17.2297 192.845 17.2707C194.304 17.7715 195.443 18.4528 196.229 19.3065C197.016 20.1766 197.426 21.2109 197.426 22.3026C197.426 23.3697 196.967 24.4861 196.205 25.3398C195.312 26.3412 194.066 26.9158 192.69 26.9158C192.009 26.9158 191.1 26.8748 190.01 26.5464C188.634 26.1114 187.413 25.348 186.364 24.2316L188.593 22.1302C190.207 23.854 192.018 23.854 192.69 23.854C193.951 23.854 194.369 22.6966 194.369 22.3026C194.369 21.4735 193.435 20.7101 191.837 20.1602L191.772 20.1355L191.665 20.1273Z" fill="black"/>
<path d="M232.529 8.91464V7.31396H222.917V8.91464H226.924V14.201H226.154H224.998H224.548V21.5148H226.154V15.8017H229.3V21.5148H230.898V14.201H230.447H229.3H228.522V8.91464H232.529Z" fill="#00C1FF"/>
<path d="M227.957 17.509H227.489C227.088 17.509 226.76 17.8374 226.76 18.2396V27.8847C226.76 28.2869 227.088 28.6153 227.489 28.6153H227.957C228.358 28.6153 228.686 28.2869 228.686 27.8847V18.2478C228.694 17.8456 228.366 17.509 227.957 17.509Z" fill="#00C1FF"/>
<path d="M228.03 34C218.673 34 211.061 26.3742 211.061 17C211.061 7.62578 218.673 0 228.03 0C237.388 0 245 7.62578 245 17C245 26.3742 237.388 34 228.03 34ZM228.03 2.01111C219.779 2.01111 213.068 8.73394 213.068 17C213.068 25.2661 219.779 31.9889 228.03 31.9889C236.282 31.9889 242.992 25.2661 242.992 17C242.992 8.73394 236.282 2.01111 228.03 2.01111Z" fill="#00C1FF"/>
</svg>
