<svg width="65" height="65" viewBox="0 0 65 65" fill="none" xmlns="http://www.w3.org/2000/svg">
<g clip-path="url(#clip0)">
<path d="M11.2069 24.655H0L11.2069 31.6112V24.655Z" fill="#FFA733"/>
<path d="M42.1807 38.8185L65 61.6378V24.655L42.1807 38.8185Z" fill="#FFC477"/>
<path d="M22.8193 38.8185L11.2069 31.6112V31.6145V31.6112L0 24.655V61.6378L22.8193 38.8185Z" fill="#FFC477"/>
<path d="M42.1829 38.8208L32.5 44.8275L22.8193 38.8186L0 61.6379V62.7585C0.00383049 63.9947 1.00523 64.9961 2.24138 64.9999H62.7586C63.9948 64.9961 64.9962 63.9947 65 62.7585V61.6379L42.1829 38.8208Z" fill="#FFA733"/>
<path d="M20.1724 4.48291H15.6897C13.2141 4.48291 11.2069 6.49008 11.2069 8.96567V31.6115L32.5 44.8277L47.069 35.7851V8.96567C47.069 6.49008 49.0761 4.48291 51.5517 4.48291H20.1724Z" fill="#E6E7E8"/>
<path d="M47.069 24.655V35.7848L65 24.655H47.069Z" fill="#FFA733"/>
<path d="M11.2069 13.4485L0 24.6554H11.2069V13.4485Z" fill="#FFA733"/>
<path d="M63.8793 0H21.2931C20.6742 0 20.1724 0.501793 20.1724 1.12069V4.48276H51.5517C52.7408 4.48112 53.8823 4.95281 54.7234 5.79388C55.5644 6.63494 56.0361 7.77643 56.0345 8.96552V14.569C56.0345 17.0446 58.0417 19.0517 60.5173 19.0517C62.9928 19.0517 65 17.0446 65 14.569V1.12069C65 0.501793 64.4982 0 63.8793 0Z" fill="#D1D3D4"/>
<path d="M47.069 19.0515V24.655H65L59.3966 19.0515H47.069Z" fill="#FFA733"/>
<path d="M56.0345 14.5691V8.96567C56.0345 6.49008 54.0273 4.48291 51.5517 4.48291C49.0761 4.48291 47.069 6.49008 47.069 8.96567V19.0519H60.5172C58.0417 19.0519 56.0345 17.0447 56.0345 14.5691Z" fill="#BCBEC0"/>
<path d="M23.5345 10.0864H41.4655V12.3278H23.5345V10.0864Z" fill="#ACABB1"/>
<path d="M16.8103 14.5688H41.4655V16.8102H16.8103V14.5688Z" fill="#ACABB1"/>
<path d="M16.8103 10.0864H21.2931V12.3278H16.8103V10.0864Z" fill="#898890"/>
<path d="M16.8103 19.0515H28.0172V21.2929H16.8103V19.0515Z" fill="#ACABB1"/>
<path d="M30.2586 19.0515H34.7414V21.2929H30.2586V19.0515Z" fill="#898890"/>
<path d="M36.9828 19.0515H41.4655V21.2929H36.9828V19.0515Z" fill="#898890"/>
<path d="M16.8103 23.5344H23.5345V25.7758H16.8103V23.5344Z" fill="#898890"/>
<path d="M25.7758 23.5344H41.4655V25.7758H25.7758V23.5344Z" fill="#ACABB1"/>
<path d="M16.8103 28.0173H19.0517V30.2587H16.8103V28.0173Z" fill="#ACABB1"/>
<path d="M21.2931 28.0173H34.7414V30.2587H21.2931V28.0173Z" fill="#ACABB1"/>
<path d="M36.9828 28.0171H41.4655V30.2585H36.9828V28.0171Z" fill="#898890"/>
<path d="M21.2931 32.5H41.4655V34.7414H21.2931V32.5Z" fill="#ACABB1"/>
</g>
<defs>
<clipPath id="clip0">
<rect width="65" height="65" fill="white"/>
</clipPath>
</defs>
</svg>
