<svg width="175" height="165" viewBox="0 0 175 165" fill="none" xmlns="http://www.w3.org/2000/svg">
<path d="M146.73 27.035C144.998 27.4975 143.401 28.3647 142.07 29.565C140.904 30.311 139.887 31.2673 139.07 32.385L130.21 38.775C130.21 38.775 121.61 39.425 117.41 38.305C113.21 37.185 100.79 29.625 100.79 29.625C100.79 29.625 105.28 36.045 109.31 39.145C113.34 42.245 111.63 41.325 112.87 44.855C114.11 48.385 110.18 46.315 106.55 48.395C102.92 50.475 100.92 55.205 98.4001 58.275C95.8801 61.345 93.4001 68.545 92.9401 72.615C92.4801 76.685 85.23 85.145 84.63 85.615C84.03 86.085 83.32 88.695 85.13 87.975C86.94 87.255 92.94 78.975 98.81 73.765C104.68 68.555 99.6501 65.105 105.64 61.095C111.63 57.085 113.48 56.445 120.36 50.985C127.24 45.525 131.36 42.985 135.66 40.795C139.96 38.605 140.03 37.795 142.2 34.585C143.654 32.821 145.399 31.3193 147.36 30.145C147.62 30.065 147.9 29.965 148.21 29.835C152.35 28.045 151.52 26.925 154.28 26.425C157.04 25.925 161.28 28.125 161.28 28.125C161.28 28.125 155.07 24.305 153.28 24.265C151.49 24.225 150.73 26.085 146.73 27.035Z" fill="#07BFFF"/>
<path d="M82.2701 29.625C86.3601 32.175 84.9901 29.805 82.6401 27.295C80.2901 24.785 72.1101 15.375 68.5601 14.375C65.0101 13.375 64.0701 17.035 64.0701 17.035C64.0701 17.035 63.5401 18.035 60.3901 20.595C57.2401 23.155 58.3001 23.745 56.0001 28.115C53.9085 32.0388 51.5041 35.7876 48.8101 39.325C46.6601 42.225 45.7201 43.325 42.0001 45.245C39.0601 46.765 33.5401 57.095 31.3501 61.385C30.1101 60.715 28.6901 60.235 27.6501 60.765C25.9301 61.655 17.3301 77.035 13.3501 84.255V105.105C13.3501 105.105 17.2201 96.035 18.0001 94.545C18.7801 93.055 22.0001 87.545 23.1701 84.145C24.3401 80.745 24.5301 80.245 24.9801 78.875C25.4301 77.505 26.6601 75.035 27.2001 73.535C27.9527 71.7344 28.3533 69.8063 28.3801 67.855C28.4936 66.4669 29.0632 65.1555 30.0001 64.125C31.3615 64.4414 32.6984 64.8558 34.0001 65.365C34.6636 65.624 35.3679 65.7628 36.0801 65.775C38.187 67.3795 40.2097 69.0918 42.1401 70.905C46.9501 75.345 56.8101 74.905 56.8101 74.905C56.8101 74.905 46.4301 70.635 45.1601 70.035C43.8901 69.435 39.0901 65.825 39.0901 65.825C40.9201 63.7334 42.4452 61.3936 43.6201 58.875C45.4543 55.0881 47.8106 51.5773 50.6201 48.445C53.2101 45.445 53.9201 42.825 55.6901 41.675C57.4601 40.525 54.3801 49.675 54.2901 50.135C56.8746 46.7169 59.0808 43.0287 60.8701 39.135C63.1001 34.055 64.0001 33.135 65.4601 28.655C66.5901 25.165 67.9401 24.495 68.4601 24.365C69.0101 24.675 69.4001 24.925 69.4001 24.925L68.7101 24.335C69.485 24.9153 70.3238 25.4052 71.2101 25.795C73.0801 26.585 78.1901 27.085 82.2701 29.625Z" fill="#07BFFF"/>
<path d="M30.6901 146.535V164.225H161.56V121.675L30.6901 146.535Z" fill="#07BFFF"/>
<path d="M174.91 119.115L6.10352e-05 152.735V111.935L174.91 78.3149V119.115Z" fill="#1E2021"/>
<path d="M11.1659 119.037L11.2641 121.419C12.8219 119.25 14.923 117.909 17.5673 117.396C20.539 116.82 22.5615 117.588 23.635 119.7C24.3419 118.523 25.2582 117.505 26.384 116.647C27.5229 115.786 28.8648 115.206 30.4095 114.906C35.0698 114.003 37.4393 116.057 37.5178 121.069V135.571L33.8851 136.275V121.993C33.8851 120.447 33.5382 119.36 32.8444 118.735C32.1506 118.096 30.9855 117.935 29.3491 118.252C28.0008 118.514 26.8815 119.144 25.9913 120.144C25.1011 121.13 24.584 122.33 24.44 123.745V138.106L20.7877 138.814V124.633C20.7877 121.486 19.2757 120.205 16.2517 120.792C13.8691 121.254 12.2393 122.603 11.3622 124.84V140.642L7.72951 141.346V119.704L11.1659 119.037Z" fill="white"/>
<path d="M39.787 124.227C39.787 122.107 40.1928 120.122 41.0044 118.271C41.8291 116.417 42.9681 114.89 44.4211 113.688C45.8873 112.484 47.5564 111.7 49.4284 111.337C52.3215 110.776 54.6582 111.343 56.4386 113.038C58.232 114.731 59.1288 117.271 59.1288 120.658V120.918C59.1288 123.024 58.7295 124.995 57.931 126.83C57.1455 128.649 56.0131 130.169 54.5339 131.389C53.0677 132.607 51.379 133.401 49.4677 133.772C46.5877 134.33 44.251 133.763 42.4575 132.071C40.6771 130.375 39.787 127.848 39.787 124.487V124.227ZM43.4393 123.959C43.4393 126.36 43.9826 128.181 45.0691 129.424C46.1688 130.664 47.635 131.107 49.4677 130.751C51.3135 130.394 52.7797 129.376 53.8662 127.698C54.9528 126.008 55.496 123.835 55.496 121.182C55.496 118.808 54.9397 116.996 53.827 115.745C52.7273 114.478 51.2611 114.022 49.4284 114.377C47.635 114.725 46.1884 115.732 45.0888 117.399C43.9891 119.066 43.4393 121.252 43.4393 123.959Z" fill="white"/>
<path d="M63.6779 103.324V108.564L67.6444 107.795V110.655L63.6779 111.424V124.846C63.6779 125.712 63.8546 126.332 64.2081 126.703C64.5615 127.061 65.1637 127.158 66.0146 126.993C66.4335 126.912 67.0095 126.72 67.7426 126.418V129.418C66.787 129.87 65.8575 130.184 64.9542 130.359C63.331 130.674 62.107 130.411 61.2822 129.571C60.4575 128.73 60.0451 127.39 60.0451 125.55V112.129L56.1768 112.879V110.018L60.0451 109.268V104.028L63.6779 103.324Z" fill="white"/>
<path d="M67.317 119.368C67.317 117.247 67.7228 115.262 68.5345 113.411C69.3592 111.558 70.4981 110.03 71.9512 108.828C73.4174 107.624 75.0864 106.84 76.9584 106.477C79.8515 105.916 82.1883 106.483 83.9686 108.178C85.7621 109.871 86.6588 112.411 86.6588 115.798V116.058C86.6588 118.165 86.2595 120.136 85.461 121.971C84.6755 123.79 83.5432 125.309 82.0639 126.53C80.5977 127.747 78.909 128.541 76.9977 128.912C74.1177 129.47 71.781 128.903 69.9875 127.211C68.2072 125.516 67.317 122.988 67.317 119.628V119.368ZM70.9694 119.1C70.9694 121.5 71.5126 123.321 72.5992 124.564C73.6988 125.804 75.165 126.247 76.9977 125.892C78.8435 125.534 80.3097 124.516 81.3963 122.839C82.4828 121.148 83.0261 118.976 83.0261 116.322C83.0261 113.948 82.4697 112.136 81.357 110.885C80.2573 109.618 78.7912 109.162 76.9584 109.518C75.165 109.865 73.7184 110.872 72.6188 112.539C71.5192 114.206 70.9694 116.393 70.9694 119.1Z" fill="white"/>
<path d="M97.2713 121.409C98.5673 121.158 99.6997 120.538 100.668 119.551C101.637 118.563 102.174 117.459 102.279 116.238L105.715 115.572C105.649 116.825 105.231 118.086 104.458 119.356C103.686 120.626 102.652 121.72 101.356 122.638C100.073 123.553 98.7113 124.15 97.2713 124.43C94.3782 124.991 92.0742 124.457 90.3593 122.829C88.6575 121.186 87.8066 118.657 87.8066 115.244V114.623C87.8066 112.517 88.1862 110.569 88.9455 108.782C89.7048 106.995 90.7913 105.511 92.2051 104.33C93.6321 103.146 95.3142 102.367 97.2517 101.991C99.6342 101.529 101.611 101.873 103.182 103.022C104.766 104.168 105.61 105.891 105.715 108.191L102.279 108.857C102.174 107.478 101.65 106.432 100.708 105.722C99.7782 104.995 98.6262 104.765 97.2517 105.032C95.4059 105.389 93.9724 106.347 92.9513 107.905C91.9433 109.448 91.4393 111.499 91.4393 114.059V114.759C91.4393 117.253 91.9433 119.075 92.9513 120.227C93.9593 121.378 95.3993 121.772 97.2713 121.409Z" fill="white"/>
<path d="M118.019 101.849C117.469 101.862 116.874 101.931 116.232 102.055C113.85 102.517 112.233 103.864 111.382 106.096V121.458L107.749 122.162V100.52L111.284 99.8344L111.343 102.323C112.534 100.159 114.223 98.8646 116.409 98.4407C117.116 98.3037 117.652 98.293 118.019 98.4086V101.849Z" fill="white"/>
<path d="M116.787 109.227C116.787 107.107 117.193 105.122 118.004 103.271C118.829 101.417 119.968 99.8898 121.421 98.688C122.887 97.4837 124.556 96.7 126.428 96.3371C129.322 95.7762 131.658 96.3432 133.439 98.0383C135.232 99.7308 136.129 102.271 136.129 105.658V105.918C136.129 108.024 135.729 109.995 134.931 111.83C134.145 113.649 133.013 115.169 131.534 116.389C130.068 117.607 128.379 118.401 126.468 118.772C123.588 119.33 121.251 118.763 119.458 117.071C117.677 115.375 116.787 112.848 116.787 109.487V109.227ZM120.439 108.959C120.439 111.36 120.983 113.181 122.069 114.424C123.169 115.664 124.635 116.107 126.468 115.751C128.314 115.394 129.78 114.376 130.866 112.698C131.953 111.008 132.496 108.835 132.496 106.182C132.496 103.808 131.94 101.996 130.827 100.745C129.727 99.4779 128.261 99.0221 126.428 99.3774C124.635 99.7251 123.188 100.732 122.089 102.399C120.989 104.066 120.439 106.252 120.439 108.959Z" fill="white"/>
<path d="M149.12 107.543C149.12 106.543 148.747 105.842 148.001 105.44C147.268 105.022 145.978 104.792 144.132 104.749C142.3 104.705 140.84 104.508 139.754 104.158C138.68 103.806 137.882 103.294 137.358 102.623C136.847 101.948 136.592 101.078 136.592 100.011C136.592 98.2372 137.325 96.595 138.791 95.0839C140.271 93.5703 142.156 92.5915 144.447 92.1473C146.855 91.6803 148.806 91.9355 150.298 92.913C151.804 93.8879 152.556 95.3621 152.556 97.3357L148.904 98.0438C148.904 97.0303 148.479 96.2394 147.628 95.671C146.79 95.1 145.73 94.9389 144.447 95.1876C143.124 95.4439 142.09 95.9378 141.344 96.6692C140.598 97.4006 140.225 98.2397 140.225 99.1864C140.225 100.08 140.572 100.686 141.266 101.005C141.959 101.324 143.21 101.515 145.016 101.578C146.836 101.638 148.308 101.846 149.434 102.201C150.56 102.557 151.391 103.089 151.928 103.798C152.478 104.492 152.753 105.418 152.753 106.579C152.753 108.512 151.993 110.213 150.475 111.681C148.956 113.135 146.986 114.097 144.564 114.567C142.863 114.897 141.357 114.882 140.048 114.522C138.739 114.163 137.711 113.508 136.965 112.56C136.232 111.595 135.866 110.473 135.866 109.193L139.498 108.488C139.564 109.716 140.048 110.608 140.951 111.167C141.868 111.709 143.072 111.836 144.564 111.546C145.939 111.28 147.039 110.787 147.863 110.067C148.701 109.331 149.12 108.49 149.12 107.543Z" fill="white"/>
<path d="M167.12 103.543C167.12 102.543 166.747 101.842 166.001 101.44C165.268 101.022 163.978 100.792 162.132 100.75C160.3 100.705 158.84 100.508 157.754 100.158C156.68 99.8064 155.882 99.2945 155.358 98.6226C154.847 97.9482 154.592 97.0776 154.592 96.0108C154.592 94.2373 155.325 92.595 156.791 91.084C158.271 89.5704 160.156 88.5915 162.447 88.1474C164.855 87.6804 166.806 87.9356 168.298 88.9131C169.804 89.888 170.556 91.3622 170.556 93.3357L166.904 94.0438C166.904 93.0304 166.479 92.2395 165.628 91.671C164.79 91.1001 163.73 90.9389 162.447 91.1877C161.124 91.444 160.09 91.9379 159.344 92.6693C158.598 93.4007 158.225 94.2397 158.225 95.1865C158.225 96.0799 158.572 96.6861 159.266 97.0049C159.959 97.3238 161.21 97.5148 163.016 97.5779C164.836 97.6385 166.308 97.8463 167.434 98.2015C168.56 98.5566 169.391 99.0888 169.928 99.7982C170.478 100.492 170.753 101.418 170.753 102.579C170.753 104.512 169.993 106.213 168.475 107.681C166.956 109.135 164.986 110.097 162.564 110.567C160.863 110.897 159.357 110.882 158.048 110.522C156.739 110.163 155.711 109.509 154.965 108.56C154.232 107.595 153.866 106.473 153.866 105.193L157.498 104.488C157.564 105.716 158.048 106.609 158.951 107.167C159.868 107.709 161.072 107.836 162.564 107.546C163.939 107.28 165.039 106.787 165.863 106.067C166.701 105.331 167.12 104.49 167.12 103.543Z" fill="white"/>
<path d="M36.8301 95.895L36.4901 96.225L37.8001 98.405L38.1601 98.055C38.191 98.1001 38.2243 98.1436 38.2601 98.185L37.9501 98.585L39.7101 100.295L40.0801 99.825L40.1901 99.895L39.8801 100.415L42.0001 101.575L42.3801 100.945L42.7101 101.045L42.4301 101.745L44.8901 102.245L45.2301 101.405H45.3501L45.1301 102.285L47.7601 102.175L47.9801 101.295H48.1501L48.0701 102.155L50.7601 101.455V100.815L51.0201 100.735V101.345L53.6601 100.095V99.615L54.2601 99.275L54.4001 99.715L57.0001 97.955L56.8701 97.525L57.2401 97.215L57.4601 97.595L59.7001 95.435L59.3901 95.035C59.5101 94.905 59.6201 94.765 59.7301 94.625L60.1101 94.995L62.0501 92.525L61.5901 92.035L61.8601 91.605L62.4501 91.915L64.0501 89.215L63.3701 88.845C63.5001 88.605 63.6201 88.365 63.7301 88.135L64.5001 88.295L65.6901 85.405L64.9001 85.245L65.0301 84.855H65.8701L66.3401 82.975L66.4601 82.895C74.7601 77.735 74.8501 77.645 74.8801 77.605C74.9101 77.565 76.5101 76.335 77.4901 75.605H83.5801L93.3701 71.275L95.8701 66.885L97.7801 59.315L100.93 59.765L104.37 54.325C105.55 53.435 106.84 52.485 107.37 52.145C107.53 52.275 107.78 52.455 108.18 52.725L109.88 55.865L109.29 55.545L107.81 58.705L108.41 59.025C108.32 59.255 108.23 59.475 108.15 59.695L107.49 59.535L106.49 62.875L107.12 63.025C107.12 63.265 107.01 63.495 106.96 63.735H106.3L105.8 67.145H106.41C106.41 67.355 106.41 67.575 106.35 67.815L105.76 67.965V71.345L106.27 71.225C106.27 71.555 106.32 71.885 106.35 72.225L105.89 72.465L106.51 75.675L106.94 75.465C106.94 75.635 107.04 75.815 107.1 75.995L106.71 76.285L107.87 79.215L108.29 78.895C108.36 79.045 108.44 79.185 108.52 79.325L108.15 79.725L109.82 82.245L110.26 81.775C110.35 81.875 110.43 81.975 110.52 82.065L110.15 82.615L112.26 84.615L112.73 83.935C112.9 84.055 113.08 84.165 113.26 84.275L112.89 85.055L115.4 86.385L115.85 85.385L116.14 85.465L115.82 86.465L118.59 87.125L118.87 86.185L119.19 86.255L119.06 87.185H121.97L122.06 86.535H122.46V87.165L125.39 86.445V85.965C125.65 85.885 125.9 85.795 126.16 85.695L126.24 86.145L129 84.725L128.92 84.285L129.4 83.975L129.56 84.395L132.17 82.395L131.97 81.885L132.43 81.435L132.74 81.895L135.05 79.425L134.65 78.825L135.02 78.295L135.56 78.805L137.51 75.945L136.83 75.305C136.94 75.085 137.04 74.855 137.15 74.635C137.26 74.415 137.25 74.475 137.29 74.395L138.14 74.845L139.61 71.685L138.77 71.235L139 70.635L139.93 70.855L140.93 67.515L140 67.295C140.05 67.075 140.1 66.865 140.14 66.665H141.14L141.64 63.245H140.64C140.64 63.045 140.64 62.855 140.64 62.665L141.64 62.415V59.025L140.64 59.285C140.64 58.995 140.59 58.705 140.55 58.425L141.55 57.935L140.92 54.715L139.92 55.215L139.8 54.805L140.71 54.105L139.56 51.175L138.62 51.885C138.57 51.775 138.51 51.665 138.45 51.555L139.27 50.675L137.61 48.155L136.83 48.985C136.76 48.895 136.7 48.795 136.64 48.705L137.27 47.785L135.16 45.785L134.69 46.465L134.2 46.035L134.53 45.345L132 44.035L131.77 44.535L131.43 44.385L131.58 43.875L128.82 43.225L128.7 43.605L128.29 43.555L128.34 43.155H125.44L125.38 43.535L124.94 43.595V43.235L122.01 43.965V44.415C121.76 44.505 121.5 44.605 121.25 44.715L121.16 44.265L118.34 45.685L118.44 46.215L117.98 46.515L117.78 46.015L115.17 48.015L115.39 48.585L115.22 48.745L110.68 41.195L112.26 40.755L121.57 35.885L128.16 35.475L129.35 32.925L116.57 30.925L109.17 33.565C107.83 32.145 106.41 30.565 106.27 30.405C106.09 30.155 105.15 29.405 99.7901 25.695L99.6801 25.615H97.5701L95.7801 22.775L95.0001 19.345L94.0001 18.035L95.8701 19.675L96.7501 19.135V19.045L99.4801 15.045L98.2601 12.035L99.0001 9.78498L101 9.11498L100.79 7.42498L104.79 6.64498L105.22 5.42498L105 5.24498C102.79 3.33187 100.1 2.0563 97.2201 1.55498C95.5937 0.864069 93.887 0.380279 92.1401 0.114985C91.0622 -0.0383282 89.968 -0.0383282 88.8901 0.114985H88.7601L87.0001 2.03498C86.8055 2.05245 86.6165 2.10932 86.4445 2.20216C86.2726 2.29499 86.1214 2.42184 86.0001 2.57498L85.9301 2.66498C85.1801 3.66498 84.7901 4.34499 84.9301 4.79498V4.97498C84.6407 5.34783 84.4514 5.78843 84.3801 6.25498C84.3101 6.90498 84.0601 10.085 84.0501 10.255V10.425L84.6701 11.155C83.6698 11.1155 82.668 11.1355 81.6701 11.215C81.0201 11.265 80.3601 11.295 79.6701 11.325C78.1203 11.27 76.5748 11.518 75.1201 12.055C74.0881 12.6037 73.0867 13.208 72.1201 13.865C71.4601 14.305 68.1201 16.595 67.8001 17.865C67.4801 19.135 67.4501 20.135 68.6001 20.915C68.8501 21.085 69.0801 21.265 69.3101 21.435C69.9425 21.9748 70.6723 22.3889 71.4601 22.655C72.1601 22.845 73.2201 23.205 73.7901 23.405L72.6501 26.575L69.7001 29.035V29.155C69.1921 31.0009 69.3807 32.9692 70.2301 34.685C69.7639 36.2082 69.7224 37.8299 70.1101 39.375C70.7201 41.285 73.3801 44.115 74.1101 44.895L73.6601 45.895C71.8901 46.295 59.2401 49.165 57.6001 49.555C56.653 49.7673 55.7649 50.1874 55.0001 50.785L43.8401 54.125L44.0801 56.345L48.6901 57.085L49.5501 58.405L49.6701 58.455C50.8301 58.905 60.9701 62.815 61.8701 62.915C63.2016 62.7909 64.512 62.4986 65.7701 62.045L66.2101 63.045L63.7801 68.905H63.7001L62.4001 67.635L61.7601 68.455L62.2801 67.565L60.1401 66.405L59.7601 67.035L59.4501 66.885L59.7101 66.245L57.2601 65.735L57.0801 66.165H56.9001L57.0201 65.715L54.3901 65.825L54.3101 66.145H54.0401V65.815L51.3601 66.515V66.825L51.0501 66.935V66.625L48.3301 67.835V68.175L47.7101 68.555L47.6001 68.215L45.1601 70.035L45.2801 70.415L44.9101 70.735L44.7001 70.385L42.4601 72.545L42.7001 72.935L42.3301 73.345L42.0001 73.035L40.0501 75.495L40.4101 75.845C40.3101 75.995 40.2001 76.145 40.1001 76.305L39.6701 76.035L38.0601 78.745L38.5301 78.995L38.1501 79.765L37.6101 79.655L36.4301 82.545L36.9801 82.665C36.9801 82.815 36.8801 82.965 36.8401 83.105H36.2501L35.5001 86.105H36.0801C36.0801 86.235 36.0801 86.365 36.0101 86.505L35.4301 86.655L35.1601 89.655L35.7001 89.515V89.835L35.1801 90.075L35.4201 92.915L35.8701 92.695L35.9601 93.225L35.5601 93.515L36.3601 96.075L36.7501 95.795C36.7752 95.8295 36.8019 95.8629 36.8301 95.895ZM87.2201 35.435L88.2901 33.035L91.2901 28.375L94.3401 33.035L96.8101 33.945L97.4301 34.945L96.6001 36.115L95.4401 35.455L89.4401 38.315L88.5701 36.605L87.2201 35.435Z" fill="white"/>
<path d="M140.71 54.125L139.56 51.195L138.62 51.905C138.57 51.795 138.51 51.685 138.45 51.575L139.27 50.695L137.61 48.175L136.83 49.005C136.76 48.915 136.7 48.815 136.64 48.725L137.27 47.805L135.16 45.805L134.69 46.485L134.2 46.035L134.53 45.345L132 44.035L131.77 44.535L131.43 44.385L131.58 43.875L128.82 43.225L128.7 43.605L128.29 43.555L128.34 43.155H125.44L125.38 43.535L124.94 43.595V43.235L122.01 43.965V44.415C121.76 44.505 121.5 44.605 121.25 44.715L121.16 44.265L118.34 45.685L118.44 46.215L117.98 46.515L117.78 46.015L115.17 48.015L115.39 48.585L115.22 48.745L110.68 41.195L112.26 40.755L121.57 35.885L128.16 35.475L129.35 32.925L116.57 30.925L109.17 33.565C107.83 32.145 106.4 30.565 106.27 30.405C106.09 30.155 105.15 29.405 99.7901 25.695L99.6801 25.615H97.5701L95.7801 22.775L95.0001 19.345L94.0001 18.035L95.8701 19.675L96.0001 21.165L96.7501 19.115V19.025L99.4801 15.025L98.2601 12.035L99.0001 9.78498L101 9.11498L100.79 7.42498L104.79 6.64498L105.22 5.42498L105 5.24498C102.79 3.33187 100.1 2.0563 97.2201 1.55498C95.5937 0.864069 93.887 0.380279 92.1401 0.114985C91.0622 -0.0383282 89.968 -0.0383282 88.8901 0.114985H88.7601L87.0001 2.03498C86.8055 2.05245 86.6165 2.10932 86.4445 2.20216C86.2726 2.29499 86.1214 2.42184 86.0001 2.57498L85.9301 2.66498C85.1801 3.66498 84.7901 4.34499 84.9301 4.79498V4.97498C84.6407 5.34783 84.4514 5.78843 84.3801 6.25498C84.3101 6.90498 84.0601 10.085 84.0501 10.255V10.425L84.6701 11.155C83.6698 11.1155 82.668 11.1355 81.6701 11.215C81.0201 11.265 80.3601 11.295 79.6701 11.325C78.1203 11.27 76.5748 11.518 75.1201 12.055C74.0881 12.6037 73.0867 13.208 72.1201 13.865C71.4601 14.305 68.1201 16.595 67.8001 17.865C67.4801 19.135 67.4501 20.135 68.6001 20.915C68.8501 21.085 69.0801 21.265 69.3101 21.435C69.9425 21.9748 70.6723 22.3889 71.4601 22.655C72.1601 22.845 73.2201 23.205 73.7901 23.405L72.6501 26.575L69.7001 29.035V29.155C69.1921 31.0009 69.3807 32.9692 70.2301 34.685C69.7639 36.2082 69.7224 37.8299 70.1101 39.375C70.7201 41.285 73.3801 44.115 74.1101 44.895L73.6601 45.895C71.8901 46.295 59.2401 49.165 57.6001 49.555C56.653 49.7673 55.7649 50.1874 55.0001 50.785L43.8401 54.125L44.0801 56.345L48.6901 57.085L49.5501 58.405L49.6701 58.455C50.8301 58.905 60.9701 62.815 61.8701 62.915C63.2016 62.7909 64.512 62.4986 65.7701 62.045L66.2101 63.045L63.7801 68.905H63.7001L62.4001 67.635L61.7601 68.455L62.2801 67.565L60.1401 66.405L59.7601 67.035L59.4501 66.885L59.7101 66.245L57.2601 65.735L57.0801 66.165H56.9001L57.0201 65.715L54.3901 65.825L54.3101 66.145H54.0401V65.815L51.3601 66.515V66.825L51.0501 66.935V66.625L48.3301 67.835V68.175L47.7101 68.555L47.6001 68.215L45.1601 70.035L45.2801 70.415L44.9101 70.735L44.7001 70.385L42.4601 72.545L42.7001 72.935L42.3301 73.345L42.0001 73.035L40.0501 75.495L40.4101 75.845C40.3101 75.995 40.2001 76.145 40.1001 76.305L39.6701 76.035L38.0601 78.745L38.5301 78.995L38.1501 79.765L37.6101 79.655L36.4301 82.545L36.9801 82.665C36.9801 82.815 36.8801 82.965 36.8401 83.105H36.2501L35.5001 86.105H36.0801C36.0801 86.235 36.0801 86.365 36.0101 86.505L35.4301 86.655L35.1601 89.655L35.7001 89.515V89.835L35.1801 90.075L35.4201 92.915L35.8701 92.695L35.9601 93.225L35.5601 93.515L36.3601 96.075L36.7501 95.795C36.7725 95.8568 36.7993 95.9169 36.8301 95.975L36.4901 96.305L37.8001 98.485L38.1601 98.135C38.191 98.1801 38.2243 98.2236 38.2601 98.265L37.9501 98.665L39.7101 100.375L40.0801 99.905L40.1901 99.975L39.8801 100.495L42.0001 101.575L42.3801 100.945L42.7101 101.045L42.4301 101.745L44.8901 102.245L45.2301 101.405H45.3501L45.1301 102.285L47.7601 102.175L47.9801 101.295H48.1501L48.0701 102.155L50.7601 101.455V100.815L51.0201 100.735V101.345L53.6601 100.095V99.615L54.2601 99.275L54.4001 99.715L57.0001 97.955L56.8701 97.525L57.2401 97.215L57.4601 97.595L59.7001 95.435L59.3901 95.035C59.5101 94.905 59.6201 94.765 59.7301 94.625L60.1101 94.995L62.0501 92.525L61.5901 92.035L61.8601 91.605L62.4501 91.915L64.0501 89.215L63.3701 88.845C63.5001 88.605 63.6201 88.365 63.7301 88.135L64.5001 88.295L65.6901 85.405L64.9001 85.245L65.0301 84.855H65.8701L66.3401 82.975L66.4601 82.895C74.7601 77.735 74.8501 77.645 74.8801 77.605C74.9101 77.565 76.5101 76.335 77.4901 75.605H83.5801L93.3701 71.275L95.8701 66.885L97.7801 59.315L100.93 59.765L104.37 54.325C105.55 53.435 106.84 52.485 107.37 52.145C107.53 52.275 107.78 52.455 108.18 52.725L109.88 55.865L109.29 55.545L107.81 58.705L108.41 59.025C108.32 59.255 108.23 59.475 108.15 59.695L107.49 59.535L106.49 62.875L107.12 63.025C107.12 63.265 107.01 63.495 106.96 63.735H106.3L105.8 67.145H106.41C106.41 67.355 106.41 67.575 106.35 67.815L105.76 67.965V71.345L106.27 71.225C106.27 71.555 106.32 71.885 106.35 72.225L105.89 72.465L106.51 75.675L106.94 75.465C106.94 75.635 107.04 75.815 107.1 75.995L106.71 76.285L107.87 79.215L108.29 78.895C108.36 79.045 108.44 79.185 108.52 79.325L108.15 79.725L109.82 82.245L110.26 81.775C110.35 81.875 110.43 81.975 110.52 82.065L110.15 82.615L112.26 84.615L112.73 83.935C112.9 84.055 113.08 84.165 113.26 84.275L112.89 85.055L115.4 86.385L115.85 85.385L116.14 85.465L115.82 86.465L118.59 87.125L118.87 86.185L119.19 86.255L119.06 87.185H121.97L122.06 86.535H122.46V87.165L125.39 86.445V85.965C125.65 85.885 125.9 85.795 126.16 85.695L126.24 86.145L129 84.725L128.92 84.285L129.4 83.975L129.56 84.395L132.17 82.395L131.97 81.885L132.43 81.435L132.74 81.895L135.05 79.425L134.65 78.825C134.78 78.645 134.9 78.465 135.03 78.295L135.56 78.805L137.51 75.945L136.83 75.305C136.94 75.085 137.04 74.855 137.15 74.635C137.26 74.415 137.25 74.475 137.29 74.395L138.14 74.845L139.61 71.685L138.77 71.235L139 70.635L139.93 70.855L140.93 67.515L140 67.295C140.05 67.075 140.1 66.865 140.14 66.665H141.14L141.64 63.245H140.64V62.665L141.64 62.415V59.025L140.64 59.285C140.64 58.995 140.59 58.705 140.55 58.425L141.55 57.935L140.92 54.715L139.92 55.215L139.8 54.805L140.71 54.125ZM137.49 49.505L138.22 50.605L137.88 50.975L137.15 49.875L137.49 49.505ZM132.4 45.175L133.4 45.725L133.23 46.095C132.91 45.865 132.57 45.645 132.23 45.445L132.4 45.175ZM135.4 49.455L135.09 49.875C134.715 49.3596 134.304 48.8717 133.86 48.415L134.09 48.105L135.4 49.455ZM133 47.235L132.85 47.505C132.37 47.1335 131.861 46.7992 131.33 46.505L131.42 46.335L133 47.235ZM129.39 44.235L130.54 44.515V44.655C130.17 44.525 129.8 44.405 129.41 44.305L129.39 44.235ZM128.65 45.385L130.41 45.905V46.035C129.852 45.7893 129.273 45.5952 128.68 45.455L128.65 45.385ZM127.53 45.195C127.34 45.195 127.14 45.195 126.95 45.135L127.53 45.195ZM122.6 45.485H122.68H122.6ZM116.19 48.245L117.43 47.245V47.295L117.13 47.535V47.485L116.19 48.195V48.245ZM124.19 49.835C124.43 49.835 124.66 49.775 124.88 49.765C125.549 49.7163 126.222 49.7567 126.88 49.885C127.056 49.9144 127.229 49.9544 127.4 50.005L128.03 50.215L128.73 50.535L128.83 50.595C129.05 50.715 129.26 50.845 129.47 50.985L129.58 51.065C129.913 51.3075 130.224 51.5785 130.51 51.875L130.59 51.965L130.98 52.405V52.475C131.11 52.645 131.24 52.825 131.36 53.005C131.498 53.2043 131.625 53.4113 131.74 53.625C131.81 53.755 131.89 53.885 131.95 54.025C132.01 54.165 132.09 54.305 132.15 54.445C131.067 53.2927 129.618 52.5507 128.05 52.345C127.312 52.2463 126.563 52.2631 125.83 52.395C125.116 52.5096 124.416 52.6972 123.74 52.955C122.389 53.4978 121.144 54.2729 120.06 55.245C119.495 55.7463 118.964 56.2841 118.47 56.855L116.9 54.035L117.58 53.485C119.364 51.6205 121.685 50.3587 124.22 49.875L124.19 49.835ZM120.19 58.685L120.41 59.035C120.3 59.2199 120.238 59.4297 120.23 59.645L118.85 57.375L119.18 56.995L120.19 58.685ZM65.5001 79.865V79.595L66.0201 79.455V79.735L65.5001 79.865ZM66.0601 78.595V78.345L66.9301 77.935L66.7801 76.035L67.4101 77.035L66.8201 78.335L66.0601 78.595ZM66.2901 75.295L65.7901 75.525C65.7901 75.385 65.7401 75.235 65.7101 75.095L66.0301 74.875L66.2901 75.295ZM52.5201 73.865C53.1219 73.6033 53.7531 73.4153 54.4001 73.305C54.7303 73.2459 55.0647 73.2125 55.4001 73.205L53.2901 74.295C53.2375 74.2189 53.1734 74.1514 53.1001 74.095C52.9336 73.9629 52.7318 73.8829 52.5201 73.865ZM59.5201 79.035C59.0948 78.6382 58.617 78.3017 58.1001 78.035L59.4501 77.345C59.5033 77.9067 59.5167 78.4714 59.4901 79.035H59.5201ZM65.3901 76.805C65.3949 76.7551 65.3949 76.7049 65.3901 76.655L66.0201 76.355L66.1101 77.425L66.0001 76.535L65.3901 76.805ZM96.5501 14.145C94.7001 13.875 93.8001 13.885 93.1301 13.205L95.1301 16.355C95.1301 16.355 93.1301 14.265 92.0401 12.985C91.3266 12.1228 90.8081 11.1164 90.5201 10.035C90.5201 10.035 92.9301 12.865 94.6901 12.815C95.6414 12.7717 96.5768 12.5548 97.4501 12.175L98.4501 14.615C97.8361 14.3885 97.1988 14.2309 96.5501 14.145ZM101.55 31.675L103.63 34.615L104.63 35.205L103.63 35.015L101.52 32.175L98.1501 29.655L98.0001 27.465L98.5101 29.385L101.55 31.675ZM111.49 45.175L113.29 49.275L109.14 42.275L109.98 41.625L114.3 48.815L113.94 49.215L111.49 45.175ZM117 59.425L117.5 59.915L117.86 60.655C117.271 60.8587 116.696 61.1026 116.14 61.385C115.926 61.5031 115.719 61.6333 115.52 61.775L115 60.205C115 60.205 116.79 60.005 116.72 59.975C116.65 59.945 114.72 59.665 114.72 59.665L114 58.425L112.93 58.265C112.93 58.265 115.15 57.265 115.64 57.445C116.13 57.625 117 59.425 117 59.425ZM114.58 50.195L114.43 49.945L114.54 49.835L114.69 50.055C114.647 50.105 114.6 50.1518 114.55 50.195H114.58ZM114.83 57.195C114.58 57.1927 114.333 57.251 114.11 57.365L110.01 50.365L112 54.545C112 54.475 109.43 50.235 109.43 50.235L108.92 50.305L109.17 50.015C109.17 50.015 109.81 49.325 110.17 49.545C110.53 49.765 114.8 57.225 114.8 57.225L114.83 57.195ZM109.61 46.845L109.15 47.055L107.3 43.625L107.8 43.065L109.61 46.845ZM109.34 47.565C109.85 47.265 110.56 48.835 110.56 48.835C110.56 48.835 110.15 48.285 109.67 48.335C109.19 48.385 108 50.085 108 50.085C108 50.085 108.8 47.895 109.31 47.595L109.34 47.565ZM107.21 47.985L102.43 38.985C102.43 38.985 103.98 42.985 104.22 43.525C104.225 43.5481 104.225 43.5719 104.22 43.595C104.22 43.595 104.22 43.595 104.22 43.525C103.92 42.945 101.31 38.715 101.31 38.715L102.31 40.865L100.63 38.485C100.63 38.485 100.74 38.075 100.94 38.015C100.94 38.015 102.81 37.445 103.27 37.685C103.73 37.925 108.74 47.255 108.74 47.255C108.74 47.255 107.43 47.595 107.18 48.035L107.21 47.985ZM100 39.345L98.0001 42.345L94.4001 44.615L92.4001 50.615L93.9001 43.405L95.6201 42.205L97.0001 40.805L92.3501 42.495L95.1901 40.255L91.1901 41.835L94.1901 39.465L89.4801 41.925L89.6501 40.175L89.4101 39.255L95.4101 36.385L96.8401 37.195L97.0401 36.905L100 39.345ZM86.5101 61.825C86.2901 61.825 85.1101 61.715 85.5901 61.285C86.0701 60.855 87.0801 60.345 87.1201 60.285C87.1601 60.225 87.7301 60.285 87.7301 60.285C87.7301 60.285 87.1301 65.515 85.1101 67.225C83.0901 68.935 81.6501 69.495 80.0001 69.605C79.1757 69.692 78.3444 69.692 77.5201 69.605L78.6301 68.035C79.6001 68.0059 80.5326 67.654 81.2801 67.035C81.9007 66.6382 82.4515 66.1415 82.9101 65.565C82.9101 65.565 84.0001 65.295 84.1201 65.035C84.1906 64.8696 84.2345 64.6941 84.2501 64.515C84.2501 64.515 85.3801 65.035 85.5901 64.515C85.706 64.213 85.8606 63.9272 86.0501 63.665C86.0501 63.665 86.7301 61.805 86.5101 61.825ZM86.0001 69.735L86.7101 68.435C87.8025 67.7464 88.7255 66.82 89.4101 65.725C90.4044 63.7272 91.2306 61.65 91.8801 59.515L92.4901 59.685C92.4901 59.685 90.8701 65.825 88.7701 67.685C87.9602 68.5096 87.0254 69.2014 86.0001 69.735ZM68.7001 57.645C68.3801 57.025 69.2201 56.215 69.7001 55.645C70.1801 55.075 70.7001 55.535 71.2301 55.355C71.7601 55.175 73.0001 53.225 73.0001 53.225C73.0001 53.225 73.2501 53.225 73.6401 53.765C74.0301 54.305 76.3101 55.205 76.3701 55.345C76.4301 55.485 76.1701 55.935 75.8701 56.345C75.5701 56.755 75.2101 57.485 75.2101 57.485C75.4048 57.7226 75.5386 58.004 75.6001 58.305C75.6001 58.665 75.3001 58.885 75.0201 59.305C74.7667 59.8516 74.6046 60.436 74.5401 61.035L72.7901 60.615L74.5801 61.765C74.846 62.1243 75.0396 62.5318 75.1501 62.965C75.4101 63.815 75.4401 64.055 74.7801 64.405C74.1201 64.755 70.6601 62.585 70.6601 62.585C70.6601 62.585 68.9301 61.855 68.6601 61.055C68.3901 60.255 69.1201 59.915 69.2501 59.105C69.3801 58.295 69.0001 58.265 68.7001 57.645ZM84.0001 61.415C84.0001 63.185 82.0001 65.615 80.6601 65.955C79.7255 66.1678 78.7683 66.2652 77.8101 66.245C77.8101 66.245 79.4601 65.925 79.4001 65.615C79.3401 65.305 78.8901 64.965 78.8901 64.965C79.8707 64.6088 80.7 63.9277 81.2401 63.035C81.9501 61.695 81.2401 60.615 81.8701 60.615C82.5001 60.615 82.7801 60.615 82.6501 60.205C82.5201 59.795 82.2101 59.035 82.2101 59.035C82.7028 59.2221 83.1324 59.545 83.4492 59.9662C83.7659 60.3874 83.957 60.8897 84.0001 61.415ZM79.4801 63.415C77.7201 64.835 76.9301 63.725 77.0201 63.135C77.4801 60.135 79.6601 59.605 80.5501 59.775C81.4401 59.945 81.2801 62.035 79.5201 63.435L79.4801 63.415ZM75.9301 52.815L74.2601 52.035C74.2601 52.035 75.3901 50.255 75.6201 50.315C75.8501 50.375 77.0501 51.925 77.8301 51.865C78.6101 51.805 78.7601 51.865 78.7601 51.865C78.3055 52.4492 77.7854 52.9793 77.2101 53.445C76.8301 53.555 76.3301 53.035 75.9301 52.815ZM76.6701 49.145C76.4731 48.5624 76.4317 47.9385 76.5501 47.335C76.5501 47.335 77.3301 47.885 77.3001 46.975C77.3153 46.5507 77.2403 46.1281 77.0801 45.735L78.2601 43.735C78.2601 43.735 81.5101 46.025 82.6401 46.205L83.7601 46.385L83.4901 47.325C83.4901 47.325 81.0601 50.785 79.7601 50.715C78.4601 50.645 77.0001 50.085 76.6701 49.145ZM85.3001 53.035L88.8601 52.715C88.8601 52.715 88.1401 53.085 88.1101 53.555C88.1019 53.8953 88.1562 54.2342 88.2701 54.555C87.8692 54.3312 87.4819 54.0842 87.1101 53.815C86.3013 53.6928 85.4788 53.6928 84.6701 53.815C84.6701 53.815 84.6401 53.125 85.3001 53.035ZM84.4901 45.255C83.3801 45.745 82.8401 45.975 82.3301 45.635C82.0067 45.4028 81.7344 45.1067 81.5301 44.765C81.5301 44.855 81.9601 45.375 83.2801 44.565C84.6001 43.755 84.3701 42.855 84.9801 42.565C85.5901 42.275 86.9001 41.565 86.7401 42.395C86.5802 43.0039 86.2983 43.5741 85.9116 44.0708C85.5248 44.5676 85.0412 44.9807 84.4901 45.285V45.255ZM83.2101 40.535L81.0801 40.035C81.2539 39.3739 81.5988 38.7703 82.0801 38.285C82.7501 37.705 85.1401 37.605 85.1401 37.605C84.0473 37.3025 82.8929 37.3025 81.8001 37.605C80.9873 37.8991 80.2876 38.4413 79.8001 39.155C80.0466 38.125 80.6486 37.2149 81.5001 36.585C82.0695 36.2693 82.661 35.9952 83.2701 35.765C83.2701 35.765 80.6701 36.065 79.5301 37.325C79.0441 37.8007 78.6146 38.3309 78.2501 38.905L78.3601 36.685C77.0114 36.1242 75.6115 35.6955 74.1801 35.405C73.1752 35.2633 72.1516 35.3418 71.1801 35.635C71.1801 35.635 71.7401 32.775 72.6401 32.085C73.8237 31.6605 75.064 31.4145 76.3201 31.355C77.9401 31.355 83.3201 33.845 83.3201 33.845L86.1801 35.035L86.4001 35.235L86.2001 35.655L88.0001 37.125L89.0901 39.285C88.6649 39.9766 87.9869 40.4752 87.2001 40.675C85.8703 40.8228 84.5262 40.7757 83.2101 40.535ZM69.3001 17.845C69.8156 17.5625 70.3464 17.3088 70.8901 17.085C71.7768 16.8163 72.7233 16.8163 73.6101 17.085C74.586 17.3724 75.5387 17.7335 76.4601 18.165C76.948 18.364 77.4111 18.619 77.8401 18.925C78.1001 19.055 78.7101 19.045 79.4301 19.235C79.9764 19.4282 80.4793 19.7273 80.9101 20.115C80.7934 20.0576 80.6651 20.0278 80.5351 20.0278C80.405 20.0278 80.2768 20.0576 80.1601 20.115C79.7401 20.275 79.3301 21.705 79.3601 21.735L77.8501 22.465C77.8501 22.465 78.0601 21.335 78.1001 21.175C77.6391 21.5512 77.2047 21.9588 76.8001 22.395L77.2001 20.865L78.3101 19.865L76.4001 20.195L76.0001 19.875L77.1101 19.345L73.2601 20.505L74.8801 19.425L72.7501 18.335L70.3001 18.705L71.9401 17.955L70.0501 18.285L71.2001 17.735L69.3001 17.845ZM87.2201 35.435L88.2901 33.035L91.2901 28.375L94.3401 33.035L96.8101 33.945L97.4301 34.945L96.6001 36.115L95.4401 35.455L89.4401 38.315L88.5701 36.605L87.2201 35.435ZM91.4501 27.175L91.2601 26.895L88.3901 31.375C86.9855 31.4663 85.5754 31.4194 84.1801 31.235C84.1001 31.235 84.8601 31.135 86.4401 30.805C87.4636 30.5633 88.4378 30.1473 89.3201 29.575C88.4445 29.8224 87.5522 30.0062 86.6501 30.125C84.3401 30.525 80.4101 29.395 80.4101 29.395C82.0215 29.3361 83.623 29.115 85.1901 28.735C86.7313 28.3492 88.2342 27.8237 89.6801 27.165C88.6684 27.3992 87.6431 27.5696 86.6101 27.675C83.944 27.8306 81.2702 27.7905 78.6101 27.555L83.1901 26.415L80.1901 26.545L83.5801 25.715C83.6189 25.9481 83.6723 26.1786 83.7401 26.405C83.8001 26.525 83.9501 26.405 84.3801 26.405C84.8101 26.405 85.0001 25.825 85.0001 25.825C85.1776 25.8993 85.3511 25.9828 85.5201 26.075C85.8296 26.1437 86.1505 26.1437 86.4601 26.075C86.4601 26.075 88.0001 25.965 88.1001 26.035C88.3673 26.0851 88.6312 26.1519 88.8901 26.235C89.2563 26.26 89.6238 26.26 89.9901 26.235C90.1401 26.235 90.5901 26.545 90.9901 26.715C91.1137 26.7592 91.2474 26.7666 91.3752 26.7365C91.503 26.7063 91.6193 26.6398 91.7101 26.545L91.4501 27.175ZM79.2501 30.175C79.3395 30.1958 79.4243 30.2331 79.5001 30.285L79.2501 30.175C78.4401 29.885 75.8701 29.175 75.8701 29.175L77.8701 30.535L77.9601 30.585L77.8701 30.535C76.6127 29.8723 75.2651 29.3972 73.8701 29.125C72.6001 29.045 70.6001 30.465 70.6001 30.465C70.6561 30.0021 70.8156 29.5578 71.0666 29.1649C71.3176 28.7719 71.6537 28.4405 72.0501 28.195C72.6831 27.8146 73.3533 27.4997 74.0501 27.255C74.0501 27.255 78.1901 29.655 79.2501 30.205V30.175ZM96.0001 30.925C96.2117 30.4889 96.564 30.1367 97.0001 29.925L97.8301 29.655C97.8301 29.655 98.2801 30.435 98.5901 30.495L98.9101 30.555L101.76 35.315C101.221 35.3354 100.697 35.4975 100.24 35.785L97.1701 30.525C97.1701 30.525 98.8101 34.015 99.2901 34.975L99.4201 35.215C99.4201 35.215 99.3701 35.145 99.2901 34.975C98.7501 34.025 96.6801 30.585 96.6801 30.585L96.0001 30.925ZM95.2401 23.455L96.8301 25.975L95.5001 25.855L95.5701 24.955L94.7301 25.575L95.2001 24.275L95.2401 23.455ZM101.44 35.845C102.44 35.655 102.79 35.945 102.79 35.945L103.48 37.165C103.102 36.9929 102.682 36.9305 102.27 36.985C102.27 36.985 101.93 36.205 101.49 36.205C100.796 36.3762 100.125 36.6279 99.4901 36.955C100.02 36.4112 100.692 36.0267 101.43 35.845H101.44ZM92.6901 17.575L94.2201 19.695L94.9201 22.695L92.7801 24.645L88.3101 23.035L91.3701 22.495L87.5001 21.495L90.7601 21.035L86.1801 19.585L91.1801 20.005L93.3501 19.675L92.3501 17.625L92.6901 17.575ZM76.3001 13.455C77.0995 13.4171 77.8968 13.5643 78.6301 13.885C77.8083 13.3102 76.8747 12.9149 75.8901 12.725C76.4353 12.6365 76.9888 12.6096 77.5401 12.645C78.081 12.7294 78.5911 12.9512 79.0218 13.2891C79.4525 13.627 79.7893 14.0697 80.0001 14.575C80.3477 15.3164 80.4118 16.1595 80.1801 16.945C80.1801 17.035 79.8201 16.715 79.8201 16.715L78.2601 16.155L79.2601 17.385C78.6945 17.1339 78.0945 16.9687 77.4801 16.895C76.5499 16.7495 75.6285 16.5525 74.7201 16.305L75.2501 17.105C74.5481 16.6462 73.7578 16.3396 72.9301 16.205C72.3005 16.0422 71.6484 15.9847 71.0001 16.035H70.8301H71.0001C71.6701 15.905 74.1401 15.435 75.2501 15.295C76.5401 15.145 76.1801 15.195 76.3601 14.825C76.5401 14.455 74.0401 13.825 73.7601 13.775C74.5931 13.579 75.4445 13.4718 76.3001 13.455ZM57.8601 50.565L72.8601 47.035L70.7301 49.035L57.6901 50.605L57.8601 50.565ZM73.8601 47.415C73.9101 47.275 74.9601 45.635 74.9601 45.635L76.1901 44.115C76.1901 44.115 75.6201 45.535 75.4601 45.765L72.7901 49.665C72.3433 50.5538 71.8072 51.3948 71.1901 52.175C70.3071 53.4122 69.499 54.7012 68.7701 56.035C68.2551 56.6369 67.8306 57.3106 67.5101 58.035C67.1901 58.915 67.2201 59.385 67.3201 59.465C67.4915 59.7469 67.6419 60.041 67.7701 60.345C67.7701 60.345 66.3401 59.865 66.3501 59.535C66.4014 59.0842 66.5443 58.6486 66.7701 58.255C67.1553 57.5116 67.6324 56.8195 68.1901 56.195C68.7601 55.765 71.3801 50.785 71.8701 50.195C72.5867 49.303 73.2576 48.3751 73.8801 47.415H73.8601ZM93.8601 57.965C92.8601 57.685 92.8601 57.965 91.8601 57.605C90.8601 57.245 89.9301 56.695 89.0101 56.465C88.1399 56.3598 87.2602 56.3598 86.3901 56.465C85.1365 56.3231 83.867 56.4562 82.6701 56.855C81.5851 57.2956 80.541 57.831 79.5501 58.455L79.1701 57.665C80.407 56.8919 81.6856 56.1875 83.0001 55.555C83.7001 55.335 90.0001 55.465 90.0001 55.465C90.0001 55.465 96.0801 57.725 96.1401 57.785L97.0501 58.715L96.8801 59.415C95.9286 58.8563 94.9357 58.3716 93.9101 57.965H93.8601ZM127.5 59.445C125.86 58.535 123.11 57.665 121.66 58.165H121.57C122.981 57.3756 124.635 57.1403 126.21 57.505C126.889 57.647 127.52 57.9593 128.045 58.4123C128.57 58.8654 128.971 59.4444 129.21 60.095C130.066 62.2277 130.161 64.5902 129.48 66.785C129.34 64.745 128.82 60.145 127.55 59.445H127.5ZM118.37 32.035L116.37 32.195L106 36.565L105 37.375L104.32 37.165L103.72 36.725L109 34.505L116.63 31.775L118.37 32.035ZM105.62 30.865C105.81 31.145 106.45 31.865 108.62 34.185L107.16 34.705C106.008 34.1789 104.943 33.481 104 32.635C103.429 31.6154 102.924 30.5599 102.49 29.475C101.938 28.9296 101.328 28.4467 100.67 28.035L101.42 30.745L99.2901 26.745L98.4401 26.425H99.4401C101.72 28.035 105.32 30.595 105.62 30.875V30.865ZM97.6201 11.235L97.1301 10.885C97.1301 10.885 95.6901 11.885 95.1301 11.625C94.441 11.2432 93.8571 10.697 93.4301 10.035C93.4301 9.85498 94.2101 8.03498 95.2901 8.24498C96.3701 8.45498 97.4901 7.75498 98.4701 9.09499H98.3101L97.6201 11.235ZM100 8.55499C99.5058 8.10121 98.919 7.76003 98.2801 7.55498C98.818 7.45486 99.3631 7.39801 99.9101 7.38498L100.06 8.53498H100V8.55499ZM97.0001 2.36498C99.2197 2.74325 101.327 3.6109 103.17 4.90498C100.94 4.80719 98.7057 4.89415 96.4901 5.16498C95.0401 5.22498 91.5501 5.16498 91.5501 5.16498L95.7701 4.57498L92.6501 3.19498C92.6501 3.19498 93.1601 2.42498 93.8201 2.47498C94.4801 2.52498 96.4301 3.81498 97.5901 4.03498C98.4945 4.16305 99.4109 4.18319 100.32 4.09498C99.7717 3.7315 99.2042 3.39769 98.6201 3.09498C97.5034 2.84005 96.3649 2.69271 95.2201 2.65498L96.4401 2.17498L96.9501 2.37498L97.0001 2.36498ZM89.1801 0.944985C90.1373 0.841287 91.1029 0.841287 92.0601 0.944985C93.1057 1.08242 94.1345 1.32704 95.1301 1.67498C94.3779 1.48576 93.5947 1.45511 92.8301 1.58498C92.0201 1.93498 91.5101 2.98498 90.6301 3.09498C89.7501 3.20498 89.1601 1.50498 89.0201 1.09498L89.1801 0.944985ZM86.5901 3.12498L86.6601 3.03498C86.7215 2.96699 86.7974 2.9137 86.8822 2.87908C86.9671 2.84445 87.0586 2.82938 87.1501 2.83498H87.3501L89.0001 1.14498C88.9538 1.81815 89.0214 2.49431 89.2001 3.14498C89.4601 3.78498 89.2001 4.14498 89.0901 4.14498C88.9801 4.14498 87.3601 2.90498 87.3601 2.90498C87.8124 3.82166 88.457 4.63003 89.2501 5.27498C90.4401 6.16498 93.4901 8.18498 93.4901 8.18498L92.6301 9.34499C90.8742 8.24066 89.2029 7.00725 87.6301 5.65498C86.3501 4.33498 86.6301 4.03498 86.2301 4.27498C86.0727 4.36525 85.9047 4.43578 85.7301 4.48498C85.9733 4.00562 86.2613 3.55027 86.5901 3.12498ZM55.4101 51.525L55.4801 51.455C55.6455 51.3117 55.8267 51.1875 56.0201 51.085C59.3301 50.795 71.5201 49.745 71.5301 49.835C71.5401 49.925 70.5301 51.725 70.5301 51.725L62.0001 51.905L64.6201 52.715L59.8701 52.495L62.2701 53.495L58.7501 53.265L60.0701 54.185L53.9001 52.035L52.1801 52.455L55.3101 51.515L55.4101 51.525ZM57.0001 55.665C58.4519 56.2851 59.9376 56.8226 61.4501 57.275L60.0701 58.965L50.2501 56.305L52.8101 52.935C52.8101 52.935 56.3201 54.095 56.4301 54.495C56.5401 54.895 55.9301 55.085 57.0001 55.665ZM64.0001 58.035C64.3479 58.3705 64.7503 58.6444 65.1901 58.845L64.3201 59.845L60.8301 59.355C60.8301 59.355 62.8301 56.975 63.1201 56.775C63.4101 56.575 63.6601 57.635 64.0001 58.035ZM49.6501 56.035L49.2901 55.935C49.2901 55.935 49.3901 54.625 50.1401 54.185C50.6223 53.9125 51.1236 53.6752 51.6401 53.475L49.6501 56.035ZM64.2901 69.535L64.4201 69.465L64.6201 68.995L70.0001 67.235L70.7001 68.695C70.7001 68.695 68.0001 70.505 65.3601 72.035C62.7201 73.565 61.0601 74.175 57.3601 76.105C53.6601 78.035 52.1101 78.965 51.6301 78.545C51.1501 78.125 51.6301 77.725 50.3101 78.255C49.5424 78.5515 48.819 78.9519 48.1601 79.445V78.675C49.5895 77.4241 51.0994 76.2683 52.6801 75.215V75.615L64.2901 69.535ZM62.4801 68.875L62.9201 69.305L62.5201 69.515L62.2101 69.215L62.4801 68.875ZM60.4001 67.465L61.0801 67.835L60.8401 68.245L60.3101 67.955L60.1601 67.865L60.4001 67.465ZM61.2601 69.755L61.5101 70.035L61.0201 70.295L60.9101 70.165L61.2601 69.755ZM60.5801 69.205L60.3201 69.595C59.9545 69.2765 59.5631 68.9889 59.1501 68.735L59.3301 68.455L60.5801 69.205ZM57.7101 66.635L58.5201 66.805L58.4101 67.055C58.1581 66.9632 57.901 66.8865 57.6401 66.825L57.7101 66.635ZM56.8601 67.635L58.3101 68.005L58.2001 68.245C57.7453 68.0483 57.2733 67.8943 56.7901 67.785L56.8601 67.635ZM55.8601 66.495H55.5401H55.8601ZM54.3201 67.495H55.9101V67.605C55.3891 67.5443 54.8642 67.5242 54.3401 67.545L54.3201 67.495ZM53.3201 67.595L52.8001 67.675L53.3201 67.595ZM51.6801 68.035H51.8401H51.6801ZM49.0001 69.035H49.0701H49.0001ZM42.1201 74.245L42.2001 74.325C42.1101 74.445 42.0201 74.555 41.9401 74.675L41.8501 74.585L42.1201 74.245ZM40.0001 77.125L40.1601 77.205C40.0701 77.335 39.9801 77.465 39.9001 77.605L39.7601 77.525L40.0001 77.125ZM50.6601 72.035L51.2701 71.825C51.8606 71.6361 52.4716 71.5186 53.0901 71.475H53.5501C53.7433 71.4648 53.9369 71.4648 54.1301 71.475C54.3501 71.475 54.5601 71.475 54.7701 71.565H54.8501L55.4501 71.725H55.5501C55.8494 71.8448 56.1401 71.9851 56.4201 72.145L56.5001 72.205C56.6047 72.2682 56.7049 72.3383 56.8001 72.415L55.6701 73.035C55.2379 72.9899 54.8022 72.9899 54.3701 73.035C53.683 73.1228 53.0105 73.301 52.3701 73.565C51.7346 73.8102 51.1222 74.1114 50.5401 74.465C50.0541 74.7657 49.5896 75.0998 49.1501 75.465C48.061 75.9848 47.0908 76.7235 46.3001 77.635C45.2067 78.8025 44.465 80.2548 44.1601 81.825C43.817 82.5443 43.523 83.286 43.2801 84.045C42.8575 85.3393 42.6119 86.6848 42.5501 88.045C42.4813 89.4111 42.7099 90.7759 43.2201 92.045C43.7398 93.3353 44.7349 94.3769 46.0001 94.955C44.8021 94.3096 43.889 93.2395 43.4401 91.955C42.9771 90.7066 42.7928 89.3721 42.9001 88.045C43.0336 86.3222 43.4386 84.6313 44.1001 83.035C44.1155 83.6281 44.2235 84.2152 44.4201 84.775C45.0401 86.495 46.9401 86.775 48.1601 86.775C48.2901 87.835 48.8701 90.455 51.2201 90.865C52.4829 91.0497 53.7723 90.8621 54.9301 90.325C53.3183 92.4377 51.2137 94.1235 48.8001 95.235L48.0701 95.505C41.6901 97.065 39.6301 92.605 40.2701 86.855C41.0001 80.675 45.4001 74.035 50.6601 72.035ZM38.1201 80.585H38.2101C38.1401 80.725 38.0701 80.865 38.0101 81.005H37.9401L38.1201 80.585ZM49.1201 98.935L47.4501 99.285C47.6834 99.245 47.9134 99.195 48.1401 99.135C48.4801 99.055 48.8001 98.955 49.1401 98.855L49.1201 98.935ZM51.8201 97.935L50.1401 98.645V98.495C50.715 98.261 51.276 97.9938 51.8201 97.695V97.935ZM49.4901 95.755C49.0022 96.0051 48.4937 96.2125 47.9701 96.375C47.7103 96.4714 47.4426 96.545 47.1701 96.595C46.9031 96.6627 46.6327 96.7161 46.3601 96.755C45.25 96.9313 44.1132 96.8176 43.0601 96.425C42.0227 95.9903 41.1335 95.2644 40.5001 94.335C39.8796 93.4337 39.457 92.4113 39.2601 91.335C39.078 90.2448 39.0376 89.1356 39.1401 88.035C39.2469 86.9505 39.4715 85.8808 39.8101 84.845C39.2703 86.9362 39.1884 89.1193 39.5701 91.245C39.7861 92.2815 40.2077 93.2642 40.8101 94.135C41.4181 94.9911 42.2626 95.6514 43.2401 96.035C44.227 96.4128 45.2947 96.5299 46.3401 96.375C46.6001 96.375 46.8601 96.275 47.1201 96.235C47.3803 96.179 47.6374 96.1089 47.8901 96.025C48.3997 95.8708 48.8976 95.6803 49.3801 95.455C50.3516 94.996 51.2704 94.4327 52.1201 93.775C52.9813 93.1224 53.7874 92.3999 54.5301 91.615C53.1595 93.314 51.4542 94.713 49.5201 95.725L49.4901 95.755ZM54.7101 96.215L53.0801 97.275L53.0001 96.955C53.5558 96.5954 54.0931 96.2083 54.6101 95.795L54.7101 96.215ZM55.7101 95.485L55.5001 95.035C56.0101 94.585 56.5001 94.105 56.9801 93.605L57.2301 94.075L55.7101 95.485ZM58.1201 93.255L57.7401 92.845C58.1901 92.315 58.6301 91.765 59.0401 91.205L59.4801 91.675L58.1201 93.255ZM64.3801 86.465H64.2901C64.2901 86.325 64.3801 86.185 64.4201 86.035H64.5501L64.3801 86.465ZM64.2501 81.465L63.4701 81.625C63.4101 81.955 63.3301 82.285 63.2501 82.625H64.0001L63.4401 84.535H62.7001C62.5901 84.865 62.4601 85.185 62.3301 85.535L63.0101 85.705L62.1501 87.575L61.4701 87.405C61.2601 87.805 61.0401 88.205 60.8101 88.595L61.3901 88.945L60.2301 90.635L59.6501 90.285C61.6932 87.2703 63.0109 83.8237 63.5001 80.215C63.7042 78.6699 63.6806 77.1032 63.4301 75.565L64.2401 75.245V75.415L63.4801 75.905C63.5501 76.265 63.6001 76.635 63.6401 77.015L64.4301 76.685L64.5001 78.455L63.7101 78.785C63.7101 79.095 63.7101 79.415 63.7101 79.725L64.4901 79.565L64.2501 81.465ZM65.4501 83.125H65.1501C65.1501 83.005 65.1501 82.875 65.2101 82.755H65.5501L65.4501 83.125ZM112.72 61.125L113.88 63.275L114.82 63.445L114.9 63.595C114.448 64.9478 114.146 66.3462 114 67.765C113.818 69.5425 113.961 71.3383 114.42 73.065C114.878 74.8241 115.857 76.4034 117.23 77.595C115.936 76.3619 115.032 74.7765 114.63 73.035C114.216 71.3543 114.118 69.6115 114.34 67.895C114.499 66.5832 114.787 65.2903 115.2 64.035L115.55 64.615L116.55 64.765C116.353 65.9987 116.469 67.2621 116.886 68.4396C117.304 69.6171 118.01 70.671 118.94 71.505C119.555 72.1166 120.299 72.5831 121.117 72.8703C121.936 73.1575 122.808 73.2582 123.67 73.165C124.34 73.0766 124.992 72.8808 125.6 72.585C127.147 71.7856 128.45 70.5833 129.37 69.105C130.19 67.7017 130.676 66.1289 130.792 64.5079C130.909 62.8869 130.651 61.2609 130.04 59.755C129.751 58.9764 129.267 58.2846 128.636 57.7455C128.004 57.2065 127.245 56.8379 126.43 56.675C123.2 56.175 121.43 57.185 120.75 57.805L119.89 56.365C121.099 55.1214 122.535 54.1202 124.12 53.415C124.763 53.1389 125.434 52.9311 126.12 52.795C126.826 52.6443 127.551 52.6039 128.27 52.675C129.811 52.8002 131.261 53.4578 132.37 54.535L132.24 54.415L132.38 54.545C133.496 57.0945 133.809 59.9229 133.28 62.655C132.07 70.385 126.28 77.555 120.28 78.655C119.99 78.655 119.72 78.735 119.45 78.765C112.26 78.765 110.35 72.405 111.52 65.285C111.779 63.856 112.177 62.456 112.71 61.105L112.72 61.125ZM109.62 56.715L109.8 56.805C109.7 56.985 109.6 57.165 109.51 57.345L109.36 57.265L109.62 56.715ZM108 60.525H108.07L107.86 61.065L108 60.525ZM120.38 83.625L118.51 83.545C118.77 83.545 119.03 83.545 119.29 83.545C119.66 83.545 120.03 83.545 120.4 83.545L120.38 83.625ZM123.46 83.185L121.53 83.545V83.355C122.182 83.2412 122.824 83.0774 123.45 82.865L123.46 83.185ZM126.79 81.905L124.9 82.735L124.84 82.345C125.483 82.0497 126.107 81.7158 126.71 81.345L126.79 81.905ZM121.05 79.665C120.483 79.8311 119.9 79.9318 119.31 79.965C119.014 80.0001 118.716 80.0001 118.42 79.965C118.116 79.9603 117.812 79.9402 117.51 79.905C116.195 79.7501 114.945 79.246 113.89 78.445C112.722 77.5323 111.795 76.3479 111.19 74.995C110.577 73.6449 110.195 72.2015 110.06 70.725C109.95 69.3241 109.997 67.9154 110.2 66.525C110.399 65.2138 110.735 63.9269 111.2 62.685C110.429 65.2973 110.164 68.0332 110.42 70.745C110.584 72.1531 110.969 73.5266 111.56 74.815C112.126 76.0797 112.995 77.1856 114.09 78.035C115.073 78.8018 116.244 79.2921 117.48 79.455C117.772 79.4936 118.066 79.517 118.36 79.525C118.646 79.5501 118.934 79.5501 119.22 79.525C119.793 79.488 120.361 79.4044 120.92 79.275C122.027 79.0135 123.091 78.596 124.08 78.035C125.094 77.4693 126.046 76.799 126.92 76.035C125.313 77.7357 123.29 78.987 121.05 79.665ZM129.7 80.065L127.91 81.285L127.71 80.735C128.32 80.3201 128.904 79.8693 129.46 79.385L129.7 80.065ZM130.75 79.205L130.36 78.565C130.914 78.0376 131.438 77.4801 131.93 76.895L132.38 77.635L130.75 79.205ZM136.38 76.205L136.44 76.095L136.38 76.205ZM138.3 72.645L138.12 72.545C138.2 72.355 138.26 72.165 138.33 71.965L138.56 72.085L138.3 72.645ZM139.75 68.715L139.34 68.615C139.34 68.425 139.42 68.235 139.46 68.055L139.92 68.165L139.75 68.715ZM140.62 64.595H140V64.115H140.66L140.62 64.595ZM138.13 58.945C138.18 59.415 138.2 59.945 138.22 60.395L139.11 60.235L139.05 62.505L138.15 62.675C138.15 63.075 138.08 63.465 138.03 63.855H138.9L138.47 66.155H137.6C137.51 66.565 137.4 66.955 137.28 67.355L138.1 67.595L137.32 69.835L136.51 69.595C136.35 69.975 136.19 70.345 136.02 70.725L136.75 71.155L135.65 73.265L134.92 72.825C134.66 73.275 134.38 73.705 134.09 74.125L134.71 74.765L133.3 76.625L132.69 75.995C135.285 72.5979 137.024 68.626 137.76 64.415C138.22 61.8913 138.247 59.3077 137.84 56.775L138.67 56.405L139.01 58.555L138.13 58.945ZM140.86 61.815H140.78V60.485L140.11 60.655C140.11 60.535 140.11 60.425 140.11 60.305L140.88 60.115L140.86 61.815ZM138.36 55.165L137.62 55.665C137.465 54.9879 137.271 54.3201 137.04 53.665L137.67 53.235L138.36 55.165ZM136.62 52.595C136.354 51.9817 136.046 51.387 135.7 50.815L136.12 50.405L137.12 52.095L136.62 52.595ZM134.97 47.595L135.3 47.125L136.19 47.965L135.86 48.445L135.22 47.835L134.97 47.595ZM140.31 56.025L140.6 57.545L140.38 57.655L140.12 56.305L139.57 56.585C139.57 56.525 139.57 56.475 139.57 56.415L140.31 56.025ZM138.51 53.035L139.19 52.515L139.71 53.835L139.41 54.075L138.88 52.745L138.51 53.035Z" fill="#1E2021"/>
<path d="M42.0001 158.185C41.0386 158.372 40.0583 158.442 39.0801 158.395C36.0001 158.265 34.0001 157.295 34.0001 156.035C34.0001 154.775 36.1401 153.755 39.4601 153.505C40.3135 153.438 41.1716 153.461 42.0201 153.575L41.6001 154.295C40.8952 154.16 40.1751 154.123 39.4601 154.185C37.1301 154.325 35.8701 155.105 35.8701 156.005C35.8701 156.905 37.3801 157.665 39.4001 157.715C40.1591 157.737 40.918 157.666 41.6601 157.505C41.7701 157.735 41.8701 157.965 42.0001 158.185Z" fill="white"/>
<path d="M44.1401 150.855L45.9901 150.615V153.935C46.3748 153.581 46.8273 153.309 47.3201 153.135C47.9246 152.89 48.561 152.731 49.2101 152.665C50.5701 152.525 52.7501 152.765 52.7501 154.845V158.405H50.9101V155.075C50.9101 154.135 50.3001 153.395 48.5501 153.555C48.0784 153.561 47.6137 153.669 47.1874 153.87C46.7611 154.072 46.3834 154.364 46.0801 154.725C45.981 154.861 45.9348 155.028 45.9501 155.195V158.405H44.1001L44.1401 150.855Z" fill="white"/>
<path d="M61.4201 158.205C61.4201 157.915 61.3301 157.635 61.2801 157.345H61.2101C60.3462 158.079 59.2432 158.47 58.1101 158.445C56.0501 158.445 55.0001 157.615 55.0001 156.725C55.0001 155.245 57.1801 154.255 61.1101 153.885V153.745C61.1101 153.175 60.8801 152.195 58.8001 152.445C57.8811 152.552 56.9859 152.808 56.1501 153.205L55.7301 152.495C56.7804 151.979 57.909 151.641 59.0701 151.495C62.1801 151.075 62.9401 152.425 62.9401 153.835V156.435C62.9271 156.993 62.9808 157.55 63.1001 158.095L61.4201 158.205ZM61.1501 154.745C59.1501 154.885 56.8501 155.285 56.8501 156.515C56.8501 157.265 57.6501 157.595 58.5901 157.515C59.0718 157.543 59.5525 157.444 59.9842 157.228C60.4158 157.012 60.7833 156.687 61.0501 156.285C61.1108 156.16 61.1449 156.024 61.1501 155.885V154.745Z" fill="white"/>
<path d="M65.9201 152.735C65.9268 152.084 65.9001 151.433 65.8401 150.785L67.4501 150.555L67.5401 151.735H67.6001C67.9781 151.227 68.4561 150.801 69.0047 150.485C69.5533 150.169 70.1609 149.968 70.7901 149.895C71.3288 149.748 71.9008 149.779 72.4202 149.985C72.9395 150.19 73.3781 150.559 73.6701 151.035C74.0434 150.453 74.5394 149.961 75.1232 149.591C75.7071 149.221 76.3647 148.984 77.0501 148.895C78.3901 148.665 80.3901 149.085 80.3901 152.105V157.205L78.5801 157.315V152.515C78.5801 150.885 77.8701 150.005 76.3801 150.225C75.9075 150.299 75.4605 150.488 75.0785 150.776C74.6966 151.064 74.3914 151.441 74.1901 151.875C74.0997 152.115 74.0523 152.369 74.0501 152.625V157.625L72.2401 157.725V153.035C72.2799 152.757 72.2501 152.474 72.1532 152.211C72.0563 151.948 71.8955 151.713 71.6852 151.527C71.4748 151.342 71.2217 151.212 70.9484 151.148C70.6752 151.085 70.3905 151.091 70.1201 151.165C69.6313 151.232 69.1666 151.419 68.7672 151.708C68.3677 151.998 68.0458 152.381 67.8301 152.825C67.7341 153.035 67.6862 153.264 67.6901 153.495V157.985L65.8801 158.065L65.9201 152.735Z" fill="white"/>
<path d="M83.43 151.035C83.43 149.885 83.43 148.965 83.35 148.125L85.01 147.855C85.01 148.365 85.01 148.855 85.09 149.395C85.4828 148.758 86.0105 148.214 86.6359 147.803C87.2614 147.392 87.9694 147.123 88.71 147.015C91.16 146.575 93.01 148.275 93.01 151.295C93.01 154.875 90.78 156.775 88.39 156.925C87.8078 157.001 87.2157 156.93 86.6686 156.716C86.1215 156.503 85.637 156.155 85.26 155.705V160.705L83.43 160.765V151.035ZM85.26 153.225C85.2651 153.45 85.2919 153.675 85.34 153.895C85.5337 154.458 85.9167 154.936 86.4237 155.248C86.9308 155.56 87.5303 155.686 88.12 155.605C90.07 155.455 91.2 153.835 91.2 151.605C91.2 149.605 90.13 148.155 88.2 148.465C87.5486 148.581 86.9424 148.877 86.4496 149.318C85.9568 149.76 85.5968 150.33 85.41 150.965C85.3313 151.187 85.2875 151.42 85.28 151.655L85.26 153.225Z" fill="white"/>
<path d="M97.4401 142.805C97.4433 143.138 97.3253 143.46 97.1082 143.712C96.891 143.964 96.5896 144.129 96.2601 144.175C96.1236 144.212 95.9802 144.216 95.8419 144.187C95.7036 144.157 95.5745 144.094 95.4656 144.004C95.3567 143.914 95.2711 143.798 95.2162 143.668C95.1613 143.538 95.1386 143.396 95.1501 143.255C95.1575 142.927 95.2765 142.612 95.4874 142.361C95.6983 142.11 95.9885 141.939 96.3101 141.875C96.4487 141.83 96.5964 141.822 96.7394 141.849C96.8825 141.876 97.0164 141.939 97.1289 142.032C97.2413 142.124 97.3288 142.243 97.3831 142.379C97.4375 142.514 97.4571 142.66 97.4401 142.805ZM95.3801 156.155V146.035L97.2301 145.715V156.035L95.3801 156.155Z" fill="white"/>
<path d="M109.49 149.315C109.49 153.585 106.89 155.595 104.43 155.745C101.68 155.915 99.5601 153.975 99.5601 150.685C99.4826 149.19 99.945 147.718 100.863 146.536C101.781 145.353 103.093 144.54 104.56 144.245C107.52 143.725 109.49 145.785 109.49 149.315ZM101.43 150.395C101.43 152.725 102.71 154.395 104.52 154.245C106.33 154.095 107.6 152.165 107.6 149.605C107.6 147.685 106.74 145.395 104.6 145.745C102.46 146.095 101.43 148.365 101.43 150.395Z" fill="white"/>
<path d="M111.83 146.465C111.83 145.255 111.83 144.265 111.74 143.315L113.38 143.045C113.38 143.695 113.45 144.345 113.48 144.985C113.765 144.28 114.222 143.658 114.809 143.174C115.396 142.69 116.094 142.361 116.84 142.215C118.24 141.985 120.43 142.675 120.43 146.985V154.475L118.58 154.575V147.455C118.58 145.455 117.97 143.885 116.23 144.145C115.614 144.29 115.052 144.61 114.612 145.065C114.173 145.521 113.873 146.094 113.75 146.715C113.659 147.04 113.615 147.377 113.62 147.715V154.855L111.78 154.975L111.83 146.465Z" fill="white"/>
<path d="M123.23 151.945C123.932 152.467 124.785 152.744 125.66 152.735C125.932 152.744 126.203 152.696 126.455 152.594C126.707 152.491 126.935 152.337 127.124 152.141C127.312 151.945 127.457 151.711 127.55 151.455C127.642 151.199 127.68 150.926 127.66 150.655C127.66 149.515 127.13 148.915 125.77 148.395C123.94 147.715 123.08 146.545 123.08 145.015C123.043 143.999 123.38 143.004 124.027 142.219C124.673 141.434 125.585 140.913 126.59 140.755C127.451 140.612 128.334 140.783 129.08 141.235C128.93 141.845 128.78 142.455 128.62 143.055C128.014 142.632 127.272 142.454 126.54 142.555C126.056 142.61 125.611 142.848 125.295 143.219C124.979 143.591 124.817 144.068 124.84 144.555C124.84 145.625 125.45 146.035 126.78 146.555C127.59 146.787 128.297 147.289 128.781 147.979C129.265 148.669 129.498 149.504 129.44 150.345C129.489 150.873 129.427 151.406 129.258 151.908C129.089 152.411 128.817 152.873 128.459 153.265C128.101 153.656 127.666 153.969 127.181 154.182C126.695 154.396 126.17 154.506 125.64 154.505C124.636 154.567 123.637 154.308 122.79 153.765C122.92 153.145 123.07 152.555 123.23 151.945Z" fill="white"/>
<path d="M131.8 134.035L133.64 133.715V142.325H133.69C133.971 141.586 134.424 140.925 135.01 140.395C135.525 139.888 136.186 139.556 136.9 139.445C138.26 139.275 140.45 140.225 140.45 145.235V153.835H138.6V145.635C138.6 143.325 137.99 141.435 136.25 141.635C135.05 141.765 134.11 143.015 133.77 144.415C133.665 144.809 133.621 145.217 133.64 145.625V153.955L131.8 154.005V134.035Z" fill="white"/>
<path d="M145.51 134.635C145.51 135.565 145.07 136.355 144.33 136.435C143.59 136.515 143.22 135.825 143.22 134.915C143.22 134.005 143.7 133.175 144.37 133.085C145.04 132.995 145.51 133.675 145.51 134.635ZM143.45 153.785V139.035L145.3 138.865V153.795L143.45 153.785Z" fill="white"/>
<path d="M148.36 143.565C148.36 141.615 148.36 140.045 148.28 138.565L149.94 138.435C149.94 139.315 149.99 140.195 150.02 141.065C150.78 139.145 152.02 137.935 153.64 137.825C156.09 137.645 157.94 140.825 157.94 145.825C157.94 151.655 155.71 154.395 153.32 154.295C152.609 154.232 151.932 153.96 151.376 153.513C150.819 153.067 150.406 152.465 150.19 151.785V160.155L148.36 160.045V143.565ZM150.19 147.565C150.195 147.946 150.221 148.327 150.27 148.705C150.61 150.645 151.72 151.995 153.05 152.025C155 152.085 156.13 149.615 156.13 145.935C156.13 142.725 155.06 140.025 153.13 140.135C151.87 140.205 150.69 141.655 150.34 143.765C150.261 144.147 150.217 144.535 150.21 144.925L150.19 147.565Z" fill="white"/>
</svg>
