<svg width="33" height="35" viewBox="0 0 33 35" fill="none" xmlns="http://www.w3.org/2000/svg">
<path d="M4.7286 17.5062C4.7286 12.5683 7.78519 8.33134 12.1054 6.5865L14.3098 2.15869C6.79505 3.22626 0.99707 9.70128 0.99707 17.5062C0.99707 24.6072 5.7964 30.608 12.3214 32.4364L12.7454 28.6636C8.09001 27.0929 4.7286 22.6848 4.7286 17.5062Z" fill="white"/>
<path d="M32.0029 17.5062C32.0029 10.4066 27.2057 4.407 20.6829 2.57715L20.2493 6.34716C24.9074 7.91638 28.2714 12.3258 28.2714 17.5062C28.2714 22.4154 25.2504 26.6315 20.9701 28.3951L18.7046 32.8516C26.2123 31.778 32.0029 25.3061 32.0029 17.5062Z" fill="white"/>
<path d="M25.3737 15.6275C25.5206 15.3385 25.5067 15.0209 25.337 14.7446C25.1675 14.4681 24.8664 14.3579 24.542 14.3579H17.4496L18.9764 1.08448C19.0284 0.634477 18.7495 0.168269 18.315 0.0392977C18.2253 0.0127105 18.1345 0 18.0448 0C17.7003 0 17.3748 0.196022 17.2144 0.517983L7.62287 19.7909C7.47898 20.0799 7.49484 20.4649 7.66485 20.7396C7.83499 21.0142 8.13491 21.2379 8.45804 21.2379H15.4569L14.0221 34.0117C13.972 34.46 14.2496 34.837 14.6818 34.9662C14.7705 34.9928 14.8604 35 14.9492 35C15.2929 35 15.6185 34.8091 15.7809 34.4895L25.3737 15.6275Z" fill="white"/>
</svg>
